<svg width="779" height="225" viewBox="0 0 779 225" fill="none" xmlns="http://www.w3.org/2000/svg">
<g opacity="0.05">
<path opacity="0.7" d="M253.47 34.5432C243.633 25.4148 194.381 36.9606 184.963 39.0459C178.31 40.4606 172.78 41.8016 171.571 40.9035C167.946 38.2093 152.643 -26.7658 155.251 -42.0885C156.033 -46.0498 157.675 -46.6465 162.253 -45.9699C163.461 -45.0718 171.237 -46.5604 179.618 -47.5999C190.244 -48.7871 218.065 -53.5481 241.564 -56.0701C249.945 -57.1096 255.041 -56.9559 255.041 -56.9559C256.335 -55.0859 259.711 -61.6615 259.882 -59.7177C260.657 -57.3249 330.195 -56.5191 333.045 -56.2177C354.035 -55.1535 382.972 -53.6341 413.288 -49.2729C420.716 -48.2949 414.233 -44.9363 422.699 -45.004C440.753 -45.2131 478.056 -32.0249 492.137 -32.4616C503.453 -32.2279 506.304 -31.9265 515.281 -26.1628C521.323 -21.6724 563.552 -10.2742 573.397 -7.50002C579.183 -5.92531 584.364 -4.79964 586.61 -4.94726C588.252 -5.54393 589.461 -4.64585 589.027 -3.15111L594.38 -0.0816596C595.588 0.816416 623.906 14.5951 623.473 16.0898C622.435 17.1355 623.729 19.0055 625.371 18.4089C628.655 17.2155 668.46 33.1718 666.036 37.7298C659.717 49.3863 620.018 92.5615 608.432 102.12C602.12 107.423 596.682 103.381 590.036 98.4421C583.39 93.5027 574.932 87.2161 564.135 86.4595C554.638 81.2187 525.886 68.9347 482.278 54.6947C473.209 54.3133 478.305 54.4671 461.893 54.0795C461.466 49.2201 449.795 57.8072 447.3 48.6849C445.835 44.8712 431.932 40.8975 427.092 43.6594C426.573 44.1823 386.242 35.103 385.118 35.1769C375.963 33.8236 344.439 28.5643 338.127 33.8666C323.023 22.6407 266.343 33.2084 253.556 35.5151L253.47 34.5432Z" fill="#F5F5F5"/>
<path opacity="0.7" d="M528.624 16.4589C538.895 24.0925 634.783 22.6778 648.509 31.0619C653.427 35.6261 623.46 106.02 619.998 111.624C616.885 114.761 616.366 115.284 612.741 112.59C605.491 107.201 558.585 106.863 548.996 107.005C526.968 106.986 529.818 107.287 520.834 107.878C519.54 106.008 516.164 112.584 515.389 110.191C513.754 104.433 445.417 110.88 439.283 111.772C400.665 115.776 361.18 122.77 355.046 123.662C347.788 124.628 352.458 119.922 344.248 122.905C326.102 128.497 282.906 131.824 269.337 138.093C258.447 142.718 255.682 143.389 244.366 143.155C232.446 142.472 172.134 156.7 167.031 162.9C165.474 164.469 164.351 164.543 164.18 162.599C164.18 162.599 120.722 169.365 120.032 167.944C118.824 167.046 117.615 166.148 116.578 167.194C113.464 170.331 68.8755 183.525 66.807 179.262C61.2059 166.923 53.579 112.196 55.7541 98.368C56.7208 83.642 90.9177 93.6131 113.479 80.4003C252.327 53.6796 216.986 62.8449 250.863 49.8659C255.178 53.981 263.053 40.7559 271.597 48.0144C275.222 50.7086 295.352 48.4081 298.38 44.2991C303.569 39.0706 405.506 35.792 414.76 25.4088C424.605 28.183 448.708 26.1101 472.727 23.0652C496.745 20.0204 521.282 16.4527 530.266 15.8622L528.624 16.4589Z" fill="#F5F5F5"/>
<path opacity="0.7" d="M209.934 188.427C197.416 180.941 135.029 197.261 120.081 200.687C111.267 203.221 104.614 204.636 102.886 204.261C99.9508 202.987 94.4421 185.266 89.9711 166.498C85.5002 147.731 83.1901 127.844 83.8014 121.939C84.5833 117.978 86.7441 116.858 92.4448 117.461C94.172 117.836 102.467 115.825 113.613 114.115C129.165 111.138 172.368 101.456 205.285 96.8485C207.702 98.6446 210.474 91.62 211.249 94.0128C212.457 94.9108 223.169 94.6956 240.619 94.0374C282.777 91.7553 306.02 86.3177 403.024 91.1834C412.094 91.5647 404.488 94.9971 415.2 94.7818C438.266 93.7546 486.025 103.812 502.956 103.676C528.353 103.474 518.416 106.082 550.715 113.734C557.624 115.235 616.955 128.441 623.608 127.027C626.373 126.356 627.581 127.254 626.629 129.272C626.629 129.272 633.623 131.744 634.227 132.194C635.436 133.092 673.343 146.729 672.909 148.224C672.476 149.718 673.684 150.616 675.93 150.469C677.572 149.872 691.39 152.874 704.256 157.893C717.036 161.941 729.902 166.96 728.949 168.978C724.962 181.459 690.097 228.226 679.115 238.234C667.095 249.288 648.379 222.659 619.528 222.112C619.528 222.112 618.32 221.214 614.865 220.463C599.753 215.591 606.143 217.615 585.246 211.169C578.856 209.145 571.947 207.644 564.952 205.171C500.703 187.4 508.991 191.743 483.594 191.946C482.819 189.553 478.931 190.298 475.043 191.042C471.154 191.786 466.662 192.081 463.99 187.37C462.006 184.079 442.488 180.474 437.647 183.236C437.128 183.759 429.7 182.781 419.422 181.501C390.834 177.515 402.235 178.721 382.368 177.583C375.544 177.054 368.72 176.525 361.897 175.996C355.073 175.467 326.221 174.92 321.551 179.625C299.879 170.786 234.471 184.86 211.746 189.775L209.934 188.427Z" fill="#F5F5F5"/>
<path opacity="0.7" d="M582.999 134.094C592.922 144.194 673.783 138.88 680.344 142.847C684.659 146.962 670.933 215.8 666.171 225.888C664.785 229.401 662.538 229.548 658.999 227.826C652.353 222.887 580.824 225.144 572.359 225.212C571.584 222.819 567.689 229.917 567.518 227.974C565.627 219.3 434.313 228.908 423.687 230.096C416.948 230.538 422.222 226.282 413.927 228.293C397.337 232.316 359.934 230.864 347.403 236.087C337.551 239.667 335.909 240.263 325.027 238.535C313.021 236.88 261.268 245.658 256.683 251.336C255.126 252.904 254.522 252.455 253.833 251.034C253.833 251.034 216.252 253.993 215.648 253.544C214.959 252.123 213.231 251.748 213.317 252.72C211.76 254.288 173.305 266.59 171.756 261.805C166.155 249.466 158.009 195.261 159.58 180.984C160.625 173.584 167.882 172.619 178.594 172.403C189.306 172.188 201.745 172.348 211.945 166.301C341.973 148.469 296.694 160.242 336.187 146.894C339.378 151.083 347.339 138.83 354.845 147.134C357.951 150.351 375.402 149.693 379.034 146.033C380.591 144.465 403.741 144.409 428.534 143.757C437 143.69 476.478 143.05 481.667 137.821C495.222 144.262 545.504 138.025 581.357 134.691L582.999 134.094Z" fill="#F5F5F5"/>
<path opacity="0.7" d="M231.436 272.544C227.385 264.991 199.912 267.285 190.409 268.398C188.163 268.546 173.129 271 171.317 269.653C168.814 266.885 163.014 200.797 166.227 185.923C167.009 181.962 168.651 181.365 172.191 183.087C174.003 184.434 241.558 181.949 243.89 182.774C244.665 185.166 248.041 178.591 248.211 180.535C248.382 182.478 255.206 183.007 266.088 184.736C291.826 188.42 307.116 188.882 363.682 202.759C368.863 203.885 363.504 207.169 369.724 207.249C383.975 208.756 410.047 222.683 420.845 223.439C429.396 224.344 431.727 225.168 437.25 230.181C441.565 234.296 482.834 254.066 488.968 253.174C490.61 252.578 491.3 253.998 490.781 254.521L494.406 257.216C495.614 258.114 514.344 272.034 512.787 273.602C511.749 274.648 512.439 276.069 513.562 275.995C517.45 275.251 544.297 291.57 541.184 294.707C531.325 304.641 485.499 342.354 472.62 350.043C466.222 354.374 463.116 351.157 459.32 346.519C455.525 341.881 451.04 335.822 443.093 335.366C437.051 330.876 404.162 310.067 390.607 303.626L375.836 302.642C376.533 297.709 365.985 306.222 366.859 296.878C367.122 293.44 357.107 288.722 353.908 290.887C352.87 291.933 337.588 285.117 335.861 284.742C328.262 281.82 314.878 277.324 305.118 275.521C298.814 274.47 294.321 274.765 292.246 276.856C282.842 266.233 246.47 270.09 231.955 272.021L231.436 272.544Z" fill="#F5F5F5"/>
</g>
</svg>
