<svg width="680" height="724" viewBox="0 0 680 724" fill="none" xmlns="http://www.w3.org/2000/svg">
<path opacity="0.7" d="M211.42 259.738C199.368 250.877 162.242 264.847 155.093 267.394C150.019 269.133 145.868 270.747 144.478 269.886C140.309 267.303 100.972 201.778 96.9732 186.047C96.0307 181.975 97.1825 181.294 101.343 181.778C102.732 182.639 108.73 180.774 115.422 179.34C123.961 177.654 145.646 171.557 164.571 167.935C171.263 166.501 175.652 166.429 175.652 166.429C177.508 168.277 177.708 161.425 178.641 163.398C180.269 165.802 239.623 163.51 242.165 163.689C260.414 163.834 285.593 164.087 313.095 167.174C319.797 167.838 315.656 171.551 322.815 171.103C338.056 170.081 375.068 181.85 386.844 180.775C396.544 180.506 399.086 180.686 409.044 186.157C415.993 190.462 456.461 200.187 465.943 202.573C471.493 203.919 476.348 204.834 478.194 204.583C479.346 203.901 480.736 204.762 480.974 206.305L486.762 209.193C488.152 210.054 517.777 222.827 518.015 224.37C517.558 225.482 519.415 227.329 520.567 226.648C522.87 225.285 563.129 239.762 562.92 244.515C562.282 256.677 546.091 302.45 540.132 312.709C536.924 318.395 530.67 314.52 523.025 309.785C515.381 305.049 505.652 299.021 496.18 298.734C485.994 293.818 456.606 282.588 413.816 270.03C405.962 270.047 410.35 269.976 396.261 270.315C393.929 265.383 387.504 274.655 381.687 265.472C378.897 261.651 365.484 258.224 362.495 261.255C362.267 261.811 324.35 254.365 323.427 254.49C315.107 253.521 286.215 249.573 283.007 255.259C265.633 244.496 221.805 257.802 211.886 260.725L211.42 259.738Z" fill="#FFA829"/>
<path opacity="0.7" d="M435.656 231.282C447.593 238.704 529.256 232.889 544.464 240.929C550.552 245.422 553.69 319.521 553.017 325.468C551.632 328.851 551.401 329.415 547.188 326.796C538.762 321.557 498.392 323.337 490.226 323.918C471.325 324.899 473.893 325.081 466.429 326.099C464.554 324.226 464.352 331.174 462.707 328.736C458.946 322.861 402.975 332.625 398.079 333.825C366.597 339.716 335.596 348.735 330.7 349.935C324.871 351.262 326.948 346.188 321.129 349.643C307.855 356.245 272.17 361.644 263.1 368.737C255.655 374.011 253.558 374.829 243.757 375.102C233.253 374.937 187.353 392.377 185.516 399.015C184.823 400.707 183.89 400.834 182.948 398.833C182.948 398.833 148.446 407.798 147.272 406.361C145.868 405.488 144.463 404.615 144.002 405.742C142.617 409.125 109.779 424.783 106.258 420.472C96.3985 407.976 67.4348 351.773 63.6349 337.386C58.4308 322.125 91.8465 330.876 105.784 316.199C213.926 282.285 187.369 293.36 211.108 278.411C216.494 282.467 217.831 268.444 228.133 275.557C232.346 278.176 248.669 274.885 249.583 270.502C251.891 264.863 337.978 256.848 341.662 245.699C351.242 248.119 371.067 244.882 390.419 240.646C409.772 236.409 429.356 231.609 436.82 230.591L435.656 231.282Z" fill="#FFA829"/>
<path opacity="0.7" d="M230.424 420.784C216.73 413.69 170.276 433.184 158.949 437.36C152.479 440.348 147.392 442.094 145.77 441.788C142.754 440.617 130.864 422.74 119.431 403.746C107.998 384.752 97.9484 364.517 96.0682 358.45C95.1234 354.363 96.507 353.121 101.603 353.481C103.225 353.787 109.466 351.357 118.255 349.108C130.279 345.364 163.106 333.52 189.244 327.329C192.031 329.057 191.534 321.748 193.166 324.161C194.559 325.025 203.587 324.323 218.168 322.866C253.114 318.638 270.683 312.032 355.204 312.65C363.077 312.632 358 316.484 367.028 315.783C386.238 313.696 430.965 321.836 445.318 320.937C466.847 319.588 459.451 322.702 490.046 329.077C496.535 330.302 552.39 341.143 557.476 339.397C559.556 338.587 560.95 339.451 560.959 341.558C560.959 341.558 567.916 343.772 568.613 344.205C570.006 345.069 607.806 357.313 608.044 358.861C608.283 360.41 609.676 361.274 611.528 361.022C612.682 360.338 625.661 362.787 638.649 367.343C651.169 370.908 664.157 375.464 664.167 377.57C665.847 390.514 655.189 439.913 649.912 450.642C644.177 462.488 617.427 436.094 592.654 436.83C592.654 436.83 591.261 435.966 588.016 435.354C573.177 431.05 579.437 432.833 559.034 427.179C552.774 425.396 546.285 424.171 539.328 421.957C477.432 406.668 486.25 410.737 464.721 412.086C463.089 409.674 460.083 410.61 457.077 411.546C454.071 412.482 450.369 412.985 446.179 408.286C443.154 405.01 425.08 402.2 422.083 405.242C421.854 405.8 415.136 405.134 405.87 404.287C379.923 401.495 390.115 402.216 372.747 401.944C366.725 401.71 360.703 401.476 354.682 401.241C348.66 401.007 323.887 401.743 321.826 406.766C299.791 398.699 249.854 416.033 232.514 422.08L230.424 420.784Z" fill="#FFA829"/>
<path opacity="0.7" d="M525.248 346.883C537.864 356.838 604.865 347.704 612.099 351.494C617.471 355.538 633.859 427.066 633.907 437.673C634.157 441.353 632.296 441.607 628.564 439.993C620.86 435.206 560.594 440.768 553.379 441.221C551.739 438.791 551.307 446.279 550.367 444.285C545.205 435.437 436.799 451.276 428.193 452.98C422.61 453.741 425.382 449.118 419.108 451.565C406.56 456.459 373.971 456.657 365.384 462.603C358.42 466.737 357.259 467.426 347.243 466.138C336.297 464.976 295.611 476.36 294.009 482.416C293.318 484.102 292.618 483.667 291.447 482.234C291.447 482.234 260.508 486.983 259.808 486.547C258.638 485.115 257.007 484.807 257.477 485.804C256.786 487.49 228.917 501.902 225.636 497.043C215.802 484.586 186.684 429.121 182.194 414.344C180.064 406.675 185.878 405.351 194.953 404.645C204.029 403.938 214.735 403.54 220.99 396.85C324.935 372.598 291.013 386.774 319.342 371.238C323.784 375.408 325.587 362.426 335.402 370.64C339.374 373.813 354.033 372.346 355.644 368.411C356.335 366.725 376.117 365.621 397.059 363.827C404.274 363.374 437.784 360.929 440.086 355.308C454.314 361.329 494.779 352.629 524.087 347.572L525.248 346.883Z" fill="#FFA829"/>
<path opacity="0.7" d="M279.422 509.836C272.94 502.359 250.62 505.909 243.028 507.461C241.187 507.71 229.458 510.868 227.379 509.583C224.143 506.888 192.521 440.146 189.228 424.923C188.288 420.873 189.436 420.194 193.128 421.783C195.206 423.068 251.367 417.54 253.673 418.271C255.296 420.663 255.495 413.846 256.425 415.809C257.355 417.772 263.343 418.004 273.251 419.272C296.52 421.861 309.645 421.648 363.12 433.197C367.96 434.108 364.753 437.676 370.048 437.48C382.717 438.373 410.409 451.331 419.851 451.617C427.453 452.153 429.759 452.885 436.459 457.721C441.773 461.701 484.687 479.906 489.517 478.728C490.665 478.05 491.823 479.46 491.595 480.013L495.752 482.583C497.138 483.44 518.614 496.718 517.93 498.378C517.475 499.484 518.633 500.894 519.553 500.769C522.543 499.841 551.857 515.19 550.491 518.509C546.164 529.02 522.63 569.294 514.839 577.663C511.176 582.338 507.247 579.215 502.16 574.682C497.074 570.149 490.829 564.206 483.921 564.099C476.993 559.816 440.751 540.184 426.677 534.258L413.78 533.918C412.375 528.886 406.891 537.986 403.854 528.475C402.686 524.977 392.304 520.64 390.473 522.978C390.017 524.084 374.33 517.855 372.717 517.552C365.106 514.928 351.962 510.965 342.975 509.573C337.215 508.787 333.533 509.287 332.622 511.499C320.37 501.148 291.151 506.679 279.65 509.283L279.422 509.836Z" fill="#FFA829"/>
<path opacity="0.7" d="M443.026 486.225C446.968 491.499 456.261 492.269 465.091 492.043C473.921 491.817 482.055 491.161 483.911 493.017C486.693 496.865 503.313 568.893 504.226 579.396C504.453 583.085 504.22 583.651 502.364 581.795C498.652 578.083 474.018 580.617 470.299 581.16C469.373 579.168 470.756 586.411 469.366 583.423C466.357 575.886 424.057 583.127 416.853 583.647C414.297 583.489 415 579.663 412.674 581.067C407.79 584.439 392.459 581.36 389.896 585.457C388.264 589.418 386.871 588.558 382.459 586.543C378.281 583.962 359.685 588.805 360.838 594.487C360.371 595.619 360.371 595.619 359.445 593.627C359.445 593.627 345.503 593.536 345.04 592.54C343.881 591.114 343.417 590.118 343.647 591.68C343.181 592.811 332.712 601.254 330.163 596.84C322.282 584.163 293.554 528.795 287.999 514.716C281.981 499.64 301.244 514.377 305.209 504.757C321.942 502.313 335.42 501.408 344.484 500.616L350.535 494.414C353.78 499.259 351.94 486.764 357.968 495.456C360.054 498.874 367.722 499.35 367.495 495.66C367.961 494.528 377.254 495.298 386.781 495.503C396.307 495.707 406.067 495.345 406.307 490.524C415.357 498.243 435.352 490.004 444.186 487.651L443.026 486.225Z" fill="#FFA829"/>
</svg>
