<svg width="1234" height="581" viewBox="0 0 1234 581" fill="none" xmlns="http://www.w3.org/2000/svg">
<path opacity="0.015" d="M1211.15 866.804C1191.98 849.336 1166.8 840.459 1141.91 834.732C1072.38 818.695 998.555 818.982 927.594 818.982C737.027 818.982 546.747 833.3 356.18 831.581C314.404 831.295 272.915 829.863 231.139 827C222.268 826.427 213.398 825.568 204.528 824.709C200.236 824.422 195.944 823.85 191.938 823.277C189.935 823.277 185.071 822.418 182.209 822.132C168.475 820.127 154.74 817.836 141.006 814.686C129.274 812.109 117.829 808.673 106.67 804.664C127.844 798.364 150.162 794.354 171.909 790.918C175.628 790.345 179.348 789.773 183.354 789.2C184.499 789.2 186.788 788.627 188.791 788.341C196.802 787.195 204.528 786.336 212.54 785.477C231.139 783.473 249.738 781.755 268.623 780.036C310.112 776.6 351.888 774.023 393.664 771.732C559.051 763.141 725.868 764 890.396 745.387C919.01 742.237 947.909 738.8 975.664 731.641C994.549 726.773 1018.3 719.328 1030.89 703.578C1043.48 687.828 1048.34 671.792 1044.34 651.46C1040.9 635.138 1028.31 623.969 1016.01 614.52C997.411 600.201 970.8 594.188 948.482 588.747C870.366 569.847 789.104 562.974 709.272 555.243C613.416 545.793 517.275 538.347 421.419 529.47C408.543 528.325 395.953 527.179 383.077 525.747C431.72 524.316 480.363 523.17 529.006 522.025C698.399 518.302 869.222 519.447 1037.76 500.834C1066.94 497.684 1096.7 493.961 1125.31 487.089C1145.92 481.934 1167.95 474.775 1183.69 459.312C1205.15 438.121 1206.29 400.321 1182.25 380.276C1164.8 365.671 1143.05 358.512 1121.02 353.644C1055.5 339.326 987.11 336.463 920.44 332.74C830.307 327.585 739.888 325.008 649.469 321.858C556.475 318.708 463.481 315.558 370.487 310.117C330.428 307.826 290.369 304.963 250.596 300.667C242.012 299.808 233.714 298.949 225.13 297.804C222.268 297.517 219.407 297.231 216.832 296.658C286.649 291.504 357.039 290.645 427.142 290.072C518.705 289.213 609.983 290.072 701.546 290.072C785.098 290.072 868.364 290.072 951.915 286.349C983.39 284.918 1015.15 283.199 1046.63 279.477C1070.95 276.613 1096.41 274.036 1119.88 266.304C1142.48 258.859 1167.38 245.113 1172.81 219.627C1179.11 189.846 1162.23 163.787 1135.9 150.614C1113.58 139.446 1089.26 133.719 1064.94 129.137C1029.74 122.837 993.977 118.828 958.496 115.678C782.237 99.3553 605.118 99.0689 428.286 90.4781C417.127 89.9054 405.968 89.3326 394.808 88.7599C479.219 85.3236 563.915 85.8963 648.325 87.3281C789.104 89.9054 929.597 95.6326 1070.09 104.223C1072.38 104.223 1074.67 104.223 1077.24 104.796C1100.71 106.228 1120.16 84.1781 1120.16 61.8419C1120.16 39.5057 1100.71 20.3195 1077.24 18.8877C957.638 11.4423 837.747 6.28782 718.142 3.13785C622.287 -0.012129 527.003 -1.15757 431.72 1.41968C358.183 3.42421 281.785 4.85601 209.965 21.7513C188.218 26.9058 161.608 34.924 146.729 52.6784C122.693 81.6009 128.702 117.682 159.891 138.014C177.059 149.182 199.664 153.478 219.407 157.2C251.74 162.928 284.36 166.364 317.266 168.941C491.522 183.832 666.924 183.546 841.753 192.995C877.234 195 913.001 197.291 948.482 200.441C887.821 203.304 826.874 203.591 766.213 203.877C592.529 204.736 418.272 199.582 244.587 209.032C210.823 210.75 177.059 213.9 143.295 218.482C123.552 221.059 102.664 224.209 84.0648 231.941C58.3126 242.536 33.991 260.29 34.2772 291.504C34.2772 318.135 54.0205 339.326 76.6253 350.494C130.705 376.84 195.944 381.135 254.602 387.149C340.157 395.739 425.997 399.462 511.838 402.898C663.204 408.912 815.428 409.485 966.508 420.939C933.603 423.23 900.411 424.948 867.219 426.666C776.514 430.675 685.809 432.68 594.818 434.685C508.118 436.689 421.133 438.121 334.434 441.557C272.628 443.848 209.392 445.853 148.159 457.021C129.56 460.457 109.245 465.898 95.5103 479.643C68.6135 506.848 83.2064 544.934 112.392 562.402C133.566 575.002 159.319 580.442 183.354 585.311C220.552 592.756 258.322 597.624 295.805 602.206C387.083 613.374 478.932 620.533 570.782 628.265C618.567 632.274 666.352 636.569 714.136 641.438C736.455 643.728 758.773 646.019 781.092 648.596C791.107 649.742 801.408 650.887 811.422 652.319C816.287 652.892 821.151 653.465 826.015 654.324C826.015 654.324 826.015 654.324 826.302 654.324C828.591 654.61 830.88 654.896 833.169 655.183C846.903 657.187 860.352 659.192 874.086 661.483C862.069 662.628 850.337 663.774 838.319 664.633C799.691 667.783 761.063 669.787 722.434 671.792C633.732 676.087 545.316 678.951 456.614 682.96C374.207 686.683 291.8 690.692 209.679 699.855C154.168 706.155 88.3569 711.023 38.8553 739.946C17.3951 752.546 -2.34824 776.027 0.226979 802.373C3.08834 832.727 21.9733 854.777 46.8671 870.527C70.0442 885.131 98.0855 893.149 124.696 898.59C161.035 906.322 198.519 910.331 235.431 912.908C421.991 926.653 610.555 911.763 797.116 906.608C880.667 904.317 964.505 902.313 1047.77 908.04C1055.78 908.613 1063.51 909.185 1071.52 910.044C1075.24 910.331 1078.96 910.904 1082.68 911.19C1084.4 911.19 1087.83 911.763 1090.41 912.049C1101.85 913.767 1113.3 915.772 1124.46 918.635C1126.17 919.208 1127.89 919.494 1129.89 920.067C1126.17 921.213 1122.45 922.358 1119.02 923.503C1106.14 927.226 1093.27 930.09 1080.1 932.667C1072.95 934.099 1065.8 935.244 1058.64 936.39C1054.92 936.962 1051.2 937.535 1047.2 938.108C1046.63 938.108 1046.05 938.108 1045.2 938.108C1044.34 938.108 1043.48 938.108 1042.91 938.394C1005.71 943.262 968.511 945.84 931.027 948.131C751.62 959.012 571.641 955.29 391.947 961.59C319.555 964.167 246.304 967.317 175.056 980.489C130.133 988.794 66.3244 1007.41 65.7521 1063.53C65.1798 1129.11 149.018 1157.17 199.378 1170.92C285.791 1194.4 377.354 1202.71 466.342 1209.29C568.779 1216.74 671.788 1219.03 774.511 1217.6C858.349 1216.45 942.759 1213.59 1026.02 1202.71C1053.21 1199.27 1081.53 1196.12 1107.57 1187.53C1129.89 1180.08 1143.91 1158.03 1137.62 1134.55C1131.61 1112.79 1107 1097.32 1084.68 1104.48C1074.95 1107.63 1064.65 1109.92 1054.64 1111.93C1048.34 1113.07 1042.05 1114.22 1035.75 1115.08C1032.32 1115.65 1028.89 1116.22 1025.45 1116.51C1024.31 1116.51 1023.16 1116.8 1022.02 1117.08C984.249 1121.95 946.479 1124.53 908.709 1126.82C810.85 1132.55 712.419 1133.12 614.275 1130.54C562.77 1129.11 511.552 1126.82 460.047 1122.81C435.726 1121.09 411.404 1118.8 387.083 1116.22C375.924 1115.08 364.764 1113.65 353.605 1112.5C349.885 1111.93 346.165 1111.64 342.446 1111.07C341.015 1111.07 330.428 1109.35 327.853 1109.07C289.51 1103.34 251.168 1096.47 213.971 1085.87C206.531 1083.87 199.378 1081.57 192.224 1079C188.791 1077.85 185.643 1076.71 182.209 1075.28C181.065 1074.99 179.92 1074.42 179.062 1074.13C175.914 1072.7 172.767 1071.27 169.619 1069.55C178.204 1067.26 187.074 1065.25 195.944 1063.53C202.239 1062.39 208.82 1061.24 215.115 1060.38C217.69 1060.1 220.266 1059.53 223.127 1059.24C224.844 1059.24 226.561 1058.67 228.563 1058.67C263.472 1054.37 298.667 1052.08 333.575 1050.08C512.41 1040.34 691.531 1044.35 870.366 1036.9C947.337 1033.75 1024.88 1029.46 1100.71 1015.43C1150.49 1006.26 1210.01 990.798 1230.33 938.967C1240.05 914.34 1229.47 883.413 1210.3 866.231L1211.15 866.804ZM206.531 65.5646C205.386 64.1328 205.673 64.4192 206.531 65.5646V65.5646ZM1124.46 444.134C1125.31 445.28 1125.6 445.566 1124.46 444.134V444.134ZM830.594 654.61C832.024 654.61 832.597 654.61 830.594 654.61V654.61ZM82.0619 814.686C81.4896 815.545 81.4896 815.832 82.0619 814.686V814.686Z" fill="black"/>
</svg>
