<svg width="227" height="240" viewBox="0 0 227 240" fill="none" xmlns="http://www.w3.org/2000/svg">
<path d="M25.5124 158.677C25.5124 158.677 0 161.648 0 186.359C0 211.071 25.1074 216.562 25.1074 216.562L96.56 238.258C96.56 238.258 76.1321 229.346 76.1321 205.894C76.1321 182.443 104.614 177.807 104.614 177.807L25.5124 158.677Z" fill="url(#paint0_linear_76_24124)"/>
<path d="M27.4473 161.603C27.4473 161.603 3.77979 164.348 3.77979 187.259C3.77979 210.171 30.1471 216.157 30.1471 216.157L82.4766 232.767C82.4766 232.767 70.1479 226.375 71.8577 205.939C73.8825 181.768 94.4004 177.852 94.4004 177.852L27.4473 161.648V161.603Z" fill="url(#paint1_linear_76_24124)"/>
<path d="M25.5126 158.676L184.166 154.445L283.291 171.01L104.614 177.851L25.5126 158.676Z" fill="url(#paint2_linear_76_24124)"/>
<path d="M55.2993 160.387L177.282 157.146L253.504 169.885L116.133 175.151L55.2993 160.387Z" fill="url(#paint3_linear_76_24124)"/>
<path d="M36.7166 158.677L113.974 177.402H116.538L38.9663 158.677H36.7166Z" fill="#6277F9"/>
<path d="M35.7266 158.677L112.309 177.402H114.828L37.9763 158.677H35.7266Z" fill="#212BAA"/>
<path d="M27.4473 161.603C27.4473 161.603 3.77979 164.348 3.77979 187.259C3.77979 210.171 30.1471 216.157 30.1471 216.157L82.4766 232.767C82.4766 232.767 70.1479 226.375 71.8577 205.939C73.8825 181.768 94.4004 177.852 94.4004 177.852L27.4473 161.648V161.603Z" fill="url(#paint4_linear_76_24124)"/>
<path d="M25.5126 158.676L184.166 154.445L283.291 171.01L104.614 177.851L25.5126 158.676Z" fill="url(#paint5_linear_76_24124)"/>
<path d="M55.2993 160.387L177.282 157.146L253.504 169.885L116.133 175.151L55.2993 160.387Z" fill="url(#paint6_linear_76_24124)"/>
<path d="M36.7166 158.677L113.974 177.402H116.538L38.9663 158.677H36.7166Z" fill="#6277F9"/>
<path d="M35.7266 158.677L112.309 177.402H114.828L37.9763 158.677H35.7266Z" fill="#212BAA"/>
<path d="M106.099 234.927C98.8997 235.197 92.2404 232.496 87.3359 227.95C82.4314 223.404 79.2367 216.967 78.9668 209.765C78.6968 202.563 81.3965 195.901 85.941 190.995C90.4856 186.089 96.9199 182.893 104.119 182.623L191.995 179.292L279.871 175.961C279.871 175.961 276.496 188.429 277.036 202.248C277.756 221.603 281.851 228.265 281.851 228.265L193.975 231.596L106.099 234.927Z" fill="url(#paint7_linear_76_24124)"/>
<mask id="mask0_76_24124" style="mask-type:luminance" maskUnits="userSpaceOnUse" x="78" y="175" width="204" height="60">
<path d="M106.099 234.927C98.8997 235.197 92.2404 232.496 87.3359 227.95C82.4314 223.404 79.2367 216.967 78.9668 209.765C78.6968 202.563 81.3965 195.901 85.941 190.995C90.4856 186.089 96.9199 182.893 104.119 182.623L191.995 179.292L279.871 175.961C279.871 175.961 276.496 188.429 277.036 202.248C277.756 221.603 281.851 228.265 281.851 228.265L193.975 231.596L106.099 234.927Z" fill="white"/>
</mask>
<g mask="url(#mask0_76_24124)">
<path d="M279.609 178.181L75.9756 186.007L76.0084 186.861L279.642 179.036L279.609 178.181Z" fill="#D6D3D9"/>
<path d="M279.697 180.472L76.063 188.298L76.0958 189.152L279.73 181.327L279.697 180.472Z" fill="#CBC8CE"/>
<path d="M279.785 182.762L76.1514 190.588L76.1842 191.443L279.818 183.617L279.785 182.762Z" fill="#D6D3D9"/>
<path d="M279.827 185.009L76.1929 192.835L76.2257 193.69L279.859 185.864L279.827 185.009Z" fill="#D6D3D9"/>
<path d="M279.959 187.3L76.3257 195.126L76.3585 195.981L279.992 188.155L279.959 187.3Z" fill="#D6D3D9"/>
<path d="M280.047 189.59L76.4136 197.416L76.4464 198.271L280.08 190.445L280.047 189.59Z" fill="#CBC8CE"/>
<path d="M280.136 191.881L76.502 199.707L76.5348 200.562L280.168 192.736L280.136 191.881Z" fill="#D6D3D9"/>
<path d="M280.224 194.171L76.5898 201.997L76.6227 202.852L280.256 195.026L280.224 194.171Z" fill="#CBC8CE"/>
<path d="M280.311 196.462L76.6777 204.288L76.7106 205.143L280.344 197.317L280.311 196.462Z" fill="#D6D3D9"/>
<path d="M280.398 198.752L76.7642 206.578L76.797 207.433L280.431 199.607L280.398 198.752Z" fill="#D6D3D9"/>
<path d="M280.486 201.042L76.8521 208.868L76.8849 209.723L280.519 201.897L280.486 201.042Z" fill="#CBC8CE"/>
<path d="M280.574 203.333L76.9399 211.159L76.9728 212.014L280.606 204.188L280.574 203.333Z" fill="#D6D3D9"/>
<path d="M280.662 205.623L77.0283 213.449L77.0611 214.304L280.695 206.478L280.662 205.623Z" fill="#CBC8CE"/>
<path d="M280.75 207.915L77.1162 215.74L77.149 216.595L280.783 208.769L280.75 207.915Z" fill="#D6D3D9"/>
<path d="M280.838 210.205L77.2046 218.03L77.2374 218.885L280.871 211.059L280.838 210.205Z" fill="#D6D3D9"/>
<path d="M280.924 212.45L77.2905 220.275L77.3233 221.13L280.957 213.304L280.924 212.45Z" fill="#CBC8CE"/>
<path d="M281.012 214.741L77.3784 222.566L77.4112 223.421L281.045 215.595L281.012 214.741Z" fill="#D6D3D9"/>
<path d="M281.101 217.031L77.4668 224.856L77.4996 225.711L281.133 217.885L281.101 217.031Z" fill="#CBC8CE"/>
<path d="M281.188 219.368L77.5547 227.193L77.5875 228.048L281.221 220.222L281.188 219.368Z" fill="#D6D3D9"/>
<path d="M281.276 221.659L77.6426 229.484L77.6754 230.339L281.309 222.513L281.276 221.659Z" fill="#CBC8CE"/>
<path d="M281.364 223.949L77.7305 231.774L77.7633 232.629L281.397 224.803L281.364 223.949Z" fill="#D6D3D9"/>
<path d="M281.451 226.195L77.8169 234.021L77.8497 234.875L281.483 227.049L281.451 226.195Z" fill="#D6D3D9"/>
</g>
<path style="mix-blend-mode:multiply" d="M279.916 175.241L279.151 179.427L104.209 186.089C90.2156 186.629 79.1918 197.927 79.0118 211.566C79.0118 211.971 79.0118 212.421 79.0118 212.826C79.5517 227.005 91.7005 238.078 106.144 237.538L281.086 230.876V232.542L106.234 239.203C97.8648 239.518 90.1256 236.458 84.4112 231.281C79.0118 226.33 75.4122 219.488 74.7822 211.746C74.8272 195.767 87.6959 182.578 104.074 181.948L279.916 175.286V175.241Z" fill="url(#paint8_linear_76_24124)"/>
<path style="mix-blend-mode:multiply" d="M102.23 234.837C102.23 234.837 73.2527 232.902 77.7073 204.319C82.1618 175.736 110.554 181.453 110.554 181.453C110.554 181.453 91.5208 187.53 88.6411 206.03C85.7614 224.53 102.23 234.837 102.23 234.837Z" fill="url(#paint9_radial_76_24124)"/>
<path d="M79.1919 209.991C79.1919 210.531 79.1919 211.116 79.2819 211.656C80.4968 225.475 92.3755 236.053 106.324 235.558L285.181 228.761C285.811 228.761 286.35 229.211 286.395 229.886L286.485 231.822C286.485 232.452 286.036 232.992 285.361 233.037L106.504 239.834C98.135 240.149 90.3958 237.043 84.6814 231.732C79.2819 226.69 75.6823 219.713 75.0523 211.836C75.0523 211.476 75.0073 211.161 75.0073 210.801C74.2424 193.967 87.831 179.608 104.659 178.977L283.111 172.181C283.741 172.181 284.281 172.631 284.326 173.306L284.416 175.242C284.416 175.872 283.966 176.412 283.291 176.457L104.434 183.254C90.1258 183.794 78.877 195.722 79.2819 209.991H79.1919Z" fill="#0740A5"/>
<path d="M79.1467 208.73C79.1467 209.27 79.1467 209.856 79.2367 210.396C80.4516 224.214 92.3304 234.792 106.279 234.297L285.135 227.5C285.765 227.5 286.305 227.95 286.35 228.626L286.44 230.561C286.44 231.191 285.99 231.731 285.315 231.776L106.459 238.573C98.0898 238.888 90.3506 235.782 84.6362 230.471C79.2367 225.43 75.6371 218.453 75.0072 210.576C75.0072 210.216 74.9622 209.901 74.9622 209.54C74.1973 192.706 87.7859 178.347 104.614 177.717L283.066 170.92C283.696 170.92 284.236 171.37 284.281 172.045L284.371 173.981C284.371 174.611 283.921 175.151 283.246 175.196L104.389 181.993C90.0806 182.533 78.8318 194.461 79.2367 208.73H79.1467Z" fill="#5588F9"/>
<path d="M79.1465 209.36C79.1465 209.9 79.1465 210.485 79.2365 211.025C80.4514 224.844 92.3301 235.422 106.279 234.927L285.135 228.13C285.765 228.13 286.305 228.58 286.35 229.255L286.44 231.191C286.44 231.821 285.99 232.361 285.315 232.406L106.459 239.203C98.0895 239.518 90.3503 236.412 84.6359 231.101C79.2365 226.059 75.6369 219.083 75.0069 211.205C75.0069 210.845 74.9619 210.53 74.9619 210.17C74.197 193.336 87.7856 178.977 104.614 178.347L283.065 171.55C283.695 171.55 284.235 172 284.28 172.675L284.37 174.611C284.37 175.241 283.92 175.781 283.245 175.826L104.389 182.623C90.0804 183.163 78.8315 195.091 79.2365 209.36H79.1465Z" fill="#295CED"/>
<path style="mix-blend-mode:multiply" d="M112.084 229.346L108.979 225.925L104.659 229.346C104.659 229.346 106.999 211.656 104.659 206.03C104.299 205.174 101.87 202.969 101.87 202.969H109.294C109.294 202.969 111.724 205.039 112.084 205.85C114.558 211.476 112.084 229.346 112.084 229.346Z" fill="url(#paint10_linear_76_24124)"/>
<path d="M113.299 228.896L110.194 225.475L105.875 228.896C105.875 228.896 108.214 211.206 105.875 205.579C105.515 204.724 103.085 202.519 103.085 202.519H110.509C110.509 202.519 112.939 204.589 113.299 205.399C115.774 211.026 113.299 228.896 113.299 228.896Z" fill="url(#paint11_linear_76_24124)"/>
<path d="M50.1702 135.765L145.11 146.253L144.03 173.891L49.0903 158.271C49.0903 158.271 46.0756 157.821 46.2106 154.175C46.3456 150.529 46.1206 139.816 46.1206 139.816C46.1206 139.816 46.0756 135.585 50.1252 135.765H50.1702Z" fill="url(#paint12_linear_76_24124)"/>
<path d="M49.9902 135.766L283.651 137.161L377.736 148.054L145.11 146.208L49.9902 135.766Z" fill="url(#paint13_linear_76_24124)"/>
<g style="mix-blend-mode:multiply">
<path d="M59.0791 159.937L59.979 136.846L290.4 137.926L353.484 145.263L116.673 143.102L115.683 169.164L59.0791 159.937Z" fill="#52ADC4"/>
</g>
<path d="M71.6777 136.17L77.6171 136.395L174.177 146.523L165.448 146.433L71.6777 136.17Z" fill="#7BCCE4"/>
<g style="mix-blend-mode:multiply">
<path d="M69.563 136.08L75.5024 136.305L172.062 146.433L163.333 146.388L69.563 136.08Z" fill="#52ADC4"/>
</g>
<path d="M374.497 174.791L143.491 173.44C141.646 173.44 140.116 171.91 140.116 170.019L140.251 150.034C140.251 148.144 141.781 146.613 143.626 146.658L374.632 148.009C375.802 148.009 376.792 148.999 376.792 150.214C376.792 150.214 374.632 156.516 374.632 161.062C374.632 167.184 376.657 172.675 376.657 172.675C376.657 173.89 375.667 174.836 374.497 174.836V174.791Z" fill="#CCCCCC"/>
<mask id="mask1_76_24124" style="mask-type:luminance" maskUnits="userSpaceOnUse" x="140" y="146" width="237" height="29">
<path d="M374.497 174.791L143.491 173.44C141.646 173.44 140.116 171.91 140.116 170.019L140.251 150.034C140.251 148.144 141.781 146.613 143.626 146.658L374.632 148.009C375.802 148.009 376.792 148.999 376.792 150.214C376.792 150.214 374.632 156.516 374.632 161.062C374.632 167.184 376.657 172.675 376.657 172.675C376.657 173.89 375.667 174.836 374.497 174.836V174.791Z" fill="white"/>
</mask>
<g mask="url(#mask1_76_24124)">
<path d="M141.774 152.293L141.77 153.148L379.567 154.394L379.572 153.539L141.774 152.293Z" fill="#E1E2E5"/>
<path d="M141.774 153.696L141.77 154.551L379.567 155.796L379.572 154.941L141.774 153.696Z" fill="#E1E2E5"/>
<path d="M141.73 155.099L141.725 155.954L379.522 157.2L379.527 156.344L141.73 155.099Z" fill="#E1E2E5"/>
<path d="M141.73 156.501L141.725 157.356L379.522 158.602L379.527 157.747L141.73 156.501Z" fill="#E1E2E5"/>
<path d="M141.73 157.859L141.725 158.714L379.522 159.959L379.527 159.104L141.73 157.859Z" fill="#E1E2E5"/>
<path d="M141.73 159.262L141.725 160.117L379.522 161.363L379.527 160.508L141.73 159.262Z" fill="#E1E2E5"/>
<path d="M141.729 160.664L141.725 161.52L379.522 162.765L379.526 161.91L141.729 160.664Z" fill="#E1E2E5"/>
<path d="M141.729 162.067L141.725 162.922L379.522 164.167L379.526 163.312L141.729 162.067Z" fill="#E1E2E5"/>
<path d="M141.729 163.424L141.725 164.279L379.522 165.525L379.526 164.67L141.729 163.424Z" fill="#E1E2E5"/>
<path d="M141.729 164.827L141.725 165.683L379.522 166.928L379.526 166.073L141.729 164.827Z" fill="#E1E2E5"/>
<path d="M141.729 166.23L141.725 167.085L379.522 168.331L379.526 167.475L141.729 166.23Z" fill="#E1E2E5"/>
<path d="M141.684 167.588L141.68 168.443L379.477 169.689L379.481 168.834L141.684 167.588Z" fill="#E1E2E5"/>
</g>
<path style="mix-blend-mode:multiply" d="M144.301 171.82L375.307 173.17C375.082 174.116 374.227 174.791 373.192 174.791L143.446 173.44C141.601 173.44 140.116 171.955 140.116 170.11L140.206 153.32C140.206 151.52 141.736 150.034 143.581 150.034L373.327 151.385C374.362 151.385 375.622 152.105 375.847 153.05C375.847 153.185 375.892 153.365 375.892 153.5L375.442 155.481L144.391 154.13L144.301 171.775V171.82Z" fill="url(#paint14_linear_76_24124)"/>
<path style="mix-blend-mode:multiply" d="M149.993 149.126L142.344 149.086L142.226 171.637L149.875 171.677L149.993 149.126Z" fill="url(#paint15_linear_76_24124)"/>
<path d="M144.391 168.759L378.681 170.109C379.221 170.109 379.671 170.559 379.626 171.1V172.18C379.626 172.36 379.626 172.495 379.581 172.675C379.356 173.665 378.501 174.385 377.467 174.385L143.581 173.035C141.691 173.035 140.161 171.505 140.206 169.614L140.341 149.629C140.341 147.738 141.871 146.208 143.761 146.253L377.647 147.603C378.861 147.603 379.806 148.594 379.806 149.809V150.889C379.806 151.429 379.356 151.879 378.816 151.834L144.526 150.484L144.436 168.804L144.391 168.759Z" fill="#3ACDEF"/>
<path d="M144.391 169.614L378.681 170.965C379.221 170.965 379.671 171.415 379.626 171.955V173.035C379.626 173.215 379.626 173.35 379.581 173.53C379.356 174.521 378.501 175.241 377.466 175.241L143.581 173.891C141.691 173.891 140.161 172.36 140.206 170.47L140.341 150.484C140.341 148.594 141.871 147.063 143.761 147.108L377.646 148.459C378.861 148.459 379.806 149.449 379.806 150.664V151.745C379.806 152.285 379.356 152.735 378.816 152.69L144.526 151.339L144.436 169.659L144.391 169.614Z" fill="#087D99"/>
<path d="M144.391 168.264L144.481 151.835C144.481 151.294 144.931 150.889 145.426 150.889L378.771 152.24C379.311 152.24 379.761 151.79 379.761 151.294V150.214C379.761 148.999 378.816 148.009 377.602 148.009L143.716 146.658C141.826 146.658 140.296 148.189 140.296 150.034L140.161 170.019C140.161 171.91 141.691 173.44 143.536 173.44L377.422 174.791C378.636 174.791 379.626 173.845 379.626 172.63V171.55C379.626 171.01 379.221 170.56 378.681 170.56L145.336 169.209C144.796 169.209 144.391 168.759 144.391 168.264Z" fill="url(#paint16_linear_76_24124)"/>
<path style="mix-blend-mode:multiply" d="M169.948 187.214L166.843 183.793L162.524 187.214C162.524 187.214 164.863 169.524 162.524 163.898C162.164 163.042 159.734 160.837 159.734 160.837H167.158C167.158 160.837 169.588 162.907 169.948 163.718C172.423 169.344 169.948 187.214 169.948 187.214Z" fill="url(#paint17_linear_76_24124)"/>
<path d="M171.163 186.764L168.058 183.343L163.738 186.764C163.738 186.764 166.078 169.074 163.738 163.447C163.378 162.592 160.949 160.387 160.949 160.387H168.373C168.373 160.387 170.803 162.457 171.163 163.267C173.637 168.894 171.163 186.764 171.163 186.764Z" fill="url(#paint18_linear_76_24124)"/>
<path d="M139.126 124.962L288.825 119.336L285.451 141.167L135.346 149.494L139.126 124.962Z" fill="url(#paint19_linear_76_24124)"/>
<path d="M15.7036 107.498L139.126 124.963L288.825 119.381L176.112 105.067L15.7036 107.498Z" fill="url(#paint20_linear_76_24124)"/>
<path style="mix-blend-mode:multiply" d="M158.024 148.234L161.309 123.972L42.0259 107.093L143.895 105.562L255.664 120.597L251.614 143.058L158.024 148.234Z" fill="url(#paint21_linear_76_24124)"/>
<path d="M134.042 147.469L137.236 126.583L16.6038 109.523C16.6038 109.523 17.1438 115.51 16.4239 120.281C15.569 125.818 13.4092 130.409 13.4092 130.409L134.042 147.469Z" fill="url(#paint22_linear_76_24124)"/>
<mask id="mask2_76_24124" style="mask-type:luminance" maskUnits="userSpaceOnUse" x="13" y="109" width="125" height="39">
<path d="M134.042 147.469L137.236 126.583L16.6038 109.523C16.6038 109.523 17.1438 115.51 16.4239 120.281C15.569 125.818 13.4092 130.409 13.4092 130.409L134.042 147.469Z" fill="white"/>
</mask>
<g mask="url(#mask2_76_24124)">
<path d="M16.3783 110.739L137.506 127.888L137.551 127.663L16.4233 110.514L16.3783 110.739Z" fill="#CBC8CE"/>
<path d="M16.1987 111.91L137.326 129.059L137.371 128.834L16.2437 111.685L16.1987 111.91Z" fill="#ECE9E9"/>
<path d="M16.0181 113.08L137.146 130.229L137.191 130.004L16.0631 112.854L16.0181 113.08Z" fill="#CBC8CE"/>
<path d="M15.8389 114.249L136.966 131.399L137.011 131.174L15.8839 114.024L15.8389 114.249Z" fill="#D6D3D9"/>
<path d="M15.6582 115.42L136.786 132.57L136.831 132.345L15.7032 115.195L15.6582 115.42Z" fill="#ECE9E9"/>
<path d="M15.4785 116.59L136.606 133.74L136.651 133.515L15.5235 116.365L15.4785 116.59Z" fill="#CBC8CE"/>
<path d="M15.2983 117.761L136.426 134.911L136.471 134.686L15.3433 117.536L15.2983 117.761Z" fill="#ECE9E9"/>
<path d="M15.1182 118.931L136.246 136.081L136.291 135.856L15.1632 118.706L15.1182 118.931Z" fill="#CBC8CE"/>
<path d="M14.9385 120.101L136.066 137.251L136.111 137.026L14.9835 119.876L14.9385 120.101Z" fill="#ECE9E9"/>
<path d="M14.7588 121.272L135.886 138.422L135.931 138.196L14.8038 121.047L14.7588 121.272Z" fill="#ECE9E9"/>
<path d="M14.5786 122.442L135.706 139.591L135.751 139.366L14.6236 122.217L14.5786 122.442Z" fill="#CBC8CE"/>
<path d="M14.3989 123.612L135.526 140.761L135.571 140.536L14.4439 123.387L14.3989 123.612Z" fill="#ECE9E9"/>
<path d="M14.2188 124.783L135.346 141.932L135.391 141.707L14.2637 124.558L14.2188 124.783Z" fill="#CBC8CE"/>
<path d="M14.0386 125.953L135.166 143.102L135.211 142.877L14.0836 125.728L14.0386 125.953Z" fill="#ECE9E9"/>
<path d="M13.8584 127.123L134.986 144.273L135.031 144.048L13.9034 126.898L13.8584 127.123Z" fill="#CBC8CE"/>
<path d="M13.7236 128.293L134.806 145.443L134.851 145.218L13.7236 128.068V128.293Z" fill="#ECE9E9"/>
<path d="M13.5435 129.463L134.626 146.613L134.671 146.388L13.5435 129.238V129.463Z" fill="#CBC8CE"/>
</g>
<path style="mix-blend-mode:multiply" d="M136.786 128.879L137.416 124.738L16.7388 108.354L16.8738 112.585L136.786 128.879Z" fill="url(#paint23_linear_76_24124)"/>
<path d="M134.221 146.298L137.146 127.258C137.236 126.763 136.876 126.268 136.336 126.223L15.4336 109.118C14.8937 109.028 14.5337 108.578 14.6237 108.083C14.7137 107.588 15.2086 107.228 15.7036 107.318L138.496 124.692C139.036 124.782 139.396 125.232 139.306 125.728L135.841 148.459C135.751 148.954 135.256 149.314 134.761 149.224L11.969 131.849C11.429 131.759 11.0691 131.309 11.159 130.814C11.249 130.319 11.744 129.959 12.2389 130.049L133.141 147.153C133.681 147.243 134.176 146.883 134.221 146.388V146.298Z" fill="#FFA85A"/>
<path d="M134.131 146.748L137.056 127.708C137.146 127.213 136.786 126.718 136.246 126.673L15.3435 109.568C14.8036 109.478 14.4436 109.028 14.5336 108.533C14.6236 108.038 15.1185 107.678 15.6135 107.768L138.406 125.142C138.946 125.232 139.306 125.683 139.216 126.178L135.751 148.909C135.661 149.404 135.166 149.764 134.671 149.674L11.8789 132.299C11.3389 132.209 10.979 131.759 11.069 131.264C11.1589 130.769 11.6539 130.409 12.1488 130.499L133.051 147.603C133.591 147.693 134.086 147.333 134.131 146.838V146.748Z" fill="#9E4C02"/>
<path style="mix-blend-mode:multiply" d="M131.072 148.414L135.391 148.999L138.721 126.313L134.446 125.728L131.072 148.414Z" fill="url(#paint24_linear_76_24124)"/>
<path d="M134.176 146.524L137.101 127.483C137.191 126.988 136.831 126.493 136.291 126.448L15.3884 109.344C14.8485 109.254 14.4885 108.803 14.5785 108.308C14.6685 107.813 15.1635 107.453 15.6584 107.543L138.451 124.918C138.991 125.008 139.351 125.458 139.261 125.953L135.796 148.684C135.706 149.179 135.211 149.539 134.716 149.449L11.9238 132.075C11.3839 131.985 11.0239 131.535 11.1139 131.039C11.2039 130.544 11.6988 130.184 12.1938 130.274L133.096 147.379C133.636 147.469 134.131 147.109 134.176 146.614V146.524Z" fill="#F47F0B"/>
<path style="mix-blend-mode:multiply" d="M83.5116 136.216L86.1213 135.225L89.316 137.026C89.316 137.026 88.5511 129.779 90.7109 127.843C91.0258 127.528 93.0506 126.943 93.0506 126.943L87.2462 126.133C87.2462 126.133 85.2215 126.673 84.9065 126.943C82.6567 128.879 83.4666 136.216 83.4666 136.216H83.5116Z" fill="url(#paint25_linear_76_24124)"/>
<path d="M82.6117 135.9L85.2214 134.91L88.4161 136.71C88.4161 136.71 87.6512 129.463 89.811 127.528C90.1259 127.213 92.1507 126.628 92.1507 126.628L86.3463 125.817C86.3463 125.817 84.3215 126.358 84.0066 126.628C81.7568 128.563 82.5667 135.9 82.5667 135.9H82.6117Z" fill="url(#paint26_linear_76_24124)"/>
<path d="M112.578 65.0061C112.578 65.0061 80.2267 64.3309 78.8769 86.7019C77.437 110.513 109.699 112.449 109.699 112.449C109.699 112.449 88.5959 103.536 89.5408 88.0973C90.4857 72.6581 107.674 65.8613 112.533 65.0061H112.578Z" fill="url(#paint27_linear_76_24124)"/>
<path d="M116.673 109.523C109.473 109.163 103.039 106.507 98.4495 102.546C93.86 98.5853 91.1603 93.3188 91.3852 87.6923C91.6102 82.0658 94.7599 77.0694 99.6194 73.6485C104.479 70.1826 111.138 68.2471 118.337 68.6072L206.168 73.1984L317.352 79.23C317.352 79.23 313.122 88.6826 312.717 99.4855C312.087 114.61 315.732 120.146 315.732 120.146L204.549 114.114L116.718 109.523H116.673Z" fill="url(#paint28_linear_76_24124)"/>
<mask id="mask3_76_24124" style="mask-type:luminance" maskUnits="userSpaceOnUse" x="91" y="68" width="227" height="53">
<path d="M116.673 109.523C109.473 109.163 103.039 106.507 98.4495 102.546C93.86 98.5853 91.1603 93.3188 91.3852 87.6923C91.6102 82.0658 94.7599 77.0694 99.6194 73.6485C104.479 70.1826 111.138 68.2471 118.337 68.6072L206.168 73.1984L317.352 79.23C317.352 79.23 313.122 88.6826 312.717 99.4855C312.087 114.61 315.732 120.146 315.732 120.146L204.549 114.114L116.718 109.523H116.673Z" fill="white"/>
</mask>
<g mask="url(#mask3_76_24124)">
<path d="M316.587 81.7063L89.7653 69.6431V68.9679L316.587 81.0312V81.7063Z" fill="#D6D3D9"/>
<path d="M316.497 83.507L89.6754 71.3987L89.7204 70.7686L316.542 82.8318L316.497 83.507Z" fill="#CBC8CE"/>
<path d="M316.407 85.3069L89.6305 73.1986V72.5234L316.452 84.6317L316.407 85.3069Z" fill="#D6D3D9"/>
<path d="M316.362 87.0627L89.5402 74.9994L89.5852 74.3242L316.362 86.4325V87.0627Z" fill="#D6D3D9"/>
<path d="M316.272 88.8634L89.4503 76.8002L89.4953 76.125L316.317 88.1883L316.272 88.8634Z" fill="#D6D3D9"/>
<path d="M316.227 90.6632L89.4054 78.555V77.9248L316.227 89.9881V90.6632Z" fill="#CBC8CE"/>
<path d="M316.137 92.4641L89.3156 80.3558L89.3605 79.6807L316.182 91.7889L316.137 92.4641Z" fill="#D6D3D9"/>
<path d="M316.047 94.2649L89.2706 82.1566V81.4814L316.092 93.5897L316.047 94.2649Z" fill="#CBC8CE"/>
<path d="M316.002 96.0207L89.1803 83.9574L89.2253 83.2822L316.002 95.3905V96.0207Z" fill="#D6D3D9"/>
<path d="M315.912 97.8205L89.0905 85.7122L89.1355 85.082L315.957 97.1453L315.912 97.8205Z" fill="#D6D3D9"/>
<path d="M315.867 99.6213L89.0455 87.5131V86.8379L315.867 98.9462V99.6213Z" fill="#CBC8CE"/>
<path d="M315.777 101.421L88.9557 89.3129L89.0007 88.6377L315.822 100.746L315.777 101.421Z" fill="#D6D3D9"/>
<path d="M315.687 103.177L88.9103 91.1137V90.4385L315.732 102.547L315.687 103.177Z" fill="#CBC8CE"/>
<path d="M315.642 104.978L88.8204 92.9144L88.8654 92.2393L315.642 104.302V104.978Z" fill="#D6D3D9"/>
<path d="M315.552 106.777L88.7306 94.6692L88.7756 94.0391L315.597 106.102L315.552 106.777Z" fill="#D6D3D9"/>
<path d="M315.507 108.578L88.6852 96.4701V95.7949L315.507 107.903V108.578Z" fill="#CBC8CE"/>
<path d="M315.417 110.379L88.5953 98.2709L88.6403 97.5957L315.462 109.704L315.417 110.379Z" fill="#D6D3D9"/>
<path d="M315.327 112.134L88.5504 100.071V99.3955L315.372 111.459L315.327 112.134Z" fill="#CBC8CE"/>
<path d="M315.282 113.935L88.4606 101.826L88.5056 101.196L315.282 113.259V113.935Z" fill="#D6D3D9"/>
<path d="M315.192 115.736L88.3702 103.627L88.4152 102.952L315.237 115.06L315.192 115.736Z" fill="#CBC8CE"/>
<path d="M315.147 117.536L88.3253 105.428V104.753L315.147 116.861V117.536Z" fill="#D6D3D9"/>
<path d="M315.057 119.291L88.2355 107.228L88.2805 106.553L315.102 118.661L315.057 119.291Z" fill="#D6D3D9"/>
</g>
<path style="mix-blend-mode:multiply" d="M317.397 78.69L316.362 81.8858L118.203 71.308C104.209 70.5878 92.4204 78.4649 91.3405 89.0878C91.3405 89.4028 91.2955 89.7179 91.2505 90.078C90.8006 101.151 102.139 110.829 116.583 111.594L314.742 122.172V123.477L116.538 112.899C108.169 112.449 100.655 109.433 95.3451 104.932C90.3056 100.656 87.201 94.9843 87.111 88.9077C88.2808 76.4844 102.004 67.2119 118.338 68.1121L317.397 78.78V78.69Z" fill="url(#paint29_linear_76_24124)"/>
<path style="mix-blend-mode:multiply" d="M112.803 109.163C112.803 109.163 84.0509 105.292 90.4852 83.3708C96.9195 61.4499 124.817 68.2468 124.817 68.2468C124.817 68.2468 105.424 71.3976 101.284 85.5764C97.1445 99.7552 112.803 109.163 112.803 109.163Z" fill="url(#paint30_radial_76_24124)"/>
<path d="M91.5651 87.9174C91.5651 88.3676 91.5651 88.7726 91.5651 89.2227C91.7901 100.071 102.904 109.343 116.898 110.063L318.972 120.866C319.602 120.866 320.097 121.316 320.097 121.812V123.342C320.007 123.837 319.467 124.197 318.837 124.197L116.763 113.394C108.393 112.944 100.879 109.883 95.5697 105.292C90.5302 100.926 87.4256 95.2094 87.3356 88.9977C87.3356 88.7276 87.3356 88.4576 87.3356 88.1875C87.7405 74.999 102.274 64.9612 119.102 65.8165L320.771 76.5744C321.401 76.5744 321.896 77.0245 321.896 77.5196V79.05C321.806 79.5452 321.266 79.9053 320.636 79.9053L118.562 69.1024C104.299 68.3372 92.2401 76.7094 91.6101 87.8724L91.5651 87.9174Z" fill="#056B2E"/>
<path d="M91.6104 86.9272C91.6104 87.3773 91.6104 87.7824 91.6104 88.2325C91.8354 99.0804 102.949 108.353 116.943 109.073L319.017 119.876C319.647 119.876 320.142 120.326 320.142 120.821V122.352C320.052 122.847 319.512 123.207 318.882 123.207L116.808 112.404C108.439 111.954 100.924 108.893 95.615 104.302C90.5755 99.9356 87.4709 94.2191 87.3809 88.0075C87.3809 87.7374 87.3809 87.4673 87.3809 87.1972C87.7858 74.0087 102.319 63.971 119.148 64.8262L320.817 75.5841C321.447 75.5841 321.942 76.0342 321.942 76.5294V78.0598C321.852 78.5549 321.312 78.915 320.682 78.915L118.608 68.1121C104.344 67.3469 92.2854 75.7192 91.6554 86.8821L91.6104 86.9272Z" fill="#2FD375"/>
<path d="M91.6105 87.4223C91.6105 87.8724 91.6105 88.2775 91.6105 88.7276C91.8355 99.5755 102.949 108.848 116.943 109.568L319.017 120.371C319.647 120.371 320.142 120.821 320.142 121.316V122.847C320.052 123.342 319.512 123.702 318.882 123.702L116.808 112.899C108.439 112.449 100.925 109.388 95.6151 104.797C90.5756 100.431 87.471 94.7142 87.381 88.5026C87.381 88.2325 87.381 87.9625 87.381 87.6924C87.7859 74.5038 102.319 64.4661 119.148 65.3213L320.817 76.0792C321.447 76.0792 321.942 76.5294 321.942 77.0245V78.5549C321.852 79.05 321.312 79.4102 320.682 79.4102L118.608 68.6073C104.344 67.842 92.2855 76.2143 91.6555 87.3773L91.6105 87.4223Z" fill="#0EAD56"/>
<path d="M283.741 70.8576L285.946 32.1922L71.4528 20.084C71.4528 20.084 73.3876 30.9319 72.8927 39.7543C72.3077 50.0171 69.248 58.7494 69.248 58.7494L283.741 70.8576Z" fill="url(#paint31_linear_76_24124)"/>
<mask id="mask4_76_24124" style="mask-type:luminance" maskUnits="userSpaceOnUse" x="69" y="20" width="217" height="51">
<path d="M283.741 70.8576L285.946 32.1922L71.4528 20.084C71.4528 20.084 73.3876 30.9319 72.8927 39.7543C72.3077 50.0171 69.248 58.7494 69.248 58.7494L283.741 70.8576Z" fill="white"/>
</mask>
<g mask="url(#mask4_76_24124)">
<path d="M71.2443 21.7781L71.2217 22.1826L286.548 34.2257L286.571 33.8212L71.2443 21.7781Z" fill="#CBC8CE"/>
<path d="M71.1002 23.9246L71.0776 24.3291L286.404 36.3722L286.427 35.9677L71.1002 23.9246Z" fill="#ECE9E9"/>
<path d="M70.9547 26.115L70.9321 26.5195L286.259 38.5626L286.281 38.1581L70.9547 26.115Z" fill="#CBC8CE"/>
<path d="M70.8537 28.2606L70.8311 28.665L286.157 40.7081L286.18 40.3037L70.8537 28.2606Z" fill="#D6D3D9"/>
<path d="M70.7077 30.452L70.6851 30.8564L286.011 42.8995L286.034 42.4951L70.7077 30.452Z" fill="#ECE9E9"/>
<path d="M70.6095 32.5985L70.5869 33.0029L285.913 45.046L285.936 44.6416L70.6095 32.5985Z" fill="#CBC8CE"/>
<path d="M70.464 34.744L70.4414 35.1484L285.768 47.1915L285.79 46.7871L70.464 34.744Z" fill="#ECE9E9"/>
<path d="M70.3629 36.9354L70.3403 37.3398L285.667 49.3829L285.689 48.9785L70.3629 36.9354Z" fill="#CBC8CE"/>
<path d="M70.2194 39.0809L70.1968 39.4854L285.523 51.5284L285.546 51.124L70.2194 39.0809Z" fill="#ECE9E9"/>
<path d="M70.1183 41.2293L70.0957 41.6338L285.422 53.6769L285.445 53.2724L70.1183 41.2293Z" fill="#ECE9E9"/>
<path d="M70.0177 43.4207L69.9951 43.8252L285.322 55.8683L285.344 55.4638L70.0177 43.4207Z" fill="#CBC8CE"/>
<path d="M69.8717 45.6111L69.8491 46.0156L285.176 58.0587L285.198 57.6542L69.8717 45.6111Z" fill="#ECE9E9"/>
<path d="M69.7731 47.7117L69.7505 48.1162L285.077 60.1593L285.099 59.7548L69.7731 47.7117Z" fill="#CBC8CE"/>
<path d="M69.6271 49.9031L69.6045 50.3076L284.931 62.3507L284.954 61.9462L69.6271 49.9031Z" fill="#ECE9E9"/>
<path d="M69.5265 52.0487L69.5039 52.4531L284.83 64.4962L284.853 64.0917L69.5265 52.0487Z" fill="#CBC8CE"/>
<path d="M69.383 54.1951L69.3604 54.5996L284.687 66.6427L284.709 66.2382L69.383 54.1951Z" fill="#ECE9E9"/>
<path d="M69.237 56.3865L69.2144 56.791L284.541 68.8341L284.563 68.4296L69.237 56.3865Z" fill="#CBC8CE"/>
</g>
<path d="M283.876 68.7422L285.856 33.4977C285.901 32.5525 285.181 31.7423 284.236 31.6973L69.3385 19.544C68.3936 19.499 67.6737 18.6888 67.7187 17.7435C67.7637 16.7983 68.5736 16.0781 69.5185 16.1231L287.836 28.4564C288.781 28.5014 289.501 29.3116 289.456 30.2568L287.071 72.2981C287.026 73.2434 286.216 73.9636 285.271 73.9186L66.9537 61.5853C66.0088 61.5403 65.2889 60.7301 65.3339 59.7848C65.3789 58.8396 66.1888 58.1193 67.1337 58.1643L282.031 70.3176C282.976 70.3626 283.786 69.6424 283.831 68.6972L283.876 68.7422Z" fill="#FCD681"/>
<path d="M283.831 69.5977L285.811 34.3533C285.856 33.408 285.136 32.5978 284.191 32.5528L69.2932 20.3995C68.3483 20.3545 67.6284 19.5443 67.6734 18.599C67.7184 17.6538 68.5283 16.9336 69.4732 16.9786L287.791 29.3119C288.735 29.3569 289.455 30.1671 289.41 31.1124L287.026 73.1537C286.981 74.0989 286.171 74.8191 285.226 74.7741L66.9084 62.4408C65.9635 62.3958 65.2436 61.5855 65.2886 60.6403C65.3336 59.695 66.1435 58.9748 67.0884 59.0199L281.986 71.1731C282.931 71.2181 283.741 70.498 283.786 69.5527L283.831 69.5977Z" fill="#AF7902"/>
<path style="mix-blend-mode:multiply" d="M285.541 36.4687L285.946 28.8617L71.5879 17.9688L72.4428 25.6658L285.541 36.4687Z" fill="url(#paint32_linear_76_24124)"/>
<path d="M283.831 69.1924L285.811 33.9479C285.856 33.0027 285.136 32.1925 284.191 32.1475L69.2932 19.9942C68.3483 19.9492 67.6284 19.139 67.6734 18.1937C67.7184 17.2485 68.5283 16.5283 69.4732 16.5733L287.791 28.9066C288.735 28.9516 289.455 29.7618 289.41 30.707L287.026 72.7483C286.981 73.6936 286.171 74.4138 285.226 74.3688L66.9084 62.0355C65.9635 61.9905 65.2436 61.1803 65.2886 60.235C65.3336 59.2898 66.1435 58.5695 67.0884 58.6145L281.986 70.7678C282.931 70.8128 283.741 70.0926 283.786 69.1474L283.831 69.1924Z" fill="#F9C023"/>
<path style="mix-blend-mode:multiply" d="M122.163 62.1709L126.617 59.9203L132.512 62.756C132.512 62.756 129.992 49.6575 133.457 45.7864C133.997 45.2013 137.461 43.7609 137.461 43.7609L127.157 43.1758C127.157 43.1758 123.693 44.4811 123.153 45.0663C119.508 48.9823 122.163 62.2159 122.163 62.2159V62.1709Z" fill="url(#paint33_linear_76_24124)"/>
<path d="M120.453 61.7656L124.907 59.515L130.802 62.3508C130.802 62.3508 128.282 49.2523 131.747 45.3812C132.287 44.7961 135.751 43.3557 135.751 43.3557L125.447 42.7705C125.447 42.7705 121.983 44.0758 121.443 44.661C117.798 48.577 120.453 61.8106 120.453 61.8106V61.7656Z" fill="url(#paint34_linear_76_24124)"/>
<path d="M35.0839 2.05236L34.3296 14.0469L246.199 27.3815L246.953 15.387L35.0839 2.05236Z" fill="url(#paint35_linear_76_24124)"/>
<path d="M34.2257 14.1267L33.7793 21.2246L40.4254 21.6429L40.8718 14.545L34.2257 14.1267Z" fill="url(#paint36_linear_76_24124)"/>
<path d="M40.5963 19.3779L40.4551 21.624L88.8644 24.6708L89.0056 22.4246L40.5963 19.3779Z" fill="url(#paint37_linear_76_24124)"/>
<path d="M35.0904 0.802271L34.1411 15.8965L79.0028 18.72L79.952 3.62578L35.0904 0.802271Z" fill="url(#paint38_linear_76_24124)"/>
<path d="M196.045 13.738C196.135 12.6127 197.08 11.8025 198.16 11.8475L242.57 14.5932C243.695 14.6832 244.505 15.6285 244.46 16.7088C244.37 17.8341 243.425 18.6443 242.345 18.5993L197.935 15.8535C196.81 15.7635 196 14.8183 196.045 13.738Z" fill="url(#paint39_linear_76_24124)"/>
<defs>
<linearGradient id="paint0_linear_76_24124" x1="43.2405" y1="225.115" x2="62.2864" y2="167.008" gradientUnits="userSpaceOnUse">
<stop stop-color="#2B4AB5"/>
<stop offset="0.4" stop-color="#4069D2"/>
<stop offset="0.5" stop-color="#4976DE"/>
<stop offset="0.7" stop-color="#5E8CEF"/>
<stop offset="0.9" stop-color="#6B9BFB"/>
<stop offset="1" stop-color="#70A0FF"/>
</linearGradient>
<linearGradient id="paint1_linear_76_24124" x1="38.6962" y1="221.334" x2="56.1211" y2="168.088" gradientUnits="userSpaceOnUse">
<stop stop-color="#233EA9"/>
<stop offset="0.3" stop-color="#345DC4"/>
<stop offset="0.5" stop-color="#3B6ACF"/>
<stop offset="0.7" stop-color="#477BDC"/>
<stop offset="0.8" stop-color="#518AE8"/>
<stop offset="1" stop-color="#558FEC"/>
</linearGradient>
<linearGradient id="paint2_linear_76_24124" x1="25.5126" y1="166.148" x2="283.291" y2="166.148" gradientUnits="userSpaceOnUse">
<stop stop-color="#2B4AB5"/>
<stop offset="0.4" stop-color="#4069D2"/>
<stop offset="0.5" stop-color="#4976DE"/>
<stop offset="0.7" stop-color="#5E8CEF"/>
<stop offset="0.9" stop-color="#6B9BFB"/>
<stop offset="1" stop-color="#70A0FF"/>
</linearGradient>
<linearGradient id="paint3_linear_76_24124" x1="55.2993" y1="166.149" x2="253.504" y2="166.149" gradientUnits="userSpaceOnUse">
<stop stop-color="#132B8A"/>
<stop offset="0.4" stop-color="#3055B6"/>
<stop offset="0.8" stop-color="#4673D6"/>
<stop offset="1" stop-color="#4E7FE3"/>
</linearGradient>
<linearGradient id="paint4_linear_76_24124" x1="38.6962" y1="221.334" x2="56.1211" y2="168.088" gradientUnits="userSpaceOnUse">
<stop stop-color="#233DA9"/>
<stop offset="0.3" stop-color="#2751B9"/>
<stop offset="0.5" stop-color="#2A5EC3"/>
<stop offset="0.8" stop-color="#3A79D3"/>
<stop offset="1" stop-color="#4386DC"/>
</linearGradient>
<linearGradient id="paint5_linear_76_24124" x1="25.5126" y1="166.148" x2="283.291" y2="166.148" gradientUnits="userSpaceOnUse">
<stop stop-color="#2B4AB5"/>
<stop offset="0.4" stop-color="#4069D2"/>
<stop offset="0.5" stop-color="#4976DE"/>
<stop offset="0.7" stop-color="#5E8CEF"/>
<stop offset="0.9" stop-color="#6B9BFB"/>
<stop offset="1" stop-color="#70A0FF"/>
</linearGradient>
<linearGradient id="paint6_linear_76_24124" x1="55.2993" y1="166.149" x2="253.504" y2="166.149" gradientUnits="userSpaceOnUse">
<stop stop-color="#132B8A"/>
<stop offset="0.4" stop-color="#3055B6"/>
<stop offset="0.8" stop-color="#4673D6"/>
<stop offset="1" stop-color="#4E7FE3"/>
</linearGradient>
<linearGradient id="paint7_linear_76_24124" x1="280.681" y1="205.444" x2="77.7519" y2="205.444" gradientUnits="userSpaceOnUse">
<stop stop-color="#EAE7E6"/>
<stop offset="1" stop-color="#C5CACE"/>
</linearGradient>
<linearGradient id="paint8_linear_76_24124" x1="179.572" y1="246.057" x2="177.379" y2="188.979" gradientUnits="userSpaceOnUse">
<stop stop-color="white"/>
<stop offset="0.8" stop-color="white"/>
<stop offset="0.9" stop-color="#A1A1A1"/>
<stop offset="1" stop-color="#4D4D4D"/>
</linearGradient>
<radialGradient id="paint9_radial_76_24124" cx="0" cy="0" r="1" gradientUnits="userSpaceOnUse" gradientTransform="translate(109.292 209.492) rotate(8.90326) scale(27.7174 27.7272)">
<stop stop-color="white"/>
<stop offset="0.7" stop-color="white"/>
<stop offset="0.9" stop-color="#ECECEC"/>
<stop offset="1" stop-color="#B3B3B3"/>
</radialGradient>
<linearGradient id="paint10_linear_76_24124" x1="102.545" y1="229.706" x2="110.694" y2="204.726" gradientUnits="userSpaceOnUse">
<stop stop-color="#E6E6E6"/>
<stop offset="0.2" stop-color="#D9D9D9"/>
<stop offset="0.5" stop-color="#B9B9B9"/>
<stop offset="0.9" stop-color="#868686"/>
<stop offset="1" stop-color="#808080"/>
</linearGradient>
<linearGradient id="paint11_linear_76_24124" x1="103.76" y1="229.301" x2="111.954" y2="204.276" gradientUnits="userSpaceOnUse">
<stop stop-color="#233EA9"/>
<stop offset="0.3" stop-color="#345DC4"/>
<stop offset="0.5" stop-color="#3B6ACF"/>
<stop offset="0.7" stop-color="#477BDC"/>
<stop offset="0.8" stop-color="#518AE8"/>
<stop offset="1" stop-color="#558FEC"/>
</linearGradient>
<linearGradient id="paint12_linear_76_24124" x1="96.9951" y1="140.712" x2="94.3952" y2="166.152" gradientUnits="userSpaceOnUse">
<stop stop-color="#76D1EF"/>
<stop offset="0.5" stop-color="#43A3BE"/>
<stop offset="0.8" stop-color="#23869F"/>
<stop offset="1" stop-color="#177C94"/>
</linearGradient>
<linearGradient id="paint13_linear_76_24124" x1="50.2377" y1="135.311" x2="377.967" y2="147.897" gradientUnits="userSpaceOnUse">
<stop stop-color="#76D1EF"/>
<stop offset="0.5" stop-color="#43A3BE"/>
<stop offset="0.8" stop-color="#23869F"/>
<stop offset="1" stop-color="#177C94"/>
</linearGradient>
<linearGradient id="paint14_linear_76_24124" x1="258.301" y1="174.151" x2="258.424" y2="150.655" gradientUnits="userSpaceOnUse">
<stop stop-color="white"/>
<stop offset="0.7" stop-color="white"/>
<stop offset="0.8" stop-color="#F8F8F8"/>
<stop offset="0.9" stop-color="#4D4D4D"/>
</linearGradient>
<linearGradient id="paint15_linear_76_24124" x1="155.829" y1="160.41" x2="144.49" y2="160.35" gradientUnits="userSpaceOnUse">
<stop stop-color="white"/>
<stop offset="0.5" stop-color="white"/>
<stop offset="0.6" stop-color="#E7E7E7"/>
<stop offset="0.7" stop-color="#C9C9C9"/>
<stop offset="0.8" stop-color="#A1A1A1"/>
<stop offset="0.9" stop-color="#4D4D4D"/>
</linearGradient>
<linearGradient id="paint16_linear_76_24124" x1="259.938" y1="145.802" x2="260.478" y2="173.976" gradientUnits="userSpaceOnUse">
<stop stop-color="#4AB9D0"/>
<stop offset="0.2" stop-color="#3BA7BF"/>
<stop offset="0.7" stop-color="#21889F"/>
<stop offset="1" stop-color="#177C94"/>
</linearGradient>
<linearGradient id="paint17_linear_76_24124" x1="160.409" y1="187.574" x2="168.558" y2="162.594" gradientUnits="userSpaceOnUse">
<stop stop-color="#E6E6E6"/>
<stop offset="0.2" stop-color="#D9D9D9"/>
<stop offset="0.5" stop-color="#B9B9B9"/>
<stop offset="0.9" stop-color="#868686"/>
<stop offset="1" stop-color="#808080"/>
</linearGradient>
<linearGradient id="paint18_linear_76_24124" x1="166.618" y1="159.306" x2="166.618" y2="188.159" gradientUnits="userSpaceOnUse">
<stop stop-color="#76D1EF"/>
<stop offset="0.5" stop-color="#43A3BE"/>
<stop offset="0.8" stop-color="#23869F"/>
<stop offset="1" stop-color="#177C94"/>
</linearGradient>
<linearGradient id="paint19_linear_76_24124" x1="135.346" y1="134.415" x2="288.825" y2="134.415" gradientUnits="userSpaceOnUse">
<stop stop-color="#C55414"/>
<stop offset="1" stop-color="#F47F0B"/>
</linearGradient>
<linearGradient id="paint20_linear_76_24124" x1="286.801" y1="133.245" x2="17.7692" y2="93.663" gradientUnits="userSpaceOnUse">
<stop stop-color="#C55414"/>
<stop offset="1" stop-color="#F47F0B"/>
</linearGradient>
<linearGradient id="paint21_linear_76_24124" x1="42.0259" y1="126.898" x2="255.664" y2="126.898" gradientUnits="userSpaceOnUse">
<stop stop-color="#F9DB9E"/>
<stop offset="0.2" stop-color="#F7D999"/>
<stop offset="0.4" stop-color="#F4D58B"/>
<stop offset="0.7" stop-color="#EFCE74"/>
<stop offset="0.9" stop-color="#E8C455"/>
<stop offset="1" stop-color="#E5BF45"/>
</linearGradient>
<linearGradient id="paint22_linear_76_24124" x1="137.236" y1="128.474" x2="12.4643" y2="128.474" gradientUnits="userSpaceOnUse">
<stop stop-color="#EAE7E6"/>
<stop offset="1" stop-color="#C5CACE"/>
</linearGradient>
<linearGradient id="paint23_linear_76_24124" x1="77.1595" y1="115.688" x2="75.6009" y2="123.466" gradientUnits="userSpaceOnUse">
<stop stop-color="#999999"/>
<stop offset="0.1" stop-color="#9D9D9D"/>
<stop offset="0.3" stop-color="#ABABAB"/>
<stop offset="0.4" stop-color="#C2C2C2"/>
<stop offset="0.6" stop-color="#E1E1E1"/>
<stop offset="0.7" stop-color="white"/>
<stop offset="1" stop-color="white"/>
</linearGradient>
<linearGradient id="paint24_linear_76_24124" x1="133.894" y1="159.979" x2="129.438" y2="159.353" gradientUnits="userSpaceOnUse">
<stop stop-color="#999999"/>
<stop offset="0.4" stop-color="#CBCBCB"/>
<stop offset="0.8" stop-color="white"/>
<stop offset="1" stop-color="white"/>
</linearGradient>
<linearGradient id="paint25_linear_76_24124" x1="89.1343" y1="137.477" x2="87.2816" y2="126.602" gradientUnits="userSpaceOnUse">
<stop stop-color="#E6E6E6"/>
<stop offset="0.2" stop-color="#D9D9D9"/>
<stop offset="0.5" stop-color="#B9B9B9"/>
<stop offset="0.9" stop-color="#868686"/>
<stop offset="1" stop-color="#808080"/>
</linearGradient>
<linearGradient id="paint26_linear_76_24124" x1="87.6187" y1="125.559" x2="85.9348" y2="136.958" gradientUnits="userSpaceOnUse">
<stop stop-color="#C55414"/>
<stop offset="1" stop-color="#F47F0B"/>
</linearGradient>
<linearGradient id="paint27_linear_76_24124" x1="79.2373" y1="86.7025" x2="111.532" y2="88.6205" gradientUnits="userSpaceOnUse">
<stop stop-color="#0EAD56"/>
<stop offset="1" stop-color="#006837"/>
</linearGradient>
<linearGradient id="paint28_linear_76_24124" x1="315.957" y1="94.3541" x2="90.0354" y2="94.3541" gradientUnits="userSpaceOnUse">
<stop stop-color="#EAE7E6"/>
<stop offset="1" stop-color="#C5CACE"/>
</linearGradient>
<linearGradient id="paint29_linear_76_24124" x1="200.246" y1="125.909" x2="202.41" y2="80.0481" gradientUnits="userSpaceOnUse">
<stop stop-color="white"/>
<stop offset="0.8" stop-color="white"/>
<stop offset="0.9" stop-color="#A1A1A1"/>
<stop offset="1" stop-color="#4D4D4D"/>
</linearGradient>
<radialGradient id="paint30_radial_76_24124" cx="0" cy="0" r="1" gradientUnits="userSpaceOnUse" gradientTransform="translate(162.356 107.404) rotate(11.7042) scale(27.7176 22.1816)">
<stop stop-color="white"/>
<stop offset="0.7" stop-color="white"/>
<stop offset="0.9" stop-color="#ECECEC"/>
<stop offset="1" stop-color="#B3B3B3"/>
</radialGradient>
<linearGradient id="paint31_linear_76_24124" x1="285.946" y1="45.4708" x2="67.6732" y2="45.4708" gradientUnits="userSpaceOnUse">
<stop stop-color="#EAE7E6"/>
<stop offset="1" stop-color="#C5CACE"/>
</linearGradient>
<linearGradient id="paint32_linear_76_24124" x1="178.962" y1="24.4288" x2="178.542" y2="31.934" gradientUnits="userSpaceOnUse">
<stop stop-color="#999999"/>
<stop offset="0.1" stop-color="#9D9D9D"/>
<stop offset="0.3" stop-color="#ABABAB"/>
<stop offset="0.4" stop-color="#C2C2C2"/>
<stop offset="0.6" stop-color="#E1E1E1"/>
<stop offset="0.7" stop-color="white"/>
<stop offset="1" stop-color="white"/>
</linearGradient>
<linearGradient id="paint33_linear_76_24124" x1="132.879" y1="63.5979" x2="127.701" y2="44.1044" gradientUnits="userSpaceOnUse">
<stop stop-color="#E6E6E6"/>
<stop offset="0.2" stop-color="#D9D9D9"/>
<stop offset="0.5" stop-color="#B9B9B9"/>
<stop offset="0.9" stop-color="#868686"/>
<stop offset="1" stop-color="#808080"/>
</linearGradient>
<linearGradient id="paint34_linear_76_24124" x1="128.174" y1="42.1459" x2="126.998" y2="63.1787" gradientUnits="userSpaceOnUse">
<stop stop-color="#F9C023"/>
<stop offset="0.3" stop-color="#F4BB21"/>
<stop offset="0.6" stop-color="#E6AE1D"/>
<stop offset="0.9" stop-color="#D09715"/>
<stop offset="1" stop-color="#C58D12"/>
</linearGradient>
<linearGradient id="paint35_linear_76_24124" x1="140.309" y1="20.717" x2="141.067" y2="8.67761" gradientUnits="userSpaceOnUse">
<stop stop-color="#1B1452"/>
<stop offset="0.3" stop-color="#42629D"/>
<stop offset="0.4" stop-color="#344682"/>
<stop offset="0.5" stop-color="#29306C"/>
<stop offset="0.7" stop-color="#21205D"/>
<stop offset="0.8" stop-color="#1C1654"/>
<stop offset="1" stop-color="#1B1452"/>
</linearGradient>
<linearGradient id="paint36_linear_76_24124" x1="37.1473" y1="21.4366" x2="37.5968" y2="14.2938" gradientUnits="userSpaceOnUse">
<stop stop-color="#1B1452"/>
<stop offset="0.3" stop-color="#4C76B0"/>
<stop offset="0.5" stop-color="#3C5692"/>
<stop offset="0.6" stop-color="#2D3976"/>
<stop offset="0.7" stop-color="#232462"/>
<stop offset="0.9" stop-color="#1D1856"/>
<stop offset="1" stop-color="#1B1452"/>
</linearGradient>
<linearGradient id="paint37_linear_76_24124" x1="64.7018" y1="23.1952" x2="64.846" y2="20.9041" gradientUnits="userSpaceOnUse">
<stop stop-color="#1B1452"/>
<stop offset="0.3" stop-color="#4C76B0"/>
<stop offset="0.5" stop-color="#3C5692"/>
<stop offset="0.6" stop-color="#2D3976"/>
<stop offset="0.7" stop-color="#232462"/>
<stop offset="0.9" stop-color="#1D1856"/>
<stop offset="1" stop-color="#1B1452"/>
</linearGradient>
<linearGradient id="paint38_linear_76_24124" x1="56.5972" y1="17.2647" x2="57.5472" y2="2.17056" gradientUnits="userSpaceOnUse">
<stop stop-color="#1B1452"/>
<stop offset="0.3" stop-color="#4C76B0"/>
<stop offset="0.5" stop-color="#3C5692"/>
<stop offset="0.6" stop-color="#2D3976"/>
<stop offset="0.7" stop-color="#232462"/>
<stop offset="0.9" stop-color="#1D1856"/>
<stop offset="1" stop-color="#1B1452"/>
</linearGradient>
<linearGradient id="paint39_linear_76_24124" x1="220.506" y1="17.9121" x2="220.758" y2="13.914" gradientUnits="userSpaceOnUse">
<stop stop-color="#B3B3B3"/>
<stop offset="0.3" stop-color="#E6E6E6"/>
<stop offset="0.4" stop-color="#CECECE"/>
<stop offset="0.5" stop-color="#A9A9A9"/>
<stop offset="0.7" stop-color="#8B8B8B"/>
<stop offset="0.8" stop-color="#767676"/>
<stop offset="0.9" stop-color="#6A6A6A"/>
<stop offset="1" stop-color="#666666"/>
</linearGradient>
</defs>
</svg>
