<?xml version="1.0" encoding="UTF-8" standalone="no"?>
<!-- Generator: Adobe Illustrator 24.3.0, SVG Export Plug-In . SVG Version: 6.00 Build 0)  -->

<svg
   version="1.1"
   id="Layer_1"
   x="0px"
   y="0px"
   viewBox="0 0 1080 1080"
   style="enable-background:new 0 0 1080 1080;"
   xml:space="preserve"
   sodipodi:docname="chaos.svg"
   inkscape:version="1.2.2 (b0a8486541, 2022-12-01)"
   xmlns:inkscape="http://www.inkscape.org/namespaces/inkscape"
   xmlns:sodipodi="http://sodipodi.sourceforge.net/DTD/sodipodi-0.dtd"
   xmlns="http://www.w3.org/2000/svg"
   xmlns:svg="http://www.w3.org/2000/svg"><defs
   id="defs1253" /><sodipodi:namedview
   id="namedview1251"
   pagecolor="#ffffff"
   bordercolor="#000000"
   borderopacity="0.25"
   inkscape:showpageshadow="2"
   inkscape:pageopacity="0.0"
   inkscape:pagecheckerboard="0"
   inkscape:deskcolor="#d1d1d1"
   showgrid="false"
   inkscape:zoom="0.71018519"
   inkscape:cx="539.29596"
   inkscape:cy="541.40808"
   inkscape:window-width="1920"
   inkscape:window-height="953"
   inkscape:window-x="0"
   inkscape:window-y="0"
   inkscape:window-maximized="1"
   inkscape:current-layer="Layer_1" />
<style
   type="text/css"
   id="style1038">
	.st0{fill:#FEF6E5;}
	.st1{fill:#C6710B;}
	.st2{fill:#FDBF0F;}
	.st3{fill:#FBB16B;}
	.st4{fill:#F7AA01;}
	.st5{fill:#5D310A;}
	.st6{fill:#DD680C;}
	.st7{fill:#FED749;}
	.st8{fill:#C14E05;}
	.st9{fill:#00344E;}
	.st10{fill:#090F11;}
	.st11{fill:#004C70;}
	.st12{fill:#00293E;}
	.st13{fill:#014C6F;}
	.st14{fill:#6D3309;}
	.st15{fill:#F16202;}
	.st16{fill:#B46317;}
	.st17{fill:#E4982C;}
	.st18{fill:#79B71B;}
	.st19{fill:#F36B5B;}
	.st20{fill:#482005;}
	.st21{fill:#C53502;}
	.st22{fill:#0195D2;}
	.st23{fill:#F4CA05;}
	.st24{fill:#F7F0E5;}
	.st25{fill:#E17E08;}
	.st26{fill:#4D7B0C;}
	.st27{fill:#4E7D0F;}
	.st28{fill:#F6392C;}
	.st29{fill:#0A0A0A;}
	.st30{fill:#FEFFFF;}
	.st31{fill:#EC3C02;}
	.st32{fill:#A74900;}
	.st33{fill:#FFB600;}
	.st34{fill:#C3CFD9;}
	.st35{fill:#712C00;}
	.st36{fill:#D16C14;}
	.st37{fill:#722C00;}
	.st38{fill:#FF658A;}
	.st39{fill:#C2CFD8;}
	.st40{fill:#E93902;}
	.st41{fill:#C02200;}
	.st42{fill:#C2600C;}
	.st43{fill:#00A4E2;}
	.st44{fill:#C42100;}
	.st45{fill:#D86E00;}
	.st46{fill:#68B02F;}
	.st47{fill:#B7B7B7;}
	.st48{fill:#44880F;}
	.st49{fill:#0B0810;}
	.st50{fill:#8AD648;}
	.st51{fill:#18497B;}
	.st52{fill:#4FBBF1;}
	.st53{fill:#FDD544;}
	.st54{fill:#FB5D1B;}
	.st55{fill:#F29D43;}
	.st56{fill:#E7406D;}
	.st57{fill:#FF92BC;}
	.st58{fill:#0075AD;}
	.st59{fill:#BA2100;}
	.st60{fill:#CECECE;}
	.st61{fill:#E6E6E6;}
	.st62{fill:#CACACA;}
	.st63{fill:#BE6010;}
	.st64{fill:#F9F9F9;}
	.st65{fill:#474747;}
	.st66{fill:#252525;}
	.st67{fill:#0B91CF;}
	.st68{fill:#CBCBCB;}
	.st69{fill:#CFCFCF;}
	.st70{fill:#383838;}
	.st71{fill:#9B9B9B;}
	.st72{fill:#E1E1E1;}
	.st73{fill:#D2D2D2;}
	.st74{fill:#DADADA;}
	.st75{fill:#FEFEFE;}
	.st76{fill:#0B0B0B;}
	.st77{fill:#0C0C0C;}
	.st78{fill:#FBFBFB;}
	.st79{fill:#F44418;}
	.st80{fill:#D7230A;}
	.st81{fill:#F6F6F6;}
	.st82{fill:#FDFBF4;}
	.st83{fill:#010D12;}
	.st84{fill:#010103;}
	.st85{fill:#020411;}
	.st86{fill:#020A0E;}
	.st87{fill:#010202;}
	.st88{fill:#010203;}
	.st89{fill:#010205;}
	.st90{fill:#01070F;}
	.st91{fill:#010204;}
	.st92{fill:#EEEBE2;}
	.st93{fill:#010F16;}
	.st94{fill:#424543;}
	.st95{fill:#5A5F5E;}
	.st96{fill:#444D4D;}
	.st97{fill:#6C6E6C;}
	.st98{fill:#6C7575;}
	.st99{fill:#526063;}
	.st100{fill:#989B98;}
	.st101{fill:#7D7A79;}
	.st102{fill:#767F7D;}
	.st103{fill:#020613;}
	.st104{fill:#C22915;}
	.st105{fill:#961E13;}
	.st106{fill:#8E1D13;}
	.st107{fill:#921D13;}
	.st108{fill:#931D12;}
	.st109{fill:#961D13;}
	.st110{fill:#0E313D;}
	.st111{fill:#795837;}
	.st112{fill:#8F5C35;}
	.st113{fill:#561E1B;}
	.st114{fill:#5D231A;}
	.st115{fill:#855F3B;}
	.st116{fill:#4F1B17;}
	.st117{fill:#113A4B;}
	.st118{fill:#7C5433;}
	.st119{fill:#020320;}
	.st120{fill:#FDFCFC;}
	.st121{fill:#3D4547;}
	.st122{fill:#6D4B2C;}
	.st123{fill:#617977;}
	.st124{fill:#0D3E5A;}
	.st125{fill:#05232E;}
	.st126{fill:#324746;}
	.st127{fill:#293E3E;}
	.st128{fill:#7D4F2A;}
	.st129{fill:#6F5715;}
	.st130{fill:#1A587A;}
	.st131{fill:#42271A;}
	.st132{fill:#221C18;}
	.st133{fill:#031116;}
	.st134{fill:#251D18;}
	.st135{fill:#60351C;}
	.st136{fill:#352319;}
	.st137{fill:#99825A;}
	.st138{fill:#6B4C30;}
	.st139{fill:#211C18;}
	.st140{fill:#1D1A17;}
	.st141{fill:#D78B3A;}
	.st142{fill:#2F3E40;}
	.st143{fill:#162D32;}
	.st144{fill:#DC8E38;}
	.st145{fill:#A91E12;}
	.st146{fill:#DA2D15;}
	.st147{fill:#ED421D;}
	.st148{fill:#06121D;}
	.st149{fill:#631714;}
	.st150{fill:#991F13;}
	.st151{fill:#762218;}
	.st152{fill:#F48943;}
	.st153{fill:#795633;}
	.st154{fill:#745032;}
	.st155{fill:#5E4129;}
	.st156{fill:#F98C47;}
	.st157{fill:#0D3F5D;}
	.st158{fill:#2E7395;}
	.st159{fill:#347DA1;}
	.st160{fill:#A22416;}
	.st161{fill:#FBB306;}
	.st162{fill:#DD7D03;}
	.st163{fill:#DC7D03;}
	.st164{fill:#FDB903;}
	.st165{fill:#FAB303;}
	.st166{fill:#FBB104;}
	.st167{fill:#FCBF04;}
	.st168{fill:#E27D02;}
	.st169{fill:#423818;}
	.st170{fill:#EBD63B;}
	.st171{fill:#F49902;}
	.st172{fill:#F99501;}
	.st173{fill:#E6471B;}
	.st174{fill:#B42E19;}
	.st175{fill:#2C2823;}
	.st176{fill:#F28942;}
	.st177{fill:#FAF9F1;}
	.st178{fill:#F8F8F7;}
	.st179{fill:#0D3D59;}
	.st180{fill:#062530;}
	.st181{fill:#564027;}
	.st182{fill:#FBFBF9;}
	.st183{fill:#2A3A3D;}
	.st184{fill:#3F4C4C;}
	.st185{fill:#90A29D;}
	.st186{fill:#0D3E5B;}
	.st187{fill:#20668B;}
	.st188{fill:#FAF9F2;}
	.st189{fill:#FDFDFC;}
	.st190{fill:#959994;}
	.st191{fill:#201B18;}
	.st192{fill:#7A421F;}
	.st193{fill:#7D441F;}
	.st194{fill:#804520;}
	.st195{fill:#9A5E32;}
	.st196{fill:#77411F;}
	.st197{fill:#F58C45;}
	.st198{fill:#41281A;}
	.st199{fill:#46291A;}
	.st200{fill:#BE722A;}
	.st201{fill:#647372;}
	.st202{fill:#02050C;}
	.st203{fill:#010812;}
	.st204{fill:#02151A;}
	.st205{fill:#FCB303;}
	.st206{fill:#FC723B;}
	.st207{fill:#B8C9C1;}
	.st208{fill:#E6F2E8;}
	.st209{fill:#FEFEFD;}
	.st210{fill:#FEFDFA;}
	.st211{fill:#020203;}
	.st212{fill:#020710;}
	.st213{fill:#020303;}
	.st214{fill:#0A0A09;}
	.st215{fill:#03050B;}
	.st216{fill:#03161A;}
	.st217{fill:#D04722;}
	.st218{fill:#02161B;}
	.st219{fill:#02030D;}
	.st220{fill:#7F5533;}
	.st221{fill:#E3633E;}
	.st222{fill:#F7F7F6;}
	.st223{fill:#00354E;}
	.st224{fill:#FBC002;}
	.st225{fill:#F5F6F5;}
	.st226{fill:#020202;}
	.st227{fill:#101010;}
	.st228{fill:#9C9C9C;}
	.st229{fill:#0077B9;}
	.st230{fill:#973600;}
	.st231{fill:#6A1F00;}
	.st232{fill:#681E00;}
	.st233{fill:#F3F3F3;}
	.st234{fill:#BC5409;}
	.st235{fill:#054D89;}
	.st236{fill:#0075B6;}
	.st237{fill:#0395D5;}
	.st238{fill:#00507D;}
	.st239{fill:#E8E8E8;}
	.st240{fill:#004A7E;}
	.st241{fill:#242424;}
	.st242{fill:#343434;}
	.st243{fill:#878787;}
	.st244{fill:#DFDFDF;}
	.st245{fill:#D9D9D9;}
	.st246{fill:#ADADAD;}
	.st247{fill:#2C2C2C;}
	.st248{fill:#0D0D0D;}
	.st249{fill:#5A5A5A;}
	.st250{fill:#989898;}
	.st251{fill:#949494;}
	.st252{fill:#9A9A9A;}
	.st253{fill:#030303;}
	.st254{fill:#FDFDFD;}
	.st255{fill:#FCFCFC;}
	.st256{fill:#050505;}
	.st257{fill:#060606;}
	.st258{fill:#A4A4A4;}
	.st259{fill:#F5F5F5;}
	.st260{fill:#FC2418;}
	.st261{fill:#272727;}
	.st262{fill:#0B0707;}
	.st263{fill:#FC5F03;}
	.st264{fill:#AA3F00;}
	.st265{fill:#2F444F;}
	.st266{fill:#01A1D4;}
	.st267{fill:#00384A;}
	.st268{fill:#FCFEFE;}
	.st269{fill:#F32400;}
	.st270{fill:#2C262A;}
	.st271{fill:#9FD8DD;}
	.st272{fill:#0A0707;}
	.st273{fill:#002B3C;}
	.st274{fill:#002C3E;}
	.st275{fill:#C21200;}
	.st276{fill:#913200;}
	.st277{fill:#DF1800;}
	.st278{fill:#0081AB;}
	.st279{fill:#641C00;}
	.st280{fill:#006288;}
	.st281{fill:#16110C;}
	.st282{fill:#EEF1F1;}
	.st283{fill:#0B0907;}
	.st284{fill:#FAB370;}
	.st285{fill:#FAB401;}
	.st286{fill:#F7F8F8;}
	.st287{fill:#9F3A00;}
	.st288{fill:#F69600;}
	.st289{fill:#6B2000;}
	.st290{fill:#EA8B45;}
	.st291{fill:#CF6410;}
	.st292{fill:#C9D1D2;}
	.st293{fill:#EDCE99;}
	.st294{fill:#F1D233;}
	.st295{fill:#00384B;}
	.st296{fill:#A1B314;}
	.st297{fill:#003648;}
	.st298{fill:#002F42;}
	.st299{fill:#080809;}
	.st300{fill:#FCB26C;}
	.st301{fill:#0075B5;}
	.st302{fill:#FDB26C;}
	.st303{fill:#00548A;}
	.st304{fill:#FDB06A;}
	.st305{fill:#ED8A45;}
	.st306{fill:#EFCC95;}
	.st307{fill:#003345;}
	.st308{fill:#002D3F;}
	.st309{fill:#1B130D;}
	.st310{fill:#0A0808;}
	.st311{fill:#EC9B4C;}
	.st312{fill:#C8702B;}
	.st313{fill:#F49A58;}
	.st314{fill:#F7E25C;}
	.st315{fill:#FBC626;}
	.st316{fill:#F49901;}
	.st317{fill:#F4CC80;}
	.st318{fill:#002B3D;}
	.st319{fill:#722A01;}
	.st320{fill:#FBB876;}
	.st321{fill:#00374A;}
</style>

<g
   id="g1248">
	<path
   class="st299"
   d="M345.1,207c17.5-36.7,45.8-60.9,82.8-78.2c23.2-10.8,48.1-13.2,71.4-22c51.1-9.5,100.3,0.8,147.5,18.5   c30.7,11.5,59.2,29,76.6,59.3c2.7,4.7,8,8.3,9.3,13.2c12.9,48.7,63.4,64.1,89.3,101.1l0,0c5.2,16.6,15.2,31.9,15,50.1   c2.2,32.2-4.8,63.6-10,95c-1.2,7,0.5,9.7,5.7,14.3c48.7,43.5,101.6,83.8,133.3,142.6c24.6,45.8,27.3,74.9-5.9,117.3   c-17,21.7-42.3,28.5-66.6,35.6c-20.1,5.8-41.3,9-62.5,9.5c-2.9,0.1-6.8,0.2-8.4,2c-16,17.6-35.5,13.1-55,9.5   c-11.6-2.1-23.3-3.6-34.7-6.5c-9-2.3-10.9-1.1-9.7,8.8c6.6,52.3,9.3,104.7,6.7,157.4c-6.6,5-11.4,12.5-20.2,14.4   c-19.2,4.2-38.2,9-57.5,12.5c-24.1,4.4-48.3,7.7-72.5,11.4c-16.9,0.2-33.8,0.4-50.7,0.6c-8.9-0.1-17.7-0.2-26.6-0.2   c-39.9,0-79.5-3.7-118-14.4c-28.1-7.7-39.5-23.8-39.4-52.3c0-8.4,0.2-16.7,0.2-25.1c0.6-5.9,1-11.7,1.7-17.6   c4.3-36.5,11.3-72.8,13-109.6c0.2-0.3,0.4-0.6,0.6-1c-0.2,0.3-0.4,0.6-0.6,1c-21.7,10.8-43.4,21.6-65.1,32.4   c-7.7,2.7-15.7,3.6-23.8,3.4c-3.2-2.3-7.9-4-9.2-7.1c-8.7-20.4-26.6-15.7-42.8-17.2c-35.2-3.2-69.2-10.1-95.9-36.2   c-31.6-30.9-32.6-66.7-19.5-106.1c9.8-29.2,25.3-54.8,45.7-76.9c32.7-35.4,63.9-72.5,103.4-101c16.3-11.8,9.3-28.5,8-43.5   c-4.1-46-0.3-90.6,23.5-131.3c10.9-18.5,25.8-33.9,45.5-43.1C339.3,223.2,344.1,217.1,345.1,207z M366.2,275.1l-0.4,0.4   c1.1-1.1,2.2-2.3,3.3-3.4l-0.3,0.4c1.1-1.1,2.1-2.2,3.2-3.3l-0.2,0.2c1.1-1.1,2.1-2.1,3.2-3.2l-0.2,0.2c1.1-1.1,2.3-2.2,3.4-3.3   c0.8-0.8,1.6-1.7,2.4-2.5c1.6-1.7,3.1-3.3,4.7-5c0,0,0.2,0,0.2,0c4.9-4.1,8.8-8.9,3.5-14.8c-4.6-5.1-10.7-4.4-16.1-0.9   c-4.9,3.2-10.2,6.1-14.2,10.3c-22.7,24.1-41,50.9-48.9,83.7c-1.1,4.9-2.3,9.8-3.4,14.6c-6.1,1.4-8.4-0.4-9-7.2   c-0.6-6.8,5-11.7,3.7-18.2c4.2-2.1,2.2-6.3,3.1-9.5l-0.3,0.4c3.7-4.3,5.4-9.6,6.4-15.1l-0.3,0.4c2.5-1.5,2.8-4,3.1-6.5l-0.3,0.4   c2.4-1.4,3-3.8,3.3-6.4l-0.1,0.3c11.5-16.8,23.1-33.5,34.8-50.5c-6.4-3.3-11.7,1.5-15.3,4.7c-12.3,11.2-25,22.5-35.2,35.6   c-21.2,27.2-26.3,59.5-25.5,93.1c-0.8,0.7-0.8,1.4,0,2.1c2.2,19.9,0.4,40.2,4.9,60c2,8.7-2,14.6-8.7,20.1   c-49,40.7-95.1,84.3-131.4,137.2c-16.9,24.6-29.9,50.8-26,82.1c0.1,1.9,0.2,3.8,0.3,5.6c-1,3-0.6,5.7,1.3,8.2   c0.3,1.4,0.5,2.9,0.8,4.3c0.5,10,5.8,17.6,12.7,24.2c15.3,14.5,33,24.2,53.8,29.4c29.2,7.3,58.8,5.4,88.3,5.9   c11,0.2,15.3-4.9,18.9-14.4c13.6-35.4,9.7-70.1-3.3-107.1c-14.9,16.5-25,35.7-44.5,45.1c-2.9-4.6,1.5-7.2,3.6-11   c7.8-14.1,21.8-23.4,29.1-38c14.8-29.4,30.1-58.6,45.5-87.7c10-18.9,16.6-40.7,32.3-55.3c24.4-22.8,31.3-49.2,26.3-80.7   c-1.6-10.1-3.8-20.8-3.4-30.3c0.9-21.4,13.7-39.8,21.9-59.3c12.5-9.2,14.6-24,18.5-37.3c2.1-7.3-2.7-12.1-11.3-9.8   c-3.5-0.5-6.3,1.1-8.9,3.1c-10.6,2.8-15.4,11.7-21.4,19.6l0.1,0c-1.3,1.8-2.6,3.6-3.9,5.4l0.9,0.5l-0.9-0.6   c-2.1,2.6-4.1,5.3-6.2,7.9c0,0-0.5,1-0.5,1c-1.7,2.9-3.5,5.8-5.2,8.7l-0.1,0.4c-8.3,13.6-14,28.4-17.7,47.4   c-4.9-14.8-2.8-25.8,1-36.2c4.5-12.4,10.3-24.2,15.6-36.3c3.5-0.6,5.6-2.6,6.4-6.1l-0.5,0.3C364.1,277.6,365.2,276.4,366.2,275.1z    M728.3,277.4c0.8-0.3,1.2-0.9,1.2-1.7c1.1-0.3,1.6-1,1.4-2.1l0.9-0.9c2.3-1.4,3.9-3.2,3.9-6.1c0.1-3.1,0.2-6.1,0.3-9.2   c-3.7-27.7-13.1-52.6-32-74.2c-27.4-31.3-64.5-45-102.2-55c-68.6-18.2-134.4-6.3-194.8,30.2c-20.5,12.4-36.4,31.4-47.5,53.4   c-2.2,4.3-3.7,7.4,0.2,11.8c4.2,4.7,7.7,4.2,12.4,1.3c1.5-1,3.8-0.7,5.8-1.1c3,0,6,0,9,0.1c1.9,0.4,3.8,0.9,5.6,1.3   c2.5,2.3,6.8,4.5,7.1,7c1.3,11.3,9.1,13.6,18.1,16.7c8.5,2.9,13.4,10.5,10.7,19.8c-5.8,20.2-12.4,40.2-21.2,59.4   c-16.6,18.9-19,41.2-15.9,65c1.3,10.2,1.5,20.6,2.4,30.9c1.6,19.3-3.8,36-17.7,49.8c-5.4,5.3-7.4,10.3-2.5,17.9   c33.5,52.5,76.4,91.7,141.2,98.9c45.9,5.1,91.7,5.9,132.9-20.7c20.8-10.1,34.8-27.7,50.3-43.9c4.2-1,5.3-4.5,6.6-7.9l-0.2,0   c11.9-13.9,16-30.7,17.7-48.3l0.8-0.8l-0.6-1c1.9-12.5,1.3-25,0.6-37.6c1.4-3,1.4-6,0-9.1c0-10.7,0-21.4,0-32.1l0-0.8   c0-20.4,0-40.9,0-61.3l0.6-0.5l-0.6-0.5c-0.2-8.2-0.3-16.3-0.5-24.5C724.1,293.7,726.2,285.6,728.3,277.4L728.3,277.4z M960,626.4   c-1.9-9-5.5-16.9-13.4-22.2c-0.4-1.3-0.9-2.6-1.3-3.9c-6.4-17.4-21-28.6-31.9-42.7c-20.9-27-48.1-47.3-71-71.8   c-13.1-14-36.6-22-31.7-48c0,0-0.1,0.3-0.1,0.3c7.3-8.5,5.7-19.5,7-29.2c3.7-27,9.2-54.4-3.8-80.8c-1.8-7.6-9.5-12.2-10.1-20.4   c-1-1.4-1.9-2.9-2.9-4.3c0.3-0.7,0-1.2-0.8-1.3c-10.2-16.4-23.4-30.1-38.3-42.2c-3.7-3.1-9.1-6-12.8-0.7c-2.3,3.3-2.2,8.2,3.1,11.1   c22.4,12.3,32.9,33.9,43.1,55.7l-0.3-0.4c4.6,18.9,8.1,38,5.7,57.6c-2.9,1.5-1.1,6.2-4.9,7.1c0.3-9.1-1-17.9-3.5-26.5   c-5-27-10.8-53.5-34.9-71.1l0.2,0.3c-1.1-1.2-2.2-2.3-3.2-3.5c-0.6-0.9-1.2-1.8-1.8-2.7c-4.1-1.1-9.2-10.8-12.1-0.7   c-5,17-6.6,34.3,7.4,48.8l-0.1,0c1.1,1.7,2.1,3.4,3.2,5.1c11.3,21.9,13.6,43.7-1.2,65.1c-9.6,5.6-11.9,13.3-10.7,24.6   c1.7,17.5,2.4,35.5-1.6,53c-2,8.7,0.7,14.8,7.6,20.5c10.9,9.1,19.9,20.4,25.2,33.6c18,44.9,40.5,87.2,71.3,124.8   c2.3,2.8,6.8,5,2.3,10.4c-14.3-11.7-28.3-23.5-39.6-39c-12.4,34-22.4,67.2-14.4,103.3c2,8.9,4.4,13.7,13.8,12.6   c22-2.5,44-5.2,66-7.9c22.4-2.7,43.2-10.3,62.5-21.5c18.2-10.6,31.2-25.5,32.3-48c0-3,0.1-6,0.1-9c0.8-12.4,2.3-24.9-4.7-36.4   L960,626.4z M316.1,580.6c30.8-6.4,61.5-12.7,92.3-19.1c0.3-1.2,0.5-2.5,0.8-3.7c-19.2-11.1-30.9-28.6-41.9-46.7   c-7.8-12.7-11.8-12.9-19,0.8c-11.6,22.2-22.3,44.9-33.3,67.5c-0.2,0.6-0.5,1.2-0.7,1.8C314.8,581,315.5,580.8,316.1,580.6z    M786.7,763.2c0.3,0.3,0.6,0.6,0.9,0.8c-0.4-0.2-0.7-0.4-1.1-0.6c-15.2-17.2-16-37.9-14.7-59.2c3-26.4,5.8-52.8,17.5-77.3   c2-4.2,2.6-8.4-2.6-11.4c-13.1-7.5-25-17.2-40.3-20.8c-17.7-4.1-35.1-9.2-52.7-13.8c-11.8-9.2-22.6-10.8-34.9,0.6   c-7.7,7.2-17.9,12.4-27.7,16.5c-10.8,4.6-18.2,11.5-21.7,22.3c-3.5,10.8-10.4,18.7-18.6,26c-45.4,22.2-79.8,15.9-105.8-19.5   c-1.2-5.2-2.4-10.4-3.5-15.6c-0.8-3.5,1.1-7.9-4.3-9.6c-20-6.3-37.6-17.2-54.8-28.8c-2.3-1.5-3.8-4.9-7.1-1.6   c-6.3,6.3-15.8,4.7-22.8,9.2c-26.9,2-52.4,9.3-76.9,20.3c-11.5-1.3-17.3,2.6-13.7,15.1c-2.2,7.2,2.1,13.3,3.7,19.8   c6.9,28.6,13.6,57.2,7.9,86.9c-5.8,19.1-14.3,36.4-32.3,47.4c3.4,3.5,6.5,2.8,9.1,1.9c24.6-9.2,47.3-22.1,69.7-35.5   c4.7-2.8,5.5-7.8,6.4-12.8c3.4-19.6,13.4-36.1,24.3-53.3c2.5,4.1,1.5,6.9,0.7,9.6c-20.3,73.2-22.1,148.6-25.4,223.7   c-1.5,33.3,1.7,35.9,33.9,44.6c2.4,0.6,4.8,1.2,7.2,1.5c96.1,15,191.5,11.3,286.1-11.7c22.9-5.6,23.3-5.9,21.6-29.7   c0.1-45.7-4.1-91-9.9-136.4c-5-39.8-10-79.7-14-119.7c0.4-0.4,0.8-0.8,1.2-1.2c9,9.1,10.7,22.7,20.1,31.5l0.1-0.3   c0.2,3.4,0.4,6.8,0.5,10.2c-0.7,15.8,4.9,30.8,6.1,46.3c0.8,9.6,4.6,14.9,13.8,14.9C751.2,753.3,768.7,759.4,786.7,763.2z    M685.1,563.9c28.6,5.6,52.8,13.9,77.1,22c3.5,1.2,7.6,4.6,10.9,0.7c3-3.6,0-7.7-2.1-10.7c-10.6-15-17.4-31.9-25.2-48.3   c-2.5-5.4-5.4-10.5-9.9-14.6c-3.9-3.6-8.3-5.2-10.6,0.6C717.4,533.5,702.5,547.7,685.1,563.9z M542.6,644.7   c18-1.2,35.8-2.9,46.7-20.2c2.5-4,6.7-8.6,3.9-13.4c-2.5-4.3-8.1-2.1-12.3-2c-26.1,0.9-52.2,1.9-77.9-4.5c-8.4-2.1-7.9,1.6-6.3,7.7   C501.9,631.6,520.4,644.8,542.6,644.7z M740.5,393.4c12-20,10.3-35.3-4.1-47.9C737.7,361,739,376,740.5,393.4z"
   id="path1042" />
	<path
   class="st300"
   d="M407,328.1c8.8-19.2,15.4-39.2,21.2-59.4c2.7-9.3-2.1-16.9-10.7-19.8c-9-3-16.8-5.4-18.1-16.7   c-0.3-2.6-4.6-4.7-7.1-7c-1.3-2.8-3.2-3.1-5.6-1.3c-3,0-6,0-9-0.1c-14.6-3.3-12-9.1-4.1-18.5c12.5-14.9,25.8-28.1,42.7-38   c86.1-50,171.9-51.2,255.8,3.6c29.2,19.1,55.8,42.8,58.7,81.9c0.2,2.8,2.7,3.9,5.2,4.5c-0.1,3.1-0.2,6.1-0.3,9.2   c-3.5,0.6-4.6,2.8-3.9,6.1c0,0-0.9,0.9-0.9,0.9c-0.4,0.7-0.9,1.4-1.4,2.1c0,0.9-0.4,1.4-1.2,1.7c0,0-1.2-0.5-1.2-0.5l1.2,0.5   c-2.1,8.1-4.2,16.2-6.3,24.3c-5.7,3.9-3.4,9.9-3.4,15c-0.2,38.9,0,77.7-0.2,116.6c-0.1,24.7-2.7,49-12.9,71.9   c-1.9,4.2-2.4,8.5-1.4,13c0,0,0.2,0,0.2,0c-6.1-0.7-6.6,3.4-6.6,7.9c-15.4,16.1-29.5,33.8-50.3,43.9c0.7-3.9,2.3-9.1-4.8-6.6   c-21.6,7.6-44,8.9-66.5,11.9c-71.1,9.6-130.3-14.5-163.6-82.4c-5.7-11.7-9.5-23-6.1-36.7c2.3-9.2,0.7-19.6,0.1-29.4   c-2-28.8-6.9-57.6,2.8-86C410.9,336.2,409.2,332.1,407,328.1z M437.5,307.5l-0.4-0.5c1.2,1.1,2.4,2.2,3.6,3.3c0,0-0.6-0.6-0.6-0.6   c1.2,1.1,2.5,2.2,3.7,3.4l-0.6-0.7c0.8,3.1,3.2,3.8,6,3.8l-0.4-0.2c0.9,1.7,2.3,2.4,4.2,1.9l0.1-0.2c10.2,12.5,30.8,14.3,42.4,3.6   l-0.3,0.3c2.9,0.5,5.4,0,6.4-3.3c1-0.7,2-1.3,2.9-2c3.1-0.3,5.4-1.6,6.2-4.9c3.4-5.9,10.3-9.1,12-16.2c8.8,6.5,14.9,0.7,19.9-5.3   c7.2-8.8,11.8-18.4,2.4-30c-3.6,9.5-1.3,21.2-13.7,24.2c-4.5-5.3-1-12.5-4.1-18.2c-1.6-2.8-1.3-7.8-5.5-7.6   c-2.2,0.1-4.7,3.4-6.1,5.7c-17.1,28-42.3,40-74.8,34.4c-5.8-1-7.3,0-6.4,5.3C435.4,305,436.5,306.3,437.5,307.5z M596.9,414   c0.7,1.5,1.7,2,3.1,0.9c12.6,11.3,10.1,28.4-5.9,36.7c-12.8,6.7-26.6,6.7-40.5,4.7c-6-0.9-12-3.3-20.2,0.7   c23.2,12.2,44.9,13.3,66.6,3.3c16.8-7.8,25.6-29.2,15.9-43.7c-10.3-15.4-16.3-33.8-31.3-46c-2.1-2.9-5.6-1.5-4.7,0.6   c9.2,20.3-5.7,23.7-19.1,28.4c-0.2,0.1,0.2,1.7,0.3,2.7c0,1.4,0.1,2.8,0.1,4.2c6.9,8.6,16.4,3.1,24.6,4.4c0.9-0.2,1.7,0.1,2.4,0.7   c2.4,2.8,5.7,2.6,8.9,2.6L596.9,414z M582.4,295.8l-0.2-0.3c0.2,2.6,0.9,4.9,4.2,3.5c3.2-1.3,4.7-3.3,1.3-6.1   c-0.8-8.3-5.4-16.5-0.6-24.9c-3.8-1.8,3.4-6.7-2-7.5c-3.9-0.6-2.7,4.7-5.2,6.1c-9.5,7.8-7.2,15.5,0.3,23l-0.4-0.5   C579.4,291.8,579.7,294.3,582.4,295.8z M547.4,528.6c-2.3-1.6-4.4-1.6-6.4,0.5c-4,4.3-17,7.3-2.2,14.5c3.1,0.3,5.9,0,7.2-3.4   l-0.1,0.4c15.9,1.4,31.6,1.6,47.5-4.3c-5.3-7.9-11.7-11.7-21-8l-0.4,0.2c-8.1-7.7-16.1-7.7-24.1,0L547.4,528.6z M596.9,490.6   c-0.6-4.2-3.8-5.1-7.3-5.7c-22.2-4.1-44.5-5.1-66.4,0.9c-5.3,1.5-12.8,0.9-15.4,8.2c-28,17.7-28,17.7-31.4,28.7   c59-30.9,116.4-24.2,173.3,5.5C638.3,506.1,619.7,495.4,596.9,490.6z M697.4,287.2c-32.2,13.5-59.6,4.3-85-13.9   c-3.7-2.6-7.2-5.9-10.9-4.6c-4.6,1.5-4.8,6.8-4.6,11.4c0.4,9.9,3.8,17.8,12.5,23.6c18,11.9,37.8,15.5,58.8,12.7   C681.6,314.6,694.5,301.6,697.4,287.2z M451.6,367.2c0.1,21.1,17.3,35.2,39,33.8c16.9-1.1,29.4-13.4,27.8-28.4   C494.4,399.6,473,384.1,451.6,367.2z M610.7,359.4c5,22.3,22.5,36.2,39.5,32.9c9.6-1.9,22.9-18.5,22.6-28.3   C640.5,385.3,634.1,376,610.7,359.4z M479.3,241c42-6.3,84.7-5,126.9-10.4C563.4,226.5,520.9,227.6,479.3,241z M534.3,197.4   c16.7-2.5,33.2,6.4,52.8,2.7C568.3,192,551.3,195.6,534.3,197.4z M594.3,202l-1.2,0.5l1.2,0.5L594.3,202z M472.7,527.2   c1.4-1.3,2.5-2.1,3.2-3.1c0.2-0.2-1.2-2-1.5-2c-1.3,0.4-2.4,1.2-3.6,1.9C471.3,524.9,471.9,525.8,472.7,527.2z"
   id="path1044" />
	<path
   class="st301"
   d="M712,682.2c-9.4-8.8-11.1-22.5-20.1-31.5c-0.5-0.6-1-1.3-1.4-1.9c-1.3,1.2-0.9,2.2,0.3,3.1   c4,40,9,79.9,14,119.7c5.8,45.5,10,90.7,9.9,136.4c-5.9-1.9-10.4-0.4-16.1,3c-20.9,12.6-44.1,18.8-72.6,21.5   c24.3-19.5,51.8-29.4,62-58.7c-8.1-1.8-11.2,4.5-15.9,7.3c-5,3.1-9.3,7.6-14.6,9.9c-57.4,24.1-115.1,30.5-171.7-1.5   c-30-17-58.5-35.8-71-71.5c-16.5-46.9-21.5-94.6-15.8-143.6c0.9-7.8-0.9-12.2-7-15.1c-7.8-3.7-10,4-13.4,8   c-11.6,14-22.6,29.6-39.9,36.4c-10.7,4.2-20.1,8.1-25.4,18.7c5.6-29.7-1-58.3-7.9-86.9c-1.6-6.5-5.9-12.5-3.7-19.8   c9.4-0.6,12.1-7.3,13.7-15.1c24.5-11.1,50-18.4,76.9-20.3c2.6,13.6,15.3,15.6,24.8,20.5c21.6,11.2,39.1,27.4,50.7,48   c18,32.1,66.8,54.5,102.6,41.6c32.5-11.7,63.5-25.9,68.9-66.3c0.3-2.5,2.9-5.6,5.2-6.8c14.4-7.4,27.1-18.9,43.1-22.1   c11.7-2.4,9.9-7.1,6-14.4c17.6,4.6,35,9.7,52.7,13.8c15.3,3.6,27.2,13.3,40.3,20.8c5.2,3,4.6,7.2,2.6,11.4   c-11.7,24.5-14.5,50.9-17.5,77.3c-10.2-1.3-17.3-8.5-25.8-13c-11-5.8-19.9-16.1-33.6-16.5c-0.1-0.9-0.3-1.7-0.4-2.6   c-0.4,0.2-0.8,0.4-1.2,0.6c0.6,0.6,1.2,1.3,1.7,1.9C712.4,677.1,712.2,679.6,712,682.2z"
   id="path1046" />
	<path
   class="st302"
   d="M306.3,348.5c1.1-4.9,2.3-9.8,3.4-14.6c4.4,0.4,5.8-3.7,8.5-5.8c13.2,0.3,16.9,7.2,15.1,19.6   c-1.5,10.5,6.1,12.9,14.7,13.1c19,17.3,17.3,40.7,17,62.9c-0.2,12-4.9,24-14.1,33.3c-16,16.2-27.6,35.7-40,54.6   c-35.4,54.2-61.1,114.6-104.6,163.6c-2,2.2-4.2,4.5-2.6,7.8c1.5,3.2,4.8,3,7.7,3.1c7.6,0,15.3,1,21.9-4.6c3.1,7.2-1.5,9-5,11.4   c-7.7,5.3-16.2,9.8-22.9,16.2c-16.5,15.7-34.1,14.9-52.9,5.5c-11.5-5.7-23.5-10.6-29.2-23.5c-1.7-3.9-4.7-2.4-7.4-1.3   c-0.3-1.4-0.5-2.9-0.8-4.3c1.7-3.1,1.3-5.8-1.3-8.2c-0.1-1.9-0.2-3.8-0.3-5.6c6-0.9,6.6-5.4,6.2-10c-1.3-16.5,4.5-29.4,14.1-43.3   C167,570.5,202.7,525.1,247,487c8.6-7.4,17.3-14.7,25.4-22.5c11-10.7,14-23.4,12.1-39c-2.2-18.4-5.9-36.9-4.1-55.7   C303.3,369.7,303.7,369.5,306.3,348.5z"
   id="path1048" />
	<path
   class="st303"
   d="M313.3,722.4c5.3-10.6,14.7-14.4,25.4-18.7c17.3-6.8,28.2-22.3,39.9-36.4c3.4-4.1,5.6-11.7,13.4-8   c6.1,2.9,7.9,7.3,7,15.1c-5.7,49-0.7,96.7,15.8,143.6c12.6,35.7,41.1,54.5,71,71.5c56.5,32,114.3,25.6,171.7,1.5   c5.3-2.2,9.6-6.8,14.6-9.9c4.6-2.8,7.7-9.2,15.9-7.3c-10.2,29.2-37.7,39.1-62,58.7c28.5-2.7,51.7-8.9,72.6-21.5   c5.7-3.4,10.1-4.9,16.1-3c1.7,23.8,1.3,24.2-21.6,29.7c-94.6,23-190,26.7-286.1,11.7c-2.4-0.4-4.8-0.9-7.2-1.5   c-32.3-8.6-35.4-11.3-33.9-44.6c3.4-75.1,5.2-150.5,25.4-223.7c0.8-2.7,1.8-5.5-0.7-9.6c-10.9,17.3-20.9,33.7-24.3,53.3   c-0.9,4.9-1.7,10-6.4,12.8c-22.4,13.5-45.1,26.3-69.7,35.5c-2.6,1-5.6,1.7-9.1-1.9C299,758.8,307.6,741.5,313.3,722.4z M411,848   c5.8,35,50.3,77.9,74.8,71.1C450.9,905.5,432.3,877.7,411,848z"
   id="path1050" />
	<path
   class="st304"
   d="M752.2,286.7c0.6,0.9,1.2,1.8,1.8,2.7c1.1,1.2,2.2,2.3,3.2,3.5c0,0-0.2-0.3-0.2-0.3   c-1.4,7.4-1.1,13.9,4.9,19.8c10.9,10.8,15.7,25.3,22.6,38.5c2.3,4.3-0.2,11.6,7.4,12.8c2.6,8.7,3.9,17.5,3.5,26.5   c1.8,9.1,12.4,13.9,11.8,24.1c1,7.9,2,15.8,3.1,23.8c0,0,0.1-0.3,0.1-0.3c-12.6,15.2-12.6,18.8,0.5,31.9c3.5,3.5,7,6.9,10.5,10.4   c36,36.8,71.9,73.7,107.9,110.5c4.3,4.4,8.1,10.3,15.7,9.7c0.4,1.3,0.9,2.6,1.3,3.9c1.8,9,5.6,16.8,13.4,22.2c0,0-0.6-0.2-0.6-0.2   c-1.4,12.5,1.3,24.5,4.7,36.4c0,3-0.1,6-0.1,9c-2.7,2.1-6.4,3.6-7.8,6.3c-6.9,13.8-19.4,20.3-32.4,26.4   c-22.8,10.8-45.2,5.7-67.5-2.1c-4.4-1.5-11.3-0.1-11.9-6.5c-0.7-6.6,5.7-9.6,10.6-10.5c12.9-2.5,14.5-11.5,14.6-21.9   c0.1-10.7-3.4-20.1-9-29.2c-5.7-9.4-14.5-15.9-20-25.5c-12.9-22.7-26-45.3-40.5-67c-22.9-34.2-33.2-73.1-44.5-111.7   c-1.4-4.6-0.4-8.6,0.6-13c1.3-5.8,0.9-11-6.8-12c14.8-21.4,12.5-43.2,1.2-65.1c-0.2-2.2-0.7-4.3-3.2-5.1c0,0,0.1,0,0.1,0   c-1.5-4.5-3-9.1-4.4-13.6C738.3,305.4,742.1,291.2,752.2,286.7z"
   id="path1052" />
	<path
   class="st305"
   d="M116,689.8c2.8-1.2,5.7-2.6,7.4,1.3c5.7,12.9,17.7,17.8,29.2,23.5c18.8,9.3,36.4,10.2,52.9-5.5   c6.7-6.4,15.2-10.8,22.9-16.2c3.5-2.4,8.1-4.3,5-11.4c-6.5,5.6-14.3,4.7-21.9,4.6c-2.9,0-6.2,0.2-7.7-3.1c-1.5-3.2,0.7-5.6,2.6-7.8   c43.6-49,69.2-109.4,104.6-163.6c12.3-18.9,23.9-38.4,40-54.6c9.2-9.3,13.9-21.2,14.1-33.3c0.3-22.2,2-45.6-17-62.9   c0-1.9,0-3.9,0-5.8c0-2,0.1-4.1,0.1-6.1c0.1-0.7,0.2-1.4,0.2-2.1c12.5,1.1,19-3.5,21.8-16.9c3.5-16.4,16.4-26.6,31-34.1   c-1.4,5-2.8,10-4.2,15c-8.3,19.5-21,37.9-22,59.3c-0.4,9.5,1.7,20.2,3.4,30.3c5,31.5-1.8,57.9-26.3,80.7   c-15.7,14.6-22.3,36.4-32.3,55.3c-15.4,29.1-30.7,58.3-45.5,87.7c-7.3,14.6-21.3,23.8-29.1,38c-2.1,3.8-6.5,6.4-3.6,11   c19.5-9.4,29.6-28.6,44.5-45.1c13.1,37,16.9,71.6,3.3,107.1c-3.6,9.5-7.9,14.6-18.9,14.4c-29.6-0.5-59.1,1.3-88.3-5.9   c-20.8-5.2-38.5-14.9-53.8-29.4C121.8,707.4,116.5,699.8,116,689.8z"
   id="path1054" />
	<path
   class="st305"
   d="M749.4,405c7.7,1,8.1,6.2,6.8,12c-1,4.3-2,8.3-0.6,13c11.3,38.7,21.6,77.5,44.5,111.7   c14.5,21.6,27.6,44.3,40.5,67c5.5,9.6,14.3,16.2,20,25.5c5.5,9.1,9.1,18.5,9,29.2c-0.1,10.4-1.7,19.4-14.6,21.9   c-4.9,0.9-11.3,3.9-10.6,10.5c0.6,6.5,7.6,5,11.9,6.5c22.3,7.8,44.7,12.8,67.5,2.1c12.9-6.1,25.5-12.6,32.4-26.4   c1.4-2.7,5.1-4.3,7.8-6.3c-1.1,22.5-14.1,37.4-32.3,48c-19.3,11.2-40.2,18.8-62.5,21.5c-22,2.7-44,5.3-66,7.9   c-9.4,1.1-11.8-3.7-13.8-12.6c-8-36.1,2.1-69.3,14.4-103.3c11.2,15.4,25.2,27.3,39.6,39c4.5-5.4,0-7.7-2.3-10.4   c-30.8-37.6-53.3-79.8-71.3-124.8c-5.3-13.2-14.2-24.5-25.2-33.6c-6.9-5.7-9.6-11.8-7.6-20.5c4.1-17.5,3.4-35.4,1.6-53   C737.6,418.3,739.8,410.6,749.4,405z"
   id="path1056" />
	<path
   class="st305"
   d="M407,328.1c2.1,4,3.9,8.1,2.3,12.7c-9.7,28.4-4.8,57.2-2.8,86c0.7,9.8,2.2,20.1-0.1,29.4   c-3.5,13.7,0.3,25,6.1,36.7c33.3,67.9,92.5,92,163.6,82.4c22.4-3,44.9-4.3,66.5-11.9c7.1-2.5,5.5,2.7,4.8,6.6   c-41.2,26.6-86.9,25.9-132.9,20.7c-64.8-7.3-107.7-46.5-141.2-98.9c-4.9-7.6-2.8-12.6,2.5-17.9c13.9-13.8,19.3-30.5,17.7-49.8   c-0.9-10.3-1.1-20.7-2.4-30.9C388.1,369.3,390.4,347,407,328.1z"
   id="path1058" />
	<path
   class="st303"
   d="M693.6,580.8c3.9,7.3,5.7,12-6,14.4c-16,3.2-28.7,14.7-43.1,22.1c-2.3,1.2-4.9,4.3-5.2,6.8   c-5.3,40.4-36.3,54.6-68.9,66.3c-35.8,12.8-84.6-9.6-102.6-41.6c-11.5-20.5-29.1-36.7-50.7-48c-9.5-4.9-22.2-6.9-24.8-20.5   c7-4.4,16.5-2.8,22.8-9.2c3.3-3.3,4.9,0.1,7.1,1.6c17.2,11.6,34.8,22.5,54.8,28.8c5.4,1.7,3.6,6.1,4.3,9.6   c1.1,5.2,2.4,10.4,3.5,15.6c-12.7-0.1-14.4,4.9-7.8,15.1c31.4,48,83.8,55.5,131,16.5c8.2-6.8,19-13.4,20.1-29.2   c-9.4,6.2-16.6,11.2-24.2,15.7c-4,2.4-8.1,9-13.3,1.4c8.1-7.3,15.1-15.2,18.6-26c3.5-10.8,10.9-17.8,21.7-22.3   c9.9-4.2,20-9.3,27.7-16.5C671,570.1,681.8,571.6,693.6,580.8z"
   id="path1060" />
	<path
   class="st306"
   d="M280.4,369.8c-1.8,18.8,1.9,37.3,4.1,55.7c1.9,15.6-1.1,28.3-12.1,39c-8.1,7.9-16.8,15.2-25.4,22.5   c-44.3,38.1-80,83.5-113.2,131.4c-9.6,13.9-15.4,26.9-14.1,43.3c0.4,4.6-0.2,9.1-6.2,10c-3.8-31.3,9.1-57.5,26-82.1   c36.3-52.9,82.4-96.4,131.4-137.2c6.7-5.6,10.7-11.4,8.7-20.1c-4.5-19.8-2.6-40-4.9-59.9c0,0,0.7-1,0.7-1l-0.7-1   c-0.8-33.6,4.2-65.9,25.5-93.1c10.2-13.1,22.8-24.4,35.2-35.6c3.6-3.3,8.8-8,15.3-4.7c-11.7,17-23.2,33.7-34.8,50.5   c-0.9-3,0.2-8.2-4.6-7.6c-4.7,0.5-6.2,5.4-8.1,9.5C291.6,314.9,280.2,340.7,280.4,369.8z"
   id="path1062" />
	<path
   class="st306"
   d="M736,257.4c-2.5-0.6-5-1.7-5.2-4.5c-3-39.2-29.5-62.9-58.7-81.9c-83.9-54.8-169.7-53.6-255.8-3.6   c-16.9,9.8-30.3,23.1-42.7,38c-7.9,9.4-10.4,15.2,4.1,18.5c-1.9,0.3-4.2,0.1-5.8,1.1c-4.6,2.9-8.2,3.4-12.4-1.3   c-3.9-4.4-2.3-7.5-0.2-11.8c11.1-22,27-41,47.5-53.4c60.4-36.5,126.2-48.4,194.8-30.2c37.7,10,74.8,23.7,102.2,55   C722.9,204.8,732.3,229.7,736,257.4z"
   id="path1064" />
	<path
   class="st303"
   d="M712,682.2c0.2-2.6,0.3-5.1,0.5-7.7l-0.1,0.1c13.7,0.4,22.5,10.7,33.6,16.5c8.5,4.5,15.6,11.7,25.8,13   c-1.3,21.3-0.5,42,14.7,59.2l0.2-0.2c-18-3.8-35.5-9.9-54.2-9.8c-9.2,0-13-5.3-13.8-14.9c-1.2-15.5-6.8-30.5-6.1-46.3   c4.1-3.6,1.8-6.9-0.5-10.2L712,682.2z"
   id="path1066" />
	<path
   class="st301"
   d="M590.7,646.3c5.2,7.7,9.3,1,13.3-1.4c7.5-4.5,14.7-9.5,24.2-15.7c-1,15.8-11.9,22.4-20.1,29.2   c-47.2,39-99.6,31.6-131-16.5c-6.7-10.2-5-15.3,7.8-15.1C510.9,662.2,545.3,668.5,590.7,646.3z"
   id="path1068" />
	<path
   class="st305"
   d="M542.6,644.7c-22.3,0.1-40.8-13.1-45.9-32.4c-1.6-6-2.1-9.8,6.3-7.7c25.6,6.4,51.8,5.4,77.9,4.5   c4.2-0.1,9.8-2.3,12.3,2c2.8,4.8-1.4,9.5-3.9,13.4C578.5,641.8,560.6,643.5,542.6,644.7z"
   id="path1070" />
	<path
   class="st306"
   d="M945.2,600.3c-7.6,0.7-11.3-5.2-15.7-9.7c-36-36.8-72-73.7-107.9-110.5c-3.4-3.5-7-6.9-10.5-10.4   c-13.1-13.2-13.2-16.7-0.5-31.9c-4.9,26,18.6,34.1,31.7,48c23,24.5,50.1,44.8,71,71.8C924.2,571.7,938.8,582.9,945.2,600.3z"
   id="path1072" />
	<path
   class="st302"
   d="M401.3,295.9c-14.6,7.6-27.5,17.7-31,34.1c-2.9,13.4-9.4,17.9-21.8,16.8c-2.1-13.8,11-23.6,9.8-37.2   c0,0,0.1-0.4,0.1-0.4c6-0.4,7.6-3.3,5.2-8.7c0,0,0.5-1,0.5-1c6.6,0.9,7.3-2.8,6.2-7.9l0.9,0.6c0,0-0.9-0.5-0.9-0.5   c3.4-0.3,4.1-2.6,3.9-5.4c0,0-0.1,0-0.1,0c11.2-2.1,17.1-10,21.4-19.6c2.6-2,5.4-3.7,8.9-3.1C415.8,275.6,406.4,285.5,401.3,295.9z   "
   id="path1074" />
	<path
   class="st300"
   d="M358.3,309.7c1.2,13.6-11.9,23.4-9.8,37.2c0,0.7-0.1,1.4-0.2,2.1c-2.8,2-2.9,4-0.1,6.1c0,1.9,0,3.9,0,5.8   c-8.6-0.2-16.2-2.6-14.7-13.1c1.8-12.4-1.9-19.4-15.1-19.6c0-6.5,0.5-12.8,6.1-17.4c4.7,4.1,7.5,0.2,9.4-3   c7-11.7,13.5-23.6,20.1-35.4c5.9-7.1,11.5-14.4,17.9-21.1c2.8-2.9,4.4-8.9,9.9-7.1c5.8,1.8,0.3,8.3,3.6,11.5c0,0-0.2,0-0.2,0   c-3.7-0.3-4.4,2.1-4.7,5c-0.8,0.8-1.6,1.7-2.4,2.5c-1.1,1.1-2.3,2.2-3.4,3.3c0,0,0.2-0.2,0.2-0.2c-1.1,1.1-2.1,2.1-3.2,3.2   c0,0,0.2-0.2,0.2-0.2c-1.1,1.1-2.1,2.2-3.2,3.3c0,0,0.3-0.4,0.3-0.4c-1.1,1.1-2.2,2.3-3.3,3.4c0,0,0.4-0.4,0.4-0.4   c-1.1,1.2-2.1,2.5-3.2,3.7c0,0,0.5-0.3,0.5-0.3c-4.4-0.4-6.4,1.8-6.4,6.1c-5.3,12.1-11.1,24-15.6,36.3c-3.8,10.4-5.9,21.4-1,36.2   C344.2,338.1,350,323.3,358.3,309.7z"
   id="path1076" />
	<path
   class="st302"
   d="M807.4,414.3c0.6-10.2-10-15-11.8-24.1c3.8-0.9,2-5.6,4.9-7.1c0.4,0.3,0.7,0.7,1.2,0.9   c0.4,0.1,1.3,0.1,1.3,0c1.2-20,6.9-40.7-8.2-58.5c0,0,0.3,0.4,0.3,0.4c3.4-7.6-6.4-17.9,4.9-23.9c0.8,0.2,1,0.6,0.8,1.3   c-1.8,3.3,0.6,3.7,2.9,4.3c0.6,8.1,8.3,12.8,10.1,20.4c-3,2.2-2.5,4.9-1.4,7.8c7,20,3.6,40.7,3.2,61.1   C815.3,402.9,815.8,411.3,807.4,414.3z"
   id="path1078" />
	<path
   class="st306"
   d="M704.1,518.2c-0.9-4.5-0.4-8.7,1.4-13c10.1-22.9,12.8-47.2,12.9-71.9c0.2-38.9,0-77.7,0.2-116.6   c0-5.1-2.2-11,3.4-15c0.2,8.2,0.3,16.3,0.5,24.5c0,0-0.8,0.5-0.8,0.5l0.8,0.5c0,20.4,0,40.9,0,61.3c0,0-0.7,0.4-0.7,0.4l0.8,0.4   c0,10.7,0,21.4,0,32.1c-1.9,3-1.8,6,0,9.1c0.7,12.5,1.3,25.1-0.6,37.6c-0.7,0.6-0.8,1.2-0.2,1.8C720,487.6,716,504.4,704.1,518.2z"
   id="path1080" />
	<path
   class="st300"
   d="M280.4,369.8c-0.2-29,11.2-54.8,22.8-80.5c1.9-4.1,3.4-9,8.1-9.5c4.8-0.6,3.7,4.6,4.6,7.6   c0,0,0.1-0.3,0.1-0.3c-2.8,1.2-3.3,3.6-3.3,6.4c0,0,0.3-0.4,0.3-0.4c-3,1.2-3.3,3.7-3.1,6.5c0,0,0.3-0.4,0.3-0.4   c-7.9,2.6-6.7,9-6.4,15.1c0,0,0.3-0.4,0.3-0.4c-3.9,2.2-3.6,5.8-3.1,9.5c1.3,6.5-4.3,11.4-3.7,18.2c0.6,6.8,3,8.6,9,7.2   C303.7,369.5,303.3,369.7,280.4,369.8z"
   id="path1082" />
	<path
   class="st306"
   d="M800,302c-11.3,6-1.5,16.3-4.9,23.9c-10.2-21.8-20.7-43.4-43.1-55.7c-5.3-2.9-5.3-7.8-3.1-11.1   c3.6-5.3,9-2.4,12.8,0.7C776.6,272,789.7,285.7,800,302z"
   id="path1084" />
	<path
   class="st306"
   d="M324.4,310.8c-5.6,4.5-6.1,10.9-6.1,17.4c-2.8,2-4.1,6.1-8.5,5.8c7.8-32.8,26.2-59.6,48.9-83.7   c3.9-4.2,9.3-7.1,14.2-10.3c5.5-3.5,11.6-4.1,16.1,0.9c5.3,5.9,1.4,10.7-3.5,14.8c-3.3-3.2,2.2-9.7-3.6-11.5   c-5.5-1.7-7.2,4.3-9.9,7.1c-6.4,6.6-12,14-17.9,21.1C334.8,278.1,331.1,295.6,324.4,310.8z"
   id="path1086" />
	<path
   class="st306"
   d="M792,363.6c-7.6-1.2-5.1-8.5-7.4-12.8c-6.9-13.3-11.8-27.8-22.6-38.5c-6-5.9-6.4-12.4-4.9-19.8   C781.2,310.1,787.1,336.7,792,363.6z"
   id="path1088" />
	<path
   class="st306"
   d="M807.4,414.3c8.4-3,8-11.5,8.1-17.3c0.4-20.4,3.8-41.1-3.2-61.1c-1-3-1.6-5.7,1.4-7.8   c13,26.4,7.5,53.8,3.8,80.8c-1.3,9.8,0.2,20.7-7,29.2C809.4,430.2,808.4,422.2,807.4,414.3z"
   id="path1090" />
	<path
   class="st305"
   d="M740.5,393.4c-1.5-17.5-2.8-32.4-4.1-47.9C750.8,358.1,752.5,373.5,740.5,393.4z"
   id="path1092" />
	<path
   class="st306"
   d="M401.3,295.9c5.1-10.3,14.4-20.3,3-32.1c8.6-2.2,13.4,2.6,11.3,9.8c-3.9,13.3-6,28.1-18.5,37.3   C398.6,305.8,399.9,300.8,401.3,295.9z"
   id="path1094" />
	<path
   class="st306"
   d="M752.2,286.7c-10.1,4.6-13.9,18.7-9.1,34.5c1.4,4.6,2.9,9.1,4.4,13.6c-14-14.5-12.4-31.9-7.4-48.9   C743,275.9,748.1,285.5,752.2,286.7z"
   id="path1096" />
	<path
   class="st306"
   d="M794.8,325.5c15.1,17.8,9.4,38.5,8.2,58.5c0,0-0.9,0.1-1.3,0c-0.4-0.2-0.8-0.6-1.2-0.9   C802.9,363.5,799.4,344.4,794.8,325.5z"
   id="path1098" />
	<path
   class="st303"
   d="M315.5,600.7c-1.6,7.7-4.3,14.5-13.7,15.1C298.1,603.3,304,599.4,315.5,600.7z"
   id="path1100" />
	<path
   class="st300"
   d="M395.4,266.8c-4.3,9.6-10.2,17.5-21.4,19.6C380,278.6,384.9,269.6,395.4,266.8z"
   id="path1102" />
	<path
   class="st295"
   d="M531.7,976.4c-1-0.9-1.9-1.9-2.9-2.8c16.9-0.2,33.8-0.4,50.7-0.6C564.1,980.1,547.6,974.6,531.7,976.4z"
   id="path1104" />
	<path
   class="st306"
   d="M964.1,662.6c-3.3-11.9-6.1-23.9-4.7-36.4C966.3,637.7,964.9,650.2,964.1,662.6z"
   id="path1106" />
	<path
   class="st306"
   d="M960,626.4c-7.9-5.4-11.7-13.2-13.4-22.2C954.5,609.6,958.1,617.5,960,626.4z"
   id="path1108" />
	<path
   class="st306"
   d="M303.8,314c-0.3-6.1-1.5-12.5,6.4-15.1C309.2,304.4,307.6,309.7,303.8,314z"
   id="path1110" />
	<path
   class="st300"
   d="M370.3,291.7c1.1,5.1,0.4,8.9-6.2,7.9C366.2,297,368.2,294.3,370.3,291.7z"
   id="path1112" />
	<path
   class="st300"
   d="M363.6,300.6c2.5,5.4,0.8,8.3-5.2,8.7C360.1,306.4,361.8,303.5,363.6,300.6z"
   id="path1114" />
	<path
   class="st306"
   d="M697.6,526.1c0-4.5,0.5-8.5,6.6-7.9C702.9,521.6,701.8,525.1,697.6,526.1z"
   id="path1116" />
	<path
   class="st306"
   d="M357.2,284.6c-0.1-4.3,2-6.4,6.4-6.1C362.8,281.9,360.6,283.9,357.2,284.6z"
   id="path1118" />
	<path
   class="st305"
   d="M731.8,272.7c-0.7-3.3,0.4-5.5,3.9-6.1C735.7,269.4,734,271.3,731.8,272.7z"
   id="path1120" />
	<path
   class="st305"
   d="M722.5,430.5c-1.8-3-1.8-6.1,0-9.1C723.9,424.5,723.9,427.5,722.5,430.5z"
   id="path1122" />
	<path
   class="st301"
   d="M712.1,681.9c2.3,3.3,4.6,6.6,0.5,10.2C712.5,688.7,712.3,685.3,712.1,681.9z"
   id="path1124" />
	<path
   class="st306"
   d="M301,323.1c-0.5-3.7-0.7-7.3,3.1-9.5C303.2,316.8,305.2,320.9,301,323.1z"
   id="path1126" />
	<path
   class="st306"
   d="M309.9,299.4c-0.2-2.8,0.1-5.3,3.1-6.5C312.7,295.4,312.4,297.9,309.9,299.4z"
   id="path1128" />
	<path
   class="st306"
   d="M803.6,307.7c-2.2-0.6-4.7-1-2.9-4.3C801.7,304.8,802.7,306.3,803.6,307.7z"
   id="path1130" />
	<path
   class="st306"
   d="M747.5,334.7c2.5,0.8,3,2.9,3.2,5.1C749.6,338.1,748.5,336.4,747.5,334.7z"
   id="path1132" />
	<path
   class="st306"
   d="M380.5,260.7c0.3-2.8,1-5.3,4.7-5C383.6,257.4,382.1,259,380.5,260.7z"
   id="path1134" />
	<path
   class="st306"
   d="M386.7,223.8c2.4-1.8,4.3-1.4,5.6,1.3C390.4,224.7,388.6,224.3,386.7,223.8z"
   id="path1136" />
	<path
   class="st300"
   d="M374.1,286.3c0.2,2.9-0.5,5.1-3.9,5.4C371.5,290,372.8,288.2,374.1,286.3z"
   id="path1138" />
	<path
   class="st306"
   d="M312.7,293.3c0-2.7,0.4-5.1,3.3-6.4C315.7,289.5,315.2,291.9,312.7,293.3z"
   id="path1140" />
	<path
   class="st295"
   d="M274.7,370.2l0.7,1c0,0-0.7,1-0.7,1C274,371.6,274,370.9,274.7,370.2z"
   id="path1142" />
	<path
   class="st307"
   d="M316.1,580.6c-0.6,0.2-1.3,0.4-1.9,0.7c0.2-0.6,0.5-1.2,0.7-1.8C315.3,579.8,315.7,580.2,316.1,580.6z"
   id="path1144" />
	<path
   class="st306"
   d="M374.7,266.5c1.1-1.1,2.3-2.2,3.4-3.3C377,264.3,375.8,265.4,374.7,266.5z"
   id="path1146" />
	<path
   class="st306"
   d="M371.8,269.4c1.1-1.1,2.1-2.1,3.2-3.2C373.9,267.3,372.8,268.4,371.8,269.4z"
   id="path1148" />
	<path
   class="st305"
   d="M722.5,327.3l-0.8-0.5c0,0,0.8-0.5,0.8-0.5s0.6,0.5,0.6,0.5L722.5,327.3z"
   id="path1150" />
	<path
   class="st305"
   d="M729.5,275.7c0.5-0.7,0.9-1.4,1.4-2.1C731.1,274.7,730.7,275.4,729.5,275.7z"
   id="path1152" />
	<path
   class="st306"
   d="M368.8,272.5c1.1-1.1,2.1-2.2,3.2-3.3C370.9,270.3,369.9,271.4,368.8,272.5z"
   id="path1154" />
	<path
   class="st305"
   d="M721.8,469.9c-0.6-0.7-0.6-1.3,0.2-1.8c0,0,0.6,1,0.6,1L721.8,469.9z"
   id="path1156" />
	<path
   class="st308"
   d="M359.9,754.4c0.2-0.3,0.4-0.6,0.6-1C360.2,753.8,360.1,754.1,359.9,754.4   C359.9,754.4,359.9,754.4,359.9,754.4z"
   id="path1158" />
	<path
   class="st303"
   d="M786.5,763.4c0.4,0.2,0.7,0.4,1.1,0.6c-0.3-0.3-0.6-0.6-0.9-0.8C786.7,763.2,786.5,763.4,786.5,763.4z"
   id="path1160" />
	<path
   class="st306"
   d="M365.8,275.5c1.1-1.1,2.2-2.2,3.3-3.4C368,273.3,366.9,274.4,365.8,275.5z"
   id="path1162" />
	<path
   class="st306"
   d="M363.1,278.8c1.1-1.2,2.1-2.5,3.2-3.7C365.2,276.4,364.1,277.6,363.1,278.8z"
   id="path1164" />
	<polygon
   class="st305"
   points="728.3,277.5 727.1,276.9 728.3,277.4  "
   id="polygon1166" />
	<path
   class="st305"
   d="M722.6,389.4l-0.8-0.4c0,0,0.7-0.4,0.7-0.4C722.5,388.6,722.6,389.4,722.6,389.4z"
   id="path1168" />
	<path
   class="st306"
   d="M757.3,292.8c-1.1-1.2-2.2-2.3-3.2-3.5C755.1,290.5,756.2,291.7,757.3,292.8z"
   id="path1170" />
	<path
   class="st299"
   d="M434.3,303.7c-0.8-5.4,0.7-6.3,6.4-5.3c32.5,5.6,57.7-6.3,74.8-34.4c1.4-2.4,4-5.6,6.1-5.7   c4.3-0.2,4,4.7,5.5,7.6c3.1,5.7-0.4,12.8,4.1,18.2c-7.7,0-2.6,9.8-8.6,11.2c-1.8,7.1-8.7,10.3-12,16.2c-2.1,1.6-4.1,3.2-6.2,4.9   c-1,0.7-2,1.3-2.9,2c-2.1,1.1-4.2,2.2-6.4,3.3c0,0,0.3-0.3,0.3-0.3c-14.5,2.7-28.7,2.3-42.4-3.6c0,0-0.1,0.2-0.1,0.2   c-1.4-0.6-2.8-1.2-4.2-1.9c0,0,0.4,0.2,0.4,0.2c-2-1.3-4-2.5-6-3.8c0,0,0.6,0.7,0.6,0.7c-1.2-1.1-2.5-2.2-3.7-3.4   c0,0,0.6,0.6,0.6,0.6c-1.2-1.1-2.4-2.2-3.6-3.3c0,0,0.4,0.5,0.4,0.5C436.5,306.2,435.4,305,434.3,303.7z"
   id="path1172" />
	<path
   class="st309"
   d="M596.9,490.6c22.8,4.8,41.4,15.5,52.7,37.5c-56.9-29.7-114.3-36.4-173.3-5.5c3.5-10.9,3.5-10.9,31.4-28.7   C537.1,484.3,566.8,482.2,596.9,490.6z"
   id="path1174" />
	<path
   class="st299"
   d="M697.4,287.2c-2.9,14.3-15.8,27.4-29.2,29.1c-21,2.7-40.8-0.8-58.8-12.7c-8.7-5.7-12.1-13.7-12.5-23.6   c-0.2-4.6,0-9.9,4.6-11.4c3.8-1.3,7.2,2,10.9,4.6C637.8,291.5,665.1,300.8,697.4,287.2z"
   id="path1176" />
	<path
   class="st309"
   d="M584.6,370.6c15,12.2,21,30.6,31.3,46c9.7,14.5,0.9,35.9-15.9,43.7c-21.7,10.1-43.4,8.9-66.6-3.3   c8.2-4,14.2-1.5,20.2-0.7c13.9,2,27.7,1.9,40.5-4.7c15.9-8.3,18.5-25.3,5.8-36.7c-1-0.3-2.1-0.6-3.1-0.9c0,0,0.2,0.2,0.2,0.2   c-1.9-4.7-5.6-3-8.9-2.6c-0.7-0.6-1.5-0.8-2.4-0.7c-6.8-9.1-16.5-2.5-24.6-4.4c0-1.4-0.1-2.8-0.1-4.2c10-4.7,20.7-3.9,31.3-3.1   C593.3,388.4,580.1,381.9,584.6,370.6z"
   id="path1178" />
	<path
   class="st309"
   d="M451.6,367.2c21.4,16.9,42.8,32.4,66.8,5.4c1.7,15-10.8,27.3-27.8,28.4C468.9,402.4,451.7,388.4,451.6,367.2   z"
   id="path1180" />
	<path
   class="st309"
   d="M610.7,359.4c23.4,16.7,29.8,25.9,62,4.6c0.4,9.8-12.9,26.4-22.6,28.3C633.2,395.6,615.7,381.6,610.7,359.4z   "
   id="path1182" />
	<path
   class="st305"
   d="M479.3,241c41.6-13.4,84-14.5,126.9-10.4C564.1,236,521.3,234.7,479.3,241z"
   id="path1184" />
	<path
   class="st309"
   d="M538.7,543.7c-14.8-7.2-1.8-10.2,2.2-14.5c2.1-0.2,4.3-0.4,6.4-0.5c0,0,0.5,0.1,0.5,0.1   c8-2.2,16.1-2.5,24.1,0c0,0,0.4-0.2,0.4-0.3c3,1.7,6,3.5,11.9,7c-15.4,0.9-27.3,0.5-38.4,5.3c0,0,0.1-0.4,0.1-0.4   C543.5,541.2,540.2,540.5,538.7,543.7z"
   id="path1186" />
	<path
   class="st309"
   d="M522.8,295.3c6-1.4,0.9-11.2,8.6-11.2c12.4-3,10.2-14.6,13.7-24.2c9.4,11.6,4.8,21.3-2.4,30   C537.7,296,531.6,301.8,522.8,295.3z"
   id="path1188" />
	<path
   class="st306"
   d="M596.9,490.6c-30.1-8.4-59.8-6.4-89.2,3.3c2.6-7.3,10.1-6.7,15.4-8.2c21.9-6,44.2-5,66.4-0.9   C593.1,485.6,596.2,486.4,596.9,490.6z"
   id="path1190" />
	<path
   class="st306"
   d="M584.6,370.6c-4.5,11.3,8.7,17.8,7.8,28.5c-10.6-0.7-21.3-1.6-31.3,3.1c-0.1-0.9-0.5-2.6-0.3-2.7   c13.4-4.7,28.3-8.2,19.1-28.4C579,369.1,582.5,367.7,584.6,370.6z"
   id="path1192" />
	<path
   class="st306"
   d="M545.9,540.7c11.1-4.8,23-4.3,38.4-5.3c-6-3.5-8.9-5.3-11.9-7c9.4-3.7,15.7,0.1,21,8   C577.5,542.2,561.7,542.1,545.9,540.7z"
   id="path1194" />
	<path
   class="st305"
   d="M534.3,197.4c17-1.8,34-5.4,52.8,2.7C567.4,203.8,550.9,194.9,534.3,197.4z"
   id="path1196" />
	<path
   class="st309"
   d="M579.9,266.5c2.5-1.4,1.3-6.6,5.2-6.1c5.4,0.8-1.8,5.7,2,7.5c-4.8,8.4-0.2,16.6,0.6,24.9   c-1.8,0.9-3.7,1.7-5.5,2.6c0,0,0.2,0.3,0.2,0.3c-0.8-2.3-1.7-4.5-2.5-6.8c0,0,0.4,0.5,0.4,0.5C578.7,281.9,578.8,274.2,579.9,266.5   z"
   id="path1198" />
	<path
   class="st306"
   d="M453.1,317.6c13.7,5.9,28,6.3,42.4,3.6C483.9,331.9,463.4,330.1,453.1,317.6z"
   id="path1200" />
	<path
   class="st306"
   d="M561.2,406.5c8.1,1.9,17.7-4.7,24.6,4.4C577.5,409.6,568.1,415.1,561.2,406.5z"
   id="path1202" />
	<path
   class="st306"
   d="M579.9,266.5c-1.1,7.7-1.2,15.4,0.3,23C572.7,282,570.4,274.3,579.9,266.5z"
   id="path1204" />
	<path
   class="st306"
   d="M571.9,528.6c-8-2.4-16.1-2.2-24.1,0C555.9,520.9,563.9,520.9,571.9,528.6z"
   id="path1206" />
	<path
   class="st306"
   d="M582.2,295.5c1.8-0.9,3.7-1.7,5.5-2.6c3.4,2.8,1.9,4.8-1.3,6.1C583.1,300.4,582.4,298.1,582.2,295.5z"
   id="path1208" />
	<path
   class="st306"
   d="M588.2,411.5c3.4-0.5,7-2.1,8.9,2.6C593.9,414.2,590.6,414.4,588.2,411.5z"
   id="path1210" />
	<path
   class="st306"
   d="M579.9,289.1c0.8,2.3,1.7,4.5,2.5,6.8C579.7,294.3,579.4,291.8,579.9,289.1z"
   id="path1212" />
	<path
   class="st306"
   d="M443.3,312.4c2,1.3,4,2.5,6,3.8C446.5,316.2,444.1,315.5,443.3,312.4z"
   id="path1214" />
	<path
   class="st306"
   d="M504.5,316.3c2.1-1.6,4.1-3.2,6.2-4.9C509.9,314.7,507.6,316,504.5,316.3z"
   id="path1216" />
	<polygon
   class="st305"
   points="594.3,202 594.3,203.1 593.1,202.6  "
   id="polygon1218" />
	<path
   class="st306"
   d="M495.2,321.6c2.1-1.1,4.2-2.2,6.4-3.3C500.6,321.6,498.2,322.1,495.2,321.6z"
   id="path1220" />
	<path
   class="st309"
   d="M472.7,527.2c-0.8-1.4-1.3-2.3-1.9-3.2c1.2-0.7,2.3-1.5,3.6-1.9c0.3-0.1,1.7,1.7,1.5,2   C475.2,525.1,474.1,525.8,472.7,527.2z"
   id="path1222" />
	<path
   class="st306"
   d="M547.4,528.6c-2.1,0.2-4.3,0.4-6.4,0.5C542.9,527.1,545.1,527,547.4,528.6z"
   id="path1224" />
	<path
   class="st306"
   d="M538.7,543.7c1.4-3.2,4.7-2.5,7.2-3.4C544.6,543.7,541.8,544,538.7,543.7z"
   id="path1226" />
	<path
   class="st306"
   d="M448.9,316c1.4,0.6,2.8,1.2,4.2,1.9C451.2,318.3,449.8,317.7,448.9,316z"
   id="path1228" />
	<path
   class="st306"
   d="M596.9,414c1,0.3,2.1,0.6,3.1,0.9C598.6,416,597.6,415.4,596.9,414z"
   id="path1230" />
	<path
   class="st306"
   d="M440.2,309.7c1.2,1.1,2.5,2.2,3.7,3.4C442.7,312,441.4,310.8,440.2,309.7z"
   id="path1232" />
	<path
   class="st306"
   d="M437.1,307c1.2,1.1,2.4,2.2,3.6,3.3C439.5,309.2,438.3,308.1,437.1,307z"
   id="path1234" />
	<path
   class="st306"
   d="M434.3,303.7c1.1,1.3,2.1,2.5,3.2,3.8C436.5,306.3,435.4,305,434.3,303.7z"
   id="path1236" />
	<path
   class="st303"
   d="M712.5,674.5c-0.6-0.6-1.2-1.3-1.7-1.9c0.4-0.2,0.8-0.4,1.2-0.6c0.1,0.9,0.3,1.7,0.4,2.6   C712.4,674.6,712.5,674.5,712.5,674.5z"
   id="path1238" />
	<path
   class="st299"
   d="M690.8,651.9c-1.1-0.9-1.6-1.9-0.3-3.1c0.5,0.6,1,1.3,1.4,1.9C691.5,651.1,691.2,651.5,690.8,651.9z"
   id="path1240" />
	<path
   class="st301"
   d="M411,848c21.3,29.7,39.9,57.5,74.8,71.1C461.3,925.9,416.8,883.1,411,848z"
   id="path1242" />
	<path
   class="st302"
   d="M348.1,355.1c-2.8-2.1-2.7-4.1,0.1-6.1C348.2,351,348.2,353,348.1,355.1z"
   id="path1244" />
	<path
   class="st302"
   d="M324.4,310.8c6.7-15.2,10.4-32.7,29.5-38.4c-6.7,11.8-13.2,23.8-20.1,35.4C332,311,329.1,314.9,324.4,310.8z   "
   id="path1246" />
</g>
</svg>
