<svg width="122" height="166" viewBox="0 0 122 166" fill="none" xmlns="http://www.w3.org/2000/svg">
<g clip-path="url(#clip0_76_23783)">
<path d="M68.0611 76.1939C68.0324 76.1939 68.0132 76.1939 67.9845 76.1939H67.9653C67.9365 76.1939 67.9174 76.1939 67.8886 76.2034C67.8599 76.2034 67.8407 76.2034 67.8119 76.213C67.7832 76.213 67.764 76.2225 67.7353 76.232C67.7161 76.232 67.6873 76.2321 67.6682 76.2416H67.6586C67.6586 76.2416 67.6394 76.2416 67.6394 76.2511C67.6011 76.2607 67.5723 76.2702 67.5436 76.2798C67.5244 76.2798 67.4956 76.2988 67.4765 76.3084C67.4573 76.3179 67.4285 76.3275 67.4094 76.337C67.3902 76.3465 67.3614 76.3561 67.3423 76.3752C67.3231 76.3847 67.2944 76.4038 67.2752 76.4133C67.256 76.4229 67.2368 76.442 67.2081 76.4515C67.1889 76.461 67.1698 76.4801 67.1506 76.4992C67.1314 76.5183 67.1122 76.5278 67.0931 76.5469C67.0739 76.566 67.0547 76.5755 67.0356 76.5946C67.0164 76.6137 66.9972 76.6328 66.9781 76.6518C66.9589 76.6709 66.9397 76.69 66.9301 76.7091C66.911 76.7282 66.9014 76.7473 66.8822 76.7663C66.863 76.7854 66.8535 76.8045 66.8343 76.8236C66.8151 76.8427 66.8055 76.8617 66.796 76.8904C66.7864 76.9095 66.7672 76.9285 66.7576 76.9572C66.748 76.9762 66.7384 77.0049 66.7193 77.0239C66.7097 77.043 66.7001 77.0716 66.6905 77.0907C66.6809 77.1098 66.6713 77.1384 66.6618 77.1575C66.6618 77.1766 66.6426 77.2052 66.633 77.2243C66.633 77.2434 66.6138 77.272 66.6138 77.3006C66.6138 77.3197 66.6043 77.3483 66.5947 77.377C66.5947 77.4056 66.5851 77.4247 66.5851 77.4533C66.5851 77.4819 66.5851 77.501 66.5755 77.5296C66.5755 77.5582 66.5755 77.5773 66.5659 77.6059C66.5659 77.6346 66.5659 77.6536 66.5659 77.6823C66.5659 77.6918 66.5659 77.7013 66.5659 77.7109C66.5659 77.7395 66.5659 77.7586 66.5659 77.7872C66.5659 77.7872 66.5659 77.8063 66.5659 77.8158C66.5659 77.8445 66.5659 77.8635 66.5755 77.8922C66.5755 77.9208 66.5755 77.9399 66.5851 77.9685C66.5851 77.9971 66.5947 78.0162 66.6043 78.0448C66.6043 78.0639 66.6043 78.0925 66.6138 78.1116C66.6138 78.1307 66.6138 78.1402 66.6234 78.1402C66.633 78.1784 66.6426 78.207 66.6618 78.2356C66.6618 78.2547 66.6809 78.2833 66.6905 78.3024C66.7001 78.3215 66.7097 78.3501 66.7193 78.3692C66.7289 78.3883 66.7384 78.4169 66.7576 78.436C66.7672 78.4551 66.7864 78.4837 66.796 78.5028C66.8055 78.5219 66.8247 78.5409 66.8343 78.5696C66.8439 78.5886 66.863 78.6077 66.8822 78.6268C66.9014 78.6459 66.911 78.665 66.9301 78.6841C66.9493 78.7031 66.9589 78.7222 66.9781 78.7413C66.9972 78.7604 67.0164 78.7795 67.0356 78.7985C67.0547 78.8176 67.0739 78.8367 67.0931 78.8463C67.1122 78.8653 67.1314 78.8749 67.1506 78.894C67.1698 78.913 67.1889 78.9226 67.2081 78.9417C67.2273 78.9607 67.2464 78.9703 67.2752 78.9798C67.2944 78.9894 67.3135 79.0084 67.3423 79.018C67.3614 79.0275 67.3902 79.0466 67.4094 79.0562C67.4285 79.0657 67.4573 79.0752 67.4765 79.0848C67.4956 79.0943 67.5244 79.1039 67.5436 79.1134C67.5627 79.1134 67.5915 79.1325 67.6202 79.142C67.6394 79.142 67.6682 79.1611 67.6969 79.1611C67.7257 79.1611 67.7448 79.1706 67.7736 79.1802C67.8023 79.1802 67.8215 79.1897 67.8503 79.1897C67.879 79.1897 67.8982 79.1897 67.9269 79.1993C67.9557 79.1993 67.9749 79.1993 68.0036 79.2088C68.0324 79.2088 68.0515 79.2088 68.0803 79.2088C68.0899 79.2088 68.0995 79.2088 68.1091 79.2088C68.1378 79.2088 68.157 79.2088 68.1857 79.2088H68.2049C68.2337 79.2088 68.2528 79.2088 68.2816 79.1993C68.3103 79.1993 68.3295 79.1993 68.3583 79.1897C68.387 79.1897 68.4062 79.1802 68.4349 79.1706C68.4541 79.1706 68.4829 79.1706 68.502 79.1611H68.5116C68.5116 79.1611 68.5308 79.1611 68.5308 79.1516C68.5691 79.142 68.5979 79.1325 68.6362 79.1134C68.6554 79.1134 68.6841 79.0943 68.7033 79.0848C68.7225 79.0752 68.7512 79.0657 68.7704 79.0562C68.7896 79.0466 68.8183 79.0371 68.8375 79.018C68.8567 79.0084 68.8854 78.9894 68.9046 78.9798C68.9238 78.9703 68.9429 78.9512 68.9717 78.9417C68.9909 78.9321 69.01 78.913 69.0292 78.894C69.0484 78.8749 69.0675 78.8653 69.0867 78.8463C69.1059 78.8272 69.125 78.8176 69.1442 78.7985C69.1634 78.7795 69.1825 78.7604 69.2017 78.7413C69.2209 78.7222 69.2401 78.7031 69.2496 78.6841C69.2688 78.665 69.2784 78.6459 69.2976 78.6268C69.3167 78.6077 69.3263 78.5886 69.3455 78.5696C69.3647 78.5505 69.3742 78.5314 69.3838 78.5028C69.3934 78.4837 69.4126 78.4646 69.4222 78.436C69.4317 78.4169 69.4509 78.3883 69.4605 78.3692C69.4701 78.3501 69.4797 78.3215 69.4893 78.3024C69.4988 78.2833 69.5084 78.2547 69.518 78.2356C69.518 78.2166 69.5372 78.1879 69.5468 78.1593C69.5468 78.1402 69.5659 78.1116 69.5659 78.083C69.5659 78.0544 69.5755 78.0353 69.5851 78.0067C69.5851 77.978 69.5947 77.959 69.5947 77.9303C69.5947 77.9017 69.5947 77.8826 69.6043 77.854C69.6043 77.8254 69.6043 77.8063 69.6139 77.7777C69.6139 77.749 69.6139 77.73 69.6139 77.7013V77.6727C69.6139 77.6441 69.6139 77.625 69.6139 77.5964V77.5773C69.6139 77.5487 69.6139 77.5296 69.6043 77.501C69.6043 77.4724 69.6043 77.4533 69.5947 77.4247C69.5947 77.396 69.5851 77.377 69.5755 77.3483C69.5755 77.3293 69.5755 77.3006 69.5659 77.2815C69.5659 77.2625 69.5659 77.2529 69.5564 77.2529C69.5468 77.2148 69.5372 77.1861 69.5276 77.1575C69.5276 77.1289 69.5084 77.1098 69.4988 77.0907C69.4893 77.0716 69.4797 77.043 69.4701 77.0239C69.4605 77.0049 69.4509 76.9762 69.4318 76.9572C69.4222 76.9381 69.403 76.9095 69.3934 76.8904C69.3838 76.8713 69.3647 76.8522 69.3551 76.8236C69.3359 76.8045 69.3263 76.7854 69.3071 76.7663C69.288 76.7473 69.2784 76.7282 69.2592 76.7091C69.2401 76.69 69.2305 76.6709 69.2113 76.6518C69.1921 76.6328 69.173 76.6137 69.1538 76.5946C69.1346 76.5755 69.1155 76.5564 69.0963 76.5469C69.0771 76.5278 69.0579 76.5183 69.0388 76.4992C69.0196 76.4801 69.0004 76.4706 68.9813 76.4515C68.9621 76.4324 68.9429 76.4229 68.9142 76.4133C68.895 76.4038 68.8758 76.3847 68.8471 76.3752C68.8279 76.3656 68.7992 76.3465 68.78 76.337C68.7608 76.3275 68.7321 76.3179 68.7129 76.2988C68.6937 76.2893 68.665 76.2798 68.6458 76.2702C68.6266 76.2702 68.5979 76.2511 68.5787 76.2416C68.55 76.2416 68.5308 76.2225 68.502 76.2225C68.4733 76.2225 68.4541 76.213 68.4254 76.2034C68.3966 76.2034 68.3774 76.1939 68.3487 76.1939C68.3199 76.1939 68.3008 76.1939 68.272 76.1843C68.2432 76.1843 68.2241 76.1843 68.1953 76.1748C68.1666 76.1748 68.1474 76.1748 68.1186 76.1748C68.1091 76.1748 68.0995 76.1748 68.0899 76.1748L68.0611 76.1939Z" fill="white"/>
<path d="M68.0611 76.1941C68.0324 76.1941 68.0132 76.1941 67.9845 76.1941H67.9653C67.9365 76.1941 67.9174 76.1941 67.8886 76.2037C67.8599 76.2037 67.8407 76.2037 67.8119 76.2132C67.7832 76.2132 67.764 76.2227 67.7353 76.2323C67.7161 76.2323 67.6873 76.2323 67.6682 76.2418H67.6586C67.6586 76.2418 67.6394 76.2418 67.6394 76.2514C67.6011 76.2609 67.5723 76.2704 67.5436 76.28C67.5244 76.28 67.4956 76.2991 67.4765 76.3086C67.4573 76.3181 67.4285 76.3277 67.4094 76.3372C67.3902 76.3468 67.3614 76.3563 67.3423 76.3754C67.3231 76.3849 67.2944 76.404 67.2752 76.4136C67.256 76.4231 67.2368 76.4422 67.2081 76.4517C67.1889 76.4613 67.1698 76.4803 67.1506 76.4994C67.1314 76.5185 67.1122 76.528 67.0931 76.5471C67.0739 76.5662 67.0547 76.5758 67.0356 76.5948C67.0164 76.6139 66.9972 76.633 66.9781 76.6521C66.9589 76.6712 66.9397 76.6902 66.9301 76.7093C66.911 76.7284 66.9014 76.7475 66.8822 76.7666C66.863 76.7856 66.8535 76.8047 66.8343 76.8238C66.8151 76.8429 66.8055 76.862 66.796 76.8906C66.7864 76.9097 66.7672 76.9288 66.7576 76.9574C66.748 76.9765 66.7384 77.0051 66.7193 77.0242C66.7097 77.0433 66.7001 77.0719 66.6905 77.091C66.6809 77.11 66.6713 77.1387 66.6618 77.1577C66.6618 77.1768 66.6426 77.2054 66.633 77.2245C66.633 77.2436 66.6138 77.2722 66.6138 77.3009C66.6138 77.3199 66.6043 77.3486 66.5947 77.3772C66.5947 77.4058 66.5851 77.4249 66.5851 77.4535C66.5851 77.4821 66.5851 77.5012 66.5755 77.5298C66.5755 77.5585 66.5755 77.5775 66.5659 77.6062C66.5659 77.6348 66.5659 77.6539 66.5659 77.6825C66.5659 77.692 66.5659 77.7016 66.5659 77.7111C66.5659 77.7397 66.5659 77.7588 66.5659 77.7874C66.5659 77.7874 66.5659 77.8065 66.5659 77.8161C66.5659 77.8447 66.5659 77.8638 66.5755 77.8924C66.5755 77.921 66.5755 77.9401 66.5851 77.9687C66.5851 77.9973 66.5947 78.0164 66.6043 78.045C66.6043 78.0641 66.6043 78.0927 66.6138 78.1118C66.6138 78.1309 66.6138 78.1405 66.6234 78.1405C66.633 78.1786 66.6426 78.2072 66.6618 78.2359C66.6618 78.2549 66.6809 78.2836 66.6905 78.3026C66.7001 78.3217 66.7097 78.3504 66.7193 78.3694C66.7289 78.3885 66.7384 78.4171 66.7576 78.4362C66.7672 78.4553 66.7864 78.4839 66.796 78.503C66.8055 78.5221 66.8247 78.5412 66.8343 78.5698C66.8439 78.5889 66.863 78.608 66.8822 78.627C66.9014 78.6461 66.911 78.6652 66.9301 78.6843C66.9493 78.7034 66.9589 78.7224 66.9781 78.7415C66.9972 78.7606 67.0164 78.7797 67.0356 78.7988C67.0547 78.8179 67.0739 78.8369 67.0931 78.8465C67.1122 78.8656 67.1314 78.8751 67.1506 78.8942C67.1698 78.9133 67.1889 78.9228 67.2081 78.9419C67.2273 78.961 67.2464 78.9705 67.2752 78.9801C67.2944 78.9896 67.3135 79.0087 67.3423 79.0182C67.3614 79.0278 67.3902 79.0468 67.4094 79.0564C67.4285 79.0659 67.4573 79.0755 67.4765 79.085C67.4956 79.0945 67.5244 79.1041 67.5436 79.1136C67.5627 79.1136 67.5915 79.1327 67.6202 79.1422C67.6394 79.1422 67.6682 79.1613 67.6969 79.1613C67.7257 79.1613 67.7448 79.1709 67.7736 79.1804C67.8023 79.1804 67.8215 79.1899 67.8503 79.1899C67.879 79.1899 67.8982 79.19 67.9269 79.1995C67.9557 79.1995 67.9749 79.1995 68.0036 79.209C68.0324 79.209 68.0515 79.209 68.0803 79.209H68.1091C68.1378 79.209 68.157 79.209 68.1857 79.209H68.2049C68.2337 79.209 68.2528 79.209 68.2816 79.1995C68.3103 79.1995 68.3295 79.1995 68.3583 79.1899C68.387 79.1899 68.4062 79.1804 68.4349 79.1709C68.4541 79.1709 68.4829 79.1709 68.502 79.1613H68.5116C68.5116 79.1613 68.5308 79.1613 68.5308 79.1518C68.5691 79.1422 68.5979 79.1327 68.6362 79.1232C68.6554 79.1232 68.6841 79.1041 68.7033 79.0945C68.7225 79.085 68.7512 79.0755 68.7704 79.0659C68.7896 79.0564 68.8183 79.0468 68.8375 79.0278C68.8567 79.0182 68.8854 78.9991 68.9046 78.9896C68.9238 78.9801 68.9429 78.961 68.9717 78.9514C68.9909 78.9419 69.01 78.9228 69.0292 78.9037C69.0484 78.8846 69.0675 78.8751 69.0867 78.856C69.1059 78.8369 69.125 78.8274 69.1442 78.8083C69.1634 78.7892 69.1825 78.7702 69.2017 78.7511C69.2209 78.732 69.2401 78.7129 69.2496 78.6938C69.2688 78.6747 69.2784 78.6557 69.2976 78.6366C69.3167 78.6175 69.3263 78.5984 69.3455 78.5793C69.3647 78.5603 69.3742 78.5412 69.3838 78.5125C69.3934 78.4935 69.4126 78.4744 69.4222 78.4458C69.4317 78.4267 69.4509 78.3981 69.4605 78.379C69.4701 78.3599 69.4797 78.3313 69.4893 78.3122C69.4988 78.2931 69.5084 78.2645 69.518 78.2454C69.518 78.2263 69.5372 78.1977 69.5468 78.1691C69.5468 78.1405 69.5659 78.1214 69.5659 78.0927C69.5659 78.0641 69.5755 78.045 69.5851 78.0164C69.5851 77.9878 69.5947 77.9687 69.5947 77.9401C69.5947 77.9115 69.5947 77.8924 69.6043 77.8638C69.6043 77.8351 69.6043 77.8161 69.6139 77.7874C69.6139 77.7588 69.6139 77.7397 69.6139 77.7111V77.6825C69.6139 77.6539 69.6139 77.6348 69.6139 77.6062V77.5871C69.6139 77.5585 69.6139 77.5394 69.6043 77.5108C69.6043 77.4821 69.6043 77.4631 69.5947 77.4344C69.5947 77.4058 69.5851 77.3867 69.5755 77.3581C69.5755 77.339 69.5755 77.3104 69.5659 77.2913C69.5659 77.2722 69.5659 77.2627 69.5564 77.2627C69.5468 77.2341 69.5372 77.1959 69.5276 77.1673C69.5276 77.1387 69.5084 77.1196 69.4988 77.1005C69.4893 77.0814 69.4797 77.0528 69.4701 77.0337C69.4605 77.0146 69.4509 76.986 69.4318 76.9669C69.4222 76.9478 69.403 76.9192 69.3934 76.9001C69.3838 76.8811 69.3647 76.862 69.3551 76.8334C69.3359 76.8143 69.3263 76.7952 69.3071 76.7761C69.288 76.757 69.2784 76.7379 69.2592 76.7189C69.2401 76.6998 69.2305 76.6807 69.2113 76.6616C69.1921 76.6425 69.173 76.6235 69.1538 76.6044C69.1346 76.5853 69.1155 76.5662 69.0963 76.5567C69.0771 76.5376 69.0579 76.528 69.0388 76.509C69.0196 76.4899 69.0004 76.4803 68.9813 76.4613C68.9621 76.4422 68.9429 76.4326 68.9142 76.4231C68.895 76.4136 68.8758 76.3945 68.8471 76.3849C68.8279 76.3754 68.7992 76.3563 68.78 76.3468C68.7608 76.3372 68.7321 76.3277 68.7129 76.3086C68.6937 76.2991 68.665 76.2895 68.6458 76.28C68.6266 76.2704 68.5979 76.2609 68.5787 76.2514C68.55 76.2514 68.5308 76.2323 68.502 76.2323C68.4733 76.2323 68.4541 76.2227 68.4254 76.2132C68.3966 76.2132 68.3774 76.2037 68.3487 76.2037C68.3199 76.2037 68.3008 76.2037 68.272 76.1941C68.2432 76.1941 68.2241 76.1941 68.1953 76.1846C68.1666 76.1846 68.1474 76.1846 68.1186 76.1846H68.0899L68.0611 76.1941Z" fill="white"/>
<path d="M68.0611 76.1941C68.0324 76.1941 68.0132 76.1941 67.9845 76.1941H67.9653C67.9365 76.1941 67.9174 76.1941 67.8886 76.2037C67.8599 76.2037 67.8407 76.2037 67.8119 76.2132C67.7832 76.2132 67.764 76.2227 67.7353 76.2323C67.7161 76.2323 67.6873 76.2323 67.6682 76.2418H67.6586C67.6586 76.2418 67.6394 76.2418 67.6394 76.2514C67.6011 76.2609 67.5723 76.2704 67.5436 76.28C67.5244 76.28 67.4956 76.2991 67.4765 76.3086C67.4573 76.3181 67.4285 76.3277 67.4094 76.3372C67.3902 76.3468 67.3614 76.3563 67.3423 76.3754C67.3231 76.3849 67.2944 76.404 67.2752 76.4136C67.256 76.4231 67.2368 76.4422 67.2081 76.4517C67.1889 76.4613 67.1698 76.4803 67.1506 76.4994C67.1314 76.5185 67.1122 76.528 67.0931 76.5471C67.0739 76.5662 67.0547 76.5758 67.0356 76.5948C67.0164 76.6139 66.9972 76.633 66.9781 76.6521C66.9589 76.6712 66.9397 76.6902 66.9301 76.7093C66.911 76.7284 66.9014 76.7475 66.8822 76.7666C66.863 76.7856 66.8535 76.8047 66.8343 76.8238C66.8151 76.8429 66.8055 76.862 66.796 76.8906C66.7864 76.9097 66.7672 76.9288 66.7576 76.9574C66.748 76.9765 66.7384 77.0051 66.7193 77.0242C66.7097 77.0433 66.7001 77.0719 66.6905 77.091C66.6809 77.11 66.6713 77.1387 66.6618 77.1577C66.6618 77.1768 66.6426 77.2054 66.633 77.2245C66.633 77.2436 66.6138 77.2722 66.6138 77.3009C66.6138 77.3199 66.6043 77.3486 66.5947 77.3772C66.5947 77.4058 66.5851 77.4249 66.5851 77.4535C66.5851 77.4821 66.5851 77.5012 66.5755 77.5298C66.5755 77.5585 66.5755 77.5775 66.5659 77.6062C66.5659 77.6348 66.5659 77.6539 66.5659 77.6825C66.5659 77.692 66.5659 77.7016 66.5659 77.7111C66.5659 77.7397 66.5659 77.7588 66.5659 77.7874C66.5659 77.7874 66.5659 77.8065 66.5659 77.8161C66.5659 77.8447 66.5659 77.8638 66.5755 77.8924C66.5755 77.921 66.5755 77.9401 66.5851 77.9687C66.5851 77.9973 66.5947 78.0164 66.6043 78.045C66.6043 78.0641 66.6043 78.0927 66.6138 78.1118C66.6138 78.1309 66.6138 78.1405 66.6234 78.1405C66.633 78.1786 66.6426 78.2072 66.6618 78.2359C66.6618 78.2549 66.6809 78.2836 66.6905 78.3026C66.7001 78.3217 66.7097 78.3504 66.7193 78.3694C66.7289 78.3885 66.7384 78.4171 66.7576 78.4362C66.7672 78.4553 66.7864 78.4839 66.796 78.503C66.8055 78.5221 66.8247 78.5412 66.8343 78.5698C66.8439 78.5889 66.863 78.608 66.8822 78.627C66.9014 78.6461 66.911 78.6652 66.9301 78.6843C66.9493 78.7034 66.9589 78.7224 66.9781 78.7415C66.9972 78.7606 67.0164 78.7797 67.0356 78.7988C67.0547 78.8179 67.0739 78.8369 67.0931 78.8465C67.1122 78.8656 67.1314 78.8751 67.1506 78.8942C67.1698 78.9133 67.1889 78.9228 67.2081 78.9419C67.2273 78.961 67.2464 78.9705 67.2752 78.9801C67.2944 78.9896 67.3135 79.0087 67.3423 79.0182C67.3614 79.0278 67.3902 79.0468 67.4094 79.0564C67.4285 79.0659 67.4573 79.0755 67.4765 79.085C67.4956 79.0945 67.5244 79.1041 67.5436 79.1136C67.5627 79.1136 67.5915 79.1327 67.6202 79.1422C67.6394 79.1422 67.6682 79.1613 67.6969 79.1613C67.7257 79.1613 67.7448 79.1709 67.7736 79.1804C67.8023 79.1804 67.8215 79.1899 67.8503 79.1899C67.879 79.1899 67.8982 79.19 67.9269 79.1995C67.9557 79.1995 67.9749 79.1995 68.0036 79.209C68.0324 79.209 68.0515 79.209 68.0803 79.209H68.1091C68.1378 79.209 68.157 79.209 68.1857 79.209H68.2049C68.2337 79.209 68.2528 79.209 68.2816 79.1995C68.3103 79.1995 68.3295 79.1995 68.3583 79.1899C68.387 79.1899 68.4062 79.1804 68.4349 79.1709C68.4541 79.1709 68.4829 79.1709 68.502 79.1613H68.5116C68.5116 79.1613 68.5308 79.1613 68.5308 79.1518C68.5691 79.1422 68.5979 79.1327 68.6362 79.1232C68.6554 79.1232 68.6841 79.1041 68.7033 79.0945C68.7225 79.085 68.7512 79.0755 68.7704 79.0659C68.7896 79.0564 68.8183 79.0468 68.8375 79.0278C68.8567 79.0182 68.8854 78.9991 68.9046 78.9896C68.9238 78.9801 68.9429 78.961 68.9717 78.9514C68.9909 78.9419 69.01 78.9228 69.0292 78.9037C69.0484 78.8846 69.0675 78.8751 69.0867 78.856C69.1059 78.8369 69.125 78.8274 69.1442 78.8083C69.1634 78.7892 69.1825 78.7702 69.2017 78.7511C69.2209 78.732 69.2401 78.7129 69.2496 78.6938C69.2688 78.6747 69.2784 78.6557 69.2976 78.6366C69.3167 78.6175 69.3263 78.5984 69.3455 78.5793C69.3647 78.5603 69.3742 78.5412 69.3838 78.5125C69.3934 78.4935 69.4126 78.4744 69.4222 78.4458C69.4317 78.4267 69.4509 78.3981 69.4605 78.379C69.4701 78.3599 69.4797 78.3313 69.4893 78.3122C69.4988 78.2931 69.5084 78.2645 69.518 78.2454C69.518 78.2263 69.5372 78.1977 69.5468 78.1691C69.5468 78.1405 69.5659 78.1214 69.5659 78.0927C69.5659 78.0641 69.5755 78.045 69.5851 78.0164C69.5851 77.9878 69.5947 77.9687 69.5947 77.9401C69.5947 77.9115 69.5947 77.8924 69.6043 77.8638C69.6043 77.8351 69.6043 77.8161 69.6139 77.7874C69.6139 77.7588 69.6139 77.7397 69.6139 77.7111V77.6825C69.6139 77.6539 69.6139 77.6348 69.6139 77.6062V77.5871C69.6139 77.5585 69.6139 77.5394 69.6043 77.5108C69.6043 77.4821 69.6043 77.4631 69.5947 77.4344C69.5947 77.4058 69.5851 77.3867 69.5755 77.3581C69.5755 77.339 69.5755 77.3104 69.5659 77.2913C69.5659 77.2722 69.5659 77.2627 69.5564 77.2627C69.5468 77.2341 69.5372 77.1959 69.5276 77.1673C69.5276 77.1387 69.5084 77.1196 69.4988 77.1005C69.4893 77.0814 69.4797 77.0528 69.4701 77.0337C69.4605 77.0146 69.4509 76.986 69.4318 76.9669C69.4222 76.9478 69.403 76.9192 69.3934 76.9001C69.3838 76.8811 69.3647 76.862 69.3551 76.8334C69.3359 76.8143 69.3263 76.7952 69.3071 76.7761C69.288 76.757 69.2784 76.7379 69.2592 76.7189C69.2401 76.6998 69.2305 76.6807 69.2113 76.6616C69.1921 76.6425 69.173 76.6235 69.1538 76.6044C69.1346 76.5853 69.1155 76.5662 69.0963 76.5567C69.0771 76.5376 69.0579 76.528 69.0388 76.509C69.0196 76.4899 69.0004 76.4803 68.9813 76.4613C68.9621 76.4422 68.9429 76.4326 68.9142 76.4231C68.895 76.4136 68.8758 76.3945 68.8471 76.3849C68.8279 76.3754 68.7992 76.3563 68.78 76.3468C68.7608 76.3372 68.7321 76.3277 68.7129 76.3086C68.6937 76.2991 68.665 76.2895 68.6458 76.28C68.6266 76.2704 68.5979 76.2609 68.5787 76.2514C68.55 76.2514 68.5308 76.2323 68.502 76.2323C68.4733 76.2323 68.4541 76.2227 68.4254 76.2132C68.3966 76.2132 68.3774 76.2037 68.3487 76.2037C68.3199 76.2037 68.3008 76.2037 68.272 76.1941C68.2432 76.1941 68.2241 76.1941 68.1953 76.1846C68.1666 76.1846 68.1474 76.1846 68.1186 76.1846H68.0899L68.0611 76.1941Z" fill="white"/>
<path d="M68.0611 76.1941C68.0324 76.1941 68.0132 76.1941 67.9845 76.1941H67.9653C67.9365 76.1941 67.9174 76.1941 67.8886 76.2037C67.8599 76.2037 67.8407 76.2037 67.8119 76.2132C67.7832 76.2132 67.764 76.2227 67.7353 76.2323C67.7161 76.2323 67.6873 76.2323 67.6682 76.2418H67.6586C67.6586 76.2418 67.6394 76.2418 67.6394 76.2514C67.6011 76.2609 67.5723 76.2704 67.5436 76.28C67.5244 76.28 67.4956 76.2991 67.4765 76.3086C67.4573 76.3181 67.4285 76.3277 67.4094 76.3372C67.3902 76.3468 67.3614 76.3563 67.3423 76.3754C67.3231 76.3849 67.2944 76.404 67.2752 76.4136C67.256 76.4231 67.2368 76.4422 67.2081 76.4517C67.1889 76.4613 67.1698 76.4803 67.1506 76.4994C67.1314 76.5185 67.1122 76.528 67.0931 76.5471C67.0739 76.5662 67.0547 76.5758 67.0356 76.5948C67.0164 76.6139 66.9972 76.633 66.9781 76.6521C66.9589 76.6712 66.9397 76.6902 66.9301 76.7093C66.911 76.7284 66.9014 76.7475 66.8822 76.7666C66.863 76.7856 66.8535 76.8047 66.8343 76.8238C66.8151 76.8429 66.8055 76.862 66.796 76.8906C66.7864 76.9097 66.7672 76.9288 66.7576 76.9574C66.748 76.9765 66.7384 77.0051 66.7193 77.0242C66.7097 77.0433 66.7001 77.0719 66.6905 77.091C66.6809 77.11 66.6713 77.1387 66.6618 77.1577C66.6618 77.1768 66.6426 77.2054 66.633 77.2245C66.633 77.2436 66.6138 77.2722 66.6138 77.3009C66.6138 77.3199 66.6043 77.3486 66.5947 77.3772C66.5947 77.4058 66.5851 77.4249 66.5851 77.4535C66.5851 77.4821 66.5851 77.5012 66.5755 77.5298C66.5755 77.5585 66.5755 77.5775 66.5659 77.6062C66.5659 77.6348 66.5659 77.6539 66.5659 77.6825C66.5659 77.692 66.5659 77.7016 66.5659 77.7111C66.5659 77.7397 66.5659 77.7588 66.5659 77.7874C66.5659 77.7874 66.5659 77.8065 66.5659 77.8161C66.5659 77.8447 66.5659 77.8638 66.5755 77.8924C66.5755 77.921 66.5755 77.9401 66.5851 77.9687C66.5851 77.9973 66.5947 78.0164 66.6043 78.045C66.6043 78.0641 66.6043 78.0927 66.6138 78.1118C66.6138 78.1309 66.6138 78.1405 66.6234 78.1405C66.633 78.1786 66.6426 78.2072 66.6618 78.2359C66.6618 78.2549 66.6809 78.2836 66.6905 78.3026C66.7001 78.3217 66.7097 78.3504 66.7193 78.3694C66.7289 78.3885 66.7384 78.4171 66.7576 78.4362C66.7672 78.4553 66.7864 78.4839 66.796 78.503C66.8055 78.5221 66.8247 78.5412 66.8343 78.5698C66.8439 78.5889 66.863 78.608 66.8822 78.627C66.9014 78.6461 66.911 78.6652 66.9301 78.6843C66.9493 78.7034 66.9589 78.7224 66.9781 78.7415C66.9972 78.7606 67.0164 78.7797 67.0356 78.7988C67.0547 78.8179 67.0739 78.8369 67.0931 78.8465C67.1122 78.8656 67.1314 78.8751 67.1506 78.8942C67.1698 78.9133 67.1889 78.9228 67.2081 78.9419C67.2273 78.961 67.2464 78.9705 67.2752 78.9801C67.2944 78.9896 67.3135 79.0087 67.3423 79.0182C67.3614 79.0278 67.3902 79.0468 67.4094 79.0564C67.4285 79.0659 67.4573 79.0755 67.4765 79.085C67.4956 79.0945 67.5244 79.1041 67.5436 79.1136C67.5627 79.1136 67.5915 79.1327 67.6202 79.1422C67.6394 79.1422 67.6682 79.1613 67.6969 79.1613C67.7257 79.1613 67.7448 79.1709 67.7736 79.1804C67.8023 79.1804 67.8215 79.1899 67.8503 79.1899C67.879 79.1899 67.8982 79.19 67.9269 79.1995C67.9557 79.1995 67.9749 79.1995 68.0036 79.209C68.0324 79.209 68.0515 79.209 68.0803 79.209H68.1091C68.1378 79.209 68.157 79.209 68.1857 79.209H68.2049C68.2337 79.209 68.2528 79.209 68.2816 79.1995C68.3103 79.1995 68.3295 79.1995 68.3583 79.1899C68.387 79.1899 68.4062 79.1804 68.4349 79.1709C68.4541 79.1709 68.4829 79.1709 68.502 79.1613H68.5116C68.5116 79.1613 68.5308 79.1613 68.5308 79.1518C68.5691 79.1422 68.5979 79.1327 68.6362 79.1232C68.6554 79.1232 68.6841 79.1041 68.7033 79.0945C68.7225 79.085 68.7512 79.0755 68.7704 79.0659C68.7896 79.0564 68.8183 79.0468 68.8375 79.0278C68.8567 79.0182 68.8854 78.9991 68.9046 78.9896C68.9238 78.9801 68.9429 78.961 68.9717 78.9514C68.9909 78.9419 69.01 78.9228 69.0292 78.9037C69.0484 78.8846 69.0675 78.8751 69.0867 78.856C69.1059 78.8369 69.125 78.8274 69.1442 78.8083C69.1634 78.7892 69.1825 78.7702 69.2017 78.7511C69.2209 78.732 69.2401 78.7129 69.2496 78.6938C69.2688 78.6747 69.2784 78.6557 69.2976 78.6366C69.3167 78.6175 69.3263 78.5984 69.3455 78.5793C69.3647 78.5603 69.3742 78.5412 69.3838 78.5125C69.3934 78.4935 69.4126 78.4744 69.4222 78.4458C69.4317 78.4267 69.4509 78.3981 69.4605 78.379C69.4701 78.3599 69.4797 78.3313 69.4893 78.3122C69.4988 78.2931 69.5084 78.2645 69.518 78.2454C69.518 78.2263 69.5372 78.1977 69.5468 78.1691C69.5468 78.1405 69.5659 78.1214 69.5659 78.0927C69.5659 78.0641 69.5755 78.045 69.5851 78.0164C69.5851 77.9878 69.5947 77.9687 69.5947 77.9401C69.5947 77.9115 69.5947 77.8924 69.6043 77.8638C69.6043 77.8351 69.6043 77.8161 69.6139 77.7874C69.6139 77.7588 69.6139 77.7397 69.6139 77.7111V77.6825C69.6139 77.6539 69.6139 77.6348 69.6139 77.6062V77.5871C69.6139 77.5585 69.6139 77.5394 69.6043 77.5108C69.6043 77.4821 69.6043 77.4631 69.5947 77.4344C69.5947 77.4058 69.5851 77.3867 69.5755 77.3581C69.5755 77.339 69.5755 77.3104 69.5659 77.2913C69.5659 77.2722 69.5659 77.2627 69.5564 77.2627C69.5468 77.2341 69.5372 77.1959 69.5276 77.1673C69.5276 77.1387 69.5084 77.1196 69.4988 77.1005C69.4893 77.0814 69.4797 77.0528 69.4701 77.0337C69.4605 77.0146 69.4509 76.986 69.4318 76.9669C69.4222 76.9478 69.403 76.9192 69.3934 76.9001C69.3838 76.8811 69.3647 76.862 69.3551 76.8334C69.3359 76.8143 69.3263 76.7952 69.3071 76.7761C69.288 76.757 69.2784 76.7379 69.2592 76.7189C69.2401 76.6998 69.2305 76.6807 69.2113 76.6616C69.1921 76.6425 69.173 76.6235 69.1538 76.6044C69.1346 76.5853 69.1155 76.5662 69.0963 76.5567C69.0771 76.5376 69.0579 76.528 69.0388 76.509C69.0196 76.4899 69.0004 76.4803 68.9813 76.4613C68.9621 76.4422 68.9429 76.4326 68.9142 76.4231C68.895 76.4136 68.8758 76.3945 68.8471 76.3849C68.8279 76.3754 68.7992 76.3563 68.78 76.3468C68.7608 76.3372 68.7321 76.3277 68.7129 76.3086C68.6937 76.2991 68.665 76.2895 68.6458 76.28C68.6266 76.2704 68.5979 76.2609 68.5787 76.2514C68.55 76.2514 68.5308 76.2323 68.502 76.2323C68.4733 76.2323 68.4541 76.2227 68.4254 76.2132C68.3966 76.2132 68.3774 76.2037 68.3487 76.2037C68.3199 76.2037 68.3008 76.2037 68.272 76.1941C68.2432 76.1941 68.2241 76.1941 68.1953 76.1846C68.1666 76.1846 68.1474 76.1846 68.1186 76.1846H68.0899L68.0611 76.1941Z" fill="white"/>
<path d="M68.0611 76.1941C68.0324 76.1941 68.0132 76.1941 67.9845 76.1941H67.9653C67.9365 76.1941 67.9174 76.1941 67.8886 76.2037C67.8599 76.2037 67.8407 76.2037 67.8119 76.2132C67.7832 76.2132 67.764 76.2227 67.7353 76.2323C67.7161 76.2323 67.6873 76.2323 67.6682 76.2418H67.6586C67.6586 76.2418 67.6394 76.2418 67.6394 76.2514C67.6011 76.2609 67.5723 76.2704 67.5436 76.28C67.5244 76.28 67.4956 76.2991 67.4765 76.3086C67.4573 76.3181 67.4285 76.3277 67.4094 76.3372C67.3902 76.3468 67.3614 76.3563 67.3423 76.3754C67.3231 76.3849 67.2944 76.404 67.2752 76.4136C67.256 76.4231 67.2368 76.4422 67.2081 76.4517C67.1889 76.4613 67.1698 76.4803 67.1506 76.4994C67.1314 76.5185 67.1122 76.528 67.0931 76.5471C67.0739 76.5662 67.0547 76.5758 67.0356 76.5948C67.0164 76.6139 66.9972 76.633 66.9781 76.6521C66.9589 76.6712 66.9397 76.6902 66.9301 76.7093C66.911 76.7284 66.9014 76.7475 66.8822 76.7666C66.863 76.7856 66.8535 76.8047 66.8343 76.8238C66.8151 76.8429 66.8055 76.862 66.796 76.8906C66.7864 76.9097 66.7672 76.9288 66.7576 76.9574C66.748 76.9765 66.7384 77.0051 66.7193 77.0242C66.7097 77.0433 66.7001 77.0719 66.6905 77.091C66.6809 77.11 66.6713 77.1387 66.6618 77.1577C66.6618 77.1768 66.6426 77.2054 66.633 77.2245C66.633 77.2436 66.6138 77.2722 66.6138 77.3009C66.6138 77.3199 66.6043 77.3486 66.5947 77.3772C66.5947 77.4058 66.5851 77.4249 66.5851 77.4535C66.5851 77.4821 66.5851 77.5012 66.5755 77.5298C66.5755 77.5585 66.5755 77.5775 66.5659 77.6062C66.5659 77.6348 66.5659 77.6539 66.5659 77.6825C66.5659 77.692 66.5659 77.7016 66.5659 77.7111C66.5659 77.7397 66.5659 77.7588 66.5659 77.7874C66.5659 77.7874 66.5659 77.8065 66.5659 77.8161C66.5659 77.8447 66.5659 77.8638 66.5755 77.8924C66.5755 77.921 66.5755 77.9401 66.5851 77.9687C66.5851 77.9973 66.5947 78.0164 66.6043 78.045C66.6043 78.0641 66.6043 78.0927 66.6138 78.1118C66.6138 78.1309 66.6138 78.1405 66.6234 78.1405C66.633 78.1786 66.6426 78.2072 66.6618 78.2359C66.6618 78.2549 66.6809 78.2836 66.6905 78.3026C66.7001 78.3217 66.7097 78.3504 66.7193 78.3694C66.7289 78.3885 66.7384 78.4171 66.7576 78.4362C66.7672 78.4553 66.7864 78.4839 66.796 78.503C66.8055 78.5221 66.8247 78.5412 66.8343 78.5698C66.8439 78.5889 66.863 78.608 66.8822 78.627C66.9014 78.6461 66.911 78.6652 66.9301 78.6843C66.9493 78.7034 66.9589 78.7224 66.9781 78.7415C66.9972 78.7606 67.0164 78.7797 67.0356 78.7988C67.0547 78.8179 67.0739 78.8369 67.0931 78.8465C67.1122 78.8656 67.1314 78.8751 67.1506 78.8942C67.1698 78.9133 67.1889 78.9228 67.2081 78.9419C67.2273 78.961 67.2464 78.9705 67.2752 78.9801C67.2944 78.9896 67.3135 79.0087 67.3423 79.0182C67.3614 79.0278 67.3902 79.0468 67.4094 79.0564C67.4285 79.0659 67.4573 79.0755 67.4765 79.085C67.4956 79.0945 67.5244 79.1041 67.5436 79.1136C67.5627 79.1136 67.5915 79.1327 67.6202 79.1422C67.6394 79.1422 67.6682 79.1613 67.6969 79.1613C67.7257 79.1613 67.7448 79.1709 67.7736 79.1804C67.8023 79.1804 67.8215 79.1899 67.8503 79.1899C67.879 79.1899 67.8982 79.19 67.9269 79.1995C67.9557 79.1995 67.9749 79.1995 68.0036 79.209C68.0324 79.209 68.0515 79.209 68.0803 79.209H68.1091C68.1378 79.209 68.157 79.209 68.1857 79.209H68.2049C68.2337 79.209 68.2528 79.209 68.2816 79.1995C68.3103 79.1995 68.3295 79.1995 68.3583 79.1899C68.387 79.1899 68.4062 79.1804 68.4349 79.1709C68.4541 79.1709 68.4829 79.1709 68.502 79.1613H68.5116C68.5116 79.1613 68.5308 79.1613 68.5308 79.1518C68.5691 79.1422 68.5979 79.1327 68.6362 79.1232C68.6554 79.1232 68.6841 79.1041 68.7033 79.0945C68.7225 79.085 68.7512 79.0755 68.7704 79.0659C68.7896 79.0564 68.8183 79.0468 68.8375 79.0278C68.8567 79.0182 68.8854 78.9991 68.9046 78.9896C68.9238 78.9801 68.9429 78.961 68.9717 78.9514C68.9909 78.9419 69.01 78.9228 69.0292 78.9037C69.0484 78.8846 69.0675 78.8751 69.0867 78.856C69.1059 78.8369 69.125 78.8274 69.1442 78.8083C69.1634 78.7892 69.1825 78.7702 69.2017 78.7511C69.2209 78.732 69.2401 78.7129 69.2496 78.6938C69.2688 78.6747 69.2784 78.6557 69.2976 78.6366C69.3167 78.6175 69.3263 78.5984 69.3455 78.5793C69.3647 78.5603 69.3742 78.5412 69.3838 78.5125C69.3934 78.4935 69.4126 78.4744 69.4222 78.4458C69.4317 78.4267 69.4509 78.3981 69.4605 78.379C69.4701 78.3599 69.4797 78.3313 69.4893 78.3122C69.4988 78.2931 69.5084 78.2645 69.518 78.2454C69.518 78.2263 69.5372 78.1977 69.5468 78.1691C69.5468 78.1405 69.5659 78.1214 69.5659 78.0927C69.5659 78.0641 69.5755 78.045 69.5851 78.0164C69.5851 77.9878 69.5947 77.9687 69.5947 77.9401C69.5947 77.9115 69.5947 77.8924 69.6043 77.8638C69.6043 77.8351 69.6043 77.8161 69.6139 77.7874C69.6139 77.7588 69.6139 77.7397 69.6139 77.7111V77.6825C69.6139 77.6539 69.6139 77.6348 69.6139 77.6062V77.5871C69.6139 77.5585 69.6139 77.5394 69.6043 77.5108C69.6043 77.4821 69.6043 77.4631 69.5947 77.4344C69.5947 77.4058 69.5851 77.3867 69.5755 77.3581C69.5755 77.339 69.5755 77.3104 69.5659 77.2913C69.5659 77.2722 69.5659 77.2627 69.5564 77.2627C69.5468 77.2341 69.5372 77.1959 69.5276 77.1673C69.5276 77.1387 69.5084 77.1196 69.4988 77.1005C69.4893 77.0814 69.4797 77.0528 69.4701 77.0337C69.4605 77.0146 69.4509 76.986 69.4318 76.9669C69.4222 76.9478 69.403 76.9192 69.3934 76.9001C69.3838 76.8811 69.3647 76.862 69.3551 76.8334C69.3359 76.8143 69.3263 76.7952 69.3071 76.7761C69.288 76.757 69.2784 76.7379 69.2592 76.7189C69.2401 76.6998 69.2305 76.6807 69.2113 76.6616C69.1921 76.6425 69.173 76.6235 69.1538 76.6044C69.1346 76.5853 69.1155 76.5662 69.0963 76.5567C69.0771 76.5376 69.0579 76.528 69.0388 76.509C69.0196 76.4899 69.0004 76.4803 68.9813 76.4613C68.9621 76.4422 68.9429 76.4326 68.9142 76.4231C68.895 76.4136 68.8758 76.3945 68.8471 76.3849C68.8279 76.3754 68.7992 76.3563 68.78 76.3468C68.7608 76.3372 68.7321 76.3277 68.7129 76.3086C68.6937 76.2991 68.665 76.2895 68.6458 76.28C68.6266 76.2704 68.5979 76.2609 68.5787 76.2514C68.55 76.2514 68.5308 76.2323 68.502 76.2323C68.4733 76.2323 68.4541 76.2227 68.4254 76.2132C68.3966 76.2132 68.3774 76.2037 68.3487 76.2037C68.3199 76.2037 68.3008 76.2037 68.272 76.1941C68.2432 76.1941 68.2241 76.1941 68.1953 76.1846C68.1666 76.1846 68.1474 76.1846 68.1186 76.1846H68.0899L68.0611 76.1941Z" fill="white"/>
<path d="M68.0611 76.1941C68.0324 76.1941 68.0132 76.1941 67.9845 76.1941H67.9653C67.9365 76.1941 67.9174 76.1941 67.8886 76.2037C67.8599 76.2037 67.8407 76.2037 67.8119 76.2132C67.7832 76.2132 67.764 76.2227 67.7353 76.2323C67.7161 76.2323 67.6873 76.2323 67.6682 76.2418H67.6586C67.6586 76.2418 67.6394 76.2418 67.6394 76.2514C67.6011 76.2609 67.5723 76.2704 67.5436 76.28C67.5244 76.28 67.4956 76.2991 67.4765 76.3086C67.4573 76.3181 67.4285 76.3277 67.4094 76.3372C67.3902 76.3468 67.3614 76.3563 67.3423 76.3754C67.3231 76.3849 67.2944 76.404 67.2752 76.4136C67.256 76.4231 67.2368 76.4422 67.2081 76.4517C67.1889 76.4613 67.1698 76.4803 67.1506 76.4994C67.1314 76.5185 67.1122 76.528 67.0931 76.5471C67.0739 76.5662 67.0547 76.5758 67.0356 76.5948C67.0164 76.6139 66.9972 76.633 66.9781 76.6521C66.9589 76.6712 66.9397 76.6902 66.9301 76.7093C66.911 76.7284 66.9014 76.7475 66.8822 76.7666C66.863 76.7856 66.8535 76.8047 66.8343 76.8238C66.8151 76.8429 66.8055 76.862 66.796 76.8906C66.7864 76.9097 66.7672 76.9288 66.7576 76.9574C66.748 76.9765 66.7384 77.0051 66.7193 77.0242C66.7097 77.0433 66.7001 77.0719 66.6905 77.091C66.6809 77.11 66.6713 77.1387 66.6618 77.1577C66.6618 77.1768 66.6426 77.2054 66.633 77.2245C66.633 77.2436 66.6138 77.2722 66.6138 77.3009C66.6138 77.3199 66.6043 77.3486 66.5947 77.3772C66.5947 77.4058 66.5851 77.4249 66.5851 77.4535C66.5851 77.4821 66.5851 77.5012 66.5755 77.5298C66.5755 77.5585 66.5755 77.5775 66.5659 77.6062C66.5659 77.6348 66.5659 77.6539 66.5659 77.6825C66.5659 77.692 66.5659 77.7016 66.5659 77.7111C66.5659 77.7397 66.5659 77.7588 66.5659 77.7874C66.5659 77.7874 66.5659 77.8065 66.5659 77.8161C66.5659 77.8447 66.5659 77.8638 66.5755 77.8924C66.5755 77.921 66.5755 77.9401 66.5851 77.9687C66.5851 77.9973 66.5947 78.0164 66.6043 78.045C66.6043 78.0641 66.6043 78.0927 66.6138 78.1118C66.6138 78.1309 66.6138 78.1405 66.6234 78.1405C66.633 78.1786 66.6426 78.2072 66.6618 78.2359C66.6618 78.2549 66.6809 78.2836 66.6905 78.3026C66.7001 78.3217 66.7097 78.3504 66.7193 78.3694C66.7289 78.3885 66.7384 78.4171 66.7576 78.4362C66.7672 78.4553 66.7864 78.4839 66.796 78.503C66.8055 78.5221 66.8247 78.5412 66.8343 78.5698C66.8439 78.5889 66.863 78.608 66.8822 78.627C66.9014 78.6461 66.911 78.6652 66.9301 78.6843C66.9493 78.7034 66.9589 78.7224 66.9781 78.7415C66.9972 78.7606 67.0164 78.7797 67.0356 78.7988C67.0547 78.8179 67.0739 78.8369 67.0931 78.8465C67.1122 78.8656 67.1314 78.8751 67.1506 78.8942C67.1698 78.9133 67.1889 78.9228 67.2081 78.9419C67.2273 78.961 67.2464 78.9705 67.2752 78.9801C67.2944 78.9896 67.3135 79.0087 67.3423 79.0182C67.3614 79.0278 67.3902 79.0468 67.4094 79.0564C67.4285 79.0659 67.4573 79.0755 67.4765 79.085C67.4956 79.0945 67.5244 79.1041 67.5436 79.1136C67.5627 79.1136 67.5915 79.1327 67.6202 79.1422C67.6394 79.1422 67.6682 79.1613 67.6969 79.1613C67.7257 79.1613 67.7448 79.1709 67.7736 79.1804C67.8023 79.1804 67.8215 79.1899 67.8503 79.1899C67.879 79.1899 67.8982 79.19 67.9269 79.1995C67.9557 79.1995 67.9749 79.1995 68.0036 79.209C68.0324 79.209 68.0515 79.209 68.0803 79.209H68.1091C68.1378 79.209 68.157 79.209 68.1857 79.209H68.2049C68.2337 79.209 68.2528 79.209 68.2816 79.1995C68.3103 79.1995 68.3295 79.1995 68.3583 79.1899C68.387 79.1899 68.4062 79.1804 68.4349 79.1709C68.4541 79.1709 68.4829 79.1709 68.502 79.1613H68.5116C68.5116 79.1613 68.5308 79.1613 68.5308 79.1518C68.5691 79.1422 68.5979 79.1327 68.6362 79.1232C68.6554 79.1232 68.6841 79.1041 68.7033 79.0945C68.7225 79.085 68.7512 79.0755 68.7704 79.0659C68.7896 79.0564 68.8183 79.0468 68.8375 79.0278C68.8567 79.0182 68.8854 78.9991 68.9046 78.9896C68.9238 78.9801 68.9429 78.961 68.9717 78.9514C68.9909 78.9419 69.01 78.9228 69.0292 78.9037C69.0484 78.8846 69.0675 78.8751 69.0867 78.856C69.1059 78.8369 69.125 78.8274 69.1442 78.8083C69.1634 78.7892 69.1825 78.7702 69.2017 78.7511C69.2209 78.732 69.2401 78.7129 69.2496 78.6938C69.2688 78.6747 69.2784 78.6557 69.2976 78.6366C69.3167 78.6175 69.3263 78.5984 69.3455 78.5793C69.3647 78.5603 69.3742 78.5412 69.3838 78.5125C69.3934 78.4935 69.4126 78.4744 69.4222 78.4458C69.4317 78.4267 69.4509 78.3981 69.4605 78.379C69.4701 78.3599 69.4797 78.3313 69.4893 78.3122C69.4988 78.2931 69.5084 78.2645 69.518 78.2454C69.518 78.2263 69.5372 78.1977 69.5468 78.1691C69.5468 78.1405 69.5659 78.1214 69.5659 78.0927C69.5659 78.0641 69.5755 78.045 69.5851 78.0164C69.5851 77.9878 69.5947 77.9687 69.5947 77.9401C69.5947 77.9115 69.5947 77.8924 69.6043 77.8638C69.6043 77.8351 69.6043 77.8161 69.6139 77.7874C69.6139 77.7588 69.6139 77.7397 69.6139 77.7111V77.6825C69.6139 77.6539 69.6139 77.6348 69.6139 77.6062V77.5871C69.6139 77.5585 69.6139 77.5394 69.6043 77.5108C69.6043 77.4821 69.6043 77.4631 69.5947 77.4344C69.5947 77.4058 69.5851 77.3867 69.5755 77.3581C69.5755 77.339 69.5755 77.3104 69.5659 77.2913C69.5659 77.2722 69.5659 77.2627 69.5564 77.2627C69.5468 77.2341 69.5372 77.1959 69.5276 77.1673C69.5276 77.1387 69.5084 77.1196 69.4988 77.1005C69.4893 77.0814 69.4797 77.0528 69.4701 77.0337C69.4605 77.0146 69.4509 76.986 69.4318 76.9669C69.4222 76.9478 69.403 76.9192 69.3934 76.9001C69.3838 76.8811 69.3647 76.862 69.3551 76.8334C69.3359 76.8143 69.3263 76.7952 69.3071 76.7761C69.288 76.757 69.2784 76.7379 69.2592 76.7189C69.2401 76.6998 69.2305 76.6807 69.2113 76.6616C69.1921 76.6425 69.173 76.6235 69.1538 76.6044C69.1346 76.5853 69.1155 76.5662 69.0963 76.5567C69.0771 76.5376 69.0579 76.528 69.0388 76.509C69.0196 76.4899 69.0004 76.4803 68.9813 76.4613C68.9621 76.4422 68.9429 76.4326 68.9142 76.4231C68.895 76.4136 68.8758 76.3945 68.8471 76.3849C68.8279 76.3754 68.7992 76.3563 68.78 76.3468C68.7608 76.3372 68.7321 76.3277 68.7129 76.3086C68.6937 76.2991 68.665 76.2895 68.6458 76.28C68.6266 76.2704 68.5979 76.2609 68.5787 76.2514C68.55 76.2514 68.5308 76.2323 68.502 76.2323C68.4733 76.2323 68.4541 76.2227 68.4254 76.2132C68.3966 76.2132 68.3774 76.2037 68.3487 76.2037C68.3199 76.2037 68.3008 76.2037 68.272 76.1941C68.2432 76.1941 68.2241 76.1941 68.1953 76.1846C68.1666 76.1846 68.1474 76.1846 68.1186 76.1846H68.0899L68.0611 76.1941Z" fill="white"/>
<path d="M68.0611 76.1941C68.0324 76.1941 68.0132 76.1941 67.9845 76.1941H67.9653C67.9365 76.1941 67.9174 76.1941 67.8886 76.2037C67.8599 76.2037 67.8407 76.2037 67.8119 76.2132C67.7832 76.2132 67.764 76.2227 67.7353 76.2323C67.7161 76.2323 67.6873 76.2323 67.6682 76.2418H67.6586C67.6586 76.2418 67.6394 76.2418 67.6394 76.2514C67.6011 76.2609 67.5723 76.2704 67.5436 76.28C67.5244 76.28 67.4956 76.2991 67.4765 76.3086C67.4573 76.3181 67.4285 76.3277 67.4094 76.3372C67.3902 76.3468 67.3614 76.3563 67.3423 76.3754C67.3231 76.3849 67.2944 76.404 67.2752 76.4136C67.256 76.4231 67.2368 76.4422 67.2081 76.4517C67.1889 76.4613 67.1698 76.4803 67.1506 76.4994C67.1314 76.5185 67.1122 76.528 67.0931 76.5471C67.0739 76.5662 67.0547 76.5758 67.0356 76.5948C67.0164 76.6139 66.9972 76.633 66.9781 76.6521C66.9589 76.6712 66.9397 76.6902 66.9301 76.7093C66.911 76.7284 66.9014 76.7475 66.8822 76.7666C66.863 76.7856 66.8535 76.8047 66.8343 76.8238C66.8151 76.8429 66.8055 76.862 66.796 76.8906C66.7864 76.9097 66.7672 76.9288 66.7576 76.9574C66.748 76.9765 66.7384 77.0051 66.7193 77.0242C66.7097 77.0433 66.7001 77.0719 66.6905 77.091C66.6809 77.11 66.6713 77.1387 66.6618 77.1577C66.6618 77.1768 66.6426 77.2054 66.633 77.2245C66.633 77.2436 66.6138 77.2722 66.6138 77.3009C66.6138 77.3199 66.6043 77.3486 66.5947 77.3772C66.5947 77.4058 66.5851 77.4249 66.5851 77.4535C66.5851 77.4821 66.5851 77.5012 66.5755 77.5298C66.5755 77.5585 66.5755 77.5775 66.5659 77.6062C66.5659 77.6348 66.5659 77.6539 66.5659 77.6825C66.5659 77.692 66.5659 77.7016 66.5659 77.7111C66.5659 77.7397 66.5659 77.7588 66.5659 77.7874C66.5659 77.7874 66.5659 77.8065 66.5659 77.8161C66.5659 77.8447 66.5659 77.8638 66.5755 77.8924C66.5755 77.921 66.5755 77.9401 66.5851 77.9687C66.5851 77.9973 66.5947 78.0164 66.6043 78.045C66.6043 78.0641 66.6043 78.0927 66.6138 78.1118C66.6138 78.1309 66.6138 78.1405 66.6234 78.1405C66.633 78.1786 66.6426 78.2072 66.6618 78.2359C66.6618 78.2549 66.6809 78.2836 66.6905 78.3026C66.7001 78.3217 66.7097 78.3504 66.7193 78.3694C66.7289 78.3885 66.7384 78.4171 66.7576 78.4362C66.7672 78.4553 66.7864 78.4839 66.796 78.503C66.8055 78.5221 66.8247 78.5412 66.8343 78.5698C66.8439 78.5889 66.863 78.608 66.8822 78.627C66.9014 78.6461 66.911 78.6652 66.9301 78.6843C66.9493 78.7034 66.9589 78.7224 66.9781 78.7415C66.9972 78.7606 67.0164 78.7797 67.0356 78.7988C67.0547 78.8179 67.0739 78.8369 67.0931 78.8465C67.1122 78.8656 67.1314 78.8751 67.1506 78.8942C67.1698 78.9133 67.1889 78.9228 67.2081 78.9419C67.2273 78.961 67.2464 78.9705 67.2752 78.9801C67.2944 78.9896 67.3135 79.0087 67.3423 79.0182C67.3614 79.0278 67.3902 79.0468 67.4094 79.0564C67.4285 79.0659 67.4573 79.0755 67.4765 79.085C67.4956 79.0945 67.5244 79.1041 67.5436 79.1136C67.5627 79.1136 67.5915 79.1327 67.6202 79.1422C67.6394 79.1422 67.6682 79.1613 67.6969 79.1613C67.7257 79.1613 67.7448 79.1709 67.7736 79.1804C67.8023 79.1804 67.8215 79.1899 67.8503 79.1899C67.879 79.1899 67.8982 79.19 67.9269 79.1995C67.9557 79.1995 67.9749 79.1995 68.0036 79.209C68.0324 79.209 68.0515 79.209 68.0803 79.209H68.1091C68.1378 79.209 68.157 79.209 68.1857 79.209H68.2049C68.2337 79.209 68.2528 79.209 68.2816 79.1995C68.3103 79.1995 68.3295 79.1995 68.3583 79.1899C68.387 79.1899 68.4062 79.1804 68.4349 79.1709C68.4541 79.1709 68.4829 79.1709 68.502 79.1613H68.5116C68.5116 79.1613 68.5308 79.1613 68.5308 79.1518C68.5691 79.1422 68.5979 79.1327 68.6362 79.1232C68.6554 79.1232 68.6841 79.1041 68.7033 79.0945C68.7225 79.085 68.7512 79.0755 68.7704 79.0659C68.7896 79.0564 68.8183 79.0468 68.8375 79.0278C68.8567 79.0182 68.8854 78.9991 68.9046 78.9896C68.9238 78.9801 68.9429 78.961 68.9717 78.9514C68.9909 78.9419 69.01 78.9228 69.0292 78.9037C69.0484 78.8846 69.0675 78.8751 69.0867 78.856C69.1059 78.8369 69.125 78.8274 69.1442 78.8083C69.1634 78.7892 69.1825 78.7702 69.2017 78.7511C69.2209 78.732 69.2401 78.7129 69.2496 78.6938C69.2688 78.6747 69.2784 78.6557 69.2976 78.6366C69.3167 78.6175 69.3263 78.5984 69.3455 78.5793C69.3647 78.5603 69.3742 78.5412 69.3838 78.5125C69.3934 78.4935 69.4126 78.4744 69.4222 78.4458C69.4317 78.4267 69.4509 78.3981 69.4605 78.379C69.4701 78.3599 69.4797 78.3313 69.4893 78.3122C69.4988 78.2931 69.5084 78.2645 69.518 78.2454C69.518 78.2263 69.5372 78.1977 69.5468 78.1691C69.5468 78.1405 69.5659 78.1214 69.5659 78.0927C69.5659 78.0641 69.5755 78.045 69.5851 78.0164C69.5851 77.9878 69.5947 77.9687 69.5947 77.9401C69.5947 77.9115 69.5947 77.8924 69.6043 77.8638C69.6043 77.8351 69.6043 77.8161 69.6139 77.7874C69.6139 77.7588 69.6139 77.7397 69.6139 77.7111V77.6825C69.6139 77.6539 69.6139 77.6348 69.6139 77.6062V77.5871C69.6139 77.5585 69.6139 77.5394 69.6043 77.5108C69.6043 77.4821 69.6043 77.4631 69.5947 77.4344C69.5947 77.4058 69.5851 77.3867 69.5755 77.3581C69.5755 77.339 69.5755 77.3104 69.5659 77.2913C69.5659 77.2722 69.5659 77.2627 69.5564 77.2627C69.5468 77.2341 69.5372 77.1959 69.5276 77.1673C69.5276 77.1387 69.5084 77.1196 69.4988 77.1005C69.4893 77.0814 69.4797 77.0528 69.4701 77.0337C69.4605 77.0146 69.4509 76.986 69.4318 76.9669C69.4222 76.9478 69.403 76.9192 69.3934 76.9001C69.3838 76.8811 69.3647 76.862 69.3551 76.8334C69.3359 76.8143 69.3263 76.7952 69.3071 76.7761C69.288 76.757 69.2784 76.7379 69.2592 76.7189C69.2401 76.6998 69.2305 76.6807 69.2113 76.6616C69.1921 76.6425 69.173 76.6235 69.1538 76.6044C69.1346 76.5853 69.1155 76.5662 69.0963 76.5567C69.0771 76.5376 69.0579 76.528 69.0388 76.509C69.0196 76.4899 69.0004 76.4803 68.9813 76.4613C68.9621 76.4422 68.9429 76.4326 68.9142 76.4231C68.895 76.4136 68.8758 76.3945 68.8471 76.3849C68.8279 76.3754 68.7992 76.3563 68.78 76.3468C68.7608 76.3372 68.7321 76.3277 68.7129 76.3086C68.6937 76.2991 68.665 76.2895 68.6458 76.28C68.6266 76.2704 68.5979 76.2609 68.5787 76.2514C68.55 76.2514 68.5308 76.2323 68.502 76.2323C68.4733 76.2323 68.4541 76.2227 68.4254 76.2132C68.3966 76.2132 68.3774 76.2037 68.3487 76.2037C68.3199 76.2037 68.3008 76.2037 68.272 76.1941C68.2432 76.1941 68.2241 76.1941 68.1953 76.1846C68.1666 76.1846 68.1474 76.1846 68.1186 76.1846H68.0899L68.0611 76.1941Z" fill="white"/>
<path d="M68.0611 76.1941C68.0324 76.1941 68.0132 76.1941 67.9845 76.1941H67.9653C67.9365 76.1941 67.9174 76.1941 67.8886 76.2037C67.8599 76.2037 67.8407 76.2037 67.8119 76.2132C67.7832 76.2132 67.764 76.2227 67.7353 76.2323C67.7161 76.2323 67.6873 76.2323 67.6682 76.2418H67.6586C67.6586 76.2418 67.6394 76.2418 67.6394 76.2514C67.6011 76.2609 67.5723 76.2704 67.5436 76.28C67.5244 76.28 67.4956 76.2991 67.4765 76.3086C67.4573 76.3181 67.4285 76.3277 67.4094 76.3372C67.3902 76.3468 67.3614 76.3563 67.3423 76.3754C67.3231 76.3849 67.2944 76.404 67.2752 76.4136C67.256 76.4231 67.2368 76.4422 67.2081 76.4517C67.1889 76.4613 67.1698 76.4803 67.1506 76.4994C67.1314 76.5185 67.1122 76.528 67.0931 76.5471C67.0739 76.5662 67.0547 76.5758 67.0356 76.5948C67.0164 76.6139 66.9972 76.633 66.9781 76.6521C66.9589 76.6712 66.9397 76.6902 66.9301 76.7093C66.911 76.7284 66.9014 76.7475 66.8822 76.7666C66.863 76.7856 66.8535 76.8047 66.8343 76.8238C66.8151 76.8429 66.8055 76.862 66.796 76.8906C66.7864 76.9097 66.7672 76.9288 66.7576 76.9574C66.748 76.9765 66.7384 77.0051 66.7193 77.0242C66.7097 77.0433 66.7001 77.0719 66.6905 77.091C66.6809 77.11 66.6713 77.1387 66.6618 77.1577C66.6618 77.1768 66.6426 77.2054 66.633 77.2245C66.633 77.2436 66.6138 77.2722 66.6138 77.3009C66.6138 77.3199 66.6043 77.3486 66.5947 77.3772C66.5947 77.4058 66.5851 77.4249 66.5851 77.4535C66.5851 77.4821 66.5851 77.5012 66.5755 77.5298C66.5755 77.5585 66.5755 77.5775 66.5659 77.6062C66.5659 77.6348 66.5659 77.6539 66.5659 77.6825C66.5659 77.692 66.5659 77.7016 66.5659 77.7111C66.5659 77.7397 66.5659 77.7588 66.5659 77.7874C66.5659 77.7874 66.5659 77.8065 66.5659 77.8161C66.5659 77.8447 66.5659 77.8638 66.5755 77.8924C66.5755 77.921 66.5755 77.9401 66.5851 77.9687C66.5851 77.9973 66.5947 78.0164 66.6043 78.045C66.6043 78.0641 66.6043 78.0927 66.6138 78.1118C66.6138 78.1309 66.6138 78.1405 66.6234 78.1405C66.633 78.1786 66.6426 78.2072 66.6618 78.2359C66.6618 78.2549 66.6809 78.2836 66.6905 78.3026C66.7001 78.3217 66.7097 78.3504 66.7193 78.3694C66.7289 78.3885 66.7384 78.4171 66.7576 78.4362C66.7672 78.4553 66.7864 78.4839 66.796 78.503C66.8055 78.5221 66.8247 78.5412 66.8343 78.5698C66.8439 78.5889 66.863 78.608 66.8822 78.627C66.9014 78.6461 66.911 78.6652 66.9301 78.6843C66.9493 78.7034 66.9589 78.7224 66.9781 78.7415C66.9972 78.7606 67.0164 78.7797 67.0356 78.7988C67.0547 78.8179 67.0739 78.8369 67.0931 78.8465C67.1122 78.8656 67.1314 78.8751 67.1506 78.8942C67.1698 78.9133 67.1889 78.9228 67.2081 78.9419C67.2273 78.961 67.2464 78.9705 67.2752 78.9801C67.2944 78.9896 67.3135 79.0087 67.3423 79.0182C67.3614 79.0278 67.3902 79.0468 67.4094 79.0564C67.4285 79.0659 67.4573 79.0755 67.4765 79.085C67.4956 79.0945 67.5244 79.1041 67.5436 79.1136C67.5627 79.1136 67.5915 79.1327 67.6202 79.1422C67.6394 79.1422 67.6682 79.1613 67.6969 79.1613C67.7257 79.1613 67.7448 79.1709 67.7736 79.1804C67.8023 79.1804 67.8215 79.1899 67.8503 79.1899C67.879 79.1899 67.8982 79.19 67.9269 79.1995C67.9557 79.1995 67.9749 79.1995 68.0036 79.209C68.0324 79.209 68.0515 79.209 68.0803 79.209H68.1091C68.1378 79.209 68.157 79.209 68.1857 79.209H68.2049C68.2337 79.209 68.2528 79.209 68.2816 79.1995C68.3103 79.1995 68.3295 79.1995 68.3583 79.1899C68.387 79.1899 68.4062 79.1804 68.4349 79.1709C68.4541 79.1709 68.4829 79.1709 68.502 79.1613H68.5116C68.5116 79.1613 68.5308 79.1613 68.5308 79.1518C68.5691 79.1422 68.5979 79.1327 68.6362 79.1232C68.6554 79.1232 68.6841 79.1041 68.7033 79.0945C68.7225 79.085 68.7512 79.0755 68.7704 79.0659C68.7896 79.0564 68.8183 79.0468 68.8375 79.0278C68.8567 79.0182 68.8854 78.9991 68.9046 78.9896C68.9238 78.9801 68.9429 78.961 68.9717 78.9514C68.9909 78.9419 69.01 78.9228 69.0292 78.9037C69.0484 78.8846 69.0675 78.8751 69.0867 78.856C69.1059 78.8369 69.125 78.8274 69.1442 78.8083C69.1634 78.7892 69.1825 78.7702 69.2017 78.7511C69.2209 78.732 69.2401 78.7129 69.2496 78.6938C69.2688 78.6747 69.2784 78.6557 69.2976 78.6366C69.3167 78.6175 69.3263 78.5984 69.3455 78.5793C69.3647 78.5603 69.3742 78.5412 69.3838 78.5125C69.3934 78.4935 69.4126 78.4744 69.4222 78.4458C69.4317 78.4267 69.4509 78.3981 69.4605 78.379C69.4701 78.3599 69.4797 78.3313 69.4893 78.3122C69.4988 78.2931 69.5084 78.2645 69.518 78.2454C69.518 78.2263 69.5372 78.1977 69.5468 78.1691C69.5468 78.1405 69.5659 78.1214 69.5659 78.0927C69.5659 78.0641 69.5755 78.045 69.5851 78.0164C69.5851 77.9878 69.5947 77.9687 69.5947 77.9401C69.5947 77.9115 69.5947 77.8924 69.6043 77.8638C69.6043 77.8351 69.6043 77.8161 69.6139 77.7874C69.6139 77.7588 69.6139 77.7397 69.6139 77.7111V77.6825C69.6139 77.6539 69.6139 77.6348 69.6139 77.6062V77.5871C69.6139 77.5585 69.6139 77.5394 69.6043 77.5108C69.6043 77.4821 69.6043 77.4631 69.5947 77.4344C69.5947 77.4058 69.5851 77.3867 69.5755 77.3581C69.5755 77.339 69.5755 77.3104 69.5659 77.2913C69.5659 77.2722 69.5659 77.2627 69.5564 77.2627C69.5468 77.2341 69.5372 77.1959 69.5276 77.1673C69.5276 77.1387 69.5084 77.1196 69.4988 77.1005C69.4893 77.0814 69.4797 77.0528 69.4701 77.0337C69.4605 77.0146 69.4509 76.986 69.4318 76.9669C69.4222 76.9478 69.403 76.9192 69.3934 76.9001C69.3838 76.8811 69.3647 76.862 69.3551 76.8334C69.3359 76.8143 69.3263 76.7952 69.3071 76.7761C69.288 76.757 69.2784 76.7379 69.2592 76.7189C69.2401 76.6998 69.2305 76.6807 69.2113 76.6616C69.1921 76.6425 69.173 76.6235 69.1538 76.6044C69.1346 76.5853 69.1155 76.5662 69.0963 76.5567C69.0771 76.5376 69.0579 76.528 69.0388 76.509C69.0196 76.4899 69.0004 76.4803 68.9813 76.4613C68.9621 76.4422 68.9429 76.4326 68.9142 76.4231C68.895 76.4136 68.8758 76.3945 68.8471 76.3849C68.8279 76.3754 68.7992 76.3563 68.78 76.3468C68.7608 76.3372 68.7321 76.3277 68.7129 76.3086C68.6937 76.2991 68.665 76.2895 68.6458 76.28C68.6266 76.2704 68.5979 76.2609 68.5787 76.2514C68.55 76.2514 68.5308 76.2323 68.502 76.2323C68.4733 76.2323 68.4541 76.2227 68.4254 76.2132C68.3966 76.2132 68.3774 76.2037 68.3487 76.2037C68.3199 76.2037 68.3008 76.2037 68.272 76.1941C68.2432 76.1941 68.2241 76.1941 68.1953 76.1846C68.1666 76.1846 68.1474 76.1846 68.1186 76.1846H68.0899L68.0611 76.1941Z" fill="white"/>
<path d="M68.0611 76.1941C68.0324 76.1941 68.0132 76.1941 67.9845 76.1941H67.9653C67.9365 76.1941 67.9174 76.1941 67.8886 76.2037C67.8599 76.2037 67.8407 76.2037 67.8119 76.2132C67.7832 76.2132 67.764 76.2227 67.7353 76.2323C67.7161 76.2323 67.6873 76.2323 67.6682 76.2418H67.6586C67.6586 76.2418 67.6394 76.2418 67.6394 76.2514C67.6011 76.2609 67.5723 76.2704 67.5436 76.28C67.5244 76.28 67.4956 76.2991 67.4765 76.3086C67.4573 76.3181 67.4285 76.3277 67.4094 76.3372C67.3902 76.3468 67.3614 76.3563 67.3423 76.3754C67.3231 76.3849 67.2944 76.404 67.2752 76.4136C67.256 76.4231 67.2368 76.4422 67.2081 76.4517C67.1889 76.4613 67.1698 76.4803 67.1506 76.4994C67.1314 76.5185 67.1122 76.528 67.0931 76.5471C67.0739 76.5662 67.0547 76.5758 67.0356 76.5948C67.0164 76.6139 66.9972 76.633 66.9781 76.6521C66.9589 76.6712 66.9397 76.6902 66.9301 76.7093C66.911 76.7284 66.9014 76.7475 66.8822 76.7666C66.863 76.7856 66.8535 76.8047 66.8343 76.8238C66.8151 76.8429 66.8055 76.862 66.796 76.8906C66.7864 76.9097 66.7672 76.9288 66.7576 76.9574C66.748 76.9765 66.7384 77.0051 66.7193 77.0242C66.7097 77.0433 66.7001 77.0719 66.6905 77.091C66.6809 77.11 66.6713 77.1387 66.6618 77.1577C66.6618 77.1768 66.6426 77.2054 66.633 77.2245C66.633 77.2436 66.6138 77.2722 66.6138 77.3009C66.6138 77.3199 66.6043 77.3486 66.5947 77.3772C66.5947 77.4058 66.5851 77.4249 66.5851 77.4535C66.5851 77.4821 66.5851 77.5012 66.5755 77.5298C66.5755 77.5585 66.5755 77.5775 66.5659 77.6062C66.5659 77.6348 66.5659 77.6539 66.5659 77.6825C66.5659 77.692 66.5659 77.7016 66.5659 77.7111C66.5659 77.7397 66.5659 77.7588 66.5659 77.7874C66.5659 77.7874 66.5659 77.8065 66.5659 77.8161C66.5659 77.8447 66.5659 77.8638 66.5755 77.8924C66.5755 77.921 66.5755 77.9401 66.5851 77.9687C66.5851 77.9973 66.5947 78.0164 66.6043 78.045C66.6043 78.0641 66.6043 78.0927 66.6138 78.1118C66.6138 78.1309 66.6138 78.1405 66.6234 78.1405C66.633 78.1786 66.6426 78.2072 66.6618 78.2359C66.6618 78.2549 66.6809 78.2836 66.6905 78.3026C66.7001 78.3217 66.7097 78.3504 66.7193 78.3694C66.7289 78.3885 66.7384 78.4171 66.7576 78.4362C66.7672 78.4553 66.7864 78.4839 66.796 78.503C66.8055 78.5221 66.8247 78.5412 66.8343 78.5698C66.8439 78.5889 66.863 78.608 66.8822 78.627C66.9014 78.6461 66.911 78.6652 66.9301 78.6843C66.9493 78.7034 66.9589 78.7224 66.9781 78.7415C66.9972 78.7606 67.0164 78.7797 67.0356 78.7988C67.0547 78.8179 67.0739 78.8369 67.0931 78.8465C67.1122 78.8656 67.1314 78.8751 67.1506 78.8942C67.1698 78.9133 67.1889 78.9228 67.2081 78.9419C67.2273 78.961 67.2464 78.9705 67.2752 78.9801C67.2944 78.9896 67.3135 79.0087 67.3423 79.0182C67.3614 79.0278 67.3902 79.0468 67.4094 79.0564C67.4285 79.0659 67.4573 79.0755 67.4765 79.085C67.4956 79.0945 67.5244 79.1041 67.5436 79.1136C67.5627 79.1136 67.5915 79.1327 67.6202 79.1422C67.6394 79.1422 67.6682 79.1613 67.6969 79.1613C67.7257 79.1613 67.7448 79.1709 67.7736 79.1804C67.8023 79.1804 67.8215 79.1899 67.8503 79.1899C67.879 79.1899 67.8982 79.19 67.9269 79.1995C67.9557 79.1995 67.9749 79.1995 68.0036 79.209C68.0324 79.209 68.0515 79.209 68.0803 79.209H68.1091C68.1378 79.209 68.157 79.209 68.1857 79.209H68.2049C68.2337 79.209 68.2528 79.209 68.2816 79.1995C68.3103 79.1995 68.3295 79.1995 68.3583 79.1899C68.387 79.1899 68.4062 79.1804 68.4349 79.1709C68.4541 79.1709 68.4829 79.1709 68.502 79.1613H68.5116C68.5116 79.1613 68.5308 79.1613 68.5308 79.1518C68.5691 79.1422 68.5979 79.1327 68.6362 79.1232C68.6554 79.1232 68.6841 79.1041 68.7033 79.0945C68.7225 79.085 68.7512 79.0755 68.7704 79.0659C68.7896 79.0564 68.8183 79.0468 68.8375 79.0278C68.8567 79.0182 68.8854 78.9991 68.9046 78.9896C68.9238 78.9801 68.9429 78.961 68.9717 78.9514C68.9909 78.9419 69.01 78.9228 69.0292 78.9037C69.0484 78.8846 69.0675 78.8751 69.0867 78.856C69.1059 78.8369 69.125 78.8274 69.1442 78.8083C69.1634 78.7892 69.1825 78.7702 69.2017 78.7511C69.2209 78.732 69.2401 78.7129 69.2496 78.6938C69.2688 78.6747 69.2784 78.6557 69.2976 78.6366C69.3167 78.6175 69.3263 78.5984 69.3455 78.5793C69.3647 78.5603 69.3742 78.5412 69.3838 78.5125C69.3934 78.4935 69.4126 78.4744 69.4222 78.4458C69.4317 78.4267 69.4509 78.3981 69.4605 78.379C69.4701 78.3599 69.4797 78.3313 69.4893 78.3122C69.4988 78.2931 69.5084 78.2645 69.518 78.2454C69.518 78.2263 69.5372 78.1977 69.5468 78.1691C69.5468 78.1405 69.5659 78.1214 69.5659 78.0927C69.5659 78.0641 69.5755 78.045 69.5851 78.0164C69.5851 77.9878 69.5947 77.9687 69.5947 77.9401C69.5947 77.9115 69.5947 77.8924 69.6043 77.8638C69.6043 77.8351 69.6043 77.8161 69.6139 77.7874C69.6139 77.7588 69.6139 77.7397 69.6139 77.7111V77.6825C69.6139 77.6539 69.6139 77.6348 69.6139 77.6062V77.5871C69.6139 77.5585 69.6139 77.5394 69.6043 77.5108C69.6043 77.4821 69.6043 77.4631 69.5947 77.4344C69.5947 77.4058 69.5851 77.3867 69.5755 77.3581C69.5755 77.339 69.5755 77.3104 69.5659 77.2913C69.5659 77.2722 69.5659 77.2627 69.5564 77.2627C69.5468 77.2341 69.5372 77.1959 69.5276 77.1673C69.5276 77.1387 69.5084 77.1196 69.4988 77.1005C69.4893 77.0814 69.4797 77.0528 69.4701 77.0337C69.4605 77.0146 69.4509 76.986 69.4318 76.9669C69.4222 76.9478 69.403 76.9192 69.3934 76.9001C69.3838 76.8811 69.3647 76.862 69.3551 76.8334C69.3359 76.8143 69.3263 76.7952 69.3071 76.7761C69.288 76.757 69.2784 76.7379 69.2592 76.7189C69.2401 76.6998 69.2305 76.6807 69.2113 76.6616C69.1921 76.6425 69.173 76.6235 69.1538 76.6044C69.1346 76.5853 69.1155 76.5662 69.0963 76.5567C69.0771 76.5376 69.0579 76.528 69.0388 76.509C69.0196 76.4899 69.0004 76.4803 68.9813 76.4613C68.9621 76.4422 68.9429 76.4326 68.9142 76.4231C68.895 76.4136 68.8758 76.3945 68.8471 76.3849C68.8279 76.3754 68.7992 76.3563 68.78 76.3468C68.7608 76.3372 68.7321 76.3277 68.7129 76.3086C68.6937 76.2991 68.665 76.2895 68.6458 76.28C68.6266 76.2704 68.5979 76.2609 68.5787 76.2514C68.55 76.2514 68.5308 76.2323 68.502 76.2323C68.4733 76.2323 68.4541 76.2227 68.4254 76.2132C68.3966 76.2132 68.3774 76.2037 68.3487 76.2037C68.3199 76.2037 68.3008 76.2037 68.272 76.1941C68.2432 76.1941 68.2241 76.1941 68.1953 76.1846C68.1666 76.1846 68.1474 76.1846 68.1186 76.1846H68.0899L68.0611 76.1941Z" fill="white"/>
<path d="M68.0611 76.1941C68.0324 76.1941 68.0132 76.1941 67.9845 76.1941H67.9653C67.9365 76.1941 67.9174 76.1941 67.8886 76.2037C67.8599 76.2037 67.8407 76.2037 67.8119 76.2132C67.7832 76.2132 67.764 76.2227 67.7353 76.2323C67.7161 76.2323 67.6873 76.2323 67.6682 76.2418H67.6586C67.6586 76.2418 67.6394 76.2418 67.6394 76.2514C67.6011 76.2609 67.5723 76.2704 67.5436 76.28C67.5244 76.28 67.4956 76.2991 67.4765 76.3086C67.4573 76.3181 67.4285 76.3277 67.4094 76.3372C67.3902 76.3468 67.3614 76.3563 67.3423 76.3754C67.3231 76.3849 67.2944 76.404 67.2752 76.4136C67.256 76.4231 67.2368 76.4422 67.2081 76.4517C67.1889 76.4613 67.1698 76.4803 67.1506 76.4994C67.1314 76.5185 67.1122 76.528 67.0931 76.5471C67.0739 76.5662 67.0547 76.5758 67.0356 76.5948C67.0164 76.6139 66.9972 76.633 66.9781 76.6521C66.9589 76.6712 66.9397 76.6902 66.9301 76.7093C66.911 76.7284 66.9014 76.7475 66.8822 76.7666C66.863 76.7856 66.8535 76.8047 66.8343 76.8238C66.8151 76.8429 66.8055 76.862 66.796 76.8906C66.7864 76.9097 66.7672 76.9288 66.7576 76.9574C66.748 76.9765 66.7384 77.0051 66.7193 77.0242C66.7097 77.0433 66.7001 77.0719 66.6905 77.091C66.6809 77.11 66.6713 77.1387 66.6618 77.1577C66.6618 77.1768 66.6426 77.2054 66.633 77.2245C66.633 77.2436 66.6138 77.2722 66.6138 77.3009C66.6138 77.3199 66.6043 77.3486 66.5947 77.3772C66.5947 77.4058 66.5851 77.4249 66.5851 77.4535C66.5851 77.4821 66.5851 77.5012 66.5755 77.5298C66.5755 77.5585 66.5755 77.5775 66.5659 77.6062C66.5659 77.6348 66.5659 77.6539 66.5659 77.6825C66.5659 77.692 66.5659 77.7016 66.5659 77.7111C66.5659 77.7397 66.5659 77.7588 66.5659 77.7874C66.5659 77.7874 66.5659 77.8065 66.5659 77.8161C66.5659 77.8447 66.5659 77.8638 66.5755 77.8924C66.5755 77.921 66.5755 77.9401 66.5851 77.9687C66.5851 77.9973 66.5947 78.0164 66.6043 78.045C66.6043 78.0641 66.6043 78.0927 66.6138 78.1118C66.6138 78.1309 66.6138 78.1405 66.6234 78.1405C66.633 78.1786 66.6426 78.2072 66.6618 78.2359C66.6618 78.2549 66.6809 78.2836 66.6905 78.3026C66.7001 78.3217 66.7097 78.3504 66.7193 78.3694C66.7289 78.3885 66.7384 78.4171 66.7576 78.4362C66.7672 78.4553 66.7864 78.4839 66.796 78.503C66.8055 78.5221 66.8247 78.5412 66.8343 78.5698C66.8439 78.5889 66.863 78.608 66.8822 78.627C66.9014 78.6461 66.911 78.6652 66.9301 78.6843C66.9493 78.7034 66.9589 78.7224 66.9781 78.7415C66.9972 78.7606 67.0164 78.7797 67.0356 78.7988C67.0547 78.8179 67.0739 78.8369 67.0931 78.8465C67.1122 78.8656 67.1314 78.8751 67.1506 78.8942C67.1698 78.9133 67.1889 78.9228 67.2081 78.9419C67.2273 78.961 67.2464 78.9705 67.2752 78.9801C67.2944 78.9896 67.3135 79.0087 67.3423 79.0182C67.3614 79.0278 67.3902 79.0468 67.4094 79.0564C67.4285 79.0659 67.4573 79.0755 67.4765 79.085C67.4956 79.0945 67.5244 79.1041 67.5436 79.1136C67.5627 79.1136 67.5915 79.1327 67.6202 79.1422C67.6394 79.1422 67.6682 79.1613 67.6969 79.1613C67.7257 79.1613 67.7448 79.1709 67.7736 79.1804C67.8023 79.1804 67.8215 79.1899 67.8503 79.1899C67.879 79.1899 67.8982 79.19 67.9269 79.1995C67.9557 79.1995 67.9749 79.1995 68.0036 79.209C68.0324 79.209 68.0515 79.209 68.0803 79.209H68.1091C68.1378 79.209 68.157 79.209 68.1857 79.209H68.2049C68.2337 79.209 68.2528 79.209 68.2816 79.1995C68.3103 79.1995 68.3295 79.1995 68.3583 79.1899C68.387 79.1899 68.4062 79.1804 68.4349 79.1709C68.4541 79.1709 68.4829 79.1709 68.502 79.1613H68.5116C68.5116 79.1613 68.5308 79.1613 68.5308 79.1518C68.5691 79.1422 68.5979 79.1327 68.6362 79.1232C68.6554 79.1232 68.6841 79.1041 68.7033 79.0945C68.7225 79.085 68.7512 79.0755 68.7704 79.0659C68.7896 79.0564 68.8183 79.0468 68.8375 79.0278C68.8567 79.0182 68.8854 78.9991 68.9046 78.9896C68.9238 78.9801 68.9429 78.961 68.9717 78.9514C68.9909 78.9419 69.01 78.9228 69.0292 78.9037C69.0484 78.8846 69.0675 78.8751 69.0867 78.856C69.1059 78.8369 69.125 78.8274 69.1442 78.8083C69.1634 78.7892 69.1825 78.7702 69.2017 78.7511C69.2209 78.732 69.2401 78.7129 69.2496 78.6938C69.2688 78.6747 69.2784 78.6557 69.2976 78.6366C69.3167 78.6175 69.3263 78.5984 69.3455 78.5793C69.3647 78.5603 69.3742 78.5412 69.3838 78.5125C69.3934 78.4935 69.4126 78.4744 69.4222 78.4458C69.4317 78.4267 69.4509 78.3981 69.4605 78.379C69.4701 78.3599 69.4797 78.3313 69.4893 78.3122C69.4988 78.2931 69.5084 78.2645 69.518 78.2454C69.518 78.2263 69.5372 78.1977 69.5468 78.1691C69.5468 78.1405 69.5659 78.1214 69.5659 78.0927C69.5659 78.0641 69.5755 78.045 69.5851 78.0164C69.5851 77.9878 69.5947 77.9687 69.5947 77.9401C69.5947 77.9115 69.5947 77.8924 69.6043 77.8638C69.6043 77.8351 69.6043 77.8161 69.6139 77.7874C69.6139 77.7588 69.6139 77.7397 69.6139 77.7111V77.6825C69.6139 77.6539 69.6139 77.6348 69.6139 77.6062V77.5871C69.6139 77.5585 69.6139 77.5394 69.6043 77.5108C69.6043 77.4821 69.6043 77.4631 69.5947 77.4344C69.5947 77.4058 69.5851 77.3867 69.5755 77.3581C69.5755 77.339 69.5755 77.3104 69.5659 77.2913C69.5659 77.2722 69.5659 77.2627 69.5564 77.2627C69.5468 77.2341 69.5372 77.1959 69.5276 77.1673C69.5276 77.1387 69.5084 77.1196 69.4988 77.1005C69.4893 77.0814 69.4797 77.0528 69.4701 77.0337C69.4605 77.0146 69.4509 76.986 69.4318 76.9669C69.4222 76.9478 69.403 76.9192 69.3934 76.9001C69.3838 76.8811 69.3647 76.862 69.3551 76.8334C69.3359 76.8143 69.3263 76.7952 69.3071 76.7761C69.288 76.757 69.2784 76.7379 69.2592 76.7189C69.2401 76.6998 69.2305 76.6807 69.2113 76.6616C69.1921 76.6425 69.173 76.6235 69.1538 76.6044C69.1346 76.5853 69.1155 76.5662 69.0963 76.5567C69.0771 76.5376 69.0579 76.528 69.0388 76.509C69.0196 76.4899 69.0004 76.4803 68.9813 76.4613C68.9621 76.4422 68.9429 76.4326 68.9142 76.4231C68.895 76.4136 68.8758 76.3945 68.8471 76.3849C68.8279 76.3754 68.7992 76.3563 68.78 76.3468C68.7608 76.3372 68.7321 76.3277 68.7129 76.3086C68.6937 76.2991 68.665 76.2895 68.6458 76.28C68.6266 76.2704 68.5979 76.2609 68.5787 76.2514C68.55 76.2514 68.5308 76.2323 68.502 76.2323C68.4733 76.2323 68.4541 76.2227 68.4254 76.2132C68.3966 76.2132 68.3774 76.2037 68.3487 76.2037C68.3199 76.2037 68.3008 76.2037 68.272 76.1941C68.2432 76.1941 68.2241 76.1941 68.1953 76.1846C68.1666 76.1846 68.1474 76.1846 68.1186 76.1846H68.0899L68.0611 76.1941Z" fill="white"/>
<path d="M51.0005 143.581C53.0995 151.395 53.4733 163.197 50.2433 164.055C47.0132 164.914 41.4062 154.505 39.3071 146.701C37.208 138.887 40.2368 136.406 42.633 135.767C45.0196 135.127 48.9014 135.767 51.0005 143.581Z" fill="#6D6D6D"/>
<path d="M39.0577 151.386C40.1216 154.229 41.4635 157.081 42.9012 159.486C43.9843 161.299 45.1057 162.863 46.2942 164.008C47.4827 165.153 48.9396 166.145 50.684 165.678C52.4284 165.21 53.1952 163.636 53.6457 162.052C54.0962 160.468 54.2879 158.551 54.307 156.442C54.3358 153.637 54.077 150.498 53.569 147.512L50.2814 148.39C50.7223 151.099 50.9524 153.952 50.9236 156.404C50.9045 158.331 50.7032 160.02 50.3869 161.127C50.1473 161.957 49.8597 162.291 49.7926 162.396C49.6776 162.348 49.2655 162.195 48.6425 161.594C47.8086 160.793 46.7926 159.419 45.8054 157.768C44.5498 155.66 43.3229 153.074 42.3357 150.508L39.0482 151.386H39.0577Z" fill="#1A1A1A"/>
<path d="M42.192 134.145C40.6392 134.555 38.7798 135.662 37.7542 137.828C36.7287 139.994 36.5561 142.99 37.6776 147.14C38.128 148.8 38.7127 150.555 39.4028 152.292L42.6904 151.414C41.9811 149.659 41.3773 147.894 40.9364 146.272C39.9491 142.608 40.2463 140.461 40.8118 139.269C41.3773 138.076 42.2303 137.628 43.0642 137.399C43.898 137.179 44.8661 137.141 45.9588 137.895C47.0418 138.648 48.3837 140.356 49.3709 144.02C49.8118 145.642 50.1665 147.474 50.4348 149.344L53.7224 148.466C53.4444 146.615 53.0802 144.812 52.6297 143.142C51.5179 139.001 49.8597 136.483 47.8853 135.118C45.9108 133.754 43.7447 133.725 42.192 134.136V134.145Z" fill="#1A1A1A"/>
<path d="M82.5243 146.701C80.4252 154.514 74.8182 164.924 71.5881 164.055C68.3581 163.197 68.7319 151.395 70.8309 143.581C72.93 135.767 76.8118 135.127 79.1984 135.767C81.585 136.406 84.6233 138.887 82.5243 146.701Z" fill="#6D6D6D"/>
<path d="M68.2621 147.512C67.7542 150.498 67.4858 153.637 67.5241 156.442C67.5529 158.551 67.735 160.459 68.1855 162.052C68.6359 163.636 69.4027 165.21 71.1471 165.678C72.8916 166.145 74.3389 165.162 75.5369 164.008C76.7254 162.863 77.8469 161.298 78.9299 159.486C80.3676 157.072 81.7095 154.229 82.7734 151.385L79.4859 150.508C78.4986 153.074 77.2718 155.66 76.0162 157.768C75.029 159.419 74.013 160.793 73.1791 161.594C72.5561 162.195 72.1344 162.348 72.0289 162.395C71.9523 162.291 71.6743 161.957 71.4347 161.127C71.1184 160.02 70.9171 158.322 70.8979 156.404C70.8692 153.952 71.1088 151.099 71.5401 148.389L68.2526 147.512H68.2621Z" fill="#1A1A1A"/>
<path d="M79.6394 134.145C78.0867 133.735 75.9206 133.764 73.9461 135.128C71.9717 136.492 70.3135 139.001 69.2017 143.152C68.7512 144.812 68.387 146.625 68.109 148.476L71.3966 149.353C71.6649 147.483 72.0292 145.651 72.4605 144.029C73.4477 140.366 74.78 138.648 75.8726 137.904C76.9557 137.151 77.9238 137.189 78.7672 137.408C79.6107 137.628 80.4541 138.086 81.0196 139.278C81.5851 140.471 81.8823 142.617 80.895 146.281C80.4541 147.903 79.8503 149.678 79.141 151.424L82.4286 152.301C83.1187 150.565 83.7034 148.809 84.1538 147.149C85.2657 143.009 85.1027 140.003 84.0772 137.837C83.0516 135.672 81.1922 134.574 79.6394 134.155V134.145Z" fill="#1A1A1A"/>
<path d="M21.3454 108.766C14.9045 113.689 4.08333 118.545 2.05136 115.912C0.0194037 113.269 7.53383 104.139 13.9748 99.206C20.4253 94.2829 23.8854 96.1243 25.3902 98.0802C26.895 100.036 27.7863 103.843 21.3454 108.766Z" fill="#6D6D6D"/>
<path d="M9.52718 100.761C7.30353 102.832 5.16613 105.16 3.47922 107.402C2.20446 109.091 1.18848 110.722 0.575053 112.249C-0.0383689 113.785 -0.393004 115.493 0.709239 116.924C1.81148 118.355 3.56549 118.45 5.21406 118.259C6.86263 118.069 8.7029 117.506 10.6773 116.723C13.294 115.683 16.1023 114.233 18.6806 112.63L16.6103 109.949C14.262 111.39 11.7125 112.697 9.42175 113.613C7.62941 114.329 5.98084 114.796 4.83067 114.93C3.96804 115.025 3.54632 114.892 3.42172 114.863C3.42172 114.739 3.40255 114.3 3.71884 113.499C4.15015 112.42 5.02236 110.961 6.18212 109.425C7.65816 107.459 9.59428 105.341 11.5975 103.462L9.52718 100.781V100.761Z" fill="#1A1A1A"/>
<path d="M26.7318 97.0501C25.7541 95.7812 24.0193 94.4932 21.6135 94.3787C19.2174 94.2642 16.3611 95.2565 12.9394 97.8707C11.5687 98.9201 10.1694 100.132 8.81793 101.429L10.8882 104.12C12.2397 102.794 13.6486 101.563 14.9905 100.542C18.0193 98.2332 20.1183 97.6798 21.441 97.7466C22.7637 97.8134 23.5113 98.424 24.0385 99.111C24.5656 99.7979 24.9682 100.676 24.6902 101.954C24.4123 103.242 23.3292 105.122 20.31 107.431C18.9682 108.451 17.4058 109.491 15.7764 110.446L17.8467 113.136C19.457 112.172 20.9905 111.142 22.3611 110.093C25.7829 107.478 27.4794 104.998 27.9874 102.66C28.4954 100.323 27.6998 98.3191 26.7222 97.0501H26.7318Z" fill="#1A1A1A"/>
<path d="M107.857 99.206C114.298 104.129 121.812 113.269 119.78 115.912C117.748 118.555 106.937 113.689 100.486 108.766C94.0358 103.843 94.9272 100.036 96.4415 98.0802C97.9463 96.1243 101.416 94.2829 107.857 99.206Z" fill="#6D6D6D"/>
<path d="M103.16 112.64C105.739 114.252 108.557 115.693 111.164 116.733C113.129 117.515 114.978 118.078 116.627 118.269C118.276 118.46 120.03 118.364 121.132 116.933C122.234 115.502 121.87 113.794 121.266 112.258C120.653 110.722 119.637 109.1 118.362 107.402C116.675 105.16 114.547 102.832 112.314 100.761L110.243 103.442C112.247 105.332 114.183 107.44 115.659 109.415C116.819 110.951 117.7 112.411 118.122 113.489C118.438 114.29 118.419 114.729 118.429 114.853C118.304 114.882 117.892 115.016 117.02 114.92C115.87 114.787 114.221 114.319 112.429 113.604C110.138 112.688 107.589 111.38 105.24 109.94L103.17 112.621L103.16 112.64Z" fill="#1A1A1A"/>
<path d="M95.0994 97.0601C94.1218 98.3291 93.3166 100.333 93.8342 102.67C94.3422 105.008 96.0483 107.488 99.4604 110.103C100.831 111.152 102.374 112.182 103.975 113.146L106.045 110.456C104.416 109.492 102.853 108.461 101.512 107.441C98.4828 105.132 97.4093 103.252 97.1314 101.964C96.8534 100.676 97.2464 99.7984 97.7831 99.1114C98.3103 98.4245 99.0579 97.8139 100.381 97.7566C101.703 97.6898 103.802 98.2432 106.831 100.552C108.173 101.573 109.582 102.813 110.933 104.13L113.004 101.439C111.652 100.142 110.253 98.9302 108.882 97.8807C105.46 95.2665 102.614 94.2742 100.208 94.3887C97.8119 94.5032 96.0674 95.7912 95.0898 97.0601H95.0994Z" fill="#1A1A1A"/>
<path d="M53.3294 45.2812V84.0268H68.5116V45.2812H53.3294ZM58.7352 50.6623H63.1058V78.6457H58.7352V50.6623Z" fill="#1A1A1A"/>
<path d="M60.9206 57.9043C34.783 57.9043 13.5337 79.0564 13.5337 105.074C13.5337 131.092 34.783 152.245 60.9206 152.245C87.0581 152.245 108.307 131.092 108.307 105.074C108.307 79.0564 87.0581 57.9043 60.9206 57.9043ZM60.9206 63.2854C84.1348 63.2854 102.902 81.9664 102.902 105.074C102.902 128.182 84.1348 146.863 60.9206 146.863C37.7064 146.863 18.9395 128.182 18.9395 105.074C18.9395 81.9664 37.7064 63.2854 60.9206 63.2854Z" fill="#1A1A1A"/>
<path d="M58.1218 0.801758C53.5786 0.801758 49.831 4.53224 49.831 9.05462V45.1955C49.831 48.1818 52.3326 50.6624 55.323 50.6624H66.4988C69.4988 50.6624 71.9909 48.1722 71.9909 45.1955V9.05462C71.9909 4.53224 68.2432 0.801758 63.7001 0.801758H58.1122H58.1218ZM58.1218 6.18282H63.7097C65.3582 6.18282 66.5947 7.41359 66.5947 9.05462V45.1955C66.5947 45.2909 66.5947 45.2813 66.5084 45.2813H55.3326C55.2368 45.2813 55.2464 45.2813 55.2464 45.1955V9.05462C55.2464 7.41359 56.4828 6.18282 58.1314 6.18282H58.1218Z" fill="#1A1A1A"/>
<path d="M65.8087 47.9719H56.0323V81.3364H65.8087V47.9719Z" fill="#A8A8A8"/>
<path d="M65.8087 47.9719H63.3646V81.3364H65.8087V47.9719Z" fill="#757575"/>
<path d="M60.9205 47.9719H58.4764V81.3364H60.9205V47.9719Z" fill="white"/>
<path d="M55.3516 47.3037V82.0134H66.4794V47.3037H55.3516ZM56.703 48.649H65.128V80.6682H56.703V48.649Z" fill="#1A1A1A"/>
<path d="M58.1218 3.49231C55.0259 3.49231 52.5339 5.97294 52.5339 9.05464V45.1955C52.5339 46.7316 53.7799 47.9719 55.323 47.9719H66.4988C68.042 47.9719 69.288 46.7316 69.288 45.1955V9.05464C69.288 5.97294 66.7959 3.49231 63.7001 3.49231H58.1122H58.1218Z" fill="#454545"/>
<path d="M61.1697 3.49231C58.0738 3.49231 55.5818 5.97294 55.5818 9.05464V45.1955C55.5818 46.7316 56.8278 47.9719 58.3709 47.9719H61.3805C59.8374 47.9719 58.5914 46.7316 58.5914 45.1955V9.05464C58.5914 5.97294 61.0834 3.49231 64.1793 3.49231H61.1697Z" fill="#6D6D6D"/>
<path d="M59.5211 3.49231C62.617 3.49231 65.109 5.97294 65.109 9.05464V45.1955C65.109 46.7316 63.863 47.9719 62.3199 47.9719H66.5084C68.0515 47.9719 69.2975 46.7316 69.2975 45.1955V9.05464C69.2975 5.97294 66.8055 3.49231 63.7096 3.49231H59.5211Z" fill="#2E2E2E"/>
<path d="M58.1216 2.81445C54.6615 2.81445 51.8628 5.60993 51.8628 9.04465V45.195C51.8628 47.0937 53.4251 48.6488 55.3325 48.6488H66.5083C68.4156 48.6488 69.9779 47.0937 69.9779 45.195V9.05419C69.9779 5.60993 67.1696 2.82399 63.7191 2.82399H58.1312L58.1216 2.81445ZM58.1216 4.15972H63.7095C66.4412 4.15972 68.6169 6.3255 68.6169 9.04465V45.195C68.6169 46.3781 67.6872 47.3036 66.4987 47.3036H55.3229C54.1344 47.3036 53.2047 46.3781 53.2047 45.195V9.05419C53.2047 6.33504 55.3804 4.16926 58.112 4.16926L58.1216 4.15972Z" fill="#1A1A1A"/>
<path d="M105.604 105.074C105.604 116.867 100.898 128.182 92.5117 136.53C84.1347 144.869 72.7672 149.563 60.9109 149.563C49.0546 149.563 37.6967 144.879 29.3101 136.53C20.933 128.192 16.2269 116.876 16.2269 105.074C16.2269 93.272 20.933 81.9661 29.3101 73.6178C37.6871 65.2791 49.0546 60.585 60.9109 60.585C72.7672 60.585 84.1251 65.2695 92.5117 73.6178C100.889 81.9565 105.604 93.272 105.604 105.074Z" fill="#757575"/>
<path d="M101.531 105.074C101.531 115.798 97.2562 126.074 89.6363 133.659C82.0164 141.244 71.6937 145.499 60.9205 145.499C50.1472 145.499 39.8245 141.244 32.2046 133.659C24.5848 126.074 20.31 115.798 20.31 105.074C20.31 94.3502 24.5848 84.0746 32.2046 76.4896C39.8245 68.9046 50.1472 64.6494 60.9205 64.6494C71.6937 64.6494 82.0164 68.9046 89.6363 76.4896C97.2562 84.0746 101.531 94.3502 101.531 105.074Z" fill="#AECACA"/>
<path d="M91.9175 103.624C91.9175 121.465 77.3871 135.929 59.4636 135.929C41.5402 135.929 27.0098 121.465 27.0098 103.624C27.0098 85.7823 41.5402 71.3184 59.4636 71.3184C77.3871 71.3184 76.3232 74.7245 82.4095 80.7829C88.4958 86.8414 91.9175 95.0561 91.9175 103.624Z" fill="#D0E2E2"/>
<path d="M68.6364 97.1358C68.6364 101.277 66.9782 105.255 64.0357 108.184C61.0932 111.113 57.0964 112.764 52.9366 112.764C48.7768 112.764 44.78 111.123 41.8375 108.184C38.895 105.255 37.2368 101.277 37.2368 97.1358C37.2368 88.5108 44.2624 81.5078 52.9366 81.5078C61.6108 81.5078 68.6364 88.5013 68.6364 97.1358Z" fill="white"/>
<path d="M60.9205 59.9265C35.8756 59.9265 15.556 80.1532 15.556 105.083C15.556 130.014 35.8756 150.24 60.9205 150.24C85.9654 150.24 106.285 130.014 106.285 105.083C106.285 80.1532 85.9654 59.9265 60.9205 59.9265ZM60.9205 61.2718C85.237 61.2718 104.934 80.8783 104.934 105.083C104.934 129.289 85.237 148.895 60.9205 148.895C36.6041 148.895 16.9075 129.289 16.9075 105.083C16.9075 80.8783 36.6041 61.2718 60.9205 61.2718Z" fill="#1A1A1A"/>
<path d="M60.9205 63.9814C38.128 63.9814 19.6391 82.3858 19.6391 105.074C19.6391 127.762 38.128 146.167 60.9205 146.167C83.713 146.167 102.202 127.762 102.202 105.074C102.202 82.3858 83.713 63.9814 60.9205 63.9814ZM60.9205 65.3267C82.9845 65.3267 100.85 83.1205 100.85 105.074C100.85 127.028 82.9845 144.821 60.9205 144.821C38.8565 144.821 20.9905 127.037 20.9905 105.074C20.9905 83.1109 38.866 65.3267 60.9205 65.3267Z" fill="#1A1A1A"/>
<path d="M75.9589 122.038C73.7544 122.038 71.9717 123.813 71.9717 126.007C71.9717 127.057 72.3934 128.068 73.141 128.812C73.8886 129.556 74.9046 129.976 75.9589 129.976C77.0132 129.976 78.0292 129.556 78.7768 128.812C79.5244 128.068 79.9462 127.057 79.9462 126.007C79.9462 123.813 78.1634 122.038 75.9589 122.038Z" fill="#FF5574"/>
<path d="M75.959 121.37C73.3902 121.37 71.3008 123.45 71.3008 126.007C71.3008 128.564 71.3008 126.331 71.3295 126.484H72.6906C72.6714 126.331 72.6522 126.169 72.6522 126.007C72.6522 124.185 74.1283 122.715 75.959 122.715C77.7896 122.715 79.2657 124.185 79.2657 126.007C79.2657 127.829 79.2465 126.331 79.2273 126.484H80.5884C80.6075 126.331 80.6171 126.169 80.6171 126.007C80.6171 123.45 78.5181 121.37 75.959 121.37Z" fill="#1A1A1A"/>
<path d="M71.3295 125.53C71.3103 125.682 71.3007 125.845 71.3007 126.007C71.3007 128.564 73.3902 130.644 75.9589 130.644C78.5276 130.644 80.6171 128.554 80.6171 126.007C80.6171 123.459 80.6171 125.682 80.5883 125.53H79.2273C79.2464 125.682 79.2656 125.845 79.2656 126.007C79.2656 127.829 77.7896 129.298 75.9589 129.298C74.1282 129.298 72.6522 127.829 72.6522 126.007C72.6522 124.184 72.6713 125.682 72.6905 125.53H71.3295Z" fill="#1A1A1A"/>
<path d="M46.553 86.6221C50.406 86.6221 53.5115 89.7133 53.5115 93.5487V97.0216C53.5115 100.857 50.406 103.948 46.553 103.948C42.6999 103.948 39.5945 100.857 39.5945 97.0216V93.5487C39.5945 89.7133 42.6999 86.6221 46.553 86.6221Z" fill="#1A1A1A"/>
<path d="M48.3645 89.3601C47.1281 89.3601 46.1217 90.3619 46.1217 91.5927C46.1217 92.1842 46.3613 92.7567 46.783 93.1765C47.2048 93.5963 47.7799 93.8348 48.3741 93.8348C48.9684 93.8348 49.5434 93.5963 49.9652 93.1765C50.3869 92.7567 50.6265 92.1842 50.6265 91.5927C50.6265 90.3619 49.6201 89.3601 48.3837 89.3601H48.3645Z" fill="white"/>
<path d="M75.2784 86.6221C79.1315 86.6221 82.2369 89.7133 82.2369 93.5487V97.0216C82.2369 100.857 79.1315 103.948 75.2784 103.948C71.4253 103.948 68.3199 100.857 68.3199 97.0216V93.5487C68.3199 89.7133 71.4253 86.6221 75.2784 86.6221Z" fill="#1A1A1A"/>
<path d="M77.0804 89.3601C75.8439 89.3601 74.8375 90.3619 74.8375 91.5927C74.8375 92.8235 75.0771 92.7567 75.4989 93.1765C75.9206 93.5963 76.4957 93.8348 77.0899 93.8348C77.6842 93.8348 78.2593 93.5963 78.681 93.1765C79.1027 92.7567 79.3423 92.1842 79.3423 91.5927C79.3423 91.0012 79.1027 90.4287 78.681 90.0089C78.2593 89.5891 77.6842 89.3506 77.0899 89.3506L77.0804 89.3601Z" fill="white"/>
</g>
<defs>
<clipPath id="clip0_76_23783">
<rect width="121.831" height="165" fill="white" transform="translate(0 0.801758)"/>
</clipPath>
</defs>
</svg>
