<?xml version="1.0" encoding="UTF-8" standalone="no"?>
<svg
   width="122"
   height="166"
   viewBox="0 0 122 166"
   fill="none"
   version="1.1"
   id="svg366"
   sodipodi:docname="clock2.svg"
   inkscape:version="1.2.2 (b0a8486541, 2022-12-01)"
   xmlns:inkscape="http://www.inkscape.org/namespaces/inkscape"
   xmlns:sodipodi="http://sodipodi.sourceforge.net/DTD/sodipodi-0.dtd"
   xmlns="http://www.w3.org/2000/svg"
   xmlns:svg="http://www.w3.org/2000/svg">
  <sodipodi:namedview
     id="namedview368"
     pagecolor="#ffffff"
     bordercolor="#000000"
     borderopacity="0.25"
     inkscape:showpageshadow="2"
     inkscape:pageopacity="0.0"
     inkscape:pagecheckerboard="0"
     inkscape:deskcolor="#d1d1d1"
     showgrid="false"
     inkscape:zoom="4.6204819"
     inkscape:cx="61.032595"
     inkscape:cy="83.216428"
     inkscape:window-width="1920"
     inkscape:window-height="1043"
     inkscape:window-x="0"
     inkscape:window-y="0"
     inkscape:window-maximized="1"
     inkscape:current-layer="g359" />
  <g
     clip-path="url(#clip0_76_23783)"
     id="g359">
    <path
       d="M68.0611 76.1939C68.0324 76.1939 68.0132 76.1939 67.9845 76.1939H67.9653C67.9365 76.1939 67.9174 76.1939 67.8886 76.2034C67.8599 76.2034 67.8407 76.2034 67.8119 76.213C67.7832 76.213 67.764 76.2225 67.7353 76.232C67.7161 76.232 67.6873 76.2321 67.6682 76.2416H67.6586C67.6586 76.2416 67.6394 76.2416 67.6394 76.2511C67.6011 76.2607 67.5723 76.2702 67.5436 76.2798C67.5244 76.2798 67.4956 76.2988 67.4765 76.3084C67.4573 76.3179 67.4285 76.3275 67.4094 76.337C67.3902 76.3465 67.3614 76.3561 67.3423 76.3752C67.3231 76.3847 67.2944 76.4038 67.2752 76.4133C67.256 76.4229 67.2368 76.442 67.2081 76.4515C67.1889 76.461 67.1698 76.4801 67.1506 76.4992C67.1314 76.5183 67.1122 76.5278 67.0931 76.5469C67.0739 76.566 67.0547 76.5755 67.0356 76.5946C67.0164 76.6137 66.9972 76.6328 66.9781 76.6518C66.9589 76.6709 66.9397 76.69 66.9301 76.7091C66.911 76.7282 66.9014 76.7473 66.8822 76.7663C66.863 76.7854 66.8535 76.8045 66.8343 76.8236C66.8151 76.8427 66.8055 76.8617 66.796 76.8904C66.7864 76.9095 66.7672 76.9285 66.7576 76.9572C66.748 76.9762 66.7384 77.0049 66.7193 77.0239C66.7097 77.043 66.7001 77.0716 66.6905 77.0907C66.6809 77.1098 66.6713 77.1384 66.6618 77.1575C66.6618 77.1766 66.6426 77.2052 66.633 77.2243C66.633 77.2434 66.6138 77.272 66.6138 77.3006C66.6138 77.3197 66.6043 77.3483 66.5947 77.377C66.5947 77.4056 66.5851 77.4247 66.5851 77.4533C66.5851 77.4819 66.5851 77.501 66.5755 77.5296C66.5755 77.5582 66.5755 77.5773 66.5659 77.6059C66.5659 77.6346 66.5659 77.6536 66.5659 77.6823C66.5659 77.6918 66.5659 77.7013 66.5659 77.7109C66.5659 77.7395 66.5659 77.7586 66.5659 77.7872C66.5659 77.7872 66.5659 77.8063 66.5659 77.8158C66.5659 77.8445 66.5659 77.8635 66.5755 77.8922C66.5755 77.9208 66.5755 77.9399 66.5851 77.9685C66.5851 77.9971 66.5947 78.0162 66.6043 78.0448C66.6043 78.0639 66.6043 78.0925 66.6138 78.1116C66.6138 78.1307 66.6138 78.1402 66.6234 78.1402C66.633 78.1784 66.6426 78.207 66.6618 78.2356C66.6618 78.2547 66.6809 78.2833 66.6905 78.3024C66.7001 78.3215 66.7097 78.3501 66.7193 78.3692C66.7289 78.3883 66.7384 78.4169 66.7576 78.436C66.7672 78.4551 66.7864 78.4837 66.796 78.5028C66.8055 78.5219 66.8247 78.5409 66.8343 78.5696C66.8439 78.5886 66.863 78.6077 66.8822 78.6268C66.9014 78.6459 66.911 78.665 66.9301 78.6841C66.9493 78.7031 66.9589 78.7222 66.9781 78.7413C66.9972 78.7604 67.0164 78.7795 67.0356 78.7985C67.0547 78.8176 67.0739 78.8367 67.0931 78.8463C67.1122 78.8653 67.1314 78.8749 67.1506 78.894C67.1698 78.913 67.1889 78.9226 67.2081 78.9417C67.2273 78.9607 67.2464 78.9703 67.2752 78.9798C67.2944 78.9894 67.3135 79.0084 67.3423 79.018C67.3614 79.0275 67.3902 79.0466 67.4094 79.0562C67.4285 79.0657 67.4573 79.0752 67.4765 79.0848C67.4956 79.0943 67.5244 79.1039 67.5436 79.1134C67.5627 79.1134 67.5915 79.1325 67.6202 79.142C67.6394 79.142 67.6682 79.1611 67.6969 79.1611C67.7257 79.1611 67.7448 79.1706 67.7736 79.1802C67.8023 79.1802 67.8215 79.1897 67.8503 79.1897C67.879 79.1897 67.8982 79.1897 67.9269 79.1993C67.9557 79.1993 67.9749 79.1993 68.0036 79.2088C68.0324 79.2088 68.0515 79.2088 68.0803 79.2088C68.0899 79.2088 68.0995 79.2088 68.1091 79.2088C68.1378 79.2088 68.157 79.2088 68.1857 79.2088H68.2049C68.2337 79.2088 68.2528 79.2088 68.2816 79.1993C68.3103 79.1993 68.3295 79.1993 68.3583 79.1897C68.387 79.1897 68.4062 79.1802 68.4349 79.1706C68.4541 79.1706 68.4829 79.1706 68.502 79.1611H68.5116C68.5116 79.1611 68.5308 79.1611 68.5308 79.1516C68.5691 79.142 68.5979 79.1325 68.6362 79.1134C68.6554 79.1134 68.6841 79.0943 68.7033 79.0848C68.7225 79.0752 68.7512 79.0657 68.7704 79.0562C68.7896 79.0466 68.8183 79.0371 68.8375 79.018C68.8567 79.0084 68.8854 78.9894 68.9046 78.9798C68.9238 78.9703 68.9429 78.9512 68.9717 78.9417C68.9909 78.9321 69.01 78.913 69.0292 78.894C69.0484 78.8749 69.0675 78.8653 69.0867 78.8463C69.1059 78.8272 69.125 78.8176 69.1442 78.7985C69.1634 78.7795 69.1825 78.7604 69.2017 78.7413C69.2209 78.7222 69.2401 78.7031 69.2496 78.6841C69.2688 78.665 69.2784 78.6459 69.2976 78.6268C69.3167 78.6077 69.3263 78.5886 69.3455 78.5696C69.3647 78.5505 69.3742 78.5314 69.3838 78.5028C69.3934 78.4837 69.4126 78.4646 69.4222 78.436C69.4317 78.4169 69.4509 78.3883 69.4605 78.3692C69.4701 78.3501 69.4797 78.3215 69.4893 78.3024C69.4988 78.2833 69.5084 78.2547 69.518 78.2356C69.518 78.2166 69.5372 78.1879 69.5468 78.1593C69.5468 78.1402 69.5659 78.1116 69.5659 78.083C69.5659 78.0544 69.5755 78.0353 69.5851 78.0067C69.5851 77.978 69.5947 77.959 69.5947 77.9303C69.5947 77.9017 69.5947 77.8826 69.6043 77.854C69.6043 77.8254 69.6043 77.8063 69.6139 77.7777C69.6139 77.749 69.6139 77.73 69.6139 77.7013V77.6727C69.6139 77.6441 69.6139 77.625 69.6139 77.5964V77.5773C69.6139 77.5487 69.6139 77.5296 69.6043 77.501C69.6043 77.4724 69.6043 77.4533 69.5947 77.4247C69.5947 77.396 69.5851 77.377 69.5755 77.3483C69.5755 77.3293 69.5755 77.3006 69.5659 77.2815C69.5659 77.2625 69.5659 77.2529 69.5564 77.2529C69.5468 77.2148 69.5372 77.1861 69.5276 77.1575C69.5276 77.1289 69.5084 77.1098 69.4988 77.0907C69.4893 77.0716 69.4797 77.043 69.4701 77.0239C69.4605 77.0049 69.4509 76.9762 69.4318 76.9572C69.4222 76.9381 69.403 76.9095 69.3934 76.8904C69.3838 76.8713 69.3647 76.8522 69.3551 76.8236C69.3359 76.8045 69.3263 76.7854 69.3071 76.7663C69.288 76.7473 69.2784 76.7282 69.2592 76.7091C69.2401 76.69 69.2305 76.6709 69.2113 76.6518C69.1921 76.6328 69.173 76.6137 69.1538 76.5946C69.1346 76.5755 69.1155 76.5564 69.0963 76.5469C69.0771 76.5278 69.0579 76.5183 69.0388 76.4992C69.0196 76.4801 69.0004 76.4706 68.9813 76.4515C68.9621 76.4324 68.9429 76.4229 68.9142 76.4133C68.895 76.4038 68.8758 76.3847 68.8471 76.3752C68.8279 76.3656 68.7992 76.3465 68.78 76.337C68.7608 76.3275 68.7321 76.3179 68.7129 76.2988C68.6937 76.2893 68.665 76.2798 68.6458 76.2702C68.6266 76.2702 68.5979 76.2511 68.5787 76.2416C68.55 76.2416 68.5308 76.2225 68.502 76.2225C68.4733 76.2225 68.4541 76.213 68.4254 76.2034C68.3966 76.2034 68.3774 76.1939 68.3487 76.1939C68.3199 76.1939 68.3008 76.1939 68.272 76.1843C68.2432 76.1843 68.2241 76.1843 68.1953 76.1748C68.1666 76.1748 68.1474 76.1748 68.1186 76.1748C68.1091 76.1748 68.0995 76.1748 68.0899 76.1748L68.0611 76.1939Z"
       fill="white"
       id="path267" />
    <path
       d="M68.0611 76.1941C68.0324 76.1941 68.0132 76.1941 67.9845 76.1941H67.9653C67.9365 76.1941 67.9174 76.1941 67.8886 76.2037C67.8599 76.2037 67.8407 76.2037 67.8119 76.2132C67.7832 76.2132 67.764 76.2227 67.7353 76.2323C67.7161 76.2323 67.6873 76.2323 67.6682 76.2418H67.6586C67.6586 76.2418 67.6394 76.2418 67.6394 76.2514C67.6011 76.2609 67.5723 76.2704 67.5436 76.28C67.5244 76.28 67.4956 76.2991 67.4765 76.3086C67.4573 76.3181 67.4285 76.3277 67.4094 76.3372C67.3902 76.3468 67.3614 76.3563 67.3423 76.3754C67.3231 76.3849 67.2944 76.404 67.2752 76.4136C67.256 76.4231 67.2368 76.4422 67.2081 76.4517C67.1889 76.4613 67.1698 76.4803 67.1506 76.4994C67.1314 76.5185 67.1122 76.528 67.0931 76.5471C67.0739 76.5662 67.0547 76.5758 67.0356 76.5948C67.0164 76.6139 66.9972 76.633 66.9781 76.6521C66.9589 76.6712 66.9397 76.6902 66.9301 76.7093C66.911 76.7284 66.9014 76.7475 66.8822 76.7666C66.863 76.7856 66.8535 76.8047 66.8343 76.8238C66.8151 76.8429 66.8055 76.862 66.796 76.8906C66.7864 76.9097 66.7672 76.9288 66.7576 76.9574C66.748 76.9765 66.7384 77.0051 66.7193 77.0242C66.7097 77.0433 66.7001 77.0719 66.6905 77.091C66.6809 77.11 66.6713 77.1387 66.6618 77.1577C66.6618 77.1768 66.6426 77.2054 66.633 77.2245C66.633 77.2436 66.6138 77.2722 66.6138 77.3009C66.6138 77.3199 66.6043 77.3486 66.5947 77.3772C66.5947 77.4058 66.5851 77.4249 66.5851 77.4535C66.5851 77.4821 66.5851 77.5012 66.5755 77.5298C66.5755 77.5585 66.5755 77.5775 66.5659 77.6062C66.5659 77.6348 66.5659 77.6539 66.5659 77.6825C66.5659 77.692 66.5659 77.7016 66.5659 77.7111C66.5659 77.7397 66.5659 77.7588 66.5659 77.7874C66.5659 77.7874 66.5659 77.8065 66.5659 77.8161C66.5659 77.8447 66.5659 77.8638 66.5755 77.8924C66.5755 77.921 66.5755 77.9401 66.5851 77.9687C66.5851 77.9973 66.5947 78.0164 66.6043 78.045C66.6043 78.0641 66.6043 78.0927 66.6138 78.1118C66.6138 78.1309 66.6138 78.1405 66.6234 78.1405C66.633 78.1786 66.6426 78.2072 66.6618 78.2359C66.6618 78.2549 66.6809 78.2836 66.6905 78.3026C66.7001 78.3217 66.7097 78.3504 66.7193 78.3694C66.7289 78.3885 66.7384 78.4171 66.7576 78.4362C66.7672 78.4553 66.7864 78.4839 66.796 78.503C66.8055 78.5221 66.8247 78.5412 66.8343 78.5698C66.8439 78.5889 66.863 78.608 66.8822 78.627C66.9014 78.6461 66.911 78.6652 66.9301 78.6843C66.9493 78.7034 66.9589 78.7224 66.9781 78.7415C66.9972 78.7606 67.0164 78.7797 67.0356 78.7988C67.0547 78.8179 67.0739 78.8369 67.0931 78.8465C67.1122 78.8656 67.1314 78.8751 67.1506 78.8942C67.1698 78.9133 67.1889 78.9228 67.2081 78.9419C67.2273 78.961 67.2464 78.9705 67.2752 78.9801C67.2944 78.9896 67.3135 79.0087 67.3423 79.0182C67.3614 79.0278 67.3902 79.0468 67.4094 79.0564C67.4285 79.0659 67.4573 79.0755 67.4765 79.085C67.4956 79.0945 67.5244 79.1041 67.5436 79.1136C67.5627 79.1136 67.5915 79.1327 67.6202 79.1422C67.6394 79.1422 67.6682 79.1613 67.6969 79.1613C67.7257 79.1613 67.7448 79.1709 67.7736 79.1804C67.8023 79.1804 67.8215 79.1899 67.8503 79.1899C67.879 79.1899 67.8982 79.19 67.9269 79.1995C67.9557 79.1995 67.9749 79.1995 68.0036 79.209C68.0324 79.209 68.0515 79.209 68.0803 79.209H68.1091C68.1378 79.209 68.157 79.209 68.1857 79.209H68.2049C68.2337 79.209 68.2528 79.209 68.2816 79.1995C68.3103 79.1995 68.3295 79.1995 68.3583 79.1899C68.387 79.1899 68.4062 79.1804 68.4349 79.1709C68.4541 79.1709 68.4829 79.1709 68.502 79.1613H68.5116C68.5116 79.1613 68.5308 79.1613 68.5308 79.1518C68.5691 79.1422 68.5979 79.1327 68.6362 79.1232C68.6554 79.1232 68.6841 79.1041 68.7033 79.0945C68.7225 79.085 68.7512 79.0755 68.7704 79.0659C68.7896 79.0564 68.8183 79.0468 68.8375 79.0278C68.8567 79.0182 68.8854 78.9991 68.9046 78.9896C68.9238 78.9801 68.9429 78.961 68.9717 78.9514C68.9909 78.9419 69.01 78.9228 69.0292 78.9037C69.0484 78.8846 69.0675 78.8751 69.0867 78.856C69.1059 78.8369 69.125 78.8274 69.1442 78.8083C69.1634 78.7892 69.1825 78.7702 69.2017 78.7511C69.2209 78.732 69.2401 78.7129 69.2496 78.6938C69.2688 78.6747 69.2784 78.6557 69.2976 78.6366C69.3167 78.6175 69.3263 78.5984 69.3455 78.5793C69.3647 78.5603 69.3742 78.5412 69.3838 78.5125C69.3934 78.4935 69.4126 78.4744 69.4222 78.4458C69.4317 78.4267 69.4509 78.3981 69.4605 78.379C69.4701 78.3599 69.4797 78.3313 69.4893 78.3122C69.4988 78.2931 69.5084 78.2645 69.518 78.2454C69.518 78.2263 69.5372 78.1977 69.5468 78.1691C69.5468 78.1405 69.5659 78.1214 69.5659 78.0927C69.5659 78.0641 69.5755 78.045 69.5851 78.0164C69.5851 77.9878 69.5947 77.9687 69.5947 77.9401C69.5947 77.9115 69.5947 77.8924 69.6043 77.8638C69.6043 77.8351 69.6043 77.8161 69.6139 77.7874C69.6139 77.7588 69.6139 77.7397 69.6139 77.7111V77.6825C69.6139 77.6539 69.6139 77.6348 69.6139 77.6062V77.5871C69.6139 77.5585 69.6139 77.5394 69.6043 77.5108C69.6043 77.4821 69.6043 77.4631 69.5947 77.4344C69.5947 77.4058 69.5851 77.3867 69.5755 77.3581C69.5755 77.339 69.5755 77.3104 69.5659 77.2913C69.5659 77.2722 69.5659 77.2627 69.5564 77.2627C69.5468 77.2341 69.5372 77.1959 69.5276 77.1673C69.5276 77.1387 69.5084 77.1196 69.4988 77.1005C69.4893 77.0814 69.4797 77.0528 69.4701 77.0337C69.4605 77.0146 69.4509 76.986 69.4318 76.9669C69.4222 76.9478 69.403 76.9192 69.3934 76.9001C69.3838 76.8811 69.3647 76.862 69.3551 76.8334C69.3359 76.8143 69.3263 76.7952 69.3071 76.7761C69.288 76.757 69.2784 76.7379 69.2592 76.7189C69.2401 76.6998 69.2305 76.6807 69.2113 76.6616C69.1921 76.6425 69.173 76.6235 69.1538 76.6044C69.1346 76.5853 69.1155 76.5662 69.0963 76.5567C69.0771 76.5376 69.0579 76.528 69.0388 76.509C69.0196 76.4899 69.0004 76.4803 68.9813 76.4613C68.9621 76.4422 68.9429 76.4326 68.9142 76.4231C68.895 76.4136 68.8758 76.3945 68.8471 76.3849C68.8279 76.3754 68.7992 76.3563 68.78 76.3468C68.7608 76.3372 68.7321 76.3277 68.7129 76.3086C68.6937 76.2991 68.665 76.2895 68.6458 76.28C68.6266 76.2704 68.5979 76.2609 68.5787 76.2514C68.55 76.2514 68.5308 76.2323 68.502 76.2323C68.4733 76.2323 68.4541 76.2227 68.4254 76.2132C68.3966 76.2132 68.3774 76.2037 68.3487 76.2037C68.3199 76.2037 68.3008 76.2037 68.272 76.1941C68.2432 76.1941 68.2241 76.1941 68.1953 76.1846C68.1666 76.1846 68.1474 76.1846 68.1186 76.1846H68.0899L68.0611 76.1941Z"
       fill="white"
       id="path269" />
    <path
       d="M68.0611 76.1941C68.0324 76.1941 68.0132 76.1941 67.9845 76.1941H67.9653C67.9365 76.1941 67.9174 76.1941 67.8886 76.2037C67.8599 76.2037 67.8407 76.2037 67.8119 76.2132C67.7832 76.2132 67.764 76.2227 67.7353 76.2323C67.7161 76.2323 67.6873 76.2323 67.6682 76.2418H67.6586C67.6586 76.2418 67.6394 76.2418 67.6394 76.2514C67.6011 76.2609 67.5723 76.2704 67.5436 76.28C67.5244 76.28 67.4956 76.2991 67.4765 76.3086C67.4573 76.3181 67.4285 76.3277 67.4094 76.3372C67.3902 76.3468 67.3614 76.3563 67.3423 76.3754C67.3231 76.3849 67.2944 76.404 67.2752 76.4136C67.256 76.4231 67.2368 76.4422 67.2081 76.4517C67.1889 76.4613 67.1698 76.4803 67.1506 76.4994C67.1314 76.5185 67.1122 76.528 67.0931 76.5471C67.0739 76.5662 67.0547 76.5758 67.0356 76.5948C67.0164 76.6139 66.9972 76.633 66.9781 76.6521C66.9589 76.6712 66.9397 76.6902 66.9301 76.7093C66.911 76.7284 66.9014 76.7475 66.8822 76.7666C66.863 76.7856 66.8535 76.8047 66.8343 76.8238C66.8151 76.8429 66.8055 76.862 66.796 76.8906C66.7864 76.9097 66.7672 76.9288 66.7576 76.9574C66.748 76.9765 66.7384 77.0051 66.7193 77.0242C66.7097 77.0433 66.7001 77.0719 66.6905 77.091C66.6809 77.11 66.6713 77.1387 66.6618 77.1577C66.6618 77.1768 66.6426 77.2054 66.633 77.2245C66.633 77.2436 66.6138 77.2722 66.6138 77.3009C66.6138 77.3199 66.6043 77.3486 66.5947 77.3772C66.5947 77.4058 66.5851 77.4249 66.5851 77.4535C66.5851 77.4821 66.5851 77.5012 66.5755 77.5298C66.5755 77.5585 66.5755 77.5775 66.5659 77.6062C66.5659 77.6348 66.5659 77.6539 66.5659 77.6825C66.5659 77.692 66.5659 77.7016 66.5659 77.7111C66.5659 77.7397 66.5659 77.7588 66.5659 77.7874C66.5659 77.7874 66.5659 77.8065 66.5659 77.8161C66.5659 77.8447 66.5659 77.8638 66.5755 77.8924C66.5755 77.921 66.5755 77.9401 66.5851 77.9687C66.5851 77.9973 66.5947 78.0164 66.6043 78.045C66.6043 78.0641 66.6043 78.0927 66.6138 78.1118C66.6138 78.1309 66.6138 78.1405 66.6234 78.1405C66.633 78.1786 66.6426 78.2072 66.6618 78.2359C66.6618 78.2549 66.6809 78.2836 66.6905 78.3026C66.7001 78.3217 66.7097 78.3504 66.7193 78.3694C66.7289 78.3885 66.7384 78.4171 66.7576 78.4362C66.7672 78.4553 66.7864 78.4839 66.796 78.503C66.8055 78.5221 66.8247 78.5412 66.8343 78.5698C66.8439 78.5889 66.863 78.608 66.8822 78.627C66.9014 78.6461 66.911 78.6652 66.9301 78.6843C66.9493 78.7034 66.9589 78.7224 66.9781 78.7415C66.9972 78.7606 67.0164 78.7797 67.0356 78.7988C67.0547 78.8179 67.0739 78.8369 67.0931 78.8465C67.1122 78.8656 67.1314 78.8751 67.1506 78.8942C67.1698 78.9133 67.1889 78.9228 67.2081 78.9419C67.2273 78.961 67.2464 78.9705 67.2752 78.9801C67.2944 78.9896 67.3135 79.0087 67.3423 79.0182C67.3614 79.0278 67.3902 79.0468 67.4094 79.0564C67.4285 79.0659 67.4573 79.0755 67.4765 79.085C67.4956 79.0945 67.5244 79.1041 67.5436 79.1136C67.5627 79.1136 67.5915 79.1327 67.6202 79.1422C67.6394 79.1422 67.6682 79.1613 67.6969 79.1613C67.7257 79.1613 67.7448 79.1709 67.7736 79.1804C67.8023 79.1804 67.8215 79.1899 67.8503 79.1899C67.879 79.1899 67.8982 79.19 67.9269 79.1995C67.9557 79.1995 67.9749 79.1995 68.0036 79.209C68.0324 79.209 68.0515 79.209 68.0803 79.209H68.1091C68.1378 79.209 68.157 79.209 68.1857 79.209H68.2049C68.2337 79.209 68.2528 79.209 68.2816 79.1995C68.3103 79.1995 68.3295 79.1995 68.3583 79.1899C68.387 79.1899 68.4062 79.1804 68.4349 79.1709C68.4541 79.1709 68.4829 79.1709 68.502 79.1613H68.5116C68.5116 79.1613 68.5308 79.1613 68.5308 79.1518C68.5691 79.1422 68.5979 79.1327 68.6362 79.1232C68.6554 79.1232 68.6841 79.1041 68.7033 79.0945C68.7225 79.085 68.7512 79.0755 68.7704 79.0659C68.7896 79.0564 68.8183 79.0468 68.8375 79.0278C68.8567 79.0182 68.8854 78.9991 68.9046 78.9896C68.9238 78.9801 68.9429 78.961 68.9717 78.9514C68.9909 78.9419 69.01 78.9228 69.0292 78.9037C69.0484 78.8846 69.0675 78.8751 69.0867 78.856C69.1059 78.8369 69.125 78.8274 69.1442 78.8083C69.1634 78.7892 69.1825 78.7702 69.2017 78.7511C69.2209 78.732 69.2401 78.7129 69.2496 78.6938C69.2688 78.6747 69.2784 78.6557 69.2976 78.6366C69.3167 78.6175 69.3263 78.5984 69.3455 78.5793C69.3647 78.5603 69.3742 78.5412 69.3838 78.5125C69.3934 78.4935 69.4126 78.4744 69.4222 78.4458C69.4317 78.4267 69.4509 78.3981 69.4605 78.379C69.4701 78.3599 69.4797 78.3313 69.4893 78.3122C69.4988 78.2931 69.5084 78.2645 69.518 78.2454C69.518 78.2263 69.5372 78.1977 69.5468 78.1691C69.5468 78.1405 69.5659 78.1214 69.5659 78.0927C69.5659 78.0641 69.5755 78.045 69.5851 78.0164C69.5851 77.9878 69.5947 77.9687 69.5947 77.9401C69.5947 77.9115 69.5947 77.8924 69.6043 77.8638C69.6043 77.8351 69.6043 77.8161 69.6139 77.7874C69.6139 77.7588 69.6139 77.7397 69.6139 77.7111V77.6825C69.6139 77.6539 69.6139 77.6348 69.6139 77.6062V77.5871C69.6139 77.5585 69.6139 77.5394 69.6043 77.5108C69.6043 77.4821 69.6043 77.4631 69.5947 77.4344C69.5947 77.4058 69.5851 77.3867 69.5755 77.3581C69.5755 77.339 69.5755 77.3104 69.5659 77.2913C69.5659 77.2722 69.5659 77.2627 69.5564 77.2627C69.5468 77.2341 69.5372 77.1959 69.5276 77.1673C69.5276 77.1387 69.5084 77.1196 69.4988 77.1005C69.4893 77.0814 69.4797 77.0528 69.4701 77.0337C69.4605 77.0146 69.4509 76.986 69.4318 76.9669C69.4222 76.9478 69.403 76.9192 69.3934 76.9001C69.3838 76.8811 69.3647 76.862 69.3551 76.8334C69.3359 76.8143 69.3263 76.7952 69.3071 76.7761C69.288 76.757 69.2784 76.7379 69.2592 76.7189C69.2401 76.6998 69.2305 76.6807 69.2113 76.6616C69.1921 76.6425 69.173 76.6235 69.1538 76.6044C69.1346 76.5853 69.1155 76.5662 69.0963 76.5567C69.0771 76.5376 69.0579 76.528 69.0388 76.509C69.0196 76.4899 69.0004 76.4803 68.9813 76.4613C68.9621 76.4422 68.9429 76.4326 68.9142 76.4231C68.895 76.4136 68.8758 76.3945 68.8471 76.3849C68.8279 76.3754 68.7992 76.3563 68.78 76.3468C68.7608 76.3372 68.7321 76.3277 68.7129 76.3086C68.6937 76.2991 68.665 76.2895 68.6458 76.28C68.6266 76.2704 68.5979 76.2609 68.5787 76.2514C68.55 76.2514 68.5308 76.2323 68.502 76.2323C68.4733 76.2323 68.4541 76.2227 68.4254 76.2132C68.3966 76.2132 68.3774 76.2037 68.3487 76.2037C68.3199 76.2037 68.3008 76.2037 68.272 76.1941C68.2432 76.1941 68.2241 76.1941 68.1953 76.1846C68.1666 76.1846 68.1474 76.1846 68.1186 76.1846H68.0899L68.0611 76.1941Z"
       fill="white"
       id="path271" />
    <path
       d="M68.0611 76.1941C68.0324 76.1941 68.0132 76.1941 67.9845 76.1941H67.9653C67.9365 76.1941 67.9174 76.1941 67.8886 76.2037C67.8599 76.2037 67.8407 76.2037 67.8119 76.2132C67.7832 76.2132 67.764 76.2227 67.7353 76.2323C67.7161 76.2323 67.6873 76.2323 67.6682 76.2418H67.6586C67.6586 76.2418 67.6394 76.2418 67.6394 76.2514C67.6011 76.2609 67.5723 76.2704 67.5436 76.28C67.5244 76.28 67.4956 76.2991 67.4765 76.3086C67.4573 76.3181 67.4285 76.3277 67.4094 76.3372C67.3902 76.3468 67.3614 76.3563 67.3423 76.3754C67.3231 76.3849 67.2944 76.404 67.2752 76.4136C67.256 76.4231 67.2368 76.4422 67.2081 76.4517C67.1889 76.4613 67.1698 76.4803 67.1506 76.4994C67.1314 76.5185 67.1122 76.528 67.0931 76.5471C67.0739 76.5662 67.0547 76.5758 67.0356 76.5948C67.0164 76.6139 66.9972 76.633 66.9781 76.6521C66.9589 76.6712 66.9397 76.6902 66.9301 76.7093C66.911 76.7284 66.9014 76.7475 66.8822 76.7666C66.863 76.7856 66.8535 76.8047 66.8343 76.8238C66.8151 76.8429 66.8055 76.862 66.796 76.8906C66.7864 76.9097 66.7672 76.9288 66.7576 76.9574C66.748 76.9765 66.7384 77.0051 66.7193 77.0242C66.7097 77.0433 66.7001 77.0719 66.6905 77.091C66.6809 77.11 66.6713 77.1387 66.6618 77.1577C66.6618 77.1768 66.6426 77.2054 66.633 77.2245C66.633 77.2436 66.6138 77.2722 66.6138 77.3009C66.6138 77.3199 66.6043 77.3486 66.5947 77.3772C66.5947 77.4058 66.5851 77.4249 66.5851 77.4535C66.5851 77.4821 66.5851 77.5012 66.5755 77.5298C66.5755 77.5585 66.5755 77.5775 66.5659 77.6062C66.5659 77.6348 66.5659 77.6539 66.5659 77.6825C66.5659 77.692 66.5659 77.7016 66.5659 77.7111C66.5659 77.7397 66.5659 77.7588 66.5659 77.7874C66.5659 77.7874 66.5659 77.8065 66.5659 77.8161C66.5659 77.8447 66.5659 77.8638 66.5755 77.8924C66.5755 77.921 66.5755 77.9401 66.5851 77.9687C66.5851 77.9973 66.5947 78.0164 66.6043 78.045C66.6043 78.0641 66.6043 78.0927 66.6138 78.1118C66.6138 78.1309 66.6138 78.1405 66.6234 78.1405C66.633 78.1786 66.6426 78.2072 66.6618 78.2359C66.6618 78.2549 66.6809 78.2836 66.6905 78.3026C66.7001 78.3217 66.7097 78.3504 66.7193 78.3694C66.7289 78.3885 66.7384 78.4171 66.7576 78.4362C66.7672 78.4553 66.7864 78.4839 66.796 78.503C66.8055 78.5221 66.8247 78.5412 66.8343 78.5698C66.8439 78.5889 66.863 78.608 66.8822 78.627C66.9014 78.6461 66.911 78.6652 66.9301 78.6843C66.9493 78.7034 66.9589 78.7224 66.9781 78.7415C66.9972 78.7606 67.0164 78.7797 67.0356 78.7988C67.0547 78.8179 67.0739 78.8369 67.0931 78.8465C67.1122 78.8656 67.1314 78.8751 67.1506 78.8942C67.1698 78.9133 67.1889 78.9228 67.2081 78.9419C67.2273 78.961 67.2464 78.9705 67.2752 78.9801C67.2944 78.9896 67.3135 79.0087 67.3423 79.0182C67.3614 79.0278 67.3902 79.0468 67.4094 79.0564C67.4285 79.0659 67.4573 79.0755 67.4765 79.085C67.4956 79.0945 67.5244 79.1041 67.5436 79.1136C67.5627 79.1136 67.5915 79.1327 67.6202 79.1422C67.6394 79.1422 67.6682 79.1613 67.6969 79.1613C67.7257 79.1613 67.7448 79.1709 67.7736 79.1804C67.8023 79.1804 67.8215 79.1899 67.8503 79.1899C67.879 79.1899 67.8982 79.19 67.9269 79.1995C67.9557 79.1995 67.9749 79.1995 68.0036 79.209C68.0324 79.209 68.0515 79.209 68.0803 79.209H68.1091C68.1378 79.209 68.157 79.209 68.1857 79.209H68.2049C68.2337 79.209 68.2528 79.209 68.2816 79.1995C68.3103 79.1995 68.3295 79.1995 68.3583 79.1899C68.387 79.1899 68.4062 79.1804 68.4349 79.1709C68.4541 79.1709 68.4829 79.1709 68.502 79.1613H68.5116C68.5116 79.1613 68.5308 79.1613 68.5308 79.1518C68.5691 79.1422 68.5979 79.1327 68.6362 79.1232C68.6554 79.1232 68.6841 79.1041 68.7033 79.0945C68.7225 79.085 68.7512 79.0755 68.7704 79.0659C68.7896 79.0564 68.8183 79.0468 68.8375 79.0278C68.8567 79.0182 68.8854 78.9991 68.9046 78.9896C68.9238 78.9801 68.9429 78.961 68.9717 78.9514C68.9909 78.9419 69.01 78.9228 69.0292 78.9037C69.0484 78.8846 69.0675 78.8751 69.0867 78.856C69.1059 78.8369 69.125 78.8274 69.1442 78.8083C69.1634 78.7892 69.1825 78.7702 69.2017 78.7511C69.2209 78.732 69.2401 78.7129 69.2496 78.6938C69.2688 78.6747 69.2784 78.6557 69.2976 78.6366C69.3167 78.6175 69.3263 78.5984 69.3455 78.5793C69.3647 78.5603 69.3742 78.5412 69.3838 78.5125C69.3934 78.4935 69.4126 78.4744 69.4222 78.4458C69.4317 78.4267 69.4509 78.3981 69.4605 78.379C69.4701 78.3599 69.4797 78.3313 69.4893 78.3122C69.4988 78.2931 69.5084 78.2645 69.518 78.2454C69.518 78.2263 69.5372 78.1977 69.5468 78.1691C69.5468 78.1405 69.5659 78.1214 69.5659 78.0927C69.5659 78.0641 69.5755 78.045 69.5851 78.0164C69.5851 77.9878 69.5947 77.9687 69.5947 77.9401C69.5947 77.9115 69.5947 77.8924 69.6043 77.8638C69.6043 77.8351 69.6043 77.8161 69.6139 77.7874C69.6139 77.7588 69.6139 77.7397 69.6139 77.7111V77.6825C69.6139 77.6539 69.6139 77.6348 69.6139 77.6062V77.5871C69.6139 77.5585 69.6139 77.5394 69.6043 77.5108C69.6043 77.4821 69.6043 77.4631 69.5947 77.4344C69.5947 77.4058 69.5851 77.3867 69.5755 77.3581C69.5755 77.339 69.5755 77.3104 69.5659 77.2913C69.5659 77.2722 69.5659 77.2627 69.5564 77.2627C69.5468 77.2341 69.5372 77.1959 69.5276 77.1673C69.5276 77.1387 69.5084 77.1196 69.4988 77.1005C69.4893 77.0814 69.4797 77.0528 69.4701 77.0337C69.4605 77.0146 69.4509 76.986 69.4318 76.9669C69.4222 76.9478 69.403 76.9192 69.3934 76.9001C69.3838 76.8811 69.3647 76.862 69.3551 76.8334C69.3359 76.8143 69.3263 76.7952 69.3071 76.7761C69.288 76.757 69.2784 76.7379 69.2592 76.7189C69.2401 76.6998 69.2305 76.6807 69.2113 76.6616C69.1921 76.6425 69.173 76.6235 69.1538 76.6044C69.1346 76.5853 69.1155 76.5662 69.0963 76.5567C69.0771 76.5376 69.0579 76.528 69.0388 76.509C69.0196 76.4899 69.0004 76.4803 68.9813 76.4613C68.9621 76.4422 68.9429 76.4326 68.9142 76.4231C68.895 76.4136 68.8758 76.3945 68.8471 76.3849C68.8279 76.3754 68.7992 76.3563 68.78 76.3468C68.7608 76.3372 68.7321 76.3277 68.7129 76.3086C68.6937 76.2991 68.665 76.2895 68.6458 76.28C68.6266 76.2704 68.5979 76.2609 68.5787 76.2514C68.55 76.2514 68.5308 76.2323 68.502 76.2323C68.4733 76.2323 68.4541 76.2227 68.4254 76.2132C68.3966 76.2132 68.3774 76.2037 68.3487 76.2037C68.3199 76.2037 68.3008 76.2037 68.272 76.1941C68.2432 76.1941 68.2241 76.1941 68.1953 76.1846C68.1666 76.1846 68.1474 76.1846 68.1186 76.1846H68.0899L68.0611 76.1941Z"
       fill="white"
       id="path273" />
    <path
       d="M68.0611 76.1941C68.0324 76.1941 68.0132 76.1941 67.9845 76.1941H67.9653C67.9365 76.1941 67.9174 76.1941 67.8886 76.2037C67.8599 76.2037 67.8407 76.2037 67.8119 76.2132C67.7832 76.2132 67.764 76.2227 67.7353 76.2323C67.7161 76.2323 67.6873 76.2323 67.6682 76.2418H67.6586C67.6586 76.2418 67.6394 76.2418 67.6394 76.2514C67.6011 76.2609 67.5723 76.2704 67.5436 76.28C67.5244 76.28 67.4956 76.2991 67.4765 76.3086C67.4573 76.3181 67.4285 76.3277 67.4094 76.3372C67.3902 76.3468 67.3614 76.3563 67.3423 76.3754C67.3231 76.3849 67.2944 76.404 67.2752 76.4136C67.256 76.4231 67.2368 76.4422 67.2081 76.4517C67.1889 76.4613 67.1698 76.4803 67.1506 76.4994C67.1314 76.5185 67.1122 76.528 67.0931 76.5471C67.0739 76.5662 67.0547 76.5758 67.0356 76.5948C67.0164 76.6139 66.9972 76.633 66.9781 76.6521C66.9589 76.6712 66.9397 76.6902 66.9301 76.7093C66.911 76.7284 66.9014 76.7475 66.8822 76.7666C66.863 76.7856 66.8535 76.8047 66.8343 76.8238C66.8151 76.8429 66.8055 76.862 66.796 76.8906C66.7864 76.9097 66.7672 76.9288 66.7576 76.9574C66.748 76.9765 66.7384 77.0051 66.7193 77.0242C66.7097 77.0433 66.7001 77.0719 66.6905 77.091C66.6809 77.11 66.6713 77.1387 66.6618 77.1577C66.6618 77.1768 66.6426 77.2054 66.633 77.2245C66.633 77.2436 66.6138 77.2722 66.6138 77.3009C66.6138 77.3199 66.6043 77.3486 66.5947 77.3772C66.5947 77.4058 66.5851 77.4249 66.5851 77.4535C66.5851 77.4821 66.5851 77.5012 66.5755 77.5298C66.5755 77.5585 66.5755 77.5775 66.5659 77.6062C66.5659 77.6348 66.5659 77.6539 66.5659 77.6825C66.5659 77.692 66.5659 77.7016 66.5659 77.7111C66.5659 77.7397 66.5659 77.7588 66.5659 77.7874C66.5659 77.7874 66.5659 77.8065 66.5659 77.8161C66.5659 77.8447 66.5659 77.8638 66.5755 77.8924C66.5755 77.921 66.5755 77.9401 66.5851 77.9687C66.5851 77.9973 66.5947 78.0164 66.6043 78.045C66.6043 78.0641 66.6043 78.0927 66.6138 78.1118C66.6138 78.1309 66.6138 78.1405 66.6234 78.1405C66.633 78.1786 66.6426 78.2072 66.6618 78.2359C66.6618 78.2549 66.6809 78.2836 66.6905 78.3026C66.7001 78.3217 66.7097 78.3504 66.7193 78.3694C66.7289 78.3885 66.7384 78.4171 66.7576 78.4362C66.7672 78.4553 66.7864 78.4839 66.796 78.503C66.8055 78.5221 66.8247 78.5412 66.8343 78.5698C66.8439 78.5889 66.863 78.608 66.8822 78.627C66.9014 78.6461 66.911 78.6652 66.9301 78.6843C66.9493 78.7034 66.9589 78.7224 66.9781 78.7415C66.9972 78.7606 67.0164 78.7797 67.0356 78.7988C67.0547 78.8179 67.0739 78.8369 67.0931 78.8465C67.1122 78.8656 67.1314 78.8751 67.1506 78.8942C67.1698 78.9133 67.1889 78.9228 67.2081 78.9419C67.2273 78.961 67.2464 78.9705 67.2752 78.9801C67.2944 78.9896 67.3135 79.0087 67.3423 79.0182C67.3614 79.0278 67.3902 79.0468 67.4094 79.0564C67.4285 79.0659 67.4573 79.0755 67.4765 79.085C67.4956 79.0945 67.5244 79.1041 67.5436 79.1136C67.5627 79.1136 67.5915 79.1327 67.6202 79.1422C67.6394 79.1422 67.6682 79.1613 67.6969 79.1613C67.7257 79.1613 67.7448 79.1709 67.7736 79.1804C67.8023 79.1804 67.8215 79.1899 67.8503 79.1899C67.879 79.1899 67.8982 79.19 67.9269 79.1995C67.9557 79.1995 67.9749 79.1995 68.0036 79.209C68.0324 79.209 68.0515 79.209 68.0803 79.209H68.1091C68.1378 79.209 68.157 79.209 68.1857 79.209H68.2049C68.2337 79.209 68.2528 79.209 68.2816 79.1995C68.3103 79.1995 68.3295 79.1995 68.3583 79.1899C68.387 79.1899 68.4062 79.1804 68.4349 79.1709C68.4541 79.1709 68.4829 79.1709 68.502 79.1613H68.5116C68.5116 79.1613 68.5308 79.1613 68.5308 79.1518C68.5691 79.1422 68.5979 79.1327 68.6362 79.1232C68.6554 79.1232 68.6841 79.1041 68.7033 79.0945C68.7225 79.085 68.7512 79.0755 68.7704 79.0659C68.7896 79.0564 68.8183 79.0468 68.8375 79.0278C68.8567 79.0182 68.8854 78.9991 68.9046 78.9896C68.9238 78.9801 68.9429 78.961 68.9717 78.9514C68.9909 78.9419 69.01 78.9228 69.0292 78.9037C69.0484 78.8846 69.0675 78.8751 69.0867 78.856C69.1059 78.8369 69.125 78.8274 69.1442 78.8083C69.1634 78.7892 69.1825 78.7702 69.2017 78.7511C69.2209 78.732 69.2401 78.7129 69.2496 78.6938C69.2688 78.6747 69.2784 78.6557 69.2976 78.6366C69.3167 78.6175 69.3263 78.5984 69.3455 78.5793C69.3647 78.5603 69.3742 78.5412 69.3838 78.5125C69.3934 78.4935 69.4126 78.4744 69.4222 78.4458C69.4317 78.4267 69.4509 78.3981 69.4605 78.379C69.4701 78.3599 69.4797 78.3313 69.4893 78.3122C69.4988 78.2931 69.5084 78.2645 69.518 78.2454C69.518 78.2263 69.5372 78.1977 69.5468 78.1691C69.5468 78.1405 69.5659 78.1214 69.5659 78.0927C69.5659 78.0641 69.5755 78.045 69.5851 78.0164C69.5851 77.9878 69.5947 77.9687 69.5947 77.9401C69.5947 77.9115 69.5947 77.8924 69.6043 77.8638C69.6043 77.8351 69.6043 77.8161 69.6139 77.7874C69.6139 77.7588 69.6139 77.7397 69.6139 77.7111V77.6825C69.6139 77.6539 69.6139 77.6348 69.6139 77.6062V77.5871C69.6139 77.5585 69.6139 77.5394 69.6043 77.5108C69.6043 77.4821 69.6043 77.4631 69.5947 77.4344C69.5947 77.4058 69.5851 77.3867 69.5755 77.3581C69.5755 77.339 69.5755 77.3104 69.5659 77.2913C69.5659 77.2722 69.5659 77.2627 69.5564 77.2627C69.5468 77.2341 69.5372 77.1959 69.5276 77.1673C69.5276 77.1387 69.5084 77.1196 69.4988 77.1005C69.4893 77.0814 69.4797 77.0528 69.4701 77.0337C69.4605 77.0146 69.4509 76.986 69.4318 76.9669C69.4222 76.9478 69.403 76.9192 69.3934 76.9001C69.3838 76.8811 69.3647 76.862 69.3551 76.8334C69.3359 76.8143 69.3263 76.7952 69.3071 76.7761C69.288 76.757 69.2784 76.7379 69.2592 76.7189C69.2401 76.6998 69.2305 76.6807 69.2113 76.6616C69.1921 76.6425 69.173 76.6235 69.1538 76.6044C69.1346 76.5853 69.1155 76.5662 69.0963 76.5567C69.0771 76.5376 69.0579 76.528 69.0388 76.509C69.0196 76.4899 69.0004 76.4803 68.9813 76.4613C68.9621 76.4422 68.9429 76.4326 68.9142 76.4231C68.895 76.4136 68.8758 76.3945 68.8471 76.3849C68.8279 76.3754 68.7992 76.3563 68.78 76.3468C68.7608 76.3372 68.7321 76.3277 68.7129 76.3086C68.6937 76.2991 68.665 76.2895 68.6458 76.28C68.6266 76.2704 68.5979 76.2609 68.5787 76.2514C68.55 76.2514 68.5308 76.2323 68.502 76.2323C68.4733 76.2323 68.4541 76.2227 68.4254 76.2132C68.3966 76.2132 68.3774 76.2037 68.3487 76.2037C68.3199 76.2037 68.3008 76.2037 68.272 76.1941C68.2432 76.1941 68.2241 76.1941 68.1953 76.1846C68.1666 76.1846 68.1474 76.1846 68.1186 76.1846H68.0899L68.0611 76.1941Z"
       fill="white"
       id="path275" />
    <path
       d="M68.0611 76.1941C68.0324 76.1941 68.0132 76.1941 67.9845 76.1941H67.9653C67.9365 76.1941 67.9174 76.1941 67.8886 76.2037C67.8599 76.2037 67.8407 76.2037 67.8119 76.2132C67.7832 76.2132 67.764 76.2227 67.7353 76.2323C67.7161 76.2323 67.6873 76.2323 67.6682 76.2418H67.6586C67.6586 76.2418 67.6394 76.2418 67.6394 76.2514C67.6011 76.2609 67.5723 76.2704 67.5436 76.28C67.5244 76.28 67.4956 76.2991 67.4765 76.3086C67.4573 76.3181 67.4285 76.3277 67.4094 76.3372C67.3902 76.3468 67.3614 76.3563 67.3423 76.3754C67.3231 76.3849 67.2944 76.404 67.2752 76.4136C67.256 76.4231 67.2368 76.4422 67.2081 76.4517C67.1889 76.4613 67.1698 76.4803 67.1506 76.4994C67.1314 76.5185 67.1122 76.528 67.0931 76.5471C67.0739 76.5662 67.0547 76.5758 67.0356 76.5948C67.0164 76.6139 66.9972 76.633 66.9781 76.6521C66.9589 76.6712 66.9397 76.6902 66.9301 76.7093C66.911 76.7284 66.9014 76.7475 66.8822 76.7666C66.863 76.7856 66.8535 76.8047 66.8343 76.8238C66.8151 76.8429 66.8055 76.862 66.796 76.8906C66.7864 76.9097 66.7672 76.9288 66.7576 76.9574C66.748 76.9765 66.7384 77.0051 66.7193 77.0242C66.7097 77.0433 66.7001 77.0719 66.6905 77.091C66.6809 77.11 66.6713 77.1387 66.6618 77.1577C66.6618 77.1768 66.6426 77.2054 66.633 77.2245C66.633 77.2436 66.6138 77.2722 66.6138 77.3009C66.6138 77.3199 66.6043 77.3486 66.5947 77.3772C66.5947 77.4058 66.5851 77.4249 66.5851 77.4535C66.5851 77.4821 66.5851 77.5012 66.5755 77.5298C66.5755 77.5585 66.5755 77.5775 66.5659 77.6062C66.5659 77.6348 66.5659 77.6539 66.5659 77.6825C66.5659 77.692 66.5659 77.7016 66.5659 77.7111C66.5659 77.7397 66.5659 77.7588 66.5659 77.7874C66.5659 77.7874 66.5659 77.8065 66.5659 77.8161C66.5659 77.8447 66.5659 77.8638 66.5755 77.8924C66.5755 77.921 66.5755 77.9401 66.5851 77.9687C66.5851 77.9973 66.5947 78.0164 66.6043 78.045C66.6043 78.0641 66.6043 78.0927 66.6138 78.1118C66.6138 78.1309 66.6138 78.1405 66.6234 78.1405C66.633 78.1786 66.6426 78.2072 66.6618 78.2359C66.6618 78.2549 66.6809 78.2836 66.6905 78.3026C66.7001 78.3217 66.7097 78.3504 66.7193 78.3694C66.7289 78.3885 66.7384 78.4171 66.7576 78.4362C66.7672 78.4553 66.7864 78.4839 66.796 78.503C66.8055 78.5221 66.8247 78.5412 66.8343 78.5698C66.8439 78.5889 66.863 78.608 66.8822 78.627C66.9014 78.6461 66.911 78.6652 66.9301 78.6843C66.9493 78.7034 66.9589 78.7224 66.9781 78.7415C66.9972 78.7606 67.0164 78.7797 67.0356 78.7988C67.0547 78.8179 67.0739 78.8369 67.0931 78.8465C67.1122 78.8656 67.1314 78.8751 67.1506 78.8942C67.1698 78.9133 67.1889 78.9228 67.2081 78.9419C67.2273 78.961 67.2464 78.9705 67.2752 78.9801C67.2944 78.9896 67.3135 79.0087 67.3423 79.0182C67.3614 79.0278 67.3902 79.0468 67.4094 79.0564C67.4285 79.0659 67.4573 79.0755 67.4765 79.085C67.4956 79.0945 67.5244 79.1041 67.5436 79.1136C67.5627 79.1136 67.5915 79.1327 67.6202 79.1422C67.6394 79.1422 67.6682 79.1613 67.6969 79.1613C67.7257 79.1613 67.7448 79.1709 67.7736 79.1804C67.8023 79.1804 67.8215 79.1899 67.8503 79.1899C67.879 79.1899 67.8982 79.19 67.9269 79.1995C67.9557 79.1995 67.9749 79.1995 68.0036 79.209C68.0324 79.209 68.0515 79.209 68.0803 79.209H68.1091C68.1378 79.209 68.157 79.209 68.1857 79.209H68.2049C68.2337 79.209 68.2528 79.209 68.2816 79.1995C68.3103 79.1995 68.3295 79.1995 68.3583 79.1899C68.387 79.1899 68.4062 79.1804 68.4349 79.1709C68.4541 79.1709 68.4829 79.1709 68.502 79.1613H68.5116C68.5116 79.1613 68.5308 79.1613 68.5308 79.1518C68.5691 79.1422 68.5979 79.1327 68.6362 79.1232C68.6554 79.1232 68.6841 79.1041 68.7033 79.0945C68.7225 79.085 68.7512 79.0755 68.7704 79.0659C68.7896 79.0564 68.8183 79.0468 68.8375 79.0278C68.8567 79.0182 68.8854 78.9991 68.9046 78.9896C68.9238 78.9801 68.9429 78.961 68.9717 78.9514C68.9909 78.9419 69.01 78.9228 69.0292 78.9037C69.0484 78.8846 69.0675 78.8751 69.0867 78.856C69.1059 78.8369 69.125 78.8274 69.1442 78.8083C69.1634 78.7892 69.1825 78.7702 69.2017 78.7511C69.2209 78.732 69.2401 78.7129 69.2496 78.6938C69.2688 78.6747 69.2784 78.6557 69.2976 78.6366C69.3167 78.6175 69.3263 78.5984 69.3455 78.5793C69.3647 78.5603 69.3742 78.5412 69.3838 78.5125C69.3934 78.4935 69.4126 78.4744 69.4222 78.4458C69.4317 78.4267 69.4509 78.3981 69.4605 78.379C69.4701 78.3599 69.4797 78.3313 69.4893 78.3122C69.4988 78.2931 69.5084 78.2645 69.518 78.2454C69.518 78.2263 69.5372 78.1977 69.5468 78.1691C69.5468 78.1405 69.5659 78.1214 69.5659 78.0927C69.5659 78.0641 69.5755 78.045 69.5851 78.0164C69.5851 77.9878 69.5947 77.9687 69.5947 77.9401C69.5947 77.9115 69.5947 77.8924 69.6043 77.8638C69.6043 77.8351 69.6043 77.8161 69.6139 77.7874C69.6139 77.7588 69.6139 77.7397 69.6139 77.7111V77.6825C69.6139 77.6539 69.6139 77.6348 69.6139 77.6062V77.5871C69.6139 77.5585 69.6139 77.5394 69.6043 77.5108C69.6043 77.4821 69.6043 77.4631 69.5947 77.4344C69.5947 77.4058 69.5851 77.3867 69.5755 77.3581C69.5755 77.339 69.5755 77.3104 69.5659 77.2913C69.5659 77.2722 69.5659 77.2627 69.5564 77.2627C69.5468 77.2341 69.5372 77.1959 69.5276 77.1673C69.5276 77.1387 69.5084 77.1196 69.4988 77.1005C69.4893 77.0814 69.4797 77.0528 69.4701 77.0337C69.4605 77.0146 69.4509 76.986 69.4318 76.9669C69.4222 76.9478 69.403 76.9192 69.3934 76.9001C69.3838 76.8811 69.3647 76.862 69.3551 76.8334C69.3359 76.8143 69.3263 76.7952 69.3071 76.7761C69.288 76.757 69.2784 76.7379 69.2592 76.7189C69.2401 76.6998 69.2305 76.6807 69.2113 76.6616C69.1921 76.6425 69.173 76.6235 69.1538 76.6044C69.1346 76.5853 69.1155 76.5662 69.0963 76.5567C69.0771 76.5376 69.0579 76.528 69.0388 76.509C69.0196 76.4899 69.0004 76.4803 68.9813 76.4613C68.9621 76.4422 68.9429 76.4326 68.9142 76.4231C68.895 76.4136 68.8758 76.3945 68.8471 76.3849C68.8279 76.3754 68.7992 76.3563 68.78 76.3468C68.7608 76.3372 68.7321 76.3277 68.7129 76.3086C68.6937 76.2991 68.665 76.2895 68.6458 76.28C68.6266 76.2704 68.5979 76.2609 68.5787 76.2514C68.55 76.2514 68.5308 76.2323 68.502 76.2323C68.4733 76.2323 68.4541 76.2227 68.4254 76.2132C68.3966 76.2132 68.3774 76.2037 68.3487 76.2037C68.3199 76.2037 68.3008 76.2037 68.272 76.1941C68.2432 76.1941 68.2241 76.1941 68.1953 76.1846C68.1666 76.1846 68.1474 76.1846 68.1186 76.1846H68.0899L68.0611 76.1941Z"
       fill="white"
       id="path277" />
    <path
       d="M68.0611 76.1941C68.0324 76.1941 68.0132 76.1941 67.9845 76.1941H67.9653C67.9365 76.1941 67.9174 76.1941 67.8886 76.2037C67.8599 76.2037 67.8407 76.2037 67.8119 76.2132C67.7832 76.2132 67.764 76.2227 67.7353 76.2323C67.7161 76.2323 67.6873 76.2323 67.6682 76.2418H67.6586C67.6586 76.2418 67.6394 76.2418 67.6394 76.2514C67.6011 76.2609 67.5723 76.2704 67.5436 76.28C67.5244 76.28 67.4956 76.2991 67.4765 76.3086C67.4573 76.3181 67.4285 76.3277 67.4094 76.3372C67.3902 76.3468 67.3614 76.3563 67.3423 76.3754C67.3231 76.3849 67.2944 76.404 67.2752 76.4136C67.256 76.4231 67.2368 76.4422 67.2081 76.4517C67.1889 76.4613 67.1698 76.4803 67.1506 76.4994C67.1314 76.5185 67.1122 76.528 67.0931 76.5471C67.0739 76.5662 67.0547 76.5758 67.0356 76.5948C67.0164 76.6139 66.9972 76.633 66.9781 76.6521C66.9589 76.6712 66.9397 76.6902 66.9301 76.7093C66.911 76.7284 66.9014 76.7475 66.8822 76.7666C66.863 76.7856 66.8535 76.8047 66.8343 76.8238C66.8151 76.8429 66.8055 76.862 66.796 76.8906C66.7864 76.9097 66.7672 76.9288 66.7576 76.9574C66.748 76.9765 66.7384 77.0051 66.7193 77.0242C66.7097 77.0433 66.7001 77.0719 66.6905 77.091C66.6809 77.11 66.6713 77.1387 66.6618 77.1577C66.6618 77.1768 66.6426 77.2054 66.633 77.2245C66.633 77.2436 66.6138 77.2722 66.6138 77.3009C66.6138 77.3199 66.6043 77.3486 66.5947 77.3772C66.5947 77.4058 66.5851 77.4249 66.5851 77.4535C66.5851 77.4821 66.5851 77.5012 66.5755 77.5298C66.5755 77.5585 66.5755 77.5775 66.5659 77.6062C66.5659 77.6348 66.5659 77.6539 66.5659 77.6825C66.5659 77.692 66.5659 77.7016 66.5659 77.7111C66.5659 77.7397 66.5659 77.7588 66.5659 77.7874C66.5659 77.7874 66.5659 77.8065 66.5659 77.8161C66.5659 77.8447 66.5659 77.8638 66.5755 77.8924C66.5755 77.921 66.5755 77.9401 66.5851 77.9687C66.5851 77.9973 66.5947 78.0164 66.6043 78.045C66.6043 78.0641 66.6043 78.0927 66.6138 78.1118C66.6138 78.1309 66.6138 78.1405 66.6234 78.1405C66.633 78.1786 66.6426 78.2072 66.6618 78.2359C66.6618 78.2549 66.6809 78.2836 66.6905 78.3026C66.7001 78.3217 66.7097 78.3504 66.7193 78.3694C66.7289 78.3885 66.7384 78.4171 66.7576 78.4362C66.7672 78.4553 66.7864 78.4839 66.796 78.503C66.8055 78.5221 66.8247 78.5412 66.8343 78.5698C66.8439 78.5889 66.863 78.608 66.8822 78.627C66.9014 78.6461 66.911 78.6652 66.9301 78.6843C66.9493 78.7034 66.9589 78.7224 66.9781 78.7415C66.9972 78.7606 67.0164 78.7797 67.0356 78.7988C67.0547 78.8179 67.0739 78.8369 67.0931 78.8465C67.1122 78.8656 67.1314 78.8751 67.1506 78.8942C67.1698 78.9133 67.1889 78.9228 67.2081 78.9419C67.2273 78.961 67.2464 78.9705 67.2752 78.9801C67.2944 78.9896 67.3135 79.0087 67.3423 79.0182C67.3614 79.0278 67.3902 79.0468 67.4094 79.0564C67.4285 79.0659 67.4573 79.0755 67.4765 79.085C67.4956 79.0945 67.5244 79.1041 67.5436 79.1136C67.5627 79.1136 67.5915 79.1327 67.6202 79.1422C67.6394 79.1422 67.6682 79.1613 67.6969 79.1613C67.7257 79.1613 67.7448 79.1709 67.7736 79.1804C67.8023 79.1804 67.8215 79.1899 67.8503 79.1899C67.879 79.1899 67.8982 79.19 67.9269 79.1995C67.9557 79.1995 67.9749 79.1995 68.0036 79.209C68.0324 79.209 68.0515 79.209 68.0803 79.209H68.1091C68.1378 79.209 68.157 79.209 68.1857 79.209H68.2049C68.2337 79.209 68.2528 79.209 68.2816 79.1995C68.3103 79.1995 68.3295 79.1995 68.3583 79.1899C68.387 79.1899 68.4062 79.1804 68.4349 79.1709C68.4541 79.1709 68.4829 79.1709 68.502 79.1613H68.5116C68.5116 79.1613 68.5308 79.1613 68.5308 79.1518C68.5691 79.1422 68.5979 79.1327 68.6362 79.1232C68.6554 79.1232 68.6841 79.1041 68.7033 79.0945C68.7225 79.085 68.7512 79.0755 68.7704 79.0659C68.7896 79.0564 68.8183 79.0468 68.8375 79.0278C68.8567 79.0182 68.8854 78.9991 68.9046 78.9896C68.9238 78.9801 68.9429 78.961 68.9717 78.9514C68.9909 78.9419 69.01 78.9228 69.0292 78.9037C69.0484 78.8846 69.0675 78.8751 69.0867 78.856C69.1059 78.8369 69.125 78.8274 69.1442 78.8083C69.1634 78.7892 69.1825 78.7702 69.2017 78.7511C69.2209 78.732 69.2401 78.7129 69.2496 78.6938C69.2688 78.6747 69.2784 78.6557 69.2976 78.6366C69.3167 78.6175 69.3263 78.5984 69.3455 78.5793C69.3647 78.5603 69.3742 78.5412 69.3838 78.5125C69.3934 78.4935 69.4126 78.4744 69.4222 78.4458C69.4317 78.4267 69.4509 78.3981 69.4605 78.379C69.4701 78.3599 69.4797 78.3313 69.4893 78.3122C69.4988 78.2931 69.5084 78.2645 69.518 78.2454C69.518 78.2263 69.5372 78.1977 69.5468 78.1691C69.5468 78.1405 69.5659 78.1214 69.5659 78.0927C69.5659 78.0641 69.5755 78.045 69.5851 78.0164C69.5851 77.9878 69.5947 77.9687 69.5947 77.9401C69.5947 77.9115 69.5947 77.8924 69.6043 77.8638C69.6043 77.8351 69.6043 77.8161 69.6139 77.7874C69.6139 77.7588 69.6139 77.7397 69.6139 77.7111V77.6825C69.6139 77.6539 69.6139 77.6348 69.6139 77.6062V77.5871C69.6139 77.5585 69.6139 77.5394 69.6043 77.5108C69.6043 77.4821 69.6043 77.4631 69.5947 77.4344C69.5947 77.4058 69.5851 77.3867 69.5755 77.3581C69.5755 77.339 69.5755 77.3104 69.5659 77.2913C69.5659 77.2722 69.5659 77.2627 69.5564 77.2627C69.5468 77.2341 69.5372 77.1959 69.5276 77.1673C69.5276 77.1387 69.5084 77.1196 69.4988 77.1005C69.4893 77.0814 69.4797 77.0528 69.4701 77.0337C69.4605 77.0146 69.4509 76.986 69.4318 76.9669C69.4222 76.9478 69.403 76.9192 69.3934 76.9001C69.3838 76.8811 69.3647 76.862 69.3551 76.8334C69.3359 76.8143 69.3263 76.7952 69.3071 76.7761C69.288 76.757 69.2784 76.7379 69.2592 76.7189C69.2401 76.6998 69.2305 76.6807 69.2113 76.6616C69.1921 76.6425 69.173 76.6235 69.1538 76.6044C69.1346 76.5853 69.1155 76.5662 69.0963 76.5567C69.0771 76.5376 69.0579 76.528 69.0388 76.509C69.0196 76.4899 69.0004 76.4803 68.9813 76.4613C68.9621 76.4422 68.9429 76.4326 68.9142 76.4231C68.895 76.4136 68.8758 76.3945 68.8471 76.3849C68.8279 76.3754 68.7992 76.3563 68.78 76.3468C68.7608 76.3372 68.7321 76.3277 68.7129 76.3086C68.6937 76.2991 68.665 76.2895 68.6458 76.28C68.6266 76.2704 68.5979 76.2609 68.5787 76.2514C68.55 76.2514 68.5308 76.2323 68.502 76.2323C68.4733 76.2323 68.4541 76.2227 68.4254 76.2132C68.3966 76.2132 68.3774 76.2037 68.3487 76.2037C68.3199 76.2037 68.3008 76.2037 68.272 76.1941C68.2432 76.1941 68.2241 76.1941 68.1953 76.1846C68.1666 76.1846 68.1474 76.1846 68.1186 76.1846H68.0899L68.0611 76.1941Z"
       fill="white"
       id="path279" />
    <path
       d="M68.0611 76.1941C68.0324 76.1941 68.0132 76.1941 67.9845 76.1941H67.9653C67.9365 76.1941 67.9174 76.1941 67.8886 76.2037C67.8599 76.2037 67.8407 76.2037 67.8119 76.2132C67.7832 76.2132 67.764 76.2227 67.7353 76.2323C67.7161 76.2323 67.6873 76.2323 67.6682 76.2418H67.6586C67.6586 76.2418 67.6394 76.2418 67.6394 76.2514C67.6011 76.2609 67.5723 76.2704 67.5436 76.28C67.5244 76.28 67.4956 76.2991 67.4765 76.3086C67.4573 76.3181 67.4285 76.3277 67.4094 76.3372C67.3902 76.3468 67.3614 76.3563 67.3423 76.3754C67.3231 76.3849 67.2944 76.404 67.2752 76.4136C67.256 76.4231 67.2368 76.4422 67.2081 76.4517C67.1889 76.4613 67.1698 76.4803 67.1506 76.4994C67.1314 76.5185 67.1122 76.528 67.0931 76.5471C67.0739 76.5662 67.0547 76.5758 67.0356 76.5948C67.0164 76.6139 66.9972 76.633 66.9781 76.6521C66.9589 76.6712 66.9397 76.6902 66.9301 76.7093C66.911 76.7284 66.9014 76.7475 66.8822 76.7666C66.863 76.7856 66.8535 76.8047 66.8343 76.8238C66.8151 76.8429 66.8055 76.862 66.796 76.8906C66.7864 76.9097 66.7672 76.9288 66.7576 76.9574C66.748 76.9765 66.7384 77.0051 66.7193 77.0242C66.7097 77.0433 66.7001 77.0719 66.6905 77.091C66.6809 77.11 66.6713 77.1387 66.6618 77.1577C66.6618 77.1768 66.6426 77.2054 66.633 77.2245C66.633 77.2436 66.6138 77.2722 66.6138 77.3009C66.6138 77.3199 66.6043 77.3486 66.5947 77.3772C66.5947 77.4058 66.5851 77.4249 66.5851 77.4535C66.5851 77.4821 66.5851 77.5012 66.5755 77.5298C66.5755 77.5585 66.5755 77.5775 66.5659 77.6062C66.5659 77.6348 66.5659 77.6539 66.5659 77.6825C66.5659 77.692 66.5659 77.7016 66.5659 77.7111C66.5659 77.7397 66.5659 77.7588 66.5659 77.7874C66.5659 77.7874 66.5659 77.8065 66.5659 77.8161C66.5659 77.8447 66.5659 77.8638 66.5755 77.8924C66.5755 77.921 66.5755 77.9401 66.5851 77.9687C66.5851 77.9973 66.5947 78.0164 66.6043 78.045C66.6043 78.0641 66.6043 78.0927 66.6138 78.1118C66.6138 78.1309 66.6138 78.1405 66.6234 78.1405C66.633 78.1786 66.6426 78.2072 66.6618 78.2359C66.6618 78.2549 66.6809 78.2836 66.6905 78.3026C66.7001 78.3217 66.7097 78.3504 66.7193 78.3694C66.7289 78.3885 66.7384 78.4171 66.7576 78.4362C66.7672 78.4553 66.7864 78.4839 66.796 78.503C66.8055 78.5221 66.8247 78.5412 66.8343 78.5698C66.8439 78.5889 66.863 78.608 66.8822 78.627C66.9014 78.6461 66.911 78.6652 66.9301 78.6843C66.9493 78.7034 66.9589 78.7224 66.9781 78.7415C66.9972 78.7606 67.0164 78.7797 67.0356 78.7988C67.0547 78.8179 67.0739 78.8369 67.0931 78.8465C67.1122 78.8656 67.1314 78.8751 67.1506 78.8942C67.1698 78.9133 67.1889 78.9228 67.2081 78.9419C67.2273 78.961 67.2464 78.9705 67.2752 78.9801C67.2944 78.9896 67.3135 79.0087 67.3423 79.0182C67.3614 79.0278 67.3902 79.0468 67.4094 79.0564C67.4285 79.0659 67.4573 79.0755 67.4765 79.085C67.4956 79.0945 67.5244 79.1041 67.5436 79.1136C67.5627 79.1136 67.5915 79.1327 67.6202 79.1422C67.6394 79.1422 67.6682 79.1613 67.6969 79.1613C67.7257 79.1613 67.7448 79.1709 67.7736 79.1804C67.8023 79.1804 67.8215 79.1899 67.8503 79.1899C67.879 79.1899 67.8982 79.19 67.9269 79.1995C67.9557 79.1995 67.9749 79.1995 68.0036 79.209C68.0324 79.209 68.0515 79.209 68.0803 79.209H68.1091C68.1378 79.209 68.157 79.209 68.1857 79.209H68.2049C68.2337 79.209 68.2528 79.209 68.2816 79.1995C68.3103 79.1995 68.3295 79.1995 68.3583 79.1899C68.387 79.1899 68.4062 79.1804 68.4349 79.1709C68.4541 79.1709 68.4829 79.1709 68.502 79.1613H68.5116C68.5116 79.1613 68.5308 79.1613 68.5308 79.1518C68.5691 79.1422 68.5979 79.1327 68.6362 79.1232C68.6554 79.1232 68.6841 79.1041 68.7033 79.0945C68.7225 79.085 68.7512 79.0755 68.7704 79.0659C68.7896 79.0564 68.8183 79.0468 68.8375 79.0278C68.8567 79.0182 68.8854 78.9991 68.9046 78.9896C68.9238 78.9801 68.9429 78.961 68.9717 78.9514C68.9909 78.9419 69.01 78.9228 69.0292 78.9037C69.0484 78.8846 69.0675 78.8751 69.0867 78.856C69.1059 78.8369 69.125 78.8274 69.1442 78.8083C69.1634 78.7892 69.1825 78.7702 69.2017 78.7511C69.2209 78.732 69.2401 78.7129 69.2496 78.6938C69.2688 78.6747 69.2784 78.6557 69.2976 78.6366C69.3167 78.6175 69.3263 78.5984 69.3455 78.5793C69.3647 78.5603 69.3742 78.5412 69.3838 78.5125C69.3934 78.4935 69.4126 78.4744 69.4222 78.4458C69.4317 78.4267 69.4509 78.3981 69.4605 78.379C69.4701 78.3599 69.4797 78.3313 69.4893 78.3122C69.4988 78.2931 69.5084 78.2645 69.518 78.2454C69.518 78.2263 69.5372 78.1977 69.5468 78.1691C69.5468 78.1405 69.5659 78.1214 69.5659 78.0927C69.5659 78.0641 69.5755 78.045 69.5851 78.0164C69.5851 77.9878 69.5947 77.9687 69.5947 77.9401C69.5947 77.9115 69.5947 77.8924 69.6043 77.8638C69.6043 77.8351 69.6043 77.8161 69.6139 77.7874C69.6139 77.7588 69.6139 77.7397 69.6139 77.7111V77.6825C69.6139 77.6539 69.6139 77.6348 69.6139 77.6062V77.5871C69.6139 77.5585 69.6139 77.5394 69.6043 77.5108C69.6043 77.4821 69.6043 77.4631 69.5947 77.4344C69.5947 77.4058 69.5851 77.3867 69.5755 77.3581C69.5755 77.339 69.5755 77.3104 69.5659 77.2913C69.5659 77.2722 69.5659 77.2627 69.5564 77.2627C69.5468 77.2341 69.5372 77.1959 69.5276 77.1673C69.5276 77.1387 69.5084 77.1196 69.4988 77.1005C69.4893 77.0814 69.4797 77.0528 69.4701 77.0337C69.4605 77.0146 69.4509 76.986 69.4318 76.9669C69.4222 76.9478 69.403 76.9192 69.3934 76.9001C69.3838 76.8811 69.3647 76.862 69.3551 76.8334C69.3359 76.8143 69.3263 76.7952 69.3071 76.7761C69.288 76.757 69.2784 76.7379 69.2592 76.7189C69.2401 76.6998 69.2305 76.6807 69.2113 76.6616C69.1921 76.6425 69.173 76.6235 69.1538 76.6044C69.1346 76.5853 69.1155 76.5662 69.0963 76.5567C69.0771 76.5376 69.0579 76.528 69.0388 76.509C69.0196 76.4899 69.0004 76.4803 68.9813 76.4613C68.9621 76.4422 68.9429 76.4326 68.9142 76.4231C68.895 76.4136 68.8758 76.3945 68.8471 76.3849C68.8279 76.3754 68.7992 76.3563 68.78 76.3468C68.7608 76.3372 68.7321 76.3277 68.7129 76.3086C68.6937 76.2991 68.665 76.2895 68.6458 76.28C68.6266 76.2704 68.5979 76.2609 68.5787 76.2514C68.55 76.2514 68.5308 76.2323 68.502 76.2323C68.4733 76.2323 68.4541 76.2227 68.4254 76.2132C68.3966 76.2132 68.3774 76.2037 68.3487 76.2037C68.3199 76.2037 68.3008 76.2037 68.272 76.1941C68.2432 76.1941 68.2241 76.1941 68.1953 76.1846C68.1666 76.1846 68.1474 76.1846 68.1186 76.1846H68.0899L68.0611 76.1941Z"
       fill="white"
       id="path281" />
    <path
       d="M68.0611 76.1941C68.0324 76.1941 68.0132 76.1941 67.9845 76.1941H67.9653C67.9365 76.1941 67.9174 76.1941 67.8886 76.2037C67.8599 76.2037 67.8407 76.2037 67.8119 76.2132C67.7832 76.2132 67.764 76.2227 67.7353 76.2323C67.7161 76.2323 67.6873 76.2323 67.6682 76.2418H67.6586C67.6586 76.2418 67.6394 76.2418 67.6394 76.2514C67.6011 76.2609 67.5723 76.2704 67.5436 76.28C67.5244 76.28 67.4956 76.2991 67.4765 76.3086C67.4573 76.3181 67.4285 76.3277 67.4094 76.3372C67.3902 76.3468 67.3614 76.3563 67.3423 76.3754C67.3231 76.3849 67.2944 76.404 67.2752 76.4136C67.256 76.4231 67.2368 76.4422 67.2081 76.4517C67.1889 76.4613 67.1698 76.4803 67.1506 76.4994C67.1314 76.5185 67.1122 76.528 67.0931 76.5471C67.0739 76.5662 67.0547 76.5758 67.0356 76.5948C67.0164 76.6139 66.9972 76.633 66.9781 76.6521C66.9589 76.6712 66.9397 76.6902 66.9301 76.7093C66.911 76.7284 66.9014 76.7475 66.8822 76.7666C66.863 76.7856 66.8535 76.8047 66.8343 76.8238C66.8151 76.8429 66.8055 76.862 66.796 76.8906C66.7864 76.9097 66.7672 76.9288 66.7576 76.9574C66.748 76.9765 66.7384 77.0051 66.7193 77.0242C66.7097 77.0433 66.7001 77.0719 66.6905 77.091C66.6809 77.11 66.6713 77.1387 66.6618 77.1577C66.6618 77.1768 66.6426 77.2054 66.633 77.2245C66.633 77.2436 66.6138 77.2722 66.6138 77.3009C66.6138 77.3199 66.6043 77.3486 66.5947 77.3772C66.5947 77.4058 66.5851 77.4249 66.5851 77.4535C66.5851 77.4821 66.5851 77.5012 66.5755 77.5298C66.5755 77.5585 66.5755 77.5775 66.5659 77.6062C66.5659 77.6348 66.5659 77.6539 66.5659 77.6825C66.5659 77.692 66.5659 77.7016 66.5659 77.7111C66.5659 77.7397 66.5659 77.7588 66.5659 77.7874C66.5659 77.7874 66.5659 77.8065 66.5659 77.8161C66.5659 77.8447 66.5659 77.8638 66.5755 77.8924C66.5755 77.921 66.5755 77.9401 66.5851 77.9687C66.5851 77.9973 66.5947 78.0164 66.6043 78.045C66.6043 78.0641 66.6043 78.0927 66.6138 78.1118C66.6138 78.1309 66.6138 78.1405 66.6234 78.1405C66.633 78.1786 66.6426 78.2072 66.6618 78.2359C66.6618 78.2549 66.6809 78.2836 66.6905 78.3026C66.7001 78.3217 66.7097 78.3504 66.7193 78.3694C66.7289 78.3885 66.7384 78.4171 66.7576 78.4362C66.7672 78.4553 66.7864 78.4839 66.796 78.503C66.8055 78.5221 66.8247 78.5412 66.8343 78.5698C66.8439 78.5889 66.863 78.608 66.8822 78.627C66.9014 78.6461 66.911 78.6652 66.9301 78.6843C66.9493 78.7034 66.9589 78.7224 66.9781 78.7415C66.9972 78.7606 67.0164 78.7797 67.0356 78.7988C67.0547 78.8179 67.0739 78.8369 67.0931 78.8465C67.1122 78.8656 67.1314 78.8751 67.1506 78.8942C67.1698 78.9133 67.1889 78.9228 67.2081 78.9419C67.2273 78.961 67.2464 78.9705 67.2752 78.9801C67.2944 78.9896 67.3135 79.0087 67.3423 79.0182C67.3614 79.0278 67.3902 79.0468 67.4094 79.0564C67.4285 79.0659 67.4573 79.0755 67.4765 79.085C67.4956 79.0945 67.5244 79.1041 67.5436 79.1136C67.5627 79.1136 67.5915 79.1327 67.6202 79.1422C67.6394 79.1422 67.6682 79.1613 67.6969 79.1613C67.7257 79.1613 67.7448 79.1709 67.7736 79.1804C67.8023 79.1804 67.8215 79.1899 67.8503 79.1899C67.879 79.1899 67.8982 79.19 67.9269 79.1995C67.9557 79.1995 67.9749 79.1995 68.0036 79.209C68.0324 79.209 68.0515 79.209 68.0803 79.209H68.1091C68.1378 79.209 68.157 79.209 68.1857 79.209H68.2049C68.2337 79.209 68.2528 79.209 68.2816 79.1995C68.3103 79.1995 68.3295 79.1995 68.3583 79.1899C68.387 79.1899 68.4062 79.1804 68.4349 79.1709C68.4541 79.1709 68.4829 79.1709 68.502 79.1613H68.5116C68.5116 79.1613 68.5308 79.1613 68.5308 79.1518C68.5691 79.1422 68.5979 79.1327 68.6362 79.1232C68.6554 79.1232 68.6841 79.1041 68.7033 79.0945C68.7225 79.085 68.7512 79.0755 68.7704 79.0659C68.7896 79.0564 68.8183 79.0468 68.8375 79.0278C68.8567 79.0182 68.8854 78.9991 68.9046 78.9896C68.9238 78.9801 68.9429 78.961 68.9717 78.9514C68.9909 78.9419 69.01 78.9228 69.0292 78.9037C69.0484 78.8846 69.0675 78.8751 69.0867 78.856C69.1059 78.8369 69.125 78.8274 69.1442 78.8083C69.1634 78.7892 69.1825 78.7702 69.2017 78.7511C69.2209 78.732 69.2401 78.7129 69.2496 78.6938C69.2688 78.6747 69.2784 78.6557 69.2976 78.6366C69.3167 78.6175 69.3263 78.5984 69.3455 78.5793C69.3647 78.5603 69.3742 78.5412 69.3838 78.5125C69.3934 78.4935 69.4126 78.4744 69.4222 78.4458C69.4317 78.4267 69.4509 78.3981 69.4605 78.379C69.4701 78.3599 69.4797 78.3313 69.4893 78.3122C69.4988 78.2931 69.5084 78.2645 69.518 78.2454C69.518 78.2263 69.5372 78.1977 69.5468 78.1691C69.5468 78.1405 69.5659 78.1214 69.5659 78.0927C69.5659 78.0641 69.5755 78.045 69.5851 78.0164C69.5851 77.9878 69.5947 77.9687 69.5947 77.9401C69.5947 77.9115 69.5947 77.8924 69.6043 77.8638C69.6043 77.8351 69.6043 77.8161 69.6139 77.7874C69.6139 77.7588 69.6139 77.7397 69.6139 77.7111V77.6825C69.6139 77.6539 69.6139 77.6348 69.6139 77.6062V77.5871C69.6139 77.5585 69.6139 77.5394 69.6043 77.5108C69.6043 77.4821 69.6043 77.4631 69.5947 77.4344C69.5947 77.4058 69.5851 77.3867 69.5755 77.3581C69.5755 77.339 69.5755 77.3104 69.5659 77.2913C69.5659 77.2722 69.5659 77.2627 69.5564 77.2627C69.5468 77.2341 69.5372 77.1959 69.5276 77.1673C69.5276 77.1387 69.5084 77.1196 69.4988 77.1005C69.4893 77.0814 69.4797 77.0528 69.4701 77.0337C69.4605 77.0146 69.4509 76.986 69.4318 76.9669C69.4222 76.9478 69.403 76.9192 69.3934 76.9001C69.3838 76.8811 69.3647 76.862 69.3551 76.8334C69.3359 76.8143 69.3263 76.7952 69.3071 76.7761C69.288 76.757 69.2784 76.7379 69.2592 76.7189C69.2401 76.6998 69.2305 76.6807 69.2113 76.6616C69.1921 76.6425 69.173 76.6235 69.1538 76.6044C69.1346 76.5853 69.1155 76.5662 69.0963 76.5567C69.0771 76.5376 69.0579 76.528 69.0388 76.509C69.0196 76.4899 69.0004 76.4803 68.9813 76.4613C68.9621 76.4422 68.9429 76.4326 68.9142 76.4231C68.895 76.4136 68.8758 76.3945 68.8471 76.3849C68.8279 76.3754 68.7992 76.3563 68.78 76.3468C68.7608 76.3372 68.7321 76.3277 68.7129 76.3086C68.6937 76.2991 68.665 76.2895 68.6458 76.28C68.6266 76.2704 68.5979 76.2609 68.5787 76.2514C68.55 76.2514 68.5308 76.2323 68.502 76.2323C68.4733 76.2323 68.4541 76.2227 68.4254 76.2132C68.3966 76.2132 68.3774 76.2037 68.3487 76.2037C68.3199 76.2037 68.3008 76.2037 68.272 76.1941C68.2432 76.1941 68.2241 76.1941 68.1953 76.1846C68.1666 76.1846 68.1474 76.1846 68.1186 76.1846H68.0899L68.0611 76.1941Z"
       fill="white"
       id="path283" />
    <path
       d="M68.0611 76.1941C68.0324 76.1941 68.0132 76.1941 67.9845 76.1941H67.9653C67.9365 76.1941 67.9174 76.1941 67.8886 76.2037C67.8599 76.2037 67.8407 76.2037 67.8119 76.2132C67.7832 76.2132 67.764 76.2227 67.7353 76.2323C67.7161 76.2323 67.6873 76.2323 67.6682 76.2418H67.6586C67.6586 76.2418 67.6394 76.2418 67.6394 76.2514C67.6011 76.2609 67.5723 76.2704 67.5436 76.28C67.5244 76.28 67.4956 76.2991 67.4765 76.3086C67.4573 76.3181 67.4285 76.3277 67.4094 76.3372C67.3902 76.3468 67.3614 76.3563 67.3423 76.3754C67.3231 76.3849 67.2944 76.404 67.2752 76.4136C67.256 76.4231 67.2368 76.4422 67.2081 76.4517C67.1889 76.4613 67.1698 76.4803 67.1506 76.4994C67.1314 76.5185 67.1122 76.528 67.0931 76.5471C67.0739 76.5662 67.0547 76.5758 67.0356 76.5948C67.0164 76.6139 66.9972 76.633 66.9781 76.6521C66.9589 76.6712 66.9397 76.6902 66.9301 76.7093C66.911 76.7284 66.9014 76.7475 66.8822 76.7666C66.863 76.7856 66.8535 76.8047 66.8343 76.8238C66.8151 76.8429 66.8055 76.862 66.796 76.8906C66.7864 76.9097 66.7672 76.9288 66.7576 76.9574C66.748 76.9765 66.7384 77.0051 66.7193 77.0242C66.7097 77.0433 66.7001 77.0719 66.6905 77.091C66.6809 77.11 66.6713 77.1387 66.6618 77.1577C66.6618 77.1768 66.6426 77.2054 66.633 77.2245C66.633 77.2436 66.6138 77.2722 66.6138 77.3009C66.6138 77.3199 66.6043 77.3486 66.5947 77.3772C66.5947 77.4058 66.5851 77.4249 66.5851 77.4535C66.5851 77.4821 66.5851 77.5012 66.5755 77.5298C66.5755 77.5585 66.5755 77.5775 66.5659 77.6062C66.5659 77.6348 66.5659 77.6539 66.5659 77.6825C66.5659 77.692 66.5659 77.7016 66.5659 77.7111C66.5659 77.7397 66.5659 77.7588 66.5659 77.7874C66.5659 77.7874 66.5659 77.8065 66.5659 77.8161C66.5659 77.8447 66.5659 77.8638 66.5755 77.8924C66.5755 77.921 66.5755 77.9401 66.5851 77.9687C66.5851 77.9973 66.5947 78.0164 66.6043 78.045C66.6043 78.0641 66.6043 78.0927 66.6138 78.1118C66.6138 78.1309 66.6138 78.1405 66.6234 78.1405C66.633 78.1786 66.6426 78.2072 66.6618 78.2359C66.6618 78.2549 66.6809 78.2836 66.6905 78.3026C66.7001 78.3217 66.7097 78.3504 66.7193 78.3694C66.7289 78.3885 66.7384 78.4171 66.7576 78.4362C66.7672 78.4553 66.7864 78.4839 66.796 78.503C66.8055 78.5221 66.8247 78.5412 66.8343 78.5698C66.8439 78.5889 66.863 78.608 66.8822 78.627C66.9014 78.6461 66.911 78.6652 66.9301 78.6843C66.9493 78.7034 66.9589 78.7224 66.9781 78.7415C66.9972 78.7606 67.0164 78.7797 67.0356 78.7988C67.0547 78.8179 67.0739 78.8369 67.0931 78.8465C67.1122 78.8656 67.1314 78.8751 67.1506 78.8942C67.1698 78.9133 67.1889 78.9228 67.2081 78.9419C67.2273 78.961 67.2464 78.9705 67.2752 78.9801C67.2944 78.9896 67.3135 79.0087 67.3423 79.0182C67.3614 79.0278 67.3902 79.0468 67.4094 79.0564C67.4285 79.0659 67.4573 79.0755 67.4765 79.085C67.4956 79.0945 67.5244 79.1041 67.5436 79.1136C67.5627 79.1136 67.5915 79.1327 67.6202 79.1422C67.6394 79.1422 67.6682 79.1613 67.6969 79.1613C67.7257 79.1613 67.7448 79.1709 67.7736 79.1804C67.8023 79.1804 67.8215 79.1899 67.8503 79.1899C67.879 79.1899 67.8982 79.19 67.9269 79.1995C67.9557 79.1995 67.9749 79.1995 68.0036 79.209C68.0324 79.209 68.0515 79.209 68.0803 79.209H68.1091C68.1378 79.209 68.157 79.209 68.1857 79.209H68.2049C68.2337 79.209 68.2528 79.209 68.2816 79.1995C68.3103 79.1995 68.3295 79.1995 68.3583 79.1899C68.387 79.1899 68.4062 79.1804 68.4349 79.1709C68.4541 79.1709 68.4829 79.1709 68.502 79.1613H68.5116C68.5116 79.1613 68.5308 79.1613 68.5308 79.1518C68.5691 79.1422 68.5979 79.1327 68.6362 79.1232C68.6554 79.1232 68.6841 79.1041 68.7033 79.0945C68.7225 79.085 68.7512 79.0755 68.7704 79.0659C68.7896 79.0564 68.8183 79.0468 68.8375 79.0278C68.8567 79.0182 68.8854 78.9991 68.9046 78.9896C68.9238 78.9801 68.9429 78.961 68.9717 78.9514C68.9909 78.9419 69.01 78.9228 69.0292 78.9037C69.0484 78.8846 69.0675 78.8751 69.0867 78.856C69.1059 78.8369 69.125 78.8274 69.1442 78.8083C69.1634 78.7892 69.1825 78.7702 69.2017 78.7511C69.2209 78.732 69.2401 78.7129 69.2496 78.6938C69.2688 78.6747 69.2784 78.6557 69.2976 78.6366C69.3167 78.6175 69.3263 78.5984 69.3455 78.5793C69.3647 78.5603 69.3742 78.5412 69.3838 78.5125C69.3934 78.4935 69.4126 78.4744 69.4222 78.4458C69.4317 78.4267 69.4509 78.3981 69.4605 78.379C69.4701 78.3599 69.4797 78.3313 69.4893 78.3122C69.4988 78.2931 69.5084 78.2645 69.518 78.2454C69.518 78.2263 69.5372 78.1977 69.5468 78.1691C69.5468 78.1405 69.5659 78.1214 69.5659 78.0927C69.5659 78.0641 69.5755 78.045 69.5851 78.0164C69.5851 77.9878 69.5947 77.9687 69.5947 77.9401C69.5947 77.9115 69.5947 77.8924 69.6043 77.8638C69.6043 77.8351 69.6043 77.8161 69.6139 77.7874C69.6139 77.7588 69.6139 77.7397 69.6139 77.7111V77.6825C69.6139 77.6539 69.6139 77.6348 69.6139 77.6062V77.5871C69.6139 77.5585 69.6139 77.5394 69.6043 77.5108C69.6043 77.4821 69.6043 77.4631 69.5947 77.4344C69.5947 77.4058 69.5851 77.3867 69.5755 77.3581C69.5755 77.339 69.5755 77.3104 69.5659 77.2913C69.5659 77.2722 69.5659 77.2627 69.5564 77.2627C69.5468 77.2341 69.5372 77.1959 69.5276 77.1673C69.5276 77.1387 69.5084 77.1196 69.4988 77.1005C69.4893 77.0814 69.4797 77.0528 69.4701 77.0337C69.4605 77.0146 69.4509 76.986 69.4318 76.9669C69.4222 76.9478 69.403 76.9192 69.3934 76.9001C69.3838 76.8811 69.3647 76.862 69.3551 76.8334C69.3359 76.8143 69.3263 76.7952 69.3071 76.7761C69.288 76.757 69.2784 76.7379 69.2592 76.7189C69.2401 76.6998 69.2305 76.6807 69.2113 76.6616C69.1921 76.6425 69.173 76.6235 69.1538 76.6044C69.1346 76.5853 69.1155 76.5662 69.0963 76.5567C69.0771 76.5376 69.0579 76.528 69.0388 76.509C69.0196 76.4899 69.0004 76.4803 68.9813 76.4613C68.9621 76.4422 68.9429 76.4326 68.9142 76.4231C68.895 76.4136 68.8758 76.3945 68.8471 76.3849C68.8279 76.3754 68.7992 76.3563 68.78 76.3468C68.7608 76.3372 68.7321 76.3277 68.7129 76.3086C68.6937 76.2991 68.665 76.2895 68.6458 76.28C68.6266 76.2704 68.5979 76.2609 68.5787 76.2514C68.55 76.2514 68.5308 76.2323 68.502 76.2323C68.4733 76.2323 68.4541 76.2227 68.4254 76.2132C68.3966 76.2132 68.3774 76.2037 68.3487 76.2037C68.3199 76.2037 68.3008 76.2037 68.272 76.1941C68.2432 76.1941 68.2241 76.1941 68.1953 76.1846C68.1666 76.1846 68.1474 76.1846 68.1186 76.1846H68.0899L68.0611 76.1941Z"
       fill="white"
       id="path285" />
    <path
       d="M53.3294 45.2812V84.0268H68.5116V45.2812H53.3294ZM58.7352 50.6623H63.1058V78.6457H58.7352V50.6623Z"
       fill="#1A1A1A"
       id="path311" />
    <path
       d="M60.9206 57.9043C34.783 57.9043 13.5337 79.0564 13.5337 105.074C13.5337 131.092 34.783 152.245 60.9206 152.245C87.0581 152.245 108.307 131.092 108.307 105.074C108.307 79.0564 87.0581 57.9043 60.9206 57.9043ZM60.9206 63.2854C84.1348 63.2854 102.902 81.9664 102.902 105.074C102.902 128.182 84.1348 146.863 60.9206 146.863C37.7064 146.863 18.9395 128.182 18.9395 105.074C18.9395 81.9664 37.7064 63.2854 60.9206 63.2854Z"
       fill="#1A1A1A"
       id="path313" />
    <path
       d="M58.1218 0.801758C53.5786 0.801758 49.831 4.53224 49.831 9.05462V45.1955C49.831 48.1818 52.3326 50.6624 55.323 50.6624H66.4988C69.4988 50.6624 71.9909 48.1722 71.9909 45.1955V9.05462C71.9909 4.53224 68.2432 0.801758 63.7001 0.801758H58.1122H58.1218ZM58.1218 6.18282H63.7097C65.3582 6.18282 66.5947 7.41359 66.5947 9.05462V45.1955C66.5947 45.2909 66.5947 45.2813 66.5084 45.2813H55.3326C55.2368 45.2813 55.2464 45.2813 55.2464 45.1955V9.05462C55.2464 7.41359 56.4828 6.18282 58.1314 6.18282H58.1218Z"
       fill="#1A1A1A"
       id="path315" />
    <path
       d="M65.8087 47.9719H56.0323V81.3364H65.8087V47.9719Z"
       fill="#A8A8A8"
       id="path317" />
    <path
       d="M65.8087 47.9719H63.3646V81.3364H65.8087V47.9719Z"
       fill="#757575"
       id="path319" />
    <path
       d="M60.9205 47.9719H58.4764V81.3364H60.9205V47.9719Z"
       fill="white"
       id="path321" />
    <path
       d="M55.3516 47.3037V82.0134H66.4794V47.3037H55.3516ZM56.703 48.649H65.128V80.6682H56.703V48.649Z"
       fill="#1A1A1A"
       id="path323" />
    <path
       d="M58.1218 3.49231C55.0259 3.49231 52.5339 5.97294 52.5339 9.05464V45.1955C52.5339 46.7316 53.7799 47.9719 55.323 47.9719H66.4988C68.042 47.9719 69.288 46.7316 69.288 45.1955V9.05464C69.288 5.97294 66.7959 3.49231 63.7001 3.49231H58.1122H58.1218Z"
       fill="#454545"
       id="path325" />
    <path
       d="M61.1697 3.49231C58.0738 3.49231 55.5818 5.97294 55.5818 9.05464V45.1955C55.5818 46.7316 56.8278 47.9719 58.3709 47.9719H61.3805C59.8374 47.9719 58.5914 46.7316 58.5914 45.1955V9.05464C58.5914 5.97294 61.0834 3.49231 64.1793 3.49231H61.1697Z"
       fill="#6D6D6D"
       id="path327" />
    <path
       d="M59.5211 3.49231C62.617 3.49231 65.109 5.97294 65.109 9.05464V45.1955C65.109 46.7316 63.863 47.9719 62.3199 47.9719H66.5084C68.0515 47.9719 69.2975 46.7316 69.2975 45.1955V9.05464C69.2975 5.97294 66.8055 3.49231 63.7096 3.49231H59.5211Z"
       fill="#2E2E2E"
       id="path329" />
    <path
       d="M58.1216 2.81445C54.6615 2.81445 51.8628 5.60993 51.8628 9.04465V45.195C51.8628 47.0937 53.4251 48.6488 55.3325 48.6488H66.5083C68.4156 48.6488 69.9779 47.0937 69.9779 45.195V9.05419C69.9779 5.60993 67.1696 2.82399 63.7191 2.82399H58.1312L58.1216 2.81445ZM58.1216 4.15972H63.7095C66.4412 4.15972 68.6169 6.3255 68.6169 9.04465V45.195C68.6169 46.3781 67.6872 47.3036 66.4987 47.3036H55.3229C54.1344 47.3036 53.2047 46.3781 53.2047 45.195V9.05419C53.2047 6.33504 55.3804 4.16926 58.112 4.16926L58.1216 4.15972Z"
       fill="#1A1A1A"
       id="path331" />
    <path
       d="M105.604 105.074C105.604 116.867 100.898 128.182 92.5117 136.53C84.1347 144.869 72.7672 149.563 60.9109 149.563C49.0546 149.563 37.6967 144.879 29.3101 136.53C20.933 128.192 16.2269 116.876 16.2269 105.074C16.2269 93.272 20.933 81.9661 29.3101 73.6178C37.6871 65.2791 49.0546 60.585 60.9109 60.585C72.7672 60.585 84.1251 65.2695 92.5117 73.6178C100.889 81.9565 105.604 93.272 105.604 105.074Z"
       fill="#757575"
       id="path333" />
    <path
       d="M101.531 105.074C101.531 115.798 97.2562 126.074 89.6363 133.659C82.0164 141.244 71.6937 145.499 60.9205 145.499C50.1472 145.499 39.8245 141.244 32.2046 133.659C24.5848 126.074 20.31 115.798 20.31 105.074C20.31 94.3502 24.5848 84.0746 32.2046 76.4896C39.8245 68.9046 50.1472 64.6494 60.9205 64.6494C71.6937 64.6494 82.0164 68.9046 89.6363 76.4896C97.2562 84.0746 101.531 94.3502 101.531 105.074Z"
       fill="#AECACA"
       id="path335" />
    <path
       d="M91.9175 103.624C91.9175 121.465 77.3871 135.929 59.4636 135.929C41.5402 135.929 27.0098 121.465 27.0098 103.624C27.0098 85.7823 41.5402 71.3184 59.4636 71.3184C77.3871 71.3184 76.3232 74.7245 82.4095 80.7829C88.4958 86.8414 91.9175 95.0561 91.9175 103.624Z"
       fill="#D0E2E2"
       id="path337" />
    <path
       d="M68.6364 97.1358C68.6364 101.277 66.9782 105.255 64.0357 108.184C61.0932 111.113 57.0964 112.764 52.9366 112.764C48.7768 112.764 44.78 111.123 41.8375 108.184C38.895 105.255 37.2368 101.277 37.2368 97.1358C37.2368 88.5108 44.2624 81.5078 52.9366 81.5078C61.6108 81.5078 68.6364 88.5013 68.6364 97.1358Z"
       fill="white"
       id="path339" />
    <path
       d="M60.9205 59.9265C35.8756 59.9265 15.556 80.1532 15.556 105.083C15.556 130.014 35.8756 150.24 60.9205 150.24C85.9654 150.24 106.285 130.014 106.285 105.083C106.285 80.1532 85.9654 59.9265 60.9205 59.9265ZM60.9205 61.2718C85.237 61.2718 104.934 80.8783 104.934 105.083C104.934 129.289 85.237 148.895 60.9205 148.895C36.6041 148.895 16.9075 129.289 16.9075 105.083C16.9075 80.8783 36.6041 61.2718 60.9205 61.2718Z"
       fill="#1A1A1A"
       id="path341" />
    <path
       d="M60.9205 63.9814C38.128 63.9814 19.6391 82.3858 19.6391 105.074C19.6391 127.762 38.128 146.167 60.9205 146.167C83.713 146.167 102.202 127.762 102.202 105.074C102.202 82.3858 83.713 63.9814 60.9205 63.9814ZM60.9205 65.3267C82.9845 65.3267 100.85 83.1205 100.85 105.074C100.85 127.028 82.9845 144.821 60.9205 144.821C38.8565 144.821 20.9905 127.037 20.9905 105.074C20.9905 83.1109 38.866 65.3267 60.9205 65.3267Z"
       fill="#1A1A1A"
       id="path343" />
  </g>
  <defs
     id="defs364">
    <clipPath
       id="clip0_76_23783">
      <rect
         width="121.831"
         height="165"
         fill="white"
         transform="translate(0 0.801758)"
         id="rect361" />
    </clipPath>
  </defs>
</svg>
