<svg width="114" height="128" viewBox="0 0 114 128" fill="none" xmlns="http://www.w3.org/2000/svg">
<g clip-path="url(#clip0_76_23665)">
<path d="M39.4802 71.3623H24.7642V73.501H39.4802V71.3623Z" fill="#1A1A1A"/>
<path d="M39.4802 63.3689H32.1146V65.5076H39.4802V63.3689Z" fill="#1A1A1A"/>
<path d="M39.4802 55.3604H32.1146V57.499H39.4802V55.3604Z" fill="#1A1A1A"/>
<path d="M39.4803 47.3672H32.1147V49.5058H39.4803V47.3672Z" fill="#1A1A1A"/>
<path d="M39.4802 39.3584H32.1146V41.4971H39.4802V39.3584Z" fill="#1A1A1A"/>
<path d="M39.4802 31.3652H24.7642V33.5039H39.4802V31.3652Z" fill="#1A1A1A"/>
<path d="M39.4802 23.3562H32.1146V25.4949H39.4802V23.3562Z" fill="#1A1A1A"/>
<path d="M39.4803 15.3633H32.1147V17.5019H39.4803V15.3633Z" fill="#1A1A1A"/>
<path d="M39.4803 7.35449H32.1147V9.49315H39.4803V7.35449Z" fill="#1A1A1A"/>
<path d="M17.4893 79.887C17.4893 82.0408 18.5956 83.421 20.1718 83.421C21.748 83.421 22.0056 82.5716 22.233 81.5857C22.5209 82.5868 23.2635 83.2239 24.2638 83.2239C25.2641 83.2239 26.6887 81.9649 26.6887 79.8718C26.6887 77.7786 26.0067 77.1416 25.1125 76.3832L23.7637 77.6269C24.3396 78.2033 24.7033 78.8555 24.7033 79.6443C24.7033 80.433 24.385 80.979 23.8394 80.979C23.2938 80.979 23.021 80.4937 23.0362 79.6139V78.5673H21.1721V79.6139C21.1721 80.7363 20.8993 81.161 20.3385 81.161C19.7778 81.161 19.4443 80.6757 19.4443 79.7808C19.4443 78.8859 19.7626 78.1275 20.4143 77.4753L18.9594 76.2012C18.0803 76.9899 17.4741 78.2488 17.4741 79.887H17.4893Z" fill="#1A1A1A"/>
<path d="M22.3848 100.605C23.1274 102.228 23.9306 103.821 24.8248 105.368C38.5254 129.121 66.4571 133.656 88.9479 120.672C111.424 107.689 121.472 81.1907 107.771 57.4531C106.877 55.906 105.907 54.4044 104.861 52.9482L97.4199 57.2559C98.4959 58.6968 99.481 60.1833 100.375 61.7304C111.863 81.6457 103.922 102.153 84.6892 113.271C65.4568 124.389 43.7389 121.021 32.251 101.106C31.3568 99.5589 30.5536 97.9511 29.8564 96.313L22.4151 100.621L22.3848 100.605Z" fill="#1A1A1A"/>
<path d="M72.0042 12.5268C70.6705 13.2852 69.5793 14.4076 68.7912 15.7727C67.8212 17.4563 67.3969 19.3371 67.6545 21.2483C67.9122 23.1594 69.0034 25.2222 71.0039 26.375C73.0044 27.5277 75.3535 27.4216 77.1419 26.6935C78.9302 25.9654 80.3549 24.661 81.3248 22.9774C82.2948 21.2938 82.7191 19.413 82.4615 17.517C82.2038 15.6058 81.1126 13.543 79.1121 12.3903C77.1116 11.2375 74.7625 11.3437 72.9741 12.0717C72.6407 12.2083 72.3224 12.3599 72.0042 12.5419V12.5268Z" fill="#1A1A1A"/>
<path d="M46.6185 13.5124C44.4209 14.9382 42.2991 16.728 40.3289 18.9273L45.891 23.9175L46.6791 24.6304L52.2412 29.6206C56.5757 24.7821 60.4252 24.3877 64.5475 24.7214C68.5485 25.0399 71.3523 26.4809 71.3523 26.4809C73.4438 27.5578 76.0202 26.7387 77.0963 24.6456L80.5366 18.0021C81.6126 15.9089 80.8094 13.3304 78.7179 12.2383C78.7179 12.2383 73.2316 9.35644 65.8509 8.74972C60.2585 8.29469 53.196 9.21992 46.6033 13.4972L46.6185 13.5124Z" fill="#1A1A1A"/>
<path d="M25.9161 37.5226C22.1575 39.6916 20.8239 44.6515 23.0063 48.4131C25.1735 52.1747 30.1294 53.5095 33.8879 51.3253L56.5 38.2659C60.2586 36.0969 61.5923 31.137 59.4099 27.3754C57.2426 23.6138 52.2868 22.279 48.5282 24.4632L25.9161 37.5226Z" fill="#1A1A1A"/>
<path d="M22.218 31.1222C18.4595 33.2912 17.1409 38.2511 19.3082 42.0127C21.4754 45.7743 26.4313 47.1091 30.1899 44.9249L52.8019 31.8655C56.5605 29.6965 57.8942 24.7366 55.7118 20.975C53.5445 17.2134 48.5887 15.8786 44.8301 18.0628L22.218 31.1222Z" fill="#1A1A1A"/>
<path d="M48.9526 17.0924C47.0733 18.321 45.2395 19.853 43.5117 21.7793L49.0738 26.7695C54.3025 20.9299 60.0313 20.0653 64.9113 20.4749C69.7914 20.8692 73.3227 22.6894 73.3227 22.6894L76.763 16.0459C76.763 16.0459 71.9738 13.5584 65.5176 13.0275C60.6678 12.6331 54.5904 13.437 48.9526 17.1076V17.0924Z" fill="#756A63"/>
<path d="M48.3765 16.1971C46.4214 17.4712 44.5118 19.079 42.7234 21.066L44.3148 22.4918C45.9819 20.6413 47.7399 19.1549 49.5434 17.987C54.954 14.468 60.7889 13.6945 65.4416 14.0737C70.6703 14.4984 74.1106 16.0151 75.2927 16.5763L72.8375 21.3239C71.7312 20.8233 69.1093 19.7312 65.0173 19.3976C59.9401 18.988 53.7567 19.9588 48.3007 26.0562L49.892 27.482C54.8934 21.9002 60.1523 21.157 64.8505 21.5362C69.5184 21.9154 72.8678 23.6294 72.8678 23.6294C73.3983 23.9024 74.0348 23.69 74.3076 23.1743L77.7479 16.5308C78.0207 16.0151 77.8085 15.3629 77.2932 15.0899C77.2932 15.0899 72.3374 12.4962 65.6386 11.9502C60.607 11.5406 54.272 12.3749 48.4068 16.1971H48.3765Z" fill="#1A1A1A"/>
<path d="M18.4443 8.02151C13.2459 10.6607 7.65355 14.9229 3.09173 21.8242L0 26.5111L5.33475 28.2554C21.2784 33.4428 30.7658 42.8771 30.7658 42.8771L36.7977 36.81C36.7977 36.81 28.1438 28.2402 13.6248 22.2337C20.3387 14.8319 27.8862 12.951 31.7812 12.496L40.8442 34.3983L48.7402 31.1221L37.4645 3.8807L34.7214 3.7897C34.7214 3.7897 27.1284 3.63802 18.4595 8.02151H18.4443Z" fill="#1A1A1A"/>
<path d="M38.6618 3.6078C37.1614 4.30552 35.949 5.10941 35.0093 5.89814C33.1149 7.46042 32.0843 9.3564 32.0843 9.3564L39.7378 13.1787C39.7378 13.1787 39.7833 13.0725 40.4047 12.5416C40.6775 25.3888 44.6482 36.5826 44.6482 36.5826L52.7261 33.7766C52.7261 33.7766 47.8764 19.3065 49.1343 6.50485L49.695 0.801758L44.0723 1.89384C41.9809 2.30337 40.1925 2.91008 38.6921 3.6078H38.6618Z" fill="#1A1A1A"/>
<path d="M39.0558 34.1862C27.3406 40.951 20.4145 53.0549 18.1109 66.1447C16.0194 78.0059 17.6107 90.8379 23.0364 101.971L30.4626 97.6786C26.113 88.3807 24.7793 77.5054 26.5222 67.6312C28.4773 56.5283 34.1758 46.8816 43.3297 41.588C52.4837 36.2945 63.6836 36.1883 74.2622 40.0409C83.6738 43.4688 92.4337 50.0517 98.2989 58.485L105.725 54.1925C98.799 43.9239 88.4932 36.1276 77.1872 32.0172C64.7142 27.4668 50.7711 27.4213 39.0558 34.2013V34.1862Z" fill="#1A1A1A"/>
<path d="M35.9033 11.2679C35.9033 11.2679 37.7978 7.46081 44.8602 6.0957C43.4811 20.2321 48.6643 35.1875 48.6643 35.1875L46.1182 35.9611L35.9033 11.2679Z" fill="#AA9C89"/>
<path d="M33.7817 39.8285C33.7817 39.8285 23.582 29.6812 6.65326 24.1753C17.7017 7.47559 34.5698 8.05196 34.5698 8.05196L44.7998 32.7603L33.7968 39.8285H33.7817Z" fill="#C5BFA9"/>
<path d="M19.8691 10.812C15.1254 13.2237 10.0179 17.1673 5.7744 23.5985L5.00146 24.7664L6.33515 25.2063C23.0214 30.6364 33.0392 40.6016 33.0392 40.6016L34.5396 39.0848C34.5396 39.0848 24.7037 29.3926 8.41146 23.7047C18.4747 9.58344 32.145 9.14358 33.8728 9.15875L43.7997 33.1694L45.7699 32.3503L35.2974 7.00492L34.6154 6.97458C34.6154 6.97458 27.7651 6.76223 19.8691 10.7969V10.812Z" fill="#1A1A1A"/>
<path d="M40.0258 6.50452C38.7679 7.09606 37.798 7.74828 37.0554 8.35499C35.5701 9.58358 34.9487 10.7818 34.9487 10.7818L36.8583 11.7374C36.8583 11.7374 37.1917 11.0245 38.4193 10.0083C39.4499 9.15889 41.2837 8.21848 43.7996 7.53593C42.8902 21.5055 47.6642 35.5357 47.6642 35.5357L49.6799 34.838C49.6799 34.838 44.5725 20.0039 45.9213 6.20116L46.0577 4.77539L44.6483 5.04841C42.7993 5.41244 41.2686 5.92814 40.0258 6.51969V6.50452Z" fill="#1A1A1A"/>
<path d="M104.073 59.5774C116.667 81.4191 107.68 104.899 86.8109 116.957C65.9569 129.016 41.1321 125.057 28.5227 103.23C15.9285 81.3887 20.3236 49.9459 41.1928 37.8875C62.0468 25.8291 91.4637 37.751 104.073 59.5774Z" fill="#C5BFA9"/>
<path d="M24.7642 95.0697C25.7796 97.891 27.0375 100.636 28.5379 103.23C41.1321 125.072 65.9569 129.015 86.8261 116.957C107.68 104.898 116.683 81.4036 104.088 59.5771C102.588 56.9834 100.845 54.5262 98.9202 52.2207C105.604 71.6355 96.4499 91.1413 78.0662 101.759C59.6977 112.376 38.2374 110.571 24.7793 95.0697H24.7642Z" fill="#AA9C89"/>
<path d="M25.1733 98.9827C25.9008 100.621 26.704 102.213 27.5982 103.761C40.4653 126.072 66.0781 130.168 87.3414 117.882C108.605 105.596 117.865 81.3577 104.982 59.0307C104.088 57.4836 103.103 55.982 102.057 54.541L100.193 55.6179C101.254 57.0589 102.239 58.5605 103.133 60.1076C115.455 81.4639 106.725 104.216 86.2653 116.031C65.8054 127.847 41.7687 124.04 29.4472 102.684C28.553 101.137 27.7498 99.5287 27.0375 97.8906L25.1733 98.9675V98.9827Z" fill="#1A1A1A"/>
<path d="M76.8083 57.6957C79.6273 62.5949 79.9758 68.6469 77.748 74.5472C75.5353 80.4474 70.9431 85.6803 64.987 89.1234C52.5746 96.2978 37.7525 93.8406 31.8873 83.6479C26.007 73.4551 31.2962 59.3794 43.7086 52.2202C49.6648 48.7771 56.4999 47.4271 62.7137 48.4434C68.9275 49.4748 73.9894 52.7965 76.8235 57.6806L76.8083 57.6957Z" fill="#DEDDCB"/>
<path d="M77.5964 20.8383C77.0962 21.718 76.3384 22.4006 75.4897 22.7495C74.6562 23.0983 73.8075 23.068 73.1255 22.6736C71.716 21.8697 71.4281 19.7311 72.4889 17.9109C72.9891 17.0312 73.7469 16.3486 74.5956 15.9998C75.4291 15.6509 76.2778 15.6813 76.9598 16.0756C77.6418 16.47 78.0813 17.1829 78.2026 18.0778C78.3238 18.9727 78.1116 19.9586 77.5964 20.8383Z" fill="#756A63"/>
<path d="M73.4286 15.4084C72.686 15.8786 72.0495 16.546 71.5645 17.3651C71.322 17.7898 71.125 18.2448 71.0037 18.6999L73.0043 19.5341C73.08 19.1701 73.2164 18.806 73.4286 18.442C73.8378 17.7291 74.444 17.2286 75.0048 16.9859C75.5655 16.7584 76.0505 16.7735 76.4294 16.9859C76.8083 17.1982 77.0659 17.6078 77.1417 18.2145C77.2175 18.8212 77.0811 19.5796 76.6719 20.3076C76.5507 20.52 76.4143 20.702 76.2627 20.884L78.3087 21.7334C78.3845 21.6121 78.4603 21.5059 78.536 21.3846C79.1726 20.2773 79.4302 19.0639 79.2786 17.9415C79.1271 16.819 78.536 15.7421 77.5055 15.1506C76.4749 14.559 75.2473 14.5894 74.2015 15.0141C73.9439 15.1202 73.6863 15.2568 73.4438 15.4084H73.4286Z" fill="#1A1A1A"/>
<path d="M83.5523 75.3215C79.627 68.5112 73.0798 69.2089 63.9562 72.1666C57.9091 74.1081 55.7419 74.3811 54.4688 72.1666C53.4382 70.3768 54.2718 68.0562 57.1817 66.3877C60.5462 64.4462 64.9565 63.6575 69.7305 64.2642L70.6095 55.1787C65.9264 54.3748 61.1524 54.8753 56.242 57.0747L54.3324 53.7529L48.8461 56.923L50.7557 60.2447C44.3146 65.0226 42.2989 72.015 45.9211 78.2944C50.1192 85.575 57.0756 84.3616 65.8355 81.6314C71.8371 79.8567 73.7921 79.3562 75.0349 81.51C76.1564 83.4667 75.2168 85.8328 71.8371 87.7895C67.4117 90.3528 62.4861 90.9444 57.2878 90.0798L55.7267 99.0592C61.107 100.242 66.8054 99.6204 72.1705 97.3604L74.171 100.834L79.6573 97.6637L77.7477 94.342C85.2346 89.1698 87.4473 82.056 83.5523 75.3064V75.3215Z" fill="#3E987A"/>
<path d="M50.9531 84.0877C51.9534 84.4518 52.9991 84.6793 54.0752 84.7703C57.7125 85.0585 61.7287 84.0119 66.139 82.6316C69.1246 81.7519 71.11 81.2059 72.2618 81.1452C72.8377 81.1149 73.1863 81.1907 73.4136 81.312C73.6561 81.4334 73.8531 81.6154 74.0956 82.0401C74.5048 82.7378 74.5352 83.3749 74.1411 84.1788C73.7471 84.9826 72.8529 85.9534 71.2919 86.8483C67.0938 89.2751 62.4562 89.8363 57.4397 89.0173L56.394 88.8504L54.4844 99.8926L55.4846 100.105C60.8042 101.273 66.3815 100.696 71.6707 98.6488L73.7774 102.304L81.1127 98.0725L79.0818 94.5535C82.4918 91.9902 84.9167 89.0173 85.9321 85.741C87.0233 82.1918 86.5535 78.3695 84.4772 74.7747C82.5827 71.4833 79.9154 69.7087 76.8085 69.1475L73.3985 71.1193C74.1714 71.0738 74.8989 71.0738 75.596 71.1344C78.5968 71.4226 80.7944 72.6816 82.6282 75.8365C84.4469 78.9914 84.8106 82.1159 83.9013 85.104C82.9919 88.092 80.7338 90.9739 77.1419 93.4614L76.3235 94.0226L78.2028 97.2686L74.5655 99.3617L72.6256 95.9945L71.7617 96.3585C66.9119 98.4061 61.8348 98.9825 56.9699 98.1331L58.1672 91.2014C63.1685 91.8385 68.0183 91.2014 72.3679 88.6836C74.1714 87.637 75.4293 86.4388 76.081 85.0888C76.7327 83.7389 76.6721 82.2069 75.9598 80.948C75.5809 80.2806 75.0656 79.7194 74.3987 79.3857C73.7319 79.052 72.9741 78.9459 72.1557 78.9914C70.5189 79.0824 68.5336 79.6739 65.5176 80.5688H65.5024C61.168 81.9339 57.3336 82.8743 54.2419 82.6165C54.0145 82.6013 53.8024 82.571 53.575 82.5406L50.9531 84.0574V84.0877Z" fill="#1A1A1A"/>
<path d="M47.376 56.5127L49.422 60.0619C43.2992 65.0825 41.2683 72.363 44.9966 78.8093C47.0274 82.3131 49.8464 84.1029 53.0442 84.6338L56.5148 82.6316C55.7116 82.6923 54.9538 82.7075 54.2415 82.6316C51.1497 82.3889 48.8006 81.13 46.8304 77.7476C43.4659 71.9232 45.2391 65.6437 51.3771 61.0933L52.15 60.5321L50.301 57.3014L53.9232 55.2082L55.7873 58.439L56.6664 58.0446C61.0463 56.0728 65.2444 55.6481 69.4122 56.1941L68.7453 63.2017C64.2138 62.8225 59.9703 63.505 56.636 65.4313C55.0447 66.3566 53.9232 67.4942 53.3624 68.7683C52.8017 70.0575 52.8623 71.4833 53.5443 72.6664C54.3172 74.0163 55.7419 74.805 57.4544 74.7595C59.1519 74.714 61.2433 74.1225 64.2896 73.1518C68.806 71.6956 72.61 70.8462 75.6108 71.1193C75.8381 71.1344 76.0655 71.1648 76.2776 71.1951L78.8692 69.6935C77.8993 69.3143 76.8839 69.0868 75.8078 68.9806C72.2614 68.6469 68.2452 69.6177 63.6379 71.1041C60.6371 72.0748 58.6214 72.5905 57.409 72.6057C56.1965 72.636 55.8934 72.4389 55.4084 71.5743C55.0599 70.9524 55.0144 70.3457 55.3478 69.6025C55.6661 68.8593 56.4239 68.0099 57.7272 67.2515C60.8644 65.4465 65.0171 64.6881 69.6092 65.2645L70.7004 65.401L71.7764 54.2375L70.8065 54.0707C66.2295 53.2819 61.5161 53.7673 56.7421 55.7088L54.7416 52.2354L47.4063 56.4672L47.376 56.5127Z" fill="#1A1A1A"/>
<path d="M40.6623 36.9618C29.917 43.1806 23.4456 54.3592 21.2632 66.7058C19.3081 77.8238 20.7934 89.9277 25.8099 100.363L27.674 99.2863C22.9303 89.3058 21.4905 77.6873 23.3698 67.0698C25.4613 55.2238 31.6144 44.6518 41.7232 38.8122C51.8319 32.9726 64.0625 32.912 75.3533 37.0224C85.4772 40.7082 94.8131 47.7612 101.087 56.8619L102.952 55.785C96.4195 46.2141 86.7048 38.8729 76.096 35.0051C64.3201 30.7126 51.4076 30.743 40.6623 36.9466V36.9618Z" fill="#1A1A1A"/>
<path d="M28.0529 41.2244L50.665 28.1649C52.4382 27.1335 54.6812 27.7402 55.7118 29.5149C56.7424 31.2895 56.1361 33.5343 54.3629 34.5657L31.7509 47.6252C29.9777 48.6566 27.7347 48.0499 26.7041 46.2753C25.6735 44.5007 26.2797 42.2558 28.0529 41.2244Z" fill="#756A63"/>
<path d="M24.355 34.823L46.967 21.7636C48.7402 20.7322 50.9833 21.3389 52.0138 23.1135C53.0444 24.8881 52.4382 27.133 50.665 28.1644L28.0529 41.2239C26.2797 42.2553 24.0367 41.6486 23.0061 39.8739C21.9756 38.0993 22.5818 35.8545 24.355 34.823Z" fill="#756A63"/>
<path d="M38.1617 34.1406L39.2226 35.991L51.1803 29.0745C52.4534 28.3313 54.0295 28.756 54.7722 30.0301C55.5148 31.3042 55.0904 32.8816 53.8174 33.6249L41.8596 40.5414L42.9205 42.3919L54.8782 35.4753C57.1516 34.1709 57.9245 31.2283 56.6211 28.9683C55.3178 26.6932 52.3927 25.9196 50.1194 27.224L38.1617 34.1406Z" fill="#1A1A1A"/>
<path d="M34.4637 27.7398L35.5397 29.5903L47.4975 22.6738C48.7705 21.9305 50.3467 22.3552 51.0893 23.6445C51.8319 24.9186 51.4076 26.496 50.1345 27.2393L38.1768 34.1558L39.2528 36.0063L51.2106 29.0897C53.4839 27.7853 54.2568 24.8579 52.9534 22.5828C51.6501 20.3076 48.7099 19.5189 46.4517 20.8385L34.494 27.755L34.4637 27.7398Z" fill="#1A1A1A"/>
<path d="M27.5073 40.2986C25.234 41.6031 24.4611 44.5304 25.7644 46.8056C27.0678 49.0808 29.9928 49.8695 32.2662 48.5499L44.2239 41.6334L43.163 39.7829L31.2053 46.6994C29.9322 47.4427 28.356 47.018 27.6134 45.7287C26.8708 44.4546 27.2951 42.8772 28.5682 42.1339L40.5259 35.2174L39.4499 33.3669L27.4922 40.2835L27.5073 40.2986Z" fill="#1A1A1A"/>
<path d="M23.8245 33.898C21.5512 35.2024 20.7783 38.1449 22.0816 40.4049C23.385 42.6801 26.31 43.4537 28.5834 42.1492L40.5411 35.2327L39.465 33.3823L27.5073 40.2988C26.2342 41.042 24.6581 40.6173 23.9155 39.3432C23.1728 38.0691 23.5972 36.4917 24.8703 35.7484L36.828 28.8319L35.7671 26.9814L23.8094 33.898H23.8245Z" fill="#1A1A1A"/>
<path d="M71.6102 17.3047C71.6102 17.3199 71.5799 17.3502 71.5647 17.3654C70.9282 18.4726 70.6705 19.686 70.8221 20.8084C70.9736 21.9309 71.5647 23.0078 72.5953 23.5993C73.6259 24.1909 74.8535 24.1605 75.8992 23.7358C76.9449 23.3111 77.8846 22.4769 78.5211 21.3848C78.703 21.0511 78.8545 20.7174 78.9758 20.3838L76.9904 19.5647C76.9146 19.8225 76.8085 20.0804 76.657 20.3231C76.2478 21.036 75.6415 21.5365 75.0808 21.7792C74.52 22.0067 74.0351 21.9915 73.6562 21.7792C73.2773 21.5668 73.0196 21.1573 72.9439 20.5506C72.8681 19.9439 73.0045 19.1855 73.4137 18.4574C73.4743 18.3513 73.5349 18.2603 73.6107 18.1541L71.6102 17.3199V17.3047Z" fill="#1A1A1A"/>
</g>
<defs>
<clipPath id="clip0_76_23665">
<rect width="114" height="127" fill="white" transform="translate(0 0.801758)"/>
</clipPath>
</defs>
</svg>
