<svg width="1254" height="1168" viewBox="0 0 1254 1168" fill="none" xmlns="http://www.w3.org/2000/svg">
<g opacity="0.1">
<path opacity="0.7" d="M334.21 506.232C310.646 488.907 238.061 516.22 224.083 521.199C214.163 524.6 206.048 527.756 203.331 526.072C195.179 521.022 118.271 392.912 110.453 362.156C108.61 354.195 110.862 352.863 118.995 353.81C121.713 355.494 133.438 351.848 146.522 349.043C163.217 345.748 205.615 333.827 242.615 326.746C255.699 323.941 264.279 323.801 264.279 323.801C267.909 327.414 268.299 314.018 270.123 317.875C273.306 322.575 389.351 318.093 394.321 318.444C430 318.727 479.228 319.222 532.998 325.257C546.101 326.555 538.005 333.814 552.001 332.938C581.799 330.941 654.163 353.951 677.186 351.848C696.151 351.324 701.121 351.675 720.589 362.372C734.176 370.789 813.296 389.801 831.833 394.467C842.684 397.098 852.176 398.887 855.787 398.396C858.039 397.064 860.756 398.747 861.222 401.763L872.538 407.41C875.255 409.093 933.177 434.066 933.642 437.082C932.749 439.256 936.378 442.868 938.63 441.536C943.134 438.871 1021.84 467.176 1021.44 476.469C1020.19 500.246 988.533 589.738 976.883 609.797C970.611 620.913 958.382 613.337 943.437 604.078C928.491 594.819 909.469 583.035 890.95 582.473C871.035 572.863 813.58 550.906 729.918 526.353C714.564 526.387 723.144 526.247 695.598 526.911C691.038 517.267 678.475 535.397 667.103 517.441C661.649 509.971 635.425 503.271 629.581 509.197C629.134 510.285 555.003 495.726 553.197 495.972C536.93 494.077 480.443 486.358 474.171 497.474C440.204 476.431 354.515 502.446 335.122 508.161L334.21 506.232Z" fill="#C9C9C9"/>
<path opacity="0.7" d="M772.62 450.596C795.958 465.106 955.62 453.737 985.352 469.457C997.256 478.241 1003.39 623.114 1002.08 634.742C999.367 641.356 998.916 642.458 990.679 637.337C974.205 627.095 895.277 630.574 879.311 631.711C842.357 633.629 847.378 633.985 832.785 635.975C829.118 632.312 828.723 645.896 825.508 641.131C818.154 629.645 708.723 648.733 699.151 651.079C637.6 662.597 576.99 680.231 567.417 682.577C556.021 685.172 560.083 675.251 548.706 682.007C522.754 694.913 452.985 705.47 435.251 719.338C420.696 729.649 416.596 731.249 397.433 731.781C376.897 731.46 287.156 765.556 283.565 778.535C282.211 781.842 280.387 782.091 278.544 778.179C278.544 778.179 211.088 795.706 208.793 792.897C206.048 791.19 203.302 789.482 202.399 791.687C199.691 798.301 135.489 828.914 128.606 820.486C109.329 796.055 52.7018 686.17 45.2726 658.041C35.0978 628.206 100.43 645.315 127.679 616.619C339.111 550.313 287.188 571.966 333.6 542.739C344.132 550.669 346.745 523.253 366.887 537.158C375.124 542.279 407.037 535.845 408.823 527.275C413.336 516.252 581.648 500.581 588.85 478.783C607.581 483.514 646.339 477.187 684.177 468.904C722.014 460.621 760.302 451.235 774.895 449.245L772.62 450.596Z" fill="#C9C9C9"/>
<path opacity="0.7" d="M371.366 821.096C344.592 807.226 253.769 845.339 231.622 853.504C218.973 859.346 209.028 862.759 205.856 862.161C199.961 859.872 176.712 824.92 154.36 787.785C132.007 750.65 112.359 711.086 108.683 699.224C106.836 691.234 109.541 688.806 119.504 689.511C122.676 690.109 134.878 685.358 152.062 680.96C175.57 673.64 239.751 650.484 290.854 638.38C296.302 641.759 295.331 627.469 298.522 632.185C301.246 633.875 318.896 632.504 347.404 629.655C415.728 621.388 450.076 608.472 615.326 609.68C630.718 609.646 620.793 617.177 638.443 615.806C676 611.725 763.449 627.641 791.509 625.883C833.601 623.246 819.141 629.334 878.958 641.798C891.645 644.192 1000.85 665.388 1010.79 661.975C1014.86 660.391 1017.58 662.081 1017.6 666.199C1017.6 666.199 1031.2 670.529 1032.57 671.374C1035.29 673.063 1109.19 697.003 1109.66 700.03C1110.13 703.057 1112.85 704.746 1116.47 704.254C1118.73 702.917 1144.1 707.705 1169.49 716.612C1193.97 723.583 1219.37 732.489 1219.39 736.607C1222.67 761.915 1201.83 858.496 1191.52 879.473C1180.3 902.632 1128 851.029 1079.57 852.469C1079.57 852.469 1076.85 850.779 1070.5 849.582C1041.49 841.168 1053.73 844.653 1013.84 833.598C1001.6 830.113 988.912 827.719 975.311 823.389C854.297 793.498 871.537 801.454 829.445 804.091C826.255 799.374 820.378 801.204 814.501 803.034C808.624 804.864 801.385 805.849 793.194 796.662C787.279 790.255 751.941 784.762 746.083 790.71C745.635 791.801 732.5 790.498 714.384 788.842C663.654 783.383 683.58 784.793 649.624 784.262C637.851 783.804 626.078 783.346 614.305 782.887C602.532 782.429 554.097 783.869 550.067 793.689C506.987 777.918 409.353 811.806 375.452 823.63L371.366 821.096Z" fill="#C9C9C9"/>
<path opacity="0.7" d="M947.783 676.61C972.449 696.073 1103.44 678.216 1117.59 685.626C1128.09 693.531 1160.13 833.378 1160.23 854.115C1160.71 861.311 1157.07 861.807 1149.78 858.652C1134.72 849.292 1016.89 860.167 1002.78 861.053C999.575 856.302 998.732 870.943 996.893 867.043C986.802 849.744 774.853 880.711 758.029 884.043C747.112 885.531 752.533 876.492 740.266 881.276C715.733 890.846 652.017 891.232 635.23 902.858C621.613 910.939 619.343 912.286 599.761 909.768C578.36 907.498 498.814 929.754 495.682 941.594C494.332 944.89 492.962 944.039 490.674 941.239C490.674 941.239 430.184 950.522 428.815 949.671C426.527 946.871 423.338 946.268 424.257 948.218C422.907 951.514 368.42 979.692 362.005 970.192C342.778 945.837 285.849 837.396 277.07 808.505C272.906 793.51 284.272 790.923 302.016 789.542C319.759 788.161 340.692 787.382 352.921 774.303C556.147 726.886 489.824 754.602 545.212 724.227C553.896 732.38 557.422 706.999 576.61 723.059C584.376 729.263 613.036 726.393 616.187 718.701C617.537 715.405 656.213 713.245 697.158 709.738C711.263 708.853 776.78 704.072 781.281 693.083C809.098 704.854 888.213 687.844 945.514 677.957L947.783 676.61Z" fill="#C9C9C9"/>
<path opacity="0.7" d="M467.163 995.205C454.49 980.586 410.851 987.526 396.008 990.56C392.409 991.049 369.477 997.222 365.413 994.71C359.086 989.441 297.261 858.951 290.822 829.19C288.985 821.27 291.23 819.944 298.447 823.05C302.511 825.562 412.312 814.754 416.821 816.185C419.994 820.86 420.383 807.532 422.201 811.37C424.02 815.208 435.727 815.662 455.097 818.141C500.592 823.203 526.252 822.786 630.803 845.366C640.266 847.146 633.995 854.124 644.348 853.741C669.117 855.487 723.258 880.82 741.719 881.379C756.581 882.427 761.09 883.858 774.189 893.314C784.579 901.095 868.481 936.687 877.925 934.385C880.17 933.06 882.433 935.816 881.988 936.898L890.115 941.922C892.824 943.597 934.812 969.557 933.476 972.802C932.586 974.965 934.849 977.722 936.649 977.478C942.493 975.664 999.807 1005.67 997.136 1012.16C988.676 1032.71 942.664 1111.45 927.432 1127.82C920.271 1136.96 912.589 1130.85 902.644 1121.99C892.699 1113.12 880.49 1101.51 866.983 1101.3C853.438 1092.92 782.58 1054.54 755.064 1042.95L729.85 1042.29C727.103 1032.45 716.38 1050.24 710.442 1031.65C708.16 1024.81 687.861 1016.33 684.281 1020.9C683.39 1023.06 652.72 1010.88 649.566 1010.29C634.686 1005.16 608.988 997.413 591.418 994.69C580.156 993.154 572.957 994.131 571.176 998.457C547.222 978.219 490.095 989.031 467.608 994.124L467.163 995.205Z" fill="#C9C9C9"/>
<path opacity="0.7" d="M787.028 949.042C794.736 959.354 812.905 960.859 830.169 960.418C847.432 959.976 863.335 958.693 866.963 962.322C872.403 969.846 904.897 1110.67 906.683 1131.2C907.126 1138.42 906.67 1139.52 903.041 1135.89C895.784 1128.64 847.621 1133.59 840.351 1134.65C838.54 1130.76 841.244 1144.92 838.527 1139.08C832.644 1124.34 749.941 1138.5 735.857 1139.52C730.86 1139.21 732.234 1131.73 727.687 1134.47C718.137 1141.06 688.163 1135.04 683.154 1143.05C679.962 1150.8 677.239 1149.12 668.613 1145.18C660.444 1140.13 624.086 1149.6 626.34 1160.71C625.428 1162.92 625.428 1162.92 623.617 1159.03C623.617 1159.03 596.36 1158.85 595.454 1156.9C593.187 1154.11 592.281 1152.17 592.731 1155.22C591.819 1157.43 571.351 1173.94 566.367 1165.31C550.959 1140.52 494.792 1032.27 483.931 1004.75C472.165 975.271 509.827 1004.08 517.579 985.274C550.295 980.496 576.646 978.727 594.366 977.179L606.196 965.054C612.542 974.525 608.945 950.096 620.73 967.09C624.809 973.773 639.799 974.703 639.356 967.489C640.268 965.277 658.437 966.782 677.062 967.181C695.688 967.581 714.769 966.873 715.238 957.447C732.932 972.539 772.026 956.432 789.296 951.83L787.028 949.042Z" fill="#C9C9C9"/>
</g>
</svg>
