<svg width="144" height="126" viewBox="0 0 144 126" fill="none" xmlns="http://www.w3.org/2000/svg">
<g clip-path="url(#clip0_76_22938)">
<path d="M35.2 33.8C35.2 34.2 35.3 34.6001 35.6 34.9001C35.9 35.3001 36.5 35.6 37.1 35.5C37.7 35.4 38.1 35.0001 38.4 34.4001C38.6 34.1001 38.6 33.7 38.6 33.3C38.6 33.1 38.6 32.9 38.6 32.6C38.6 31.8 38.6 30.9001 38.3 30.2001C38.1 29.7001 37.7 29.4 37.1 29.3C36.6 29.3 36 29.5 35.7 29.9C35.6 30.2 35.5 30.3 35.4 30.5C35.2 30.9 35.1 31.4 35.1 31.9C35.1 32.3 35.1 32.7 35.1 33C35.1 33.3 35.1 33.5 35.1 33.8H35.2Z" fill="#242647"/>
<path d="M59.4 33.8C59.4 34.2 59.5 34.6001 59.8 34.9001C60.1 35.3001 60.7 35.6 61.3 35.5C61.9 35.4 62.3 35.0001 62.6 34.4001C62.8 34.1001 62.8 33.7 62.8 33.3C62.8 33.1 62.8 32.9 62.8 32.6C62.8 31.8 62.8 30.9001 62.5 30.2001C62.3 29.7001 61.9 29.4 61.3 29.3C60.8 29.3 60.2 29.5 59.9 29.9C59.8 30.2 59.7 30.3 59.6 30.5C59.4 30.9 59.3 31.4 59.3 31.9C59.3 32.3 59.3 32.7 59.3 33C59.3 33.3 59.3 33.5 59.3 33.8H59.4Z" fill="#242647"/>
<path d="M45.3 41.8C46.3 42.4 47.6 42.6 48.8 42.6C49.8 42.6 50.8 42.3 51.7 41.8C52.6 41.3 53.7 40.5 54.1 39.5C54.6 38.4 53.1 37.7 52.4 38.5C51.9 39.1 51.5 39.6 50.8 40C50.1 40.4 49.3 40.6 48.5 40.6C47.6 40.6 46.8 40.4 46 40.2C45.6 40.1 45.1 39.9 44.7 39.7C44.3 39.5 43.9 39.3 43.4 39.3C43.2 39.3 43 39.4 43.1 39.7C43.3 40.7 44.6 41.4 45.4 41.9L45.3 41.8Z" fill="#242647"/>
<path d="M133.2 79.7C133.6 77.8 133.9 75.9 134.3 73.9C134.3 73.4 133.9 72.9 133.5 72.8C129.2 72.3 124.8 71.7 120.5 71.3C118.8 71.2 117.5 71.9 117.1 73.6C116.9 74.6 116.7 75.7 116.5 76.7C116.3 77.7 116.1 78.7 116 79.6H109.6C109.8 79.1 109.6 78.5 109.5 77.9C109.4 77.2 109.3 76.5 109.2 75.8C109 74.4 108.8 73 108.6 71.6C108.4 70.5 108.6 68.9 107.7 68.1C106.9 67.4 105.9 67.5 104.9 67.7C99.6 68.9 94.3 70.4 89.1 72.2C88.6 72.4 88.5 73 88.6 73.4C89 74.6 89.3 75.7 89.7 76.9C90 77.7 90.1 78.7 90.5 79.5H84.6C83.8 78.8 83 78.1 82.2 77.4C81.5 76.8 80.9 76.2 80.2 75.6C79.9 75.3 79.5 75 79.2 74.7C79 74.5 78.9 74.4 78.7 74.3C78.7 74.3 78.6 74.3 78.5 74.2C79.2 72.9 79.3 71.3 78.2 69.8C77.1 68.4 75.4 67.7 73.7 67.2C71.2 66.4 68.7 65.8 66.2 65.1C61.1 63.6 56 62.2 50.8 60.8C47.9 60 45 59.2 42.1 58.4C41.6 58.3 41.2 58.1 40.7 58C40.5 57.6 40.3 57.3 40.2 56.9C47.3 55.9 53.6 53.1 58.5 49C64.7 43.8 68.7 36.6 68.7 28.6C68.7 20.6 64.8 13.4 58.5 8.2C52.4 3.2 43.8 0 34.4 0C25 0 16.4 3.2 10.2 8.3C3.9 13.5 0 20.7 0 28.7C0 36.7 3.9 43.9 10.2 49.1C13.4 51.8 17.3 53.9 21.6 55.4C19.8 58.8 18.7 62.5 17.4 66.1C16.1 70 14.8 73.9 13.7 77.9C12.8 81.1 11.6 84.7 12.2 88.1C12.8 91.3 15.2 93.4 18.2 94.4C19 94.7 19.8 94.9 20.6 95C19.5 96.5 18.7 98.2 17.7 99.8L14.3 105.6C12 109.5 9.8 113.4 7.6 117.4C6.8 118.9 6.4 120.6 7.6 122C8.6 123.3 10.1 123.9 11.6 124.5C13.3 125.1 15.2 125.6 17 124.9C18.5 124.3 19.6 122.9 19.5 121.2C19.4 119.4 17.8 118 16.3 117.3C15.5 116.9 14.6 116.8 13.7 116.5C12.8 116.3 12.1 115.9 11.4 115.5C11.4 115.3 11.6 115.2 11.7 115C13.5 111.9 15.2 108.7 17 105.6C18 103.8 19 102 20 100.3C20.9 98.7 21.9 97 22.6 95.3C24.7 95.6 26.9 95.7 28.9 95.7C32.2 95.7 35.5 95.6 38.8 95.1C40.6 99.1 42.9 103 44.9 106.9C47.1 111.3 49.2 115.7 51.3 120.2C51.3 120.3 51.4 120.4 51.5 120.5C51 121 51 121.9 51.9 122.4C53.4 123.1 55.2 123.1 56.8 123C58.4 123 59.9 122.7 61.4 122.3C63.7 121.6 67.4 120.2 67.1 117.2C66.8 114.1 63.2 114.2 61 114.8C58.2 115.5 55.5 116.6 53 118C51 114 48.9 110 46.7 106C44.7 102.3 42.8 98.5 40.5 95C40.6 95 40.8 95 40.9 95C43.8 94.5 47.2 93.8 49.1 91.4C51.3 88.5 49.9 84.6 49.1 81.4C47.4 74.2 44.9 67.1 41.8 60.4L45.8 61.6C49.9 62.8 54 64 58.2 65.2C62.3 66.4 66.4 67.6 70.6 68.8H70.7C70.7 68.9 70.6 69 70.5 69.1C68.9 72 70.3 76.7 74.1 77C75.5 77.1 76.7 76.6 77.7 75.7C77.8 75.9 77.9 76.1 78.1 76.2C78.4 76.6 78.7 76.9 79 77.3C79.6 78 80.2 78.7 80.9 79.3C82.2 80.7 83.6 82 85 83.3C85 83.3 85.2 83.4 85.3 83.5L90.8 110.8H134.1L143.4 79.8H133.3L133.2 79.7ZM16.6 120.1C17.7 121 17.4 122.2 16 122.6C14.6 123 12.9 122.3 11.6 121.8C10.7 121.4 9.2 120.8 9.3 119.6C9.3 118.9 9.9 118.2 10.2 117.6C11.9 119 14.8 118.6 16.6 120V120.1ZM59.5 117.8C60.1 117.6 64.2 115.9 64.6 117.2C64.8 117.9 63.4 118.7 63 118.9C62 119.4 60.9 119.7 59.7 119.9C58.5 120.1 57.3 120.3 56.1 120.2C55.5 120.2 54.9 120.1 54.3 120C56 119.1 57.7 118.3 59.6 117.7L59.5 117.8ZM2.5 28.7C2.5 21.5 6 15 11.8 10.2C17.6 5.4 25.6 2.4 34.5 2.4C43.4 2.4 51.4 5.4 57.2 10.2C63 15 66.5 21.5 66.5 28.7C66.5 35.9 63 42.4 57.2 47.2C51.4 52 43.4 55 34.5 55C25.6 55 17.6 52 11.8 47.2C6 42.4 2.5 35.9 2.5 28.7ZM45.7 77.2C46.2 78.9 46.7 80.6 47.2 82.4C47.6 84 48.2 85.8 48.2 87.4C48.2 90.4 45 91.5 42.5 92C35.6 93.5 28.1 93.8 21.1 92.6C18.4 92.1 15.4 91.1 14.6 88.2C13.7 85.1 15 81.6 15.8 78.6C16.9 74.6 18 70.7 19.3 66.8C20.5 63.1 22 59.5 23 55.8C26.4 56.8 30 57.4 33.8 57.4C35.3 58.1 36.9 58.6 38.5 59.1C41.4 64.9 43.8 71 45.7 77.2ZM76.8 73.4C76 74.7 74.1 75 73 73.9C71.9 72.8 71.9 71 72.7 69.7C72.8 69.5 72.8 69.3 72.8 69.2C75.2 69.9 78.2 71.3 76.8 73.5V73.4ZM134.4 100.9C134 100.9 133.5 100.9 133 100.9H129.9C128.7 100.9 127.6 100.9 126.4 100.9C126.4 98.8 126.5 96.7 126.7 94.6C126.7 93.8 126.8 93 126.9 92.2H132.9C134 92.2 135 92.2 136.1 92.2C136.4 92.2 136.8 92.2 137.1 92.2L134.5 101L134.4 100.9ZM89.6 92C89.8 92 90 92 90.2 92C91.3 92 92.4 92 93.5 92C94.4 92 95.4 92 96.3 92C96.3 92.7 96.5 93.5 96.6 94.2C96.8 96.4 97.1 98.6 97.4 100.8C96.6 100.8 95.8 100.8 95.1 100.8C94 100.8 92.7 100.7 91.5 100.8L89.7 91.8L89.6 92ZM98 94.1C97.9 93.4 97.8 92.8 97.7 92.1C98.5 92.1 99.2 92.1 100 92.1C101.9 92.1 103.8 92.1 105.8 92.1C105.8 92.9 105.8 93.6 105.8 94.4C105.8 96.6 105.9 98.7 106 100.9H100.7C100.1 100.9 99.6 100.9 99 100.9C98.7 98.6 98.3 96.4 98 94.1ZM97 87.4C96.8 86.3 96.7 85.2 96.5 84.2C96.4 83.5 96.3 82.8 96.2 82.1H105.5C105.4 83.8 105.5 85.7 105.6 87.4C105.6 88.3 105.6 89.2 105.6 90.2C103.6 90.2 101.7 90.2 99.7 90.2C98.9 90.2 98.1 90.2 97.3 90.2C97.2 89.3 97 88.3 96.9 87.4H97ZM115.7 82.1C115.4 83.9 115.5 85.9 115.5 87.7C115.5 88.5 115.5 89.3 115.5 90.1C114.7 90.1 113.8 90.1 113 90.1C111.1 90.1 109.3 90.1 107.4 90.1C107.4 89.2 107.4 88.2 107.3 87.3C107.3 85.6 107.3 83.8 107 82H115.7V82.1ZM117.3 92.2C119.8 92.2 122.3 92.2 124.8 92.2C124.8 93 124.7 93.8 124.6 94.5C124.5 96.6 124.4 98.7 124.3 100.8C124.2 100.8 124.1 100.8 124 100.8H117.2C117.2 98.7 117.2 96.6 117.2 94.5C117.2 93.7 117.2 92.9 117.2 92.2H117.3ZM115.3 94.7C115.3 96.8 115.3 98.8 115.3 100.9H107.8C107.8 98.7 107.6 96.4 107.5 94.2C107.5 93.5 107.5 92.9 107.5 92.2C109.4 92.2 111.3 92.2 113.2 92.2C114 92.2 114.7 92.2 115.5 92.2C115.5 93 115.5 93.9 115.5 94.7H115.3ZM100.7 102.8C102.4 102.8 104.2 102.8 105.9 102.8C105.9 104.6 106 106.4 106.1 108.1H99.7C99.7 108 99.8 107.8 99.7 107.6C99.5 106 99.2 104.4 99 102.7C99.5 102.7 100.1 102.7 100.6 102.7L100.7 102.8ZM107.7 102.8C109.3 102.8 110.8 102.8 112.4 102.8H115.2C115.2 103.5 115.2 104.1 115.2 104.8C115.2 105.9 115 107.1 115.2 108.2H107.9C107.9 108.2 107.9 108.2 107.9 108.1C107.9 106.4 107.8 104.6 107.7 102.9V102.8ZM117.1 104.8C117.1 104.1 117.1 103.5 117.1 102.8C119.4 102.8 121.8 102.8 124.1 102.8C124.1 103.5 124.1 104.1 124.1 104.8C124.1 105.9 124 107.1 124.1 108.1H116.9C117.1 107 116.9 105.8 116.9 104.8H117.1ZM124.9 90.1C122.3 90.1 119.8 90.1 117.2 90.1C117.2 89.3 117.2 88.5 117.2 87.7C117.2 85.9 117.4 83.9 117.1 82.1H125.8C125.4 83.8 125.3 85.7 125.1 87.5C125.1 88.4 124.9 89.3 124.9 90.2V90.1ZM137.4 90.3C136.9 90.2 136.4 90.2 135.9 90.2C134.8 90.2 133.7 90.2 132.6 90.2H126.9C126.9 89.5 127 88.7 127.1 88C127.3 86.1 127.7 84.1 127.6 82.2H139.9L137.4 90.4V90.3ZM118.3 75.1C118.4 74.5 118.4 73.3 119.2 73.1C120 72.9 121 73.2 121.8 73.3C125.2 73.7 128.6 74.1 132 74.6C131.7 76.3 131.4 78 131 79.6H117.3C117.8 78.1 118 76.5 118.3 75.1ZM91.2 76.6C90.9 75.7 90.7 74.7 90.4 73.8C94.7 72.5 99 71.2 103.4 70.2C103.9 70.1 104.5 69.9 105 69.8C105.2 69.8 106 69.5 106.1 69.6C106.3 69.8 106.3 70.9 106.3 71.2L106.6 73.1C106.8 74.3 106.9 75.5 107.1 76.7C107.2 77.6 107.1 78.7 107.5 79.6H91.8C91.8 78.6 91.4 77.5 91.1 76.6H91.2ZM94.9 82.1C94.9 82.8 95.1 83.5 95.1 84.1C95.2 85.2 95.3 86.3 95.5 87.3C95.6 88.2 95.7 89.2 95.8 90.1C94.9 90.1 93.9 90.1 93 90.1C92 90.1 90.9 90.1 89.9 90.1C89.6 90.1 89.3 90.1 89 90.1L87.3 81.8H94.8L94.9 82.1ZM91.5 102.7C92.6 102.8 93.9 102.7 94.9 102.7C95.7 102.7 96.5 102.7 97.3 102.7C97.5 104.4 97.7 106.1 97.9 107.8V108H92.5L91.4 102.6L91.5 102.7ZM126.1 108.1C126.3 107 126.1 105.9 126.1 104.8C126.1 104.1 126.1 103.4 126.1 102.8C127.3 102.8 128.6 102.8 129.8 102.8C130.8 102.8 131.7 102.8 132.7 102.8C133 102.8 133.2 102.8 133.5 102.8L131.9 108.1H126H126.1Z" fill="#242647"/>
<path d="M99.9 112.6C99.4 112.3 99 112.1 98.4 112C98.2 112 98 112 97.8 112C97.5 112 97.2 112 96.9 112C96.4 112 95.9 112.3 95.4 112.6C94.6 113.1 94.1 114.1 94 115.1C94 116.1 94.2 117.2 94.9 117.9C95.6 118.6 96.5 119.2 97.5 119.2C98.1 119.2 98.6 119.2 99.2 118.9C99.7 118.7 100.1 118.3 100.5 117.9C101.2 117.2 101.5 116.1 101.4 115.1C101.4 114.1 100.7 113.2 99.9 112.6Z" fill="#242647"/>
<path d="M128 112.6C127.5 112.3 127.1 112.1 126.5 112C126.3 112 126.1 112 125.9 112C125.6 112 125.3 112 125 112C124.5 112 124 112.3 123.5 112.6C122.7 113.1 122.2 114.1 122.1 115.1C122.1 116.1 122.3 117.2 123 117.9C123.7 118.6 124.6 119.2 125.6 119.2C126.2 119.2 126.7 119.2 127.3 118.9C127.8 118.7 128.2 118.3 128.6 117.9C129.3 117.2 129.6 116.1 129.5 115.1C129.5 114.1 128.8 113.2 128 112.6Z" fill="#242647"/>
</g>
<defs>
<clipPath id="clip0_76_22938">
<rect width="143.3" height="125.2" fill="white"/>
</clipPath>
</defs>
</svg>
