<svg width="93" height="38" viewBox="0 0 93 38" fill="none" xmlns="http://www.w3.org/2000/svg">
<path opacity="0.7" d="M15.9167 34.1964C15.3167 33.3964 12.1167 32.1964 10.3167 31.3964C8.61673 30.6964 8.81673 30.7964 8.21673 30.5964C7.21673 30.0964 0.716723 27.2964 0.0167226 26.2964C-0.383277 25.2964 6.51672 17.0964 7.41672 16.4964C7.91672 16.1964 8.11672 16.1964 8.51672 16.7964C9.71672 18.3964 18.7167 21.4964 21.0167 21.8964C21.0167 22.1964 21.8167 21.3964 21.8167 21.7964C21.8167 22.7964 34.1167 25.1964 44.1167 23.6964C45.1167 23.4964 44.4167 24.1964 45.6167 23.8964C45.8167 23.8964 51.7167 22.6964 53.8167 22.0964C57.3167 20.9964 55.9167 20.3964 59.0167 20.0964C61.2167 19.6964 67.8167 16.0964 68.2167 14.6964C68.2167 14.3964 68.4167 14.3964 68.6167 14.5964C68.7167 14.7964 72.9167 11.5964 73.0167 11.6964C73.2167 11.7964 73.4167 11.6964 73.4167 11.5964C73.4167 11.3964 74.1167 10.2964 74.7167 9.19637C75.3167 8.09637 75.6167 7.09637 75.9167 7.19637C78.4167 7.79637 84.7167 10.9964 86.2167 13.0964C87.7167 15.1964 81.8167 19.6964 79.8167 22.5964C74.9167 26.6964 68.0167 30.1964 63.1167 31.8964L59.5167 33.8964C58.9167 33.3964 57.6167 35.4964 56.3167 34.5964C56.0167 34.3964 55.1167 34.5964 54.2167 34.6964C52.0167 35.0964 52.7167 35.3964 51.2167 35.6964C48.0167 36.3964 41.1167 36.6964 40.1167 36.6964C39.3167 36.6964 34.4167 36.6964 33.7167 37.1964C31.9167 36.3964 27.6167 36.3964 19.6167 35.0964C18.8167 34.9964 18.1167 34.8964 17.5167 34.7964C16.9167 34.7964 16.4167 34.5964 16.1167 34.4964L15.9167 34.1964Z" fill="#FEAE37"/>
<path opacity="0.7" d="M70.3167 13.6959C69.1167 12.1959 60.5167 13.5959 59.9167 13.1959C59.4167 12.5959 60.1167 2.49589 60.5167 0.99589C60.7167 0.49589 60.9167 0.395888 61.3167 0.595888C62.0167 1.09589 71.1167 0.395891 71.1167 0.395891C71.2167 0.695891 71.6167 -0.304112 71.6167 0.0958882C71.8167 0.895888 85.4167 0.295888 91.3167 0.0958882C91.4167 2.69589 91.5167 4.69589 91.5167 5.19589C91.5167 6.69589 90.9167 5.79589 91.2167 7.39589C91.5167 8.99589 91.5167 12.3959 91.5167 13.9959C91.5167 19.3959 92.6167 17.6959 91.8167 20.0959C91.4167 21.1959 91.8167 27.2959 92.5167 27.8959C92.7167 28.0959 92.6167 28.1959 92.4167 28.1959C92.4167 28.1959 92.1167 32.4959 92.0167 32.4959C91.8167 32.4959 91.7167 32.6959 91.8167 32.7959C92.0167 32.9959 92.8167 37.4959 92.2167 37.5959C90.3167 37.8959 82.4167 37.3959 80.4167 36.9959C78.3167 36.4959 80.7167 33.4959 79.5167 31.0959V19.9959L78.8167 17.5959C79.5167 17.2959 77.8167 16.2959 79.0167 15.5959C79.2167 15.4959 79.4167 14.8959 79.4167 14.3959C79.4167 14.2959 79.4167 13.2959 79.2167 13.2959C79.0167 13.2959 78.9167 13.2959 79.0167 13.0959C79.0167 12.9959 79.2167 12.6959 79.2167 12.4959C79.0167 12.4959 78.6167 12.4959 78.5167 13.0959C78.5167 12.8959 78.5167 12.6959 78.4167 12.5959C75.5167 12.5959 71.5167 13.3959 70.2167 13.4959L70.3167 13.6959Z" fill="#FEAE37"/>
</svg>
