<svg width="106" height="124" viewBox="0 0 106 124" fill="none" xmlns="http://www.w3.org/2000/svg">
<g clip-path="url(#clip0_76_22932)">
<path d="M35.2 33.8C35.2 34.2 35.3 34.6001 35.6 34.9001C35.9 35.3001 36.5 35.6 37.1 35.5C37.7 35.4 38.1 35.0001 38.4 34.4001C38.6 34.1001 38.6 33.7 38.6 33.3C38.6 33.1 38.6 32.9 38.6 32.6C38.6 31.8 38.6 30.9001 38.3 30.2001C38.1 29.7001 37.7 29.4 37.1 29.3C36.6 29.3 36 29.5 35.7 29.9C35.6 30.2 35.5 30.3 35.4 30.5C35.2 30.9 35.1 31.4 35.1 31.9C35.1 32.3 35.1 32.7 35.1 33C35.1 33.3 35.1 33.5 35.1 33.8H35.2Z" fill="#242647"/>
<path d="M59.4 33.8C59.4 34.2 59.5 34.6001 59.8 34.9001C60.1 35.3001 60.7 35.6 61.3 35.5C61.9 35.4 62.3 35.0001 62.6 34.4001C62.8 34.1001 62.8 33.7 62.8 33.3C62.8 33.1 62.8 32.9 62.8 32.6C62.8 31.8 62.8 30.9001 62.5 30.2001C62.3 29.7001 61.9 29.4 61.3 29.3C60.8 29.3 60.2 29.5 59.9 29.9C59.8 30.2 59.7 30.3 59.6 30.5C59.4 30.9 59.3 31.4 59.3 31.9C59.3 32.3 59.3 32.7 59.3 33C59.3 33.3 59.3 33.5 59.3 33.8H59.4Z" fill="#242647"/>
<path d="M49.8 44.2C50.2 43.6 50.4 42.8999 50.5 42.2999C50.5 41.6999 50.7 41 50.5 40.5C50.3 39.5 49.5 38.7 48.4 38.7C48 38.7 47.7 38.8999 47.4 39.0999C46.9 39.3999 46.4 39.7 46.1 40.2C45.8 40.5 45.5 40.9 45.3 41.4C44.9 42.6 45.1 44 46.1 44.9C47.2 45.9 48.9 45.3999 49.7 44.2999L49.8 44.2Z" fill="#242647"/>
<path d="M103.9 105.3C102.9 102.4 99.8 100.4 97.2 99.2C93.7 97.5 89.5 96.8 86.6 93.9C83.5 90.8 83.3 85.8 82.8 81.7C82.2 76.6 81.6 71.6 81.3 66.5C81.3 65.9 81.3 65.4 81.3 64.8C82.2 64.6 83.1 64.1 83.7 63.2C84.3 62.4 84.5 61.5 84.4 60.5C84.4 59.5 83.8 58.2 82.7 58.1H82.5C82.1 57.8 81.6 57.6 81.1 57.4C81.1 54.9 81.3 52.4 81.6 49.9C81.8 49.9 81.9 49.7 82.1 49.6C81.8 49.2 81.5 48.7 81.2 48.4C81 48.2 80.9 48.1 80.7 47.9C80.3 47.9 80 48 79.8 48.3C78.9 48.7 78.1 49.1 77.2 49.4C75.6 50 73.9 50.6 72.2 51.1C68.9 52.1 65.6 52.8 62.2 53.5C61.8 53.5 61.4 53.5 61.4 54.1C61.4 55.7 61.4 57.4 61.4 59H61.3C58.8 58.6 56.3 58.3 53.9 57.7C51.5 57.1 49.2 56.3 46.9 55.6C51.4 54.2 55.4 52 58.7 49.2C64.9 44 68.9 36.8 68.9 28.8C68.9 20.8 65 13.6 58.7 8.4C52.4 3.2 43.8 0 34.4 0C25 0 16.4 3.2 10.2 8.3C3.9 13.5 0 20.7 0 28.7C0 36.7 3.9 43.9 10.2 49.1C13.2 51.6 16.7 53.6 20.5 55C19.8 56.6 19.7 58.4 19.4 60.1C19.1 62.2 18.8 64.3 18.6 66.4C18.1 70.6 17.7 74.8 17.4 78.9C17 84.9 15.8 93.3 22.3 96.6C22.9 96.9 23.6 97.1 24.3 97.3C23.7 101 23.6 104.8 23.3 108.6C22.9 112.8 22.5 116.9 21.9 121C21.9 121.5 22.1 121.9 22.5 122.1C24.5 122.9 26.6 123.3 28.7 123.1C30.3 122.9 32.6 122.5 33.1 120.7C33.6 118.9 32 117.9 30.5 117.7C28.5 117.4 26.4 117.6 24.3 117.9C24.6 114.8 24.9 111.7 25.1 108.6C25.4 105 25.7 101.2 25.5 97.6C27.8 98 30.2 98 32.5 98.1C36.3 98.2 40.3 98.6 44.1 98.4C43.5 102.1 43.5 105.8 43.1 109.5C42.7 113.7 42.3 117.8 41.7 121.9C41.7 122.4 41.9 122.8 42.3 123C44.3 123.8 46.4 124.2 48.5 124C50.1 123.8 52.4 123.4 52.9 121.6C53.4 119.8 51.8 118.8 50.3 118.6C48.3 118.3 46.2 118.5 44.1 118.8C44.4 115.7 44.7 112.6 44.9 109.5C45.2 105.8 45.6 102 45.3 98.3C48.1 97.9 50.5 96.4 51.6 93.6C52.7 90.7 52.4 87.4 52 84.4C51.1 77.8 50.2 71.3 49 64.8C51.5 65.9 54 66.9 56.5 67.8C58.4 68.5 60.3 69.1 62.2 69.7V70.9C62.6 76.5 63 82 63.3 87.6C63.6 92.3 63.8 97.2 66.4 101.3C68.7 104.9 72.8 107 76.8 108.4C81.8 110.2 87.4 111.1 91.7 114.4C92.1 114.7 92.6 114.6 93 114.4C96.9 112 100.8 109.7 104.8 107.4C106.1 106.7 105.3 105 104.1 105.2L103.9 105.3ZM28.1 119.8C28.8 119.8 29.5 119.8 30.1 119.9C30.3 119.9 30.6 119.9 30.7 120C31 120.2 30.9 120 30.7 120.3C30.5 120.7 29.6 120.8 29.3 120.9C28.6 121 27.8 121.1 27.1 121.1C26 121.1 24.9 120.9 23.9 120.5C23.9 120.4 23.9 120.3 23.9 120.2C25.3 119.9 26.6 119.8 28 119.8H28.1ZM11.7 47.2C5.9 42.4 2.4 35.9 2.4 28.7C2.4 21.5 5.9 15 11.7 10.2C17.5 5.4 25.5 2.4 34.4 2.4C43.3 2.4 51.3 5.4 57.1 10.2C62.9 15 66.4 21.5 66.4 28.7C66.4 35.9 62.9 42.4 57.1 47.2C51.3 52 43.3 55 34.4 55C25.5 55 17.5 52 11.7 47.2ZM44.7 56.8C45 58.2 45.3 59.7 45.6 61.1C45.6 61.1 45.4 61.1 45.4 61C43.2 59.9 41.1 58.5 38.9 57.2C40.9 57 42.9 56.6 44.7 56.1C44.7 56.3 44.7 56.5 44.7 56.8ZM47.9 120.6C48.6 120.6 49.3 120.6 49.9 120.7C50.1 120.7 50.4 120.7 50.5 120.8C50.8 121 50.7 120.8 50.5 121.1C50.3 121.5 49.4 121.6 49.1 121.7C48.4 121.8 47.6 121.9 46.9 121.9C45.8 121.9 44.7 121.7 43.7 121.3C43.7 121.2 43.7 121.1 43.7 121C45.1 120.7 46.4 120.6 47.8 120.6H47.9ZM49.9 89.4C49.8 92.2 48.7 94.9 45.7 95.7C44.2 96.1 42.7 96 41.2 96C39.3 96 37.3 96 35.4 95.9C32.1 95.9 28.6 96 25.3 95.3C18.2 93.7 19.2 85.6 19.6 80C19.9 75.7 20.3 71.4 20.8 67C21 64.9 21.3 62.8 21.6 60.7C21.8 59 22.2 57.2 22.1 55.4C25.9 56.6 30.1 57.3 34.5 57.3C35.1 57.3 35.8 57.3 36.4 57.3C39 59.6 42.2 61.3 45.3 62.9C45.6 63.1 45.9 63.2 46.2 63.4C47.2 68.7 48.2 74.1 49 79.5C49.5 82.7 50.2 86.1 50 89.4H49.9ZM48.5 62.4C48.2 60.6 47.8 58.7 47.5 56.9C49.4 57.8 51.3 58.5 53.3 59C55.8 59.7 58.5 60.3 61.1 60.4C61.3 60.4 61.4 60.4 61.5 60.4C61.5 61.1 61.5 61.7 61.6 62.4L61.9 67.6C57.3 66.2 52.8 64.5 48.5 62.5V62.4ZM80.5 58.6C80.7 58.6 80.8 58.6 81 58.7C81.2 58.7 81.3 58.8 81.5 58.9H81.7C81.7 59.3 81.8 59.5 81.9 59.7V59.9H82.1C82.1 60.1 82.2 60.2 82.3 60.3V60.5C82.3 60.6 82.3 60.7 82.3 60.9V61.4C82.3 61.6 82.2 61.7 82.1 61.9V62.1L81.9 62.3C81.9 62.5 81.7 62.5 81.6 62.6H81.5C81.7 62.6 81.5 62.7 81.4 62.8C80.9 63 80.5 63.1 80 63C79.9 63 79.8 63 79.7 63H79.4L79.2 62.8C79.1 62.7 78.9 62.6 78.8 62.5C78.4 62.2 78.1 61.8 77.9 61.3C77.7 60.8 77.6 60.2 77.9 59.7C77.9 59.6 78.1 59.4 78.2 59.3C78.4 59.1 78.6 59 78.9 58.9C79.5 58.7 80.1 58.7 80.7 58.8L80.5 58.6ZM63.7 67.8C63.7 67.8 63.9 67.7 63.9 67.6C64.8 66.4 65.7 65 67.2 64.4C68.2 64 69.9 64.1 70.2 65.4C70.4 66.5 69.5 67.7 68.5 68.2C67 68.9 65.2 68.5 63.7 68V67.7V67.8ZM92.2 112.4C88.6 109.9 84.3 108.7 80.2 107.5C76.1 106.3 71.7 104.8 68.8 101.6C65.7 98.1 65.4 93.3 65.1 88.8C64.8 83.3 64.4 77.8 64.1 72.3C64.1 71.6 64.1 70.9 64 70.2C65.4 70.6 66.8 70.8 68.2 70.5C71.1 69.9 73.8 66.4 71.7 63.6C70.6 62.2 68.7 61.9 67.1 62.4C65.7 62.8 64.6 63.8 63.6 64.9V63.2C63.3 60.1 63.3 57 62.7 54C66 54 69.2 53.5 72.4 52.8C74.1 52.4 75.8 51.9 77.5 51.3C78.1 51.1 78.7 50.9 79.3 50.7C79.1 52.8 79.1 54.9 79 57C78.7 57 78.5 57 78.2 57.1C77.5 57.3 76.8 57.8 76.3 58.4C75.8 59.2 75.6 60.1 75.8 61.1C76.1 62.7 77.4 64.2 79 64.6H79.1C79.4 69.6 79.9 74.6 80.5 79.6C81 83.9 81.2 88.8 83.4 92.6C85.5 96.2 89.2 97.9 93 99.3C95.1 100 97.2 100.7 99 101.9C100.6 102.9 101.7 104.2 102.6 105.8C99.1 108 95.7 110.1 92.2 112.2V112.4Z" fill="#242647"/>
</g>
<defs>
<clipPath id="clip0_76_22932">
<rect width="105.3" height="124" fill="white"/>
</clipPath>
</defs>
</svg>
