<svg width="99" height="135" viewBox="0 0 99 135" fill="none" xmlns="http://www.w3.org/2000/svg">
<path d="M57.7583 18.7438C57.7583 19.1187 57.7583 19.5873 57.9458 19.9622C58.2269 20.5245 58.6955 20.9931 59.2578 21.0868C59.8201 21.1805 60.4761 20.9931 60.851 20.4307C61.1322 20.0559 61.2259 19.5873 61.2259 19.2124C61.2259 18.9313 61.2259 18.6501 61.2259 18.369C61.2259 17.9941 61.3196 17.5255 61.2259 17.1506C61.2259 16.682 61.2259 16.1197 60.9447 15.6511C60.9447 15.4637 60.7573 15.2763 60.5699 15.1825C60.195 14.6202 59.6327 14.3391 59.0704 14.4328C58.5081 14.5265 58.0395 14.9014 57.852 15.4637C57.4772 16.2134 57.3834 17.2443 57.4772 18.0878C57.4772 18.2752 57.4772 18.5564 57.5709 18.7438H57.7583Z" fill="#242647"/>
<path d="M34.6104 15.1825C34.2355 14.6202 33.6732 14.3391 33.1109 14.4328C32.5486 14.5265 32.08 14.9014 31.8926 15.4637C31.5177 16.2134 31.424 17.2443 31.5177 18.0878C31.5177 18.2752 31.5177 18.5564 31.6114 18.7438C31.6114 19.1187 31.6114 19.5873 31.7988 19.9622C32.08 20.5245 32.5486 20.9931 33.1109 21.0868C33.6732 21.1805 34.3292 20.9931 34.7041 20.4307C34.9853 20.0559 35.079 19.5873 35.079 19.2124C35.079 18.9313 35.079 18.6501 35.079 18.369C35.079 17.9941 35.1727 17.5255 35.079 17.1506C35.079 16.682 35.079 16.1197 34.7978 15.6511C34.7978 15.4637 34.6104 15.2763 34.4229 15.1825H34.6104Z" fill="#242647"/>
<path d="M52.9786 25.4916C52.9786 25.2105 52.7912 25.1168 52.6037 25.1168C52.0414 25.1168 51.6665 25.3979 51.1979 25.5853C50.7294 25.7728 50.2608 25.9602 49.7922 26.1477C48.9487 26.4288 48.0115 26.6162 47.0744 26.5225C46.2309 26.5225 45.3874 26.2414 44.6377 25.8665C43.888 25.4916 43.4194 24.8356 42.8571 24.2733C42.1073 23.3361 40.5141 24.1796 40.9827 25.3042C41.4513 26.4288 42.5759 27.2723 43.6068 27.8346C44.544 28.3969 45.6686 28.678 46.7932 28.678C48.1053 28.678 49.4173 28.4906 50.5419 27.8346C51.4791 27.2723 52.7912 26.6162 53.0723 25.4916H52.9786Z" fill="#242647"/>
<path d="M96.6514 6.37294C94.4022 4.12371 91.3095 5.15461 89.9974 7.87243C89.2477 9.46563 89.0603 11.2463 88.8728 12.9332C88.6854 15.0887 88.5917 17.3379 88.5917 19.5872C88.5917 23.9919 89.0603 28.3029 89.9974 32.614C89.9974 32.9888 90.3723 33.27 90.6535 33.4574C88.4042 38.6119 85.4053 43.4852 81.9377 47.9837C79.9696 50.5141 77.8141 52.857 75.5649 55.1062C73.3157 57.2618 70.7853 59.1361 68.3486 61.1979C67.6926 59.9796 67.0366 58.7612 66.3805 57.5429C69.0046 56.2309 71.3476 54.7314 73.5031 52.9507C80.2508 47.4214 84.4681 39.6428 84.4681 31.0207C84.4681 22.3987 80.2508 14.6201 73.5031 9.09076C66.8491 3.37397 57.6648 0.00012207 47.4495 0.00012207C37.328 0.00012207 28.0499 3.37397 21.3022 8.99704C14.5545 14.5264 10.3372 22.305 10.3372 30.927C10.3372 39.5491 14.5545 47.3277 21.3022 52.857C24.1138 55.2 27.3939 57.168 30.9552 58.5738C30.7677 58.5738 30.5803 58.7612 30.4866 58.9487C29.7368 60.4482 29.4557 62.0414 29.1745 63.7283C27.019 61.9477 24.7698 60.167 22.708 58.1989C20.365 56.0434 18.3032 53.6068 16.3352 51.0764C12.8676 46.5779 9.96235 41.7046 7.6194 36.5501C7.90055 36.4564 8.18171 36.1752 8.27542 35.7066C9.2126 31.3956 9.68119 27.0846 9.68119 22.6799C9.68119 20.4306 9.68119 18.2751 9.40004 16.0259C9.2126 14.339 9.11889 12.4646 8.27542 10.9651C6.96337 8.34101 3.87068 7.31012 1.62145 9.46563C-0.721495 11.996 0.0282485 16.0259 0.496838 19.0249C1.3403 25.304 3.02722 31.3956 5.5576 37.2061C8.08799 43.0166 11.4618 48.4523 15.4917 53.3256C17.4598 55.7623 19.709 58.0115 21.9582 60.167C24.1138 62.1351 26.4567 64.1032 28.9871 65.6027C28.9871 65.7901 28.9871 65.9775 28.9871 66.0712C28.5185 68.5079 28.1436 70.9446 27.7687 73.3812C27.1127 77.786 26.2693 82.2844 26.0818 86.7829C25.8944 90.6253 26.5504 94.7489 29.2682 97.6542C31.7049 100.278 35.1725 101.59 38.7337 102.153C39.0149 102.153 39.2023 102.153 39.4835 102.246C39.4835 103.465 39.6709 104.683 39.7646 105.808C39.8584 107.776 39.9521 109.65 39.9521 111.618C39.9521 113.586 39.9521 115.648 39.9521 117.616C39.9521 118.178 39.6709 119.49 39.8584 120.428C39.5772 121.084 39.3898 121.74 39.1086 122.396C38.64 123.614 38.2652 124.926 37.8903 126.144C37.2343 128.206 35.7348 131.111 37.4217 133.08C38.7337 134.579 41.1704 134.485 42.951 133.736C43.8882 133.361 44.7317 132.705 45.294 131.768C45.95 130.643 45.8563 129.425 45.5752 128.206C45.2003 126.8 44.7317 125.395 44.2631 123.895C43.7945 122.396 43.4196 120.896 42.8573 119.397C42.7636 119.022 42.3887 118.834 42.0139 118.834C42.0139 118.272 42.0139 117.71 42.0139 117.429C42.0139 115.554 42.0139 113.586 42.0139 111.712C42.0139 109.744 41.8264 107.869 41.639 105.901C41.5453 104.777 41.5453 103.558 41.2641 102.34C44.7317 102.715 48.293 102.715 51.7605 102.621C54.8532 102.621 57.9459 102.528 61.0386 102.246C61.0386 103.465 61.226 104.683 61.3198 105.714C61.4135 107.682 61.5072 109.556 61.5072 111.524C61.5072 113.493 61.5072 115.554 61.5072 117.522C61.5072 118.085 61.226 119.397 61.4135 120.334C61.1323 120.99 60.9449 121.646 60.6637 122.302C60.1951 123.52 59.8203 124.832 59.4454 126.051C58.7894 128.112 57.2899 131.018 58.9768 132.986C60.2889 134.485 62.7255 134.392 64.5062 133.642C65.4434 133.267 66.2868 132.611 66.8491 131.674C67.5051 130.549 67.4114 129.331 67.1303 128.112C66.7554 126.707 66.2868 125.301 65.8182 123.801C65.3496 122.302 64.9748 120.803 64.4125 119.303C64.3187 118.928 63.9439 118.741 63.569 118.741C63.569 118.178 63.569 117.616 63.569 117.335C63.569 115.461 63.569 113.493 63.569 111.618C63.569 109.65 63.3816 107.776 63.1941 105.808C63.1004 104.683 63.1004 103.277 62.8192 101.965C63.9439 101.871 64.9748 101.684 66.0994 101.59C69.7544 101.028 73.5968 99.716 75.6586 96.4358C77.8141 93.062 77.533 88.8447 76.9706 85.0023C75.6586 77.0362 73.2219 69.3514 69.6607 62.1351C72.3785 60.6356 74.8151 58.5738 77.0644 56.512C79.4073 54.3565 81.5628 52.1073 83.5309 49.6706C87.5608 44.7973 90.9346 39.3616 93.465 33.5511C95.9954 27.7406 97.776 21.649 98.5258 15.3699C98.9006 12.3709 99.6504 8.34102 97.2137 5.99807L96.6514 6.37294ZM6.49478 33.7386C4.80786 29.4275 3.58953 24.9291 2.83979 20.3369C2.65235 19.0249 2.46491 17.6191 2.3712 16.2133C2.27748 14.7138 1.99632 12.8395 3.02722 11.5274C3.77696 10.4965 5.08902 10.2154 6.02619 11.34C6.77594 12.2772 6.96337 13.5892 7.15081 14.7138C7.99427 20.9929 7.71312 27.4595 6.49478 33.6449V33.7386ZM43.4196 128.581C43.7008 129.706 43.7945 130.83 42.7636 131.58C42.0139 132.142 41.0767 132.424 40.2332 132.424C39.3898 132.424 38.5463 132.142 38.5463 131.205C38.5463 129.987 39.1086 128.675 39.4835 127.55C39.8584 126.238 40.327 124.926 40.7018 123.614C40.8893 123.052 41.0767 122.396 41.2641 121.833C42.0139 124.083 42.9511 126.332 43.5134 128.581H43.4196ZM64.6936 128.581C64.9748 129.706 65.0685 130.83 64.0376 131.58C63.2878 132.142 62.3507 132.424 61.5072 132.424C60.6637 132.424 59.8203 132.142 59.8203 131.205C59.8203 129.987 60.3826 128.675 60.7575 127.55C61.1323 126.238 61.6009 124.926 61.9758 123.614C62.1632 123.052 62.3507 122.396 62.5381 121.833C63.2878 124.083 64.225 126.332 64.7873 128.581H64.6936ZM12.8676 30.927C12.8676 23.1484 16.71 16.0259 22.8954 10.8714C29.1745 5.71691 37.7966 2.43679 47.4495 2.43679C57.1025 2.43679 65.7245 5.71691 72.0036 10.8714C78.2827 16.0259 82.0314 23.1484 82.0314 30.927C82.0314 38.7056 78.189 45.8282 72.0036 50.9827C65.7245 56.1371 57.1025 59.4173 47.4495 59.4173C37.7966 59.4173 29.1745 56.1371 22.8954 50.9827C16.6163 45.8282 12.8676 38.7056 12.8676 30.927ZM73.7842 92.5934C73.1282 96.1547 70.3167 98.029 66.9428 98.8725C62.913 99.8097 58.6019 99.9034 54.4784 100.091C50.261 100.278 46.0437 100.372 41.8264 100.091C38.64 99.8097 35.2662 99.3411 32.5484 97.4667C29.4557 95.3112 28.4248 91.8437 28.4248 88.2824C28.4248 83.5965 29.362 78.8169 30.018 74.2247C30.3929 71.788 30.7677 69.3514 31.1426 66.9147C31.5175 64.478 32.3609 61.8539 32.0798 59.3236C32.0798 59.3236 32.0798 59.2298 32.0798 59.1361C36.7657 60.9168 42.0139 61.9477 47.4495 61.9477C53.3537 61.9477 58.9768 60.823 63.9439 58.7612C67.9737 65.7901 70.9727 73.475 72.7533 81.3473C73.5968 85.0023 74.534 88.9384 73.7842 92.6871V92.5934ZM96.0891 12.9332C95.9954 14.339 95.808 15.651 95.6205 17.0568C94.8708 21.649 93.6524 26.1474 91.9655 30.4584C90.7472 24.1793 90.5598 17.8065 91.3095 11.5274C91.4969 10.4028 91.6844 9.09076 92.4341 8.15358C93.2776 7.02896 94.5896 7.31012 95.4331 8.34101C96.464 9.65307 96.1828 11.5274 96.0891 13.0269V12.9332Z" fill="#242647"/>
</svg>
