<svg width="1168" height="421" viewBox="0 0 1168 421" fill="none" xmlns="http://www.w3.org/2000/svg">
<path d="M1078.29 490.483C1104.86 482.531 1133.06 476.169 1162.16 471.903L1167.19 399.504C1167.19 399.504 1137.37 397.206 1088.15 391.962C1082.31 374.802 1068.09 361.237 1049.04 356.426C1031.85 351.961 1014.29 356.432 1001.41 366.915C1001.09 361.709 999.518 356.273 996.591 351.229C991.634 343.237 984.236 338.009 976.378 335.27C976.467 324.351 973.215 314.101 967.36 304.013C949.562 274.993 911.448 265.371 882.42 283.158C870.002 291.153 860.858 302.326 856.576 315.042C840.629 310.806 822.911 312.675 807.774 321.454C800.517 325.901 795.012 331.315 790.014 337.466C179.406 292.074 -100.649 56.3156 -195.27 -134.855L-265.295 730.841L469.303 777.295C469.303 777.295 577.704 653.904 845.087 582.429C853.755 598.183 869.174 608.754 888.184 610.34C910.927 612.616 931.961 599.783 941.979 580.409C951.149 579.532 960.665 576.79 969.281 571.951C972.23 569.923 975.179 567.896 978.243 565.246C989.583 576.992 1008.36 579.822 1022.88 570.928C1031.61 565.468 1037.07 556.829 1039.41 547.615C1048.63 549.963 1058.54 548.579 1067.16 543.74C1084.5 533.441 1090 510.659 1079.58 493.938C1079.08 493.201 1077.95 492.348 1077.44 491.611L1078.29 490.483Z" fill="white"/>
</svg>
