<svg width="118" height="188" viewBox="0 0 118 188" fill="none" xmlns="http://www.w3.org/2000/svg">
<path d="M86.9033 46.0678L67.0859 38.7344L23.7193 156.013L43.5366 163.347L86.9033 46.0678Z" fill="#DDC226"/>
<path d="M86.0214 48.7087C71.954 86.791 57.8866 124.816 43.8766 162.898C36.5271 163.185 29.4073 160.543 24.0674 155.546C38.1348 117.464 52.2022 79.4388 66.2122 41.3564C66.2122 41.3564 70.6333 45.3772 75.3416 47.1578C79.0164 48.4789 86.0214 48.7087 86.0214 48.7087Z" fill="url(#paint0_linear_76_23002)"/>
<path d="M87.457 14.8197C86.9976 14.6474 86.5383 14.4751 86.079 14.3027C79.5908 22.9186 73.045 31.3622 67.3607 38.255C72.758 43.2522 79.8778 45.8944 87.1699 45.6072C86.8828 36.7041 87.1125 25.7332 87.457 14.8771V14.8197Z" fill="url(#paint1_linear_76_23002)"/>
<path d="M86.0217 48.7087L84.3566 53.189C77.1219 53.0741 70.1169 50.4893 64.5474 45.8367L66.2124 41.3564C71.6097 46.3537 78.7296 48.9959 86.0217 48.7087Z" fill="url(#paint2_linear_76_23002)"/>
<path d="M48.3552 150.664L46.6901 155.144C39.4554 155.029 32.4504 152.444 26.8809 147.792L28.5459 143.312C33.9432 148.309 41.0631 150.951 48.3552 150.664Z" fill="url(#paint3_linear_76_23002)"/>
<path d="M46.0588 156.925L44.3937 161.405C42.097 161.405 39.8577 161.06 37.6758 160.601C35.092 159.969 32.5656 159.05 30.2115 157.844C28.2018 156.81 26.307 155.546 24.5845 154.11L26.2495 149.63C31.6468 154.627 38.7667 157.269 46.0588 156.982V156.925Z" fill="url(#paint4_linear_76_23002)"/>
<path d="M51.9559 31.8799L31.5083 26.5518L-0.00014036 147.56L20.4474 152.888L51.9559 31.8799Z" fill="url(#paint5_linear_76_23002)"/>
<path d="M51.456 34.2335C41.293 73.522 31.0726 112.753 20.9096 152.042C13.675 153.076 6.26797 151.123 0.46875 146.7C10.6317 107.411 20.8521 68.1802 31.0151 28.8916C31.0151 28.8916 35.8383 32.4529 40.6614 33.7165C44.451 34.693 51.456 34.176 51.456 34.176V34.2335Z" fill="url(#paint6_linear_76_23002)"/>
<path d="M49.504 0.34464C49.0447 0.229761 48.5279 0.114879 48.0686 0C42.499 9.24775 36.8147 18.2657 31.8194 25.6754C37.676 30.0983 45.0254 31.9938 52.2601 31.0173C51.1117 22.1716 50.193 11.2581 49.504 0.402083V0.34464Z" fill="url(#paint7_linear_76_23002)"/>
<path d="M51.4566 34.2335L50.2508 38.8286C43.0161 39.403 35.7815 37.565 29.8101 33.4868L31.0158 28.8916C36.8724 33.3144 44.222 35.2099 51.4566 34.2335Z" fill="url(#paint8_linear_76_23002)"/>
<path d="M24.1828 139.463L22.9769 144.058C15.7423 144.633 8.50761 142.794 2.53613 138.716L3.7419 134.121C9.59854 138.544 16.9481 140.439 24.1828 139.463Z" fill="url(#paint9_linear_76_23002)"/>
<path d="M22.4606 145.953L21.2548 150.548C18.9581 150.721 16.7188 150.663 14.4795 150.376C11.8383 150.031 9.25443 149.342 6.78546 148.366C4.71841 147.561 2.70876 146.47 0.813965 145.206L2.01973 140.611C7.87637 145.034 15.2259 146.93 22.4606 145.953Z" fill="url(#paint10_linear_76_23002)"/>
<path d="M116.143 70.8883L96.4033 63.3477L51.8114 180.166L71.551 187.706L116.143 70.8883Z" fill="#E94F5D"/>
<path d="M115.306 73.4064C100.837 111.316 86.4247 149.226 71.9554 187.136C64.6059 187.366 57.5435 184.609 52.2036 179.612C66.673 141.702 81.0849 103.792 95.5542 65.8818C95.5542 65.8818 99.9753 69.96 104.626 71.7406C108.244 73.1192 115.306 73.4064 115.306 73.4064Z" fill="url(#paint11_linear_76_23002)"/>
<path d="M117.086 39.5179C116.627 39.3456 116.167 39.1733 115.708 39.001C109.162 47.5594 102.502 55.9456 96.7599 62.7235C102.1 67.7781 109.22 70.4778 116.512 70.248C116.34 61.3449 116.627 50.374 117.086 39.5179Z" fill="url(#paint12_linear_76_23002)"/>
<path d="M115.305 73.4064L113.583 77.8292C106.348 77.5995 99.3432 74.9573 93.8311 70.3047L95.5536 65.8818C100.893 70.9365 108.013 73.6362 115.305 73.4064Z" fill="url(#paint13_linear_76_23002)"/>
<path d="M76.6063 175.018L74.8837 179.441C67.6491 179.211 60.644 176.569 55.1318 171.916L56.8544 167.493C62.1943 172.548 69.3142 175.247 76.6063 175.018Z" fill="url(#paint14_linear_76_23002)"/>
<path d="M74.1944 181.221L72.4718 185.644C70.1751 185.586 67.9358 185.299 65.7539 184.725C63.1701 184.093 60.6437 183.116 58.2896 181.91C56.28 180.876 54.4426 179.613 52.6626 178.119L54.3851 173.696C59.725 178.751 66.8449 181.451 74.137 181.221H74.1944Z" fill="url(#paint15_linear_76_23002)"/>
<defs>
<linearGradient id="paint0_linear_76_23002" x1="46.0137" y1="101.5" x2="65.8329" y2="108.829" gradientUnits="userSpaceOnUse">
<stop stop-color="#DDC226"/>
<stop offset="0.5" stop-color="#FCDE21"/>
<stop offset="1" stop-color="#CFAD2E"/>
</linearGradient>
<linearGradient id="paint1_linear_76_23002" x1="73.3047" y1="27.6962" x2="93.1239" y2="35.0248" gradientUnits="userSpaceOnUse">
<stop stop-color="#DDC226"/>
<stop offset="0.5" stop-color="#FCDE21"/>
<stop offset="1" stop-color="#CFAD2E"/>
</linearGradient>
<linearGradient id="paint2_linear_76_23002" x1="87.8395" y1="54.4484" x2="65.112" y2="46.0444" gradientUnits="userSpaceOnUse">
<stop offset="0.2" stop-color="#1A1A1A"/>
<stop offset="0.5" stop-color="#666666"/>
<stop offset="1" stop-color="#333333"/>
</linearGradient>
<linearGradient id="paint3_linear_76_23002" x1="50.1299" y1="156.428" x2="27.4025" y2="148.024" gradientUnits="userSpaceOnUse">
<stop offset="0.2" stop-color="#1A1A1A"/>
<stop offset="0.5" stop-color="#666666"/>
<stop offset="1" stop-color="#333333"/>
</linearGradient>
<linearGradient id="paint4_linear_76_23002" x1="47.8195" y1="162.677" x2="25.0921" y2="154.273" gradientUnits="userSpaceOnUse">
<stop offset="0.2" stop-color="#1A1A1A"/>
<stop offset="0.5" stop-color="#666666"/>
<stop offset="1" stop-color="#333333"/>
</linearGradient>
<linearGradient id="paint5_linear_76_23002" x1="21.9168" y1="88.4538" x2="42.3653" y2="93.7782" gradientUnits="userSpaceOnUse">
<stop stop-color="#24913F"/>
<stop offset="0.5" stop-color="#22BE7F"/>
<stop offset="1" stop-color="#007E51"/>
</linearGradient>
<linearGradient id="paint6_linear_76_23002" x1="11.4096" y1="84.3431" x2="31.923" y2="89.6463" gradientUnits="userSpaceOnUse">
<stop stop-color="#24913F"/>
<stop offset="0.5" stop-color="#22BE7F"/>
<stop offset="1" stop-color="#007E51"/>
</linearGradient>
<linearGradient id="paint7_linear_76_23002" x1="31.1611" y1="8.17245" x2="51.6188" y2="13.4612" gradientUnits="userSpaceOnUse">
<stop stop-color="#24913F"/>
<stop offset="0.5" stop-color="#22BE7F"/>
<stop offset="1" stop-color="#007E51"/>
</linearGradient>
<linearGradient id="paint8_linear_76_23002" x1="48.3242" y1="33.3181" x2="24.8645" y2="27.2533" gradientUnits="userSpaceOnUse">
<stop offset="0.2" stop-color="#1A1A1A"/>
<stop offset="0.5" stop-color="#666666"/>
<stop offset="1" stop-color="#333333"/>
</linearGradient>
<linearGradient id="paint9_linear_76_23002" x1="21.1095" y1="138.588" x2="-2.40587" y2="132.509" gradientUnits="userSpaceOnUse">
<stop offset="0.2" stop-color="#1A1A1A"/>
<stop offset="0.5" stop-color="#666666"/>
<stop offset="1" stop-color="#333333"/>
</linearGradient>
<linearGradient id="paint10_linear_76_23002" x1="19.4422" y1="145.038" x2="-4.07314" y2="138.959" gradientUnits="userSpaceOnUse">
<stop offset="0.2" stop-color="#1A1A1A"/>
<stop offset="0.5" stop-color="#666666"/>
<stop offset="1" stop-color="#333333"/>
</linearGradient>
<linearGradient id="paint11_linear_76_23002" x1="73.7023" y1="125.853" x2="93.4437" y2="133.388" gradientUnits="userSpaceOnUse">
<stop stop-color="#CF3442"/>
<stop offset="0.5" stop-color="#F04E55"/>
<stop offset="1" stop-color="#B82B17"/>
</linearGradient>
<linearGradient id="paint12_linear_76_23002" x1="101.764" y1="52.3391" x2="121.506" y2="59.8749" gradientUnits="userSpaceOnUse">
<stop stop-color="#CF3442"/>
<stop offset="0.5" stop-color="#F04E55"/>
<stop offset="1" stop-color="#B82B17"/>
</linearGradient>
<linearGradient id="paint13_linear_76_23002" x1="116.017" y1="79.2416" x2="93.3791" y2="70.6001" gradientUnits="userSpaceOnUse">
<stop offset="0.2" stop-color="#1A1A1A"/>
<stop offset="0.5" stop-color="#666666"/>
<stop offset="1" stop-color="#333333"/>
</linearGradient>
<linearGradient id="paint14_linear_76_23002" x1="77.2434" y1="180.821" x2="54.605" y2="172.18" gradientUnits="userSpaceOnUse">
<stop offset="0.2" stop-color="#1A1A1A"/>
<stop offset="0.5" stop-color="#666666"/>
<stop offset="1" stop-color="#333333"/>
</linearGradient>
<linearGradient id="paint15_linear_76_23002" x1="74.867" y1="187.046" x2="52.2287" y2="178.404" gradientUnits="userSpaceOnUse">
<stop offset="0.2" stop-color="#1A1A1A"/>
<stop offset="0.5" stop-color="#666666"/>
<stop offset="1" stop-color="#333333"/>
</linearGradient>
</defs>
</svg>
