<svg width="27" height="42" viewBox="0 0 27 42" fill="none" xmlns="http://www.w3.org/2000/svg">
<path d="M17.2365 0.00298737C16.9229 -0.0283699 16.6407 0.191131 16.578 0.473347C16.5153 0.755562 16.7661 1.06913 17.0483 1.13185C18.6476 1.35135 20.3409 4.01672 20.2154 5.58458C20.2154 5.89816 20.4349 6.18037 20.7485 6.21173C20.7485 6.21173 20.7485 6.21173 20.7799 6.21173C21.0621 6.21173 21.3443 5.99223 21.3443 5.67866C21.5011 3.54636 19.4628 0.347917 17.1738 0.00298737H17.2365Z" fill="#3CBCFF"/>
<path d="M20.7485 7.84277C20.4349 7.84277 20.1841 8.09363 20.1841 8.4072V9.00299C20.1841 9.31657 20.4349 9.56742 20.7485 9.56742C21.0621 9.56742 21.3129 9.31657 21.3129 9.00299V8.4072C21.3129 8.09363 21.0621 7.84277 20.7485 7.84277Z" fill="#3CBCFF"/>
<path d="M1.02479 17.7515C0.836647 17.5006 0.46036 17.4693 0.209502 17.6888C-0.0413563 17.9083 -0.0727136 18.2532 0.146787 18.5041C0.397646 18.8176 0.711218 19.0999 0.993434 19.3507C1.08751 19.4448 1.24429 19.4761 1.36972 19.4761C1.49515 19.4761 1.68329 19.4134 1.80872 19.288C2.02822 19.0371 1.99687 18.6922 1.74601 18.4727C1.49515 18.2532 1.24429 18.0024 1.02479 17.7515Z" fill="#3CBCFF"/>
<path d="M25.7113 35.0607C25.3037 35.2488 24.9901 35.4997 24.7079 35.8446C24.4257 33.9632 24.5825 26.9392 24.7079 21.7652C24.8647 14.7725 25.0215 8.15616 24.5825 5.05179C24.3316 3.38985 23.14 2.07285 21.5408 1.63385C21.1959 1.53977 20.8196 1.47706 20.4747 1.47706C19.9416 1.47706 19.4085 1.60249 18.9068 1.79063C19.095 1.50842 19.2204 1.19484 19.3458 0.912629C19.4399 0.599056 19.2831 0.285483 19.0009 0.191411C18.6873 0.0973394 18.3737 0.254126 18.2797 0.536341C17.872 1.72792 16.3355 3.13899 15.1126 3.45257C14.799 3.51528 14.6109 3.82886 14.7049 4.14243C14.7676 4.39329 14.9871 4.58143 15.2694 4.58143C15.5516 4.58143 15.3634 4.58143 15.3948 4.58143C15.677 4.51872 15.9906 4.39329 16.3042 4.2365C13.9524 6.93323 11.4751 8.72059 8.93519 9.53588C6.70883 10.2571 5.48589 12.6089 6.20711 14.7725C6.77154 16.4972 8.3394 17.6574 10.1581 17.6574C10.5971 17.6574 11.0048 17.5947 11.4438 17.4693C13.1998 16.9048 14.8931 16.0896 16.555 15.0234C16.555 15.2429 16.555 15.4624 16.555 15.6819C14.799 16.654 12.7608 17.9083 10.9421 19.1626C10.6912 19.3507 10.6285 19.6956 10.7853 19.9465C10.9107 20.1033 11.0675 20.1974 11.2556 20.1974C11.4438 20.1974 11.4751 20.166 11.5692 20.1033C13.1684 19.0058 14.9244 17.9083 16.4923 16.9989C16.4923 18.5041 16.4296 20.0719 16.3982 21.6084C16.2101 30.0122 16.116 35.2802 16.6177 37.6947C16.994 39.6075 18.7187 41.0186 20.6942 41.0186C20.9764 41.0186 21.2586 41.0186 21.5408 40.9245C22.5129 40.7364 23.3595 40.2033 23.924 39.4821C23.9553 39.827 24.018 40.1719 24.1121 40.4542C24.1748 40.705 24.4257 40.8618 24.6452 40.8618C24.8647 40.8618 24.7706 40.8618 24.8333 40.8618C25.1469 40.7677 25.3037 40.4542 25.2096 40.1406C24.802 38.8863 25.0528 36.6599 26.1817 36.1896C26.4639 36.0641 26.6207 35.7192 26.4953 35.437C26.3698 35.1548 26.0249 34.998 25.7427 35.1234L25.7113 35.0607ZM18.4364 38.3846C18.7187 38.2591 19.0636 38.0396 19.5653 37.7574C19.1263 38.1024 18.8127 38.3532 18.5619 38.5414C18.4992 38.4786 18.4678 38.4159 18.4364 38.3532V38.3846ZM16.2101 6.40015C17.1822 5.86708 18.7814 4.92636 21.5722 3.20171C20.945 4.04836 18.5932 5.27129 16.0847 6.49422C16.116 6.46287 16.1474 6.43151 16.1787 6.40015H16.2101ZM7.4614 13.7378C10.6912 11.8877 20.3179 6.24337 22.6697 4.11107C22.701 4.17379 22.7638 4.2365 22.7951 4.29921C20.8823 5.71029 18.6559 7.27816 16.4609 8.72059C15.3634 9.34774 14.2659 9.94352 13.3252 10.4452C10.5344 11.9817 8.74705 12.9852 7.74362 13.6437C7.64954 13.6437 7.55547 13.7064 7.4614 13.7064V13.7378ZM17.7779 6.74508C19.095 5.89844 20.412 5.05179 21.384 4.42464C19.534 5.77301 15.9592 7.99937 12.3531 10.163C13.8269 9.25366 15.6143 8.09344 17.7779 6.71372V6.74508ZM7.80633 12.1385C8.1199 11.5741 8.65298 11.1351 9.31148 10.9156C11.1616 10.3198 12.9489 9.28502 14.6736 7.84259C15.2066 7.59173 15.7084 7.34087 16.1787 7.12137C13.2625 9.00281 9.49962 11.386 7.80633 12.1385ZM7.52411 12.8598C7.99447 12.703 8.62162 12.3894 9.49962 11.919C8.80976 12.3267 8.1199 12.7343 7.4614 13.1106C7.4614 13.0165 7.4614 12.9538 7.52411 12.8598ZM7.61819 14.4903C7.74362 14.3963 7.9004 14.3022 8.05719 14.2081C10.0013 13.6123 13.5761 11.4173 16.8059 9.25366C18.0915 8.53245 19.2204 7.9053 20.1611 7.30951C15.238 10.6961 9.56234 14.3335 7.6809 14.6471C7.6809 14.5844 7.61819 14.5217 7.61819 14.4903ZM14.4541 11.9817C13.6074 12.5462 12.7921 13.0479 12.0082 13.5183C10.2836 14.553 9.24877 15.0548 8.62162 15.3056C10.0013 14.553 12.165 13.2988 14.4541 11.9817ZM8.77841 15.87C9.09198 15.7446 9.46827 15.5878 9.87591 15.3997C9.49962 15.6505 9.21741 15.8387 8.99791 15.9955C8.93519 15.9641 8.84112 15.9328 8.77841 15.87ZM10.1581 16.2463C10.0013 16.2463 9.84455 16.2463 9.68777 16.215C10.6285 15.5878 12.1963 14.5217 13.8269 13.4242C16.0847 11.919 18.6559 10.163 20.6942 8.78331C21.9798 7.9053 22.7951 7.34087 23.3595 6.96458C23.3595 7.15273 23.3595 7.37223 23.3909 7.59173C22.6697 7.96802 21.3527 8.90873 19.095 10.5707C16.3982 12.5462 12.6354 15.3056 10.4717 16.2463C10.3776 16.2463 10.3149 16.2463 10.2208 16.2463H10.1581ZM22.3875 31.3292C22.6697 31.141 22.9205 30.9843 23.14 30.8275C23.14 30.8588 23.14 30.8902 23.14 30.9529C22.9205 31.047 22.6697 31.1724 22.3875 31.3605V31.3292ZM17.7152 28.5384C17.8407 28.413 17.9974 28.2875 18.1856 28.0994C19.1577 27.629 20.6315 26.6256 22.6697 25.1832C22.8578 25.0577 23.0146 24.9323 23.2028 24.8069C23.2028 25.0891 23.2028 25.3713 23.2028 25.6535C20.8823 27.5036 18.6559 28.946 17.7152 29.2596C17.7152 29.0087 17.7152 28.7892 17.7152 28.5384ZM17.7152 27.6917C17.872 27.5977 18.0288 27.4722 18.2483 27.3155C18.1229 27.4095 17.9974 27.5036 17.872 27.5977C17.8093 27.5977 17.7779 27.6604 17.7152 27.6604V27.6917ZM23.2028 24.0857C22.607 24.4306 22.0425 24.7755 21.5095 25.0891C22.2307 24.5874 22.7638 24.1797 23.2028 23.8348C23.2028 23.9289 23.2028 23.9916 23.2028 24.0857ZM23.14 26.6256C23.14 26.6256 23.14 26.6256 23.1087 26.6256C23.1087 26.6256 23.1087 26.6256 23.14 26.6256ZM23.1087 30.0749C22.5443 30.5139 21.5095 31.1724 20.6942 31.6741C20.4747 31.8309 20.2238 31.9563 20.0357 32.1131C20.0357 32.1131 20.0357 32.1131 20.067 32.0818C20.9764 31.4233 22.3248 30.3885 23.1087 30.0122C23.1087 30.0122 23.1087 30.0749 23.1087 30.1063V30.0749ZM23.2655 21.044C22.4188 21.3889 20.8823 22.3296 18.0915 24.2111C17.9661 24.3052 17.872 24.3679 17.7466 24.4306C17.7466 24.3992 17.7466 24.3365 17.7466 24.2738C18.4364 23.6467 19.9102 22.5805 22.8578 20.7931C23.0146 20.6991 23.14 20.605 23.2655 20.5423C23.2655 20.6991 23.2655 20.8559 23.2655 21.0126V21.044ZM23.3282 18.5041C23.14 18.6295 22.9833 18.7549 22.7951 18.8803C22.9833 18.7236 23.1714 18.5668 23.3282 18.41C23.3282 18.4413 23.3282 18.4727 23.3282 18.5041ZM17.8093 21.6084C17.8093 21.6084 17.8093 21.6084 17.8093 21.5771C17.8093 21.2635 17.8093 20.9813 17.8093 20.6677C18.5619 20.2601 20.0984 19.3507 23.3282 17.4693C23.3282 17.5006 23.3282 17.5633 23.3282 17.5947C22.4502 18.4727 20.4433 19.9779 17.8093 21.5771V21.6084ZM23.3595 16.8108C22.7951 17.1557 22.1993 17.5006 21.5722 17.8456C22.3561 17.2811 22.9205 16.8735 23.3595 16.5599C23.3595 16.6226 23.3595 16.7167 23.3595 16.8108ZM23.3595 15.6192C23.1087 15.776 22.7638 16.0268 22.262 16.3404C21.384 16.9362 19.9102 17.9083 18.7814 18.5668C19.8475 17.7515 21.4154 16.5913 23.3909 15.1488C23.3909 15.3056 23.3909 15.4624 23.3909 15.6192H23.3595ZM23.3909 11.6995C22.9833 11.8877 22.3875 12.2326 21.4154 12.797C22.2934 12.1699 22.9205 11.7309 23.3909 11.4173C23.3909 11.5114 23.3909 11.6055 23.3909 11.6995ZM17.9347 14.2395C19.7535 12.9538 21.6662 11.7309 22.8578 11.0724C22.3248 11.48 21.6035 11.9504 21.0077 12.358C19.534 13.3928 18.5619 14.0827 17.9347 14.553C17.9347 14.4276 17.9347 14.3335 17.9347 14.2395ZM23.3909 10.2257C22.1366 10.7275 19.7221 12.3267 18.1542 13.3928C18.4051 13.1733 18.7814 12.8598 19.3145 12.5148C20.5374 11.6682 22.1052 10.7588 23.1087 10.1317C23.2028 10.069 23.2968 10.0062 23.3909 9.97488C23.3909 10.069 23.3909 10.1317 23.3909 10.2257ZM17.9347 15.5565C19.2517 14.7412 20.8823 13.7691 22.168 13.0165C21.5095 13.4869 20.7569 13.9886 20.1611 14.3963C19.1577 15.0861 18.4364 15.5565 17.9347 15.9328C17.9347 15.8073 17.9347 15.6819 17.9347 15.5565ZM23.3595 8.31295C22.2307 9.44181 18.9382 11.6368 15.1126 13.9886C16.3982 13.1106 17.8407 12.0758 19.3772 10.947C20.851 9.84945 22.4815 8.65788 23.3909 8.15616C23.3909 8.21887 23.3909 8.28159 23.3909 8.3443L23.3595 8.31295ZM18.7814 16.2777C19.8162 15.5565 22.2307 13.8632 23.3909 13.3615C23.3909 13.4555 23.3909 13.5496 23.3909 13.6437C23.1714 13.8318 22.8892 14.02 22.5443 14.2395C21.9798 14.5217 21.2272 14.992 20.2865 15.6192C20.1925 15.6819 20.1297 15.7133 20.0357 15.776C19.095 16.3404 18.3737 16.7481 17.872 17.093C17.872 17.0303 17.872 16.9676 17.872 16.9048C18.0915 16.7481 18.3737 16.5599 18.75 16.2777H18.7814ZM17.872 18.0651C17.872 18.0651 17.872 18.0651 17.9034 18.0337C19.0009 17.2184 19.9102 16.5913 20.6315 16.0896C21.5722 15.5565 22.3248 15.0861 22.8892 14.7098C22.9519 14.6785 23.0146 14.6471 23.0773 14.6158C20.2865 16.654 18.7187 17.8142 17.8407 18.5041C17.8407 18.3786 17.8407 18.2218 17.8407 18.0964L17.872 18.0651ZM17.8407 19.6643C17.9034 19.6643 17.9974 19.6016 18.0602 19.5702C17.9661 19.6329 17.9034 19.6956 17.8407 19.727C17.8407 19.727 17.8407 19.6956 17.8407 19.6643ZM17.7779 22.5805C17.872 22.5492 17.9974 22.4864 18.0915 22.4551C17.9661 22.5492 17.872 22.6119 17.7779 22.6746C17.7779 22.6432 17.7779 22.6119 17.7779 22.5805ZM18.4051 24.6814C19.5026 23.9602 22.0425 22.2356 23.2341 21.6398C23.2341 21.6398 23.2341 21.6711 23.2341 21.7025C23.2341 21.7025 23.2341 21.7339 23.2341 21.7652C22.4502 22.3924 20.851 23.3958 19.7848 24.0229C18.8755 24.5874 18.1856 24.995 17.7152 25.3086C17.7152 25.2459 17.7152 25.1832 17.7152 25.1204C17.9034 24.995 18.1229 24.8696 18.4051 24.6501V24.6814ZM17.7152 26.218C19.8475 24.7128 22.1366 23.2077 23.2341 22.7373C23.2341 22.8627 23.2341 22.9568 23.2341 23.0822C22.3561 23.8975 20.4433 25.1518 19.2831 25.9044C18.5932 26.3434 18.0915 26.6883 17.7152 26.9705C17.7152 26.7197 17.7152 26.4688 17.7152 26.218ZM17.6525 30.6707C19.6594 29.2596 21.7917 27.8799 22.9519 27.3155C22.3875 27.7231 21.5095 28.2248 20.7882 28.6952C19.3772 29.5418 18.3424 30.2003 17.6839 30.702L17.6525 30.6707ZM18.2169 31.4233C17.9974 31.58 17.8093 31.7682 17.6525 31.8936C17.6525 31.8623 17.6525 31.8309 17.6525 31.7995C17.8407 31.6741 18.0288 31.5487 18.2169 31.4233ZM23.1087 28.7892C23.1087 28.9774 23.1087 29.1655 23.1087 29.3537C22.3875 29.6359 21.2586 30.4512 19.7221 31.58C19.0636 32.0818 18.2169 32.7089 17.6525 33.0538C17.6525 32.9284 17.6525 32.803 17.6525 32.6776C18.2797 32.0504 19.7535 30.8588 23.1087 28.7892ZM17.7152 34.4022C18.4364 33.7751 19.973 32.803 21.0077 32.1445C21.0705 32.1131 21.1332 32.0818 21.1959 32.019C20.7569 32.3326 20.2238 32.6776 19.628 33.0852C19.0009 33.5242 18.2483 34.0573 17.7152 34.3708V34.4022ZM23.1087 31.9563C23.1087 32.0504 23.1087 32.1758 23.1087 32.2699C22.3875 32.7089 21.5722 33.2106 20.7882 33.681L23.1087 31.9563ZM23.1714 34.8412C22.4188 35.3116 21.6349 35.8133 20.9137 36.2523C21.9485 35.4683 22.6697 34.9039 23.1714 34.4963C23.1714 34.6217 23.1714 34.7158 23.1714 34.8412ZM23.2341 35.6251C23.2341 35.6565 23.2341 35.7192 23.2341 35.7506C23.1087 35.8133 22.9519 35.876 22.7951 35.9701C22.9519 35.8446 23.1087 35.7506 23.2341 35.6251ZM17.7466 35.0293C18.1856 34.7785 18.8441 34.3395 19.9416 33.5556C20.067 33.4615 20.1925 33.3988 20.3179 33.3047L17.7466 35.2175C17.7466 35.1548 17.7466 35.0921 17.7466 35.0293ZM17.8407 36.3777C17.8407 36.2836 17.8407 36.1582 17.8093 36.0328C18.1856 35.8446 18.8127 35.4997 19.7535 34.9353C19.095 35.4056 18.4678 35.9074 17.8407 36.3464V36.3777ZM17.9974 37.3811C18.5619 37.0989 19.3772 36.4718 20.506 35.5938C21.29 34.9666 22.4502 34.0259 23.14 33.681C23.14 33.7123 23.14 33.7437 23.14 33.7751C22.1993 34.5903 20.0357 36.1896 18.8755 37.0362C18.5305 37.2871 18.2797 37.4752 18.0602 37.632C18.0602 37.5693 18.0288 37.4752 17.9974 37.4125V37.3811ZM19.095 39.0117C19.1577 38.949 19.2204 38.9176 19.3145 38.8549C19.2517 38.9176 19.189 38.9804 19.1577 39.0117C19.1577 39.0117 19.1577 39.0117 19.1263 39.0117H19.095ZM23.3595 36.6599C23.3595 36.7226 23.3595 36.754 23.3595 36.8167C22.9833 37.0362 22.4502 37.4125 21.6349 38.0083C21.0705 38.4159 20.2552 39.0117 19.6907 39.3567C19.6907 39.3567 19.6594 39.3567 19.628 39.3567C20.2865 38.7295 21.7917 37.6634 23.3595 36.6913V36.6599ZM20.7255 39.3567C20.6628 39.4194 20.6315 39.4821 20.5687 39.5134C20.5687 39.5134 20.506 39.5134 20.4747 39.5134C20.5374 39.4507 20.6315 39.4194 20.7255 39.3567ZM21.9485 38.9804C22.2934 38.6668 22.6697 38.3532 23.0146 38.1024C22.9519 38.2278 22.8892 38.3219 22.7951 38.4159C22.5756 38.5414 22.2934 38.7295 21.9485 38.9804ZM20.7882 2.91949C19.7221 3.578 18.4992 4.33057 17.433 4.95772C17.4957 4.895 17.5584 4.80093 17.6212 4.73822C18.4992 3.98564 19.0322 3.48393 19.3772 3.10764C19.6907 2.98221 20.0357 2.91949 20.3806 2.91949C20.7255 2.91949 20.6315 2.91949 20.7569 2.91949H20.7882Z" fill="#3CBCFF"/>
<path d="M20.435 30.1681C20.1215 30.1367 19.8392 30.3249 19.7765 30.6384C19.6825 31.2342 19.6197 31.8614 19.5884 32.4572C19.5884 32.7707 19.8079 33.0529 20.1215 33.0843C20.1215 33.0843 20.1215 33.0843 20.1528 33.0843C20.435 33.0843 20.6859 32.8648 20.7172 32.5512C20.7486 31.9554 20.8427 31.391 20.9054 30.7952C20.9367 30.4816 20.7486 30.1994 20.435 30.1367V30.1681Z" fill="#3CBCFF"/>
<path d="M9.71058 35.6252C9.71058 35.3116 9.52244 35.0294 9.20887 34.998C8.89529 34.998 8.61308 35.1862 8.58172 35.4998C8.45629 36.8795 8.55036 38.8236 9.71058 40.1093C9.83601 40.2347 9.9928 40.2974 10.1182 40.2974C10.2437 40.2974 10.4004 40.2347 10.4945 40.1406C10.714 39.9211 10.7454 39.5762 10.5259 39.3254C9.61651 38.3533 9.58516 36.7541 9.67923 35.5938L9.71058 35.6252Z" fill="#3CBCFF"/>
</svg>
