<svg width="32" height="40" viewBox="0 0 32 40" fill="none" xmlns="http://www.w3.org/2000/svg">
<path d="M28.4527 33.1081C28.3917 33.0167 28.3002 32.9557 28.2392 32.8947C28.4527 32.8337 28.6356 32.7422 28.8186 32.6203C29.0625 32.4373 29.1235 32.1019 28.971 31.8579C28.7881 31.614 28.4527 31.553 28.2087 31.7055C27.9343 31.8884 27.5989 31.9494 27.2634 31.8884C26.7146 31.7664 26.1657 31.3395 25.8608 30.7907C25.7083 30.5162 25.3729 30.4248 25.0984 30.5772C24.824 30.7297 24.7325 31.0651 24.885 31.3395C24.9765 31.5225 25.0984 31.7055 25.2509 31.8579C24.763 31.8579 24.1836 31.8579 23.4823 31.8579C22.0796 31.8579 20.372 31.8579 18.5424 31.9189C17.8411 31.9189 17.0788 31.9189 16.3469 31.9189C17.2008 31.0651 18.2375 30.3333 19.2743 29.6014C20.0976 29.0221 20.9209 28.4122 21.6527 27.7719C21.8967 27.5584 21.8967 27.223 21.7137 26.979C21.5003 26.7351 21.1648 26.7351 20.9209 26.9181C20.2501 27.5279 19.4572 28.0768 18.6339 28.6867C17.2617 29.6624 15.8591 30.6687 14.8528 31.9189C14.2734 31.9189 13.6941 31.9189 13.1452 31.9189C13.6636 31.431 14.2124 30.9126 14.8528 30.4248C18.7254 27.345 22.6895 24.0517 25.1289 20.545C25.5863 19.9047 25.9522 19.2643 26.2877 18.624C26.3487 18.7764 26.4096 18.9289 26.5316 19.0814C26.6536 19.2338 26.806 19.3253 26.989 19.3253C27.172 19.3253 27.2025 19.2948 27.3244 19.2338C27.5684 19.0509 27.6294 18.7154 27.4464 18.4715C27.2329 18.1666 27.2025 17.6177 27.3854 17.0383C27.5684 16.398 27.9648 15.8491 28.3612 15.6966C28.6356 15.5747 28.7881 15.2697 28.6661 14.9648C28.5441 14.6904 28.2392 14.5379 27.9343 14.6599C27.8123 14.7209 27.6903 14.7818 27.5989 14.8428C28.1172 11.5801 27.0805 8.8967 25.8303 6.97564C25.2814 6.12184 24.5801 5.35951 23.8177 4.68867C23.8177 4.68867 23.8177 4.68867 23.8482 4.68867C24.1532 4.68867 24.4581 4.68867 24.7325 4.62768C25.0375 4.59719 25.2509 4.29226 25.1899 3.98733C25.1594 3.6824 24.8545 3.46895 24.5496 3.52993C23.2993 3.71289 21.9882 3.40796 21.1648 2.7981C20.6465 2.40169 20.3415 1.85282 20.2501 1.21246C20.2196 0.907535 19.9451 0.694084 19.6402 0.724577C19.3353 0.75507 19.1218 1.02951 19.1523 1.33444C19.1828 1.70035 19.2743 2.00528 19.4267 2.34071C18.0851 1.9138 16.6519 1.66986 15.1577 1.66986C13.6636 1.66986 13.0537 1.79183 12.0474 2.00528C6.74165 3.16402 2.96052 7.12811 2.1982 12.3729C2.04573 13.4402 2.32017 14.5074 2.96052 15.3612C3.60087 16.215 4.54616 16.7944 5.61341 16.9469C5.79637 16.9469 6.00982 16.9773 6.19278 16.9773C8.17482 16.9773 9.88243 15.4832 10.1874 13.5316C10.3093 12.6168 10.6753 11.9155 11.1022 11.3666L13.0842 10.0859C13.2976 9.99445 13.5416 9.93346 13.755 9.90297C14.2124 9.81149 14.6698 9.7505 15.1577 9.7505C16.8653 9.7505 18.39 10.3909 19.0303 11.3971C19.4572 12.0375 19.6707 12.7388 19.5792 13.5316C19.1523 12.3119 18.2375 11.4276 17.1703 10.9397C15.3712 10.1469 12.7793 10.3299 11.3461 12.6473C11.1936 12.9218 11.2546 13.2572 11.5291 13.4097C11.8035 13.5621 12.1389 13.5011 12.2914 13.2267C13.3891 11.4886 15.3407 11.3361 16.7129 11.946C17.9021 12.4949 19.0913 13.8366 18.5424 15.8491C17.5057 17.3738 15.6151 19.2948 12.5353 21.8867C11.4071 22.6185 10.6143 23.2284 10.2788 23.7468C10.1264 23.8688 9.97391 23.9907 9.82145 24.1127C6.1013 27.0705 3.60088 30.3028 1.98475 34.2669C1.49686 35.4561 1.61883 36.8283 2.28968 37.8955C2.96052 38.9933 4.11926 39.6946 5.39996 39.8166C6.9856 39.9386 9.1506 39.9996 12.1084 39.9996C15.0662 39.9996 16.5299 39.9691 18.7254 39.9386C20.494 39.9386 22.2016 39.8776 23.5433 39.8776C24.885 39.8776 24.946 39.8776 25.4034 39.8776C27.6598 39.9691 29.5199 38.231 29.5809 36.005C29.6114 34.9377 29.2455 33.901 28.5137 33.1081H28.4527ZM24.824 38.4749C24.763 38.4749 24.6715 38.4749 24.6105 38.4749C24.885 38.3224 25.2204 38.1395 25.5863 37.8955C25.2509 38.1395 25.007 38.3224 24.824 38.4749ZM18.6339 38.5054C18.512 38.5054 18.39 38.5054 18.268 38.5054C18.7254 38.2615 19.2438 37.9565 19.7622 37.6516C19.2743 38.0175 18.9389 38.292 18.6949 38.5054C18.6949 38.5054 18.6339 38.5054 18.6034 38.5054H18.6339ZM15.0053 38.5664C15.3712 38.2919 15.7676 37.987 16.164 37.7126C16.5604 37.4991 16.9873 37.2552 17.3532 37.0417C20.1281 35.4866 22.2016 34.2669 22.8115 33.3216C22.9029 33.2911 22.9639 33.2301 23.0554 33.1996C23.2079 33.1996 23.3603 33.1996 23.4823 33.1996C23.6043 33.1996 23.7567 33.1996 23.8787 33.1996C22.9639 33.84 21.6527 34.7243 20.3415 35.6391C18.0546 37.2247 16.8043 38.0785 16.1335 38.5969C15.7676 38.5969 15.3712 38.5969 15.0053 38.5969V38.5664ZM13.2367 38.5664C13.9685 38.048 14.8528 37.3772 15.9505 36.5234C17.4142 35.3951 19.2438 33.9924 20.616 33.1691C21.0429 33.1691 21.4698 33.1691 21.8967 33.1691C19.9451 34.2669 17.5972 35.9135 15.8591 37.2247C14.8223 37.8346 14.1515 38.231 13.755 38.5664C13.5721 38.5664 13.3891 38.5664 13.2367 38.5664ZM10.5533 38.5664C11.4986 38.0175 12.9012 37.1637 15.0967 35.8525C16.0725 35.2731 17.0788 34.6633 17.9631 34.1144C16.164 35.4256 13.5721 37.1942 11.4986 38.5664C11.1631 38.5664 10.8582 38.5664 10.5533 38.5664ZM8.69321 13.5926C8.38828 13.7756 7.96137 14.0195 7.29053 14.4464C7.80891 14.05 8.2968 13.6841 8.69321 13.4097C8.69321 13.4097 8.7237 13.4097 8.75419 13.3792C8.75419 13.4706 8.7237 13.5316 8.69321 13.5926ZM6.77215 15.4527C6.86362 15.3917 6.9856 15.3307 7.07708 15.2392C7.19905 15.1478 7.35151 15.0563 7.50398 14.9648C7.35151 15.0868 7.19905 15.2392 7.07708 15.3307C6.9856 15.3612 6.86362 15.3917 6.77215 15.4222V15.4527ZM3.60087 13.5011C3.9058 13.3487 4.30221 13.1047 4.88158 12.7693C4.3632 13.1047 3.96679 13.4097 3.66186 13.6841C3.66186 13.6231 3.63137 13.5621 3.60087 13.5011ZM17.6886 3.2555C17.5362 3.34697 17.3532 3.46895 17.1398 3.59092C17.2922 3.46895 17.4142 3.34697 17.5362 3.225C17.5972 3.225 17.6581 3.225 17.6886 3.2555ZM14.5784 8.28684C14.5479 8.28684 14.4869 8.28684 14.4564 8.28684C16.5909 6.85367 18.7864 5.39001 20.1586 4.68867L15.1272 7.98191C14.9443 8.10388 14.7613 8.19536 14.5784 8.31733V8.28684ZM21.8357 4.9631C21.8357 4.9631 21.8967 4.9936 21.9272 5.02409C21.8052 5.08508 21.6832 5.17655 21.5917 5.23754C21.6832 5.14606 21.7747 5.05458 21.8662 4.9631H21.8357ZM19.7317 3.86536C18.6034 4.90212 14.6698 7.09761 11.6815 8.74424C10.0349 9.65903 8.57123 10.4823 7.35151 11.1837C7.80891 10.9092 8.32729 10.5738 8.87616 10.2384C11.1326 8.8967 13.6026 7.37205 15.5541 6.09134C17.2617 5.05458 18.7559 4.20078 19.5792 3.80437C19.6097 3.80437 19.6707 3.83486 19.7012 3.86536H19.7317ZM3.75334 11.1532C5.15602 9.99445 8.2968 8.40881 10.9497 7.06712C12.6573 6.21332 14.06 5.48148 15.1577 4.87162C14.6088 5.23754 14.0295 5.63395 13.3281 6.09134C10.2179 8.16487 5.27799 11.4581 3.53989 12.068C3.60087 11.763 3.66186 11.4581 3.75334 11.1837V11.1532ZM4.27172 9.65903C4.39369 9.59804 4.54616 9.50656 4.72912 9.41508C4.54616 9.53705 4.39369 9.65903 4.24123 9.7505C4.24123 9.72001 4.24123 9.68952 4.27172 9.65903ZM18.085 3.6519C17.4752 4.13979 16.5299 4.78015 15.3407 5.57296C14.3954 6.15233 13.2976 6.82318 12.0169 7.61599C12.5353 7.28057 13.0842 6.91466 13.6331 6.54874C15.2492 5.48148 17.0178 4.29226 18.085 3.6519ZM16.8653 3.10303C15.8591 3.95683 12.8403 5.48148 10.7057 6.57923C10.5838 6.64022 10.4313 6.7012 10.3093 6.79268C13.6941 4.68867 15.2187 3.62141 15.8591 3.01155C16.1945 3.01155 16.5299 3.07254 16.8653 3.10303ZM14.4564 2.98106C12.8403 3.83486 10.7057 5.23754 8.47975 6.76219C10.2788 5.45099 12.4743 3.86536 13.999 3.01155C14.1515 3.01155 14.3039 3.01155 14.4564 2.98106ZM9.21159 4.50571C8.35778 5.11557 7.26004 5.90839 6.37574 6.45726C7.35151 5.45099 8.51025 4.65817 9.82145 4.04831C9.60799 4.20078 9.42504 4.35324 9.18109 4.50571H9.21159ZM5.43045 7.61599C5.70489 7.52452 6.00982 7.34156 6.40623 7.09761C5.97933 7.40254 5.55243 7.70747 5.15602 8.0124C5.2475 7.85994 5.33897 7.73797 5.43045 7.61599ZM3.44841 12.6168C3.63137 12.5559 3.84482 12.4949 4.11926 12.3729C3.90581 12.4949 3.66186 12.6168 3.44841 12.7693C3.44841 12.7083 3.44841 12.6778 3.44841 12.6168ZM4.27172 14.7818C4.66813 14.5989 5.18651 14.3549 5.79637 13.989L4.42419 14.8733C4.39369 14.8428 4.33271 14.8123 4.30221 14.7514L4.27172 14.7818ZM3.9058 14.3549C3.87531 14.294 3.81433 14.233 3.78383 14.172C4.63764 13.3487 7.38201 11.763 10.0349 10.2689C9.85194 10.4518 9.69947 10.6653 9.54701 10.9092C7.22954 12.4644 4.91207 13.9585 3.9058 14.3549ZM18.7254 6.3048C19.6707 5.69494 20.677 5.02409 21.2868 4.68867C21.1343 4.84113 20.8904 5.08508 20.4635 5.35951C19.6707 5.93888 18.5729 6.57923 17.6277 7.1586C16.7434 7.67698 16.1335 8.0429 15.7371 8.31733C15.6761 8.31733 15.6456 8.31733 15.5846 8.31733C16.4079 7.82944 17.4142 7.1586 18.6949 6.33529L18.7254 6.3048ZM17.7496 8.19536C17.5972 8.34783 17.4752 8.4698 17.3837 8.62226C17.3227 8.62226 17.2312 8.56128 17.1398 8.56128C17.3227 8.4698 17.5362 8.34783 17.7496 8.22585V8.19536ZM21.7747 5.8474C22.0491 5.66444 22.2626 5.51198 22.4151 5.39001C22.598 5.54247 22.781 5.69494 22.9639 5.8474C20.9819 7.06712 18.9389 8.31733 17.9631 8.83571C17.9631 8.83571 17.9326 8.83571 17.9021 8.83571C18.6644 7.98191 20.9209 6.45726 21.7442 5.87789L21.7747 5.8474ZM7.44299 34.2974C6.40623 34.9682 5.15602 35.7915 4.21073 36.3709C5.73538 35.3036 8.41877 33.5655 11.1022 31.8884C11.0412 31.9799 10.9497 32.0409 10.8887 32.1324C10.2179 32.4983 9.1506 33.1996 7.44299 34.2974ZM12.3524 30.4248C12.5658 30.3028 12.7488 30.1808 12.9317 30.0588C12.9317 30.0588 12.9012 30.0893 12.8707 30.1198C12.6878 30.2418 12.5048 30.3333 12.3219 30.4552L12.3524 30.4248ZM17.4447 26.0338C15.7371 26.9181 13.816 27.8633 11.9864 28.7476C9.36405 30.0283 7.16856 31.0956 5.52193 31.9799C7.68694 30.3333 10.4618 28.3207 13.1452 26.5217C15.0053 25.5154 16.8653 24.5396 18.512 23.6858C19.7012 23.0454 20.7074 22.5576 21.5003 22.1307C21.6527 22.1307 21.8052 22.1307 21.9272 22.1307C20.9209 23.2284 19.7927 24.3262 18.5729 25.3934C18.268 25.5764 17.9021 25.7898 17.4447 26.0338ZM3.53989 33.84C4.97306 32.8032 7.77841 31.4005 10.6143 30.0283C7.74792 31.7055 4.88158 33.3521 3.38742 34.2059C3.44841 34.0839 3.4789 33.9619 3.53989 33.84ZM26.1962 13.9585C26.1962 13.989 26.1962 14.05 26.1962 14.0805C25.3119 14.8123 23.3298 15.9101 21.3478 16.9773C21.6222 16.8249 21.8662 16.6419 22.1711 16.459C23.6043 15.5747 25.2814 14.5074 26.2267 13.9585H26.1962ZM25.4948 13.7146C25.7693 13.5316 26.0437 13.3487 26.2267 13.1962C26.2267 13.2267 26.2267 13.2572 26.2267 13.3182C26.0437 13.4097 25.7998 13.5621 25.4948 13.7451V13.7146ZM22.9639 20.0266C23.4518 19.6912 23.9092 19.3863 24.3056 19.0814C24.1836 19.2643 24.0617 19.4473 23.9397 19.6607C23.6653 19.7217 23.3603 19.8437 22.9639 20.0266ZM25.5253 16.7334C25.3729 16.8554 25.2204 16.9469 25.0679 17.0688C25.007 17.0688 24.946 17.0688 24.885 17.0688C25.1289 16.9164 25.3424 16.7639 25.5558 16.6419C25.5558 16.6724 25.5558 16.7029 25.5253 16.7334ZM25.0679 17.7702C25.0679 17.8007 25.0374 17.8616 25.007 17.8921C24.2141 18.5325 23.0554 19.3558 21.6222 20.2401C22.9944 19.2643 24.1836 18.4105 25.0679 17.7397V17.7702ZM14.9748 24.0517C18.329 21.4293 21.9272 18.6545 24.0312 17.8616C21.5003 19.6912 18.085 22.1002 14.9748 24.0517ZM14.1819 23.9602C13.2672 24.6616 12.3219 25.4239 11.4071 26.0947C10.7362 26.4607 10.0654 26.8266 9.39454 27.162C8.75419 27.4364 8.23581 27.6194 7.80891 27.6804C8.63222 26.8266 9.54701 25.9728 10.5838 25.18C10.7972 24.997 11.0107 24.8445 11.2241 24.6921C12.3829 24.2347 14.4869 23.0455 17.5362 21.1549C17.5972 21.1549 17.6277 21.0939 17.6886 21.0939C17.9631 20.9414 18.2375 20.789 18.512 20.667C17.1093 21.7038 15.6456 22.8625 14.1819 23.9907V23.9602ZM4.45468 32.1629C4.54616 31.9799 4.66813 31.8274 4.75961 31.6445C5.6744 31.0346 6.61968 30.4248 7.56496 29.8149C6.34524 30.6992 5.27799 31.5225 4.45468 32.1629ZM26.1962 12.0985C24.702 12.9828 22.9334 14.0195 21.4698 14.8733C21.9577 14.5684 22.4455 14.233 22.9029 13.9585C24.5191 12.9218 25.5558 12.2509 26.1657 11.7935C26.1657 11.885 26.1657 12.007 26.1962 12.0985ZM20.677 11.6716C20.9514 11.4886 21.3478 11.2447 21.8967 10.8787C22.476 10.5128 23.2689 9.96395 24.0007 9.50656C23.9397 9.56755 23.8482 9.62853 23.7872 9.68952C22.3236 10.8787 21.4088 11.6411 20.8294 12.129C20.7989 11.9765 20.7379 11.824 20.7074 11.6716H20.677ZM20.8904 13.3792C20.9514 13.3792 21.0124 13.3487 21.0429 13.3182C20.9819 13.3487 20.9209 13.3792 20.8599 13.4402C20.8599 13.4402 20.8599 13.4097 20.8599 13.3792H20.8904ZM20.616 14.7209C20.8294 14.5989 21.1343 14.4159 21.5308 14.2025C21.1953 14.4159 20.8599 14.6294 20.5855 14.8123C20.5855 14.8123 20.5855 14.7514 20.616 14.7209ZM25.5253 11.1532C25.6778 11.0312 25.8303 10.9092 25.9522 10.8178C25.9522 10.8178 25.9522 10.8787 25.9522 10.9092C25.8303 10.9702 25.6778 11.0617 25.4948 11.1532H25.5253ZM25.6168 9.781C23.8177 11.1227 21.8357 12.4034 20.8904 12.7998C21.6222 12.129 23.1164 10.9397 24.0922 10.1469C24.641 9.68952 25.0375 9.38459 25.3424 9.14064C25.4339 9.3541 25.5253 9.56755 25.6168 9.81149V9.781ZM24.0922 8.77473C24.3971 8.50029 24.6105 8.28684 24.7935 8.10388C24.824 8.16487 24.885 8.25635 24.9155 8.31733C24.6715 8.4393 24.3971 8.59177 24.0922 8.77473ZM19.8536 10.2384C20.3415 9.84198 21.3173 9.23212 22.0186 8.80522C23.0554 8.16487 23.7872 7.70747 24.2446 7.31106C24.2751 7.34156 24.3056 7.40254 24.3361 7.43304C21.6832 9.29311 20.433 9.99445 19.8536 10.2689V10.2384ZM23.6653 6.57923C23.3603 6.76219 22.9334 7.06712 22.2931 7.49402C21.5003 8.0124 20.2805 8.86621 19.4267 9.3236C19.9451 8.95769 20.677 8.4698 21.2258 8.10388C22.3846 7.34156 23.1469 6.85367 23.5738 6.45726C23.5738 6.45726 23.6348 6.51825 23.6653 6.54874V6.57923ZM18.5729 9.20163C18.6949 9.14064 18.8169 9.04916 18.9693 8.98818C18.8474 9.07966 18.7254 9.17114 18.6339 9.26262C18.6339 9.26262 18.5729 9.26262 18.5729 9.23212V9.20163ZM22.598 9.29311C21.9272 9.84198 21.1343 10.4518 20.372 11.0617C20.311 10.9397 20.2501 10.8483 20.1891 10.7263C20.677 10.5128 21.4088 10.0859 22.598 9.29311ZM19.6097 16.5809C19.7622 16.4895 19.9146 16.4285 20.0976 16.3065C19.9146 16.398 19.7622 16.4895 19.6097 16.6114V16.5809ZM21.4698 16.154C22.0491 15.8186 22.6285 15.4832 23.1774 15.1783C22.781 15.4222 22.3236 15.6966 21.8357 16.0321C20.7684 16.7029 19.4877 17.4957 18.4205 18.1666C18.5424 18.0446 18.6339 17.9226 18.7559 17.7702C19.6402 17.2213 20.616 16.6724 21.5003 16.154H21.4698ZM19.4267 18.624C22.5065 17.0078 24.763 15.7881 26.0437 14.8733C26.0437 14.9648 26.0132 15.0563 25.9827 15.1173C25.4339 15.4527 24.4581 16.0626 22.659 17.2213C21.2563 18.1361 19.2438 19.4168 17.2617 20.6365C16.0725 21.2769 14.9748 21.8562 13.938 22.4051C14.8528 21.6428 15.6456 20.9109 16.3774 20.2096C17.3837 19.6607 18.4205 19.1119 19.3962 18.5935L19.4267 18.624ZM3.08249 35.0292C4.27172 34.3888 7.4125 32.5593 16.164 27.4669C15.7676 27.8024 15.3712 28.1073 14.9748 28.4427C13.7855 28.7476 11.4986 30.3333 8.11384 32.7422C7.59546 33.1081 7.01609 33.5045 6.46722 33.901C4.97306 34.7243 3.72285 35.4256 2.99101 35.822C2.99101 35.5781 2.99101 35.3036 3.08249 35.0597V35.0292ZM3.53989 37.4076C4.27172 37.0417 5.55243 36.2184 7.74792 34.7853C8.75419 34.1144 9.94342 33.3521 10.7667 32.8642C10.7972 32.9252 10.8582 32.9862 10.8887 33.0472C9.5775 34.2059 6.71116 36.0965 3.87531 37.7431C3.75334 37.6211 3.63137 37.4991 3.5094 37.3772L3.53989 37.4076ZM4.42419 38.109C5.27799 37.5906 6.71116 36.7368 8.11384 35.822C9.85194 34.6633 10.8887 33.8705 11.4986 33.2911H12.0169C12.0169 33.2911 12.0779 33.2911 12.1084 33.2911C11.3461 33.901 10.4923 34.5413 9.63849 35.1207C9.21159 35.3951 8.81518 35.6391 8.41877 35.883C6.9856 36.7673 6.00982 37.3772 5.36947 37.8346C5.03405 37.987 4.75961 38.109 4.51566 38.17C4.48517 38.17 4.42419 38.1395 4.39369 38.109H4.42419ZM14.2734 33.2911C13.6941 33.657 12.9927 34.0534 12.3524 34.4498C12.1389 34.5718 11.9255 34.6938 11.7425 34.8157C12.5353 34.2364 13.3586 33.6875 13.999 33.2911C14.0905 33.2911 14.1819 33.2911 14.2734 33.2911ZM5.55243 38.4139C5.61341 38.3529 5.70489 38.3224 5.76588 38.2615C6.00982 38.1395 6.28426 37.987 6.58919 37.8346C6.25377 38.0785 5.91834 38.2615 5.64391 38.4139C5.64391 38.4139 5.58292 38.4139 5.55243 38.4139ZM7.10757 38.5054C8.17482 37.5601 10.9497 35.9135 12.6268 34.9377C13.999 34.1144 14.8223 33.6265 15.3102 33.2911C15.5541 33.2911 15.7676 33.2911 16.0115 33.2911C15.5236 33.6265 14.8833 34.0839 14.06 34.6633C12.2609 35.944 9.85194 37.7126 8.23581 38.5664C7.8394 38.5664 7.47348 38.5664 7.10757 38.5359V38.5054ZM18.329 33.2301C17.5362 33.6875 16.3774 34.3888 14.7308 35.3951C14.0905 35.7915 13.4196 36.1879 12.7488 36.5843L17.3532 33.2606C17.6886 33.2606 17.9936 33.2606 18.2985 33.2606L18.329 33.2301ZM27.172 33.84C24.3056 35.6696 21.2868 37.5296 19.6402 38.4139C21.0734 37.2857 23.6653 35.4256 25.1289 34.3583C25.7388 33.901 26.1657 33.596 26.4706 33.3826C26.7451 33.5045 26.989 33.657 27.2025 33.84H27.172ZM25.5558 33.1996C25.5863 33.1996 25.6473 33.1996 25.6778 33.1996C22.3846 35.3951 18.9693 37.4991 17.1093 38.4749C18.8779 37.2247 22.1711 34.9682 24.763 33.1691C25.0375 33.1691 25.3119 33.1691 25.5253 33.1691L25.5558 33.1996ZM22.1406 37.6211C21.7442 37.8955 21.3478 38.17 20.8904 38.4749C20.7989 38.4749 20.7379 38.4749 20.6465 38.4749C21.1039 38.231 21.5917 37.926 22.1101 37.6211H22.1406ZM24.4886 36.9198C25.4034 36.3099 26.1047 35.822 26.6231 35.4256C26.7756 35.3341 26.928 35.2426 27.0805 35.1817C24.702 36.9503 23.5128 37.8955 22.9639 38.4444C22.6895 38.4444 22.3846 38.4444 22.1101 38.4444C22.8115 38.0175 23.6653 37.4686 24.5191 36.9198H24.4886ZM24.5801 37.8041C25.5558 37.0112 26.867 36.0355 27.9953 35.2122C28.0258 35.3951 28.0563 35.5781 28.0868 35.761C26.989 36.4014 25.6473 37.1942 24.5801 37.8346V37.8041ZM26.2572 38.3529C26.6231 38.0785 27.111 37.7431 27.5379 37.4381C27.2025 37.865 26.7756 38.17 26.2572 38.3529Z" fill="#3CBCFF"/>
<path d="M31.2275 36.6157C31.2275 36.3108 30.9226 36.0668 30.6177 36.0973C30.3127 36.0973 30.0688 36.3717 30.0993 36.7072C30.1603 37.3475 29.9163 37.9879 29.4589 38.4453C29.2455 38.6587 29.2455 39.0246 29.4589 39.2381C29.5809 39.3601 29.7029 39.3905 29.8553 39.3905C30.0078 39.3905 30.1298 39.3296 30.2517 39.2381C30.9226 38.5672 31.2885 37.5915 31.2275 36.6157Z" fill="#3CBCFF"/>
<path d="M1.49705 38.1093C1.2836 37.9569 1.13114 37.6824 1.10064 37.3775C1.07015 37.0726 0.795715 36.8591 0.490785 36.8896C0.185855 36.9201 -0.0275959 37.1945 0.00289708 37.4995C0.0638831 38.1398 0.399306 38.6887 0.887194 39.0241C0.978673 39.0851 1.10065 39.1156 1.19212 39.1156C1.37508 39.1156 1.55804 39.0241 1.64952 38.8717C1.83248 38.6277 1.741 38.2618 1.49705 38.1093Z" fill="#3CBCFF"/>
<path d="M0.887315 32.7425C0.948301 32.7425 1.00929 32.773 1.10076 32.773C1.31422 32.773 1.52767 32.651 1.61914 32.4071C2.07654 31.2483 2.93034 30.0896 3.72316 28.9918C4.05858 28.5344 4.39401 28.0771 4.69894 27.6197C4.8819 27.3757 4.79042 27.0098 4.54647 26.8573C4.30253 26.6744 3.93661 26.7659 3.78415 27.0098C3.47922 27.4367 3.17429 27.8941 2.83886 28.3515C1.98506 29.5102 1.10077 30.7299 0.582385 32.0411C0.460413 32.3156 0.582385 32.651 0.887315 32.773V32.7425Z" fill="#3CBCFF"/>
<path d="M9.94344 16.9778C10.0959 16.9778 10.2789 16.9168 10.3703 16.7644C10.6143 16.4594 10.8582 16.124 11.0412 15.8191C11.1937 15.5751 11.1327 15.2092 10.8887 15.0568C10.6448 14.9043 10.2789 14.9653 10.1264 15.2092C9.97394 15.4532 9.72999 15.7886 9.51654 16.063C9.33358 16.307 9.36408 16.6424 9.60802 16.8558C9.6995 16.9473 9.82147 16.9778 9.94344 16.9778Z" fill="#3CBCFF"/>
<path d="M2.86913 6.0004C2.96061 6.06138 3.08258 6.09188 3.17406 6.09188C3.35702 6.09188 3.53998 6.0004 3.63146 5.84793C4.45477 4.62821 5.94892 3.65244 7.26012 2.79863C7.47357 2.64617 7.71752 2.4937 7.93097 2.37173C8.17491 2.18877 8.26639 1.85335 8.08343 1.60941C7.90048 1.36546 7.56505 1.27398 7.32111 1.45694C7.10766 1.60941 6.89421 1.73138 6.68076 1.88384C5.27808 2.79863 3.72294 3.83539 2.74716 5.23807C2.5642 5.48202 2.62519 5.84793 2.89962 6.0004H2.86913Z" fill="#3CBCFF"/>
<path d="M9.79114 1.42655C9.91311 1.42655 10.0046 1.39606 10.0961 1.33507C10.2485 1.2131 10.462 1.15211 10.6449 1.09113C10.9499 1.03014 11.1328 0.725213 11.0413 0.420283C10.9804 0.115353 10.6754 -0.0676051 10.3705 0.0238739C10.0351 0.115353 9.73015 0.237325 9.48621 0.420283C9.24226 0.603241 9.15078 0.938664 9.33374 1.18261C9.45571 1.33507 9.60818 1.42655 9.79114 1.42655Z" fill="#3CBCFF"/>
<path d="M23.2995 24.6311C22.8726 24.875 22.4762 25.2409 22.2627 25.6678C22.1102 25.9423 22.2322 26.2777 22.5067 26.4301C22.5981 26.4606 22.6896 26.4911 22.7506 26.4911C22.964 26.4911 23.147 26.3692 23.2385 26.1862C23.3605 25.9728 23.5739 25.7288 23.8179 25.6068C24.0923 25.4544 24.1838 25.119 24.0313 24.8445C23.8788 24.5701 23.5434 24.4786 23.269 24.6311H23.2995Z" fill="#3CBCFF"/>
</svg>
