<svg width="1345" height="112" viewBox="0 0 1345 112" fill="none" xmlns="http://www.w3.org/2000/svg">
<path d="M1308.17 0.0146182L1344.17 0.0146191C1344.17 0.0146191 1333.17 53.8857 1285.97 47.7502C1274.5 67.0476 1255.6 79.6536 1234.2 79.6536C1212.81 79.6536 1230.53 79.564 1228.72 79.3549C1221.96 98.4731 1206.07 111.886 1187.52 111.886C1168.96 111.886 1150.74 96.382 1144.95 74.9936C1135.75 79.2653 1125.72 81.6252 1115.24 81.6252C1098.67 81.6252 1083.26 75.7404 1070.39 65.6436C1063.02 75.2027 1052.46 81.1771 1040.69 81.1771C1028.93 81.1771 1028.1 79.3549 1022.69 76.1287C1015.91 96.5612 999.137 111.049 979.527 111.049C959.917 111.049 945.512 98.5328 937.944 80.3407C933.67 84.1344 928.341 86.4047 922.583 86.4047C913.407 86.4047 905.362 80.6693 900.837 72.0661C889.372 92.409 869.863 105.822 847.689 105.822C825.515 105.822 808.017 93.7533 796.352 75.1131C789.614 78.0107 782.348 79.5939 774.781 79.5939C767.213 79.5939 766.887 79.1458 763.09 78.3094C751.375 95.0975 733.676 105.792 713.865 105.792C684.148 105.792 659.158 81.685 652.018 49.0049C644.728 55.1287 635.828 58.7432 626.224 58.7432C616.62 58.7432 606.463 54.6208 598.921 47.6606C587.457 66.958 568.551 79.564 547.156 79.564C525.762 79.564 543.486 79.4744 541.676 79.2653C534.913 98.3834 518.999 111.796 500.47 111.796C481.941 111.796 463.689 96.2924 457.907 74.904C448.705 79.1757 438.674 81.5356 428.215 81.5356C411.648 81.5356 396.236 75.6508 383.364 65.554C375.998 75.1131 365.439 81.0875 353.673 81.0875C341.907 81.0875 341.078 79.2653 335.672 76.0391C328.884 96.4716 312.115 110.96 292.506 110.96C272.896 110.96 258.49 98.4432 250.923 80.2511C246.649 84.0448 241.319 86.3151 235.562 86.3151C226.385 86.3151 218.34 80.5797 213.815 71.9765C202.351 92.3194 182.816 105.732 160.667 105.732C138.518 105.732 109.757 85.1202 100.732 56.2041C95.5276 57.8171 90.0971 58.6834 84.4656 58.6834C11.1672 58.6834 -4.39611 20 0.962879 0L51.1289 0.0146182L1308.17 0.0146182Z" fill="white"/>
</svg>
