<svg width="1344" height="112" viewBox="0 0 1344 112" fill="none" xmlns="http://www.w3.org/2000/svg">
<path d="M36.0002 111.871L1.07821e-09 111.871C1.07821e-09 111.871 11 57.9999 58.1995 64.1354C69.6637 44.838 88.5696 32.232 109.964 32.232C131.359 32.232 113.635 32.3216 115.445 32.5307C122.208 13.4126 138.097 -1.04527e-05 156.651 -8.52988e-06C175.205 -6.60701e-06 193.432 15.5036 199.214 36.892C208.416 32.6203 218.447 30.2604 228.93 30.2604C245.498 30.2604 260.91 36.1452 273.782 46.242C281.148 36.6829 291.707 30.7085 303.473 30.7085C315.239 30.7085 316.068 32.5307 321.473 35.7569C328.261 15.3244 345.03 0.836422 364.64 0.836424C384.25 0.836426 398.655 13.3528 406.223 31.545C410.497 27.7512 415.827 25.4809 421.584 25.4809C430.76 25.4809 438.805 31.2164 443.331 39.8195C454.795 19.4766 474.304 6.06406 496.478 6.06406C518.652 6.06406 536.15 18.1324 547.816 36.7726C554.553 33.875 561.819 32.2918 569.386 32.2918C576.954 32.2918 577.281 32.7399 581.077 33.5763C592.792 16.7882 610.492 6.09394 630.302 6.09394C660.019 6.09395 685.009 30.2007 692.149 62.8808C699.44 56.757 708.339 53.1425 717.943 53.1425C727.547 53.1425 737.704 57.2649 745.246 64.2251C756.71 44.9277 775.616 32.3217 797.011 32.3217C818.406 32.3217 800.681 32.4113 802.492 32.6204C809.254 13.5023 825.168 0.089668 843.697 0.0896699C862.226 0.0896718 880.478 15.5933 886.261 36.9817C895.462 32.71 905.493 30.3501 915.952 30.3501C932.52 30.3501 947.931 36.2349 960.803 46.3317C968.169 36.7726 978.728 30.7982 990.494 30.7982C1002.26 30.7982 1003.09 32.6204 1008.49 35.8466C1015.28 15.4141 1032.05 0.926115 1051.66 0.926117C1071.27 0.926119 1085.68 13.4425 1093.24 31.6346C1097.52 27.8409 1102.85 25.5706 1108.61 25.5706C1117.78 25.5706 1125.83 31.3061 1130.35 39.9092C1141.82 19.5663 1161.35 6.15374 1183.5 6.15375C1205.65 6.15375 1234.41 26.7655 1243.44 55.6817C1248.64 54.0686 1254.07 53.2023 1259.7 53.2023C1333 53.2023 1343.2 101 1343.2 111.886L1293.04 111.871L36.0002 111.871Z" fill="white"/>
</svg>
