<svg width="30" height="30" viewBox="0 0 30 30" fill="none" xmlns="http://www.w3.org/2000/svg">
<path d="M13.5733 5.89097C14.0223 4.509 15.9774 4.509 16.4264 5.89097L18.0308 10.8287C18.2316 11.4467 18.8075 11.8651 19.4574 11.8651H24.6492C26.1023 11.8651 26.7064 13.7246 25.5309 14.5787L21.3306 17.6303C20.8049 18.0123 20.5849 18.6893 20.7857 19.3074L22.39 24.2451C22.8391 25.627 21.2574 26.7762 20.0818 25.9221L15.8815 22.8705C15.3558 22.4885 14.6439 22.4885 14.1182 22.8705L9.91792 25.9221C8.74235 26.7762 7.16063 25.627 7.60966 24.2451L9.21401 19.3074C9.41483 18.6893 9.19484 18.0123 8.66911 17.6303L4.46885 14.5787C3.29328 13.7246 3.89745 11.8651 5.35053 11.8651H10.5423C11.1922 11.8651 11.7681 11.4467 11.9689 10.8287L13.5733 5.89097Z" fill="#FF8A00"/>
</svg>
