<svg width="40" height="39" viewBox="0 0 40 39" fill="none" xmlns="http://www.w3.org/2000/svg">
<path d="M19.7041 1C22.1109 1 24.37 1.42786 26.4902 2.27832L26.9131 2.4541C29.1743 3.42986 31.1311 4.74923 32.793 6.41113C34.3511 7.96931 35.6084 9.7866 36.5635 11.8711L36.75 12.291C37.7174 14.5329 38.2041 16.9327 38.2041 19.5C38.2041 21.9068 37.7762 24.1659 36.9258 26.2861L36.75 26.709C35.7742 28.9702 34.4549 30.927 32.793 32.5889C31.2348 34.147 29.4175 35.4043 27.333 36.3594L26.9131 36.5459C24.6712 37.5133 22.2715 38 19.7041 38C17.2973 38 15.0382 37.5721 12.918 36.7217L12.4951 36.5459C10.2339 35.5701 8.27714 34.2508 6.61523 32.5889C5.05705 31.0307 3.79979 29.2134 2.84473 27.1289L2.6582 26.709C1.69081 24.4671 1.2041 22.0673 1.2041 19.5C1.2041 17.0932 1.63196 14.8341 2.48242 12.7139L2.6582 12.291C3.63396 10.0298 4.95333 8.07304 6.61523 6.41113C8.17341 4.85295 9.9907 3.59568 12.0752 2.64062L12.4951 2.4541C14.737 1.48671 17.1368 1 19.7041 1ZM19.5645 2.90137C15.1538 2.9326 11.3591 4.44475 8.23438 7.42969L7.93066 7.72656C4.7167 10.9405 3.10449 14.8854 3.10449 19.5C3.10449 23.9703 4.61739 27.8121 7.63379 30.9697L7.93066 31.2734C8.66432 32.0071 9.437 32.656 10.2461 33.2227L10.0498 33.8711L10.5908 33.458C13.246 35.2172 16.2916 36.0996 19.7041 36.0996C23.1163 36.0996 26.1613 35.2169 28.8164 33.458L29.3584 33.8711L29.1611 33.2227C29.9705 32.6559 30.7437 32.0073 31.4775 31.2734C34.6915 28.0595 36.3037 24.1146 36.3037 19.5C36.3037 15.0297 34.7908 11.1879 31.7744 8.03027L31.4775 7.72656C28.2958 4.54484 24.3978 2.9334 19.8428 2.90137L19.7041 2.44922L19.5645 2.90137ZM21.8682 16.2842L22.0859 16.9902H29.252L23.999 20.7334L23.4141 21.1504L23.6221 21.8379L25.6494 28.5283L20.3105 24.457L19.7041 23.9951L19.0977 24.457L13.7578 28.5283L15.7861 21.8379L15.9941 21.1504L15.4092 20.7334L10.1562 16.9902H17.3223L17.54 16.2842L19.7041 9.25098L21.8682 16.2842Z" stroke="#5EC7FE" stroke-width="2"/>
</svg>
