<svg width="37" height="48" viewBox="0 0 37 48" fill="none" xmlns="http://www.w3.org/2000/svg">
<path d="M18.4372 46C17.8873 46 17.416 45.8533 17.0232 45.56C16.6304 45.2667 16.3358 44.8817 16.1395 44.405C15.3932 42.3517 14.4505 40.4267 13.3114 38.63C12.2117 36.8333 10.6602 34.725 8.65699 32.305C6.65381 29.885 5.02377 27.575 3.76687 25.375C2.54925 23.175 1.94044 20.5167 1.94044 17.4C1.94044 13.11 3.5312 9.48 6.71272 6.51C9.93352 3.50333 13.8417 2 18.4372 2C23.0328 2 26.9213 3.50333 30.1028 6.51C33.3236 9.48 34.934 13.11 34.934 17.4C34.934 20.7367 34.2466 23.5233 32.8719 25.76C31.5365 27.96 29.985 30.1417 28.2175 32.305C26.0964 34.945 24.486 37.145 23.3863 38.905C22.3258 40.6283 21.442 42.4617 20.735 44.405C20.5386 44.9183 20.2244 45.3217 19.7923 45.615C19.3995 45.8717 18.9478 46 18.4372 46ZM18.4372 38.135C19.1049 36.8883 19.8512 35.66 20.6761 34.45C21.5402 33.24 22.7971 31.6267 24.4468 29.61C26.1357 27.5567 27.5105 25.6683 28.571 23.945C29.6707 22.185 30.2206 20.0033 30.2206 17.4C30.2206 14.3567 29.0619 11.7717 26.7445 9.645C24.4664 7.48167 21.6973 6.4 18.4372 6.4C15.1771 6.4 12.3884 7.48167 10.071 9.645C7.79287 11.7717 6.65381 14.3567 6.65381 17.4C6.65381 20.0033 7.18406 22.185 8.24457 23.945C9.34435 25.6683 10.7387 27.5567 12.4277 29.61C14.0774 31.6267 15.3146 33.24 16.1395 34.45C17.0036 35.66 17.7695 36.8883 18.4372 38.135ZM18.4372 22.9C20.0869 22.9 21.4813 22.3683 22.6203 21.305C23.7594 20.2417 24.3289 18.94 24.3289 17.4C24.3289 15.86 23.7594 14.5583 22.6203 13.495C21.4813 12.4317 20.0869 11.9 18.4372 11.9C16.7875 11.9 15.3932 12.4317 14.2541 13.495C13.115 14.5583 12.5455 15.86 12.5455 17.4C12.5455 18.94 13.115 20.2417 14.2541 21.305C15.3932 22.3683 16.7875 22.9 18.4372 22.9Z" stroke="#5EC7FE" stroke-width="3"/>
</svg>
