<svg width="46" height="40" viewBox="0 0 46 40" fill="none" xmlns="http://www.w3.org/2000/svg">
<path d="M2.7475 2H10.1009L15.0277 24.9543C15.1958 25.7435 15.6562 26.4525 16.3284 26.9571C17.0006 27.4617 17.8416 27.7297 18.7044 27.7143H36.5732C37.4359 27.7297 38.277 27.4617 38.9491 26.9571C39.6213 26.4525 40.0818 25.7435 40.2499 24.9543L43.1912 10.5714H11.9393M19.2927 36.2857C19.2927 37.2325 18.4696 38 17.4543 38C16.439 38 15.616 37.2325 15.616 36.2857C15.616 35.3389 16.439 34.5714 17.4543 34.5714C18.4696 34.5714 19.2927 35.3389 19.2927 36.2857ZM39.5145 36.2857C39.5145 37.2325 38.6915 38 37.6762 38C36.6609 38 35.8378 37.2325 35.8378 36.2857C35.8378 35.3389 36.6609 34.5714 37.6762 34.5714C38.6915 34.5714 39.5145 35.3389 39.5145 36.2857Z" stroke="#5EC7FE" stroke-width="4" stroke-linecap="round" stroke-linejoin="round"/>
</svg>
