<svg width="285" height="292" viewBox="0 0 285 292" fill="none" xmlns="http://www.w3.org/2000/svg">
<path opacity="0.7" d="M81.3037 107.211C76.3135 103.542 60.941 109.327 57.9809 110.381C55.88 111.101 54.1614 111.77 53.5859 111.413C51.8594 110.344 35.5716 83.212 33.9159 76.6985C33.5256 75.0125 34.0025 74.7303 35.7251 74.931C36.3006 75.2875 38.7838 74.5153 41.5548 73.9213C45.0905 73.2234 54.0695 70.6988 61.9056 69.1991C64.6766 68.6052 66.4937 68.5756 66.4937 68.5756C67.2623 69.3406 67.345 66.5035 67.7313 67.3205C68.4054 68.3158 92.9818 67.3667 94.0342 67.4411C101.59 67.501 112.016 67.6057 123.404 68.8838C126.179 69.1588 124.464 70.6961 127.428 70.5106C133.739 70.0877 149.064 74.9607 153.94 74.5154C157.957 74.4043 159.009 74.4786 163.132 76.7441C166.01 78.5268 182.766 82.5533 186.692 83.5413C188.99 84.0985 191 84.4774 191.765 84.3734C192.242 84.0912 192.817 84.4478 192.916 85.0865L195.313 86.2824C195.888 86.6389 208.155 91.9277 208.253 92.5664C208.064 93.0269 208.833 93.7919 209.31 93.5097C210.264 92.9453 226.933 98.9399 226.846 100.908C226.582 105.943 219.878 124.896 217.411 129.144C216.083 131.499 213.493 129.894 210.328 127.933C207.162 125.973 203.134 123.477 199.212 123.358C194.994 121.322 182.826 116.672 165.108 111.472C161.856 111.48 163.673 111.45 157.84 111.591C156.874 109.548 154.213 113.388 151.805 109.585C150.65 108.003 145.096 106.584 143.858 107.839C143.764 108.07 128.064 104.986 127.682 105.038C124.237 104.637 112.273 103.002 110.945 105.357C103.751 100.9 85.6041 106.409 81.4969 107.62L81.3037 107.211Z" fill="white"/>
<path opacity="0.7" d="M174.151 95.429C179.094 98.502 212.908 96.0943 219.204 99.4234C221.726 101.284 223.025 131.965 222.746 134.428C222.173 135.829 222.077 136.062 220.333 134.978C216.844 132.808 200.128 133.545 196.747 133.786C188.921 134.192 189.984 134.268 186.893 134.689C186.117 133.913 186.033 136.79 185.352 135.781C183.795 133.348 160.619 137.391 158.592 137.888C145.557 140.327 132.72 144.062 130.693 144.559C128.279 145.108 129.14 143.007 126.73 144.438C121.234 147.171 106.458 149.407 102.702 152.344C99.6199 154.528 98.7516 154.866 94.6932 154.979C90.3441 154.911 71.3386 162.132 70.5779 164.881C70.2912 165.581 69.9049 165.634 69.5145 164.806C69.5145 164.806 55.2285 168.517 54.7426 167.922C54.1611 167.561 53.5796 167.199 53.3884 167.666C52.815 169.067 39.218 175.55 37.7603 173.765C33.6778 168.591 21.6851 145.32 20.1117 139.362C17.9569 133.044 31.7931 136.667 37.5639 130.59C82.3416 116.547 71.3453 121.133 81.1746 114.943C83.405 116.623 83.9584 110.816 88.224 113.761C89.9685 114.846 96.7272 113.483 97.1055 111.668C98.0613 109.334 133.707 106.015 135.232 101.399C139.199 102.4 147.407 101.06 155.421 99.3062C163.434 97.552 171.543 95.5644 174.633 95.1428L174.151 95.429Z" fill="white"/>
<path opacity="0.7" d="M89.1729 173.894C83.5026 170.957 64.2677 179.029 59.5775 180.758C56.8985 181.995 54.7925 182.718 54.1207 182.591C52.8721 182.107 47.9485 174.704 43.2145 166.84C38.4806 158.975 34.3196 150.596 33.5411 148.084C33.1499 146.392 33.7228 145.878 35.8328 146.027C36.5045 146.154 39.0887 145.147 42.7279 144.216C47.7065 142.666 61.299 137.762 72.1217 135.198C73.2755 135.914 73.0699 132.887 73.7456 133.886C74.3225 134.244 78.0605 133.954 84.0981 133.35C98.5679 131.6 105.842 128.864 140.839 129.12C144.099 129.113 141.997 130.708 145.735 130.417C153.689 129.553 172.209 132.924 178.152 132.552C187.066 131.993 184.004 133.282 196.672 135.922C199.359 136.429 222.486 140.918 224.592 140.195C225.454 139.86 226.031 140.218 226.035 141.09C226.035 141.09 228.915 142.007 229.204 142.186C229.781 142.544 245.432 147.614 245.531 148.255C245.63 148.896 246.206 149.254 246.973 149.149C247.451 148.866 252.825 149.88 258.203 151.766C263.387 153.243 268.765 155.129 268.769 156.001C269.464 161.361 265.051 181.815 262.866 186.258C260.492 191.162 249.416 180.234 239.158 180.539C239.158 180.539 238.581 180.181 237.238 179.927C231.093 178.145 233.686 178.883 225.237 176.542C222.645 175.804 219.958 175.297 217.078 174.38C191.449 168.05 195.1 169.734 186.186 170.293C185.51 169.294 184.266 169.682 183.021 170.069C181.776 170.457 180.243 170.665 178.509 168.72C177.256 167.363 169.772 166.199 168.531 167.459C168.437 167.69 165.655 167.414 161.818 167.064C151.074 165.908 155.294 166.206 148.103 166.094C145.61 165.997 143.116 165.9 140.623 165.802C138.13 165.705 127.872 166.01 127.019 168.09C117.895 164.75 97.2177 171.927 90.0382 174.431L89.1729 173.894Z" fill="white"/>
<path opacity="0.7" d="M211.248 143.294C216.472 147.416 244.215 143.634 247.21 145.204C249.434 146.878 256.22 176.495 256.24 180.887C256.343 182.411 255.573 182.516 254.027 181.848C250.838 179.865 225.883 182.169 222.896 182.356C222.217 181.35 222.038 184.451 221.649 183.625C219.512 179.961 174.625 186.519 171.062 187.225C168.75 187.54 169.898 185.626 167.3 186.639C162.104 188.666 148.61 188.747 145.055 191.21C142.171 192.921 141.69 193.206 137.543 192.673C133.011 192.192 116.164 196.906 115.501 199.413C115.215 200.111 114.925 199.931 114.44 199.338C114.44 199.338 101.63 201.304 101.34 201.124C100.855 200.531 100.18 200.403 100.374 200.816C100.088 201.514 88.5491 207.482 87.1905 205.47C83.1187 200.312 71.062 177.346 69.2028 171.227C68.3208 168.052 70.7281 167.504 74.4859 167.211C78.2437 166.919 82.6768 166.754 85.2667 163.984C128.306 153.942 114.261 159.812 125.991 153.379C127.83 155.105 128.576 149.73 132.64 153.131C134.285 154.445 140.355 153.838 141.022 152.208C141.308 151.51 149.499 151.053 158.17 150.31C161.158 150.123 175.033 149.11 175.986 146.783C181.877 149.276 198.632 145.673 210.768 143.58L211.248 143.294Z" fill="white"/>
<path opacity="0.7" d="M109.461 210.767C106.777 207.671 97.5349 209.141 94.3914 209.784C93.6291 209.887 88.7724 211.194 87.9119 210.662C86.5719 209.547 73.4784 181.911 72.1147 175.608C71.7256 173.931 72.2011 173.65 73.7296 174.308C74.5902 174.84 97.8442 172.551 98.7991 172.854C99.471 173.844 99.5535 171.021 99.9386 171.834C100.324 172.647 102.803 172.743 106.905 173.268C116.54 174.34 121.975 174.252 144.117 179.034C146.121 179.411 144.793 180.889 146.985 180.807C152.231 181.177 163.697 186.542 167.607 186.661C170.754 186.883 171.709 187.186 174.484 189.188C176.684 190.836 194.453 198.374 196.453 197.887C196.928 197.606 197.408 198.19 197.314 198.419L199.035 199.483C199.608 199.837 208.501 205.335 208.218 206.023C208.029 206.481 208.509 207.064 208.89 207.013C210.128 206.629 222.266 212.984 221.7 214.358C219.908 218.71 210.164 235.387 206.938 238.852C205.421 240.788 203.794 239.494 201.688 237.617C199.582 235.74 196.996 233.28 194.136 233.235C191.267 231.462 176.261 223.333 170.433 220.879L165.093 220.739C164.512 218.655 162.241 222.423 160.983 218.485C160.5 217.036 156.201 215.241 155.443 216.209C155.254 216.667 148.759 214.087 148.091 213.962C144.939 212.875 139.497 211.235 135.776 210.658C133.391 210.333 131.866 210.54 131.489 211.456C126.416 207.17 114.317 209.46 109.555 210.538L109.461 210.767Z" fill="white"/>
</svg>
