<svg width="112" height="13" viewBox="0 0 112 13" fill="none" xmlns="http://www.w3.org/2000/svg">
<path d="M6.79991 0.353516L8.66784 4.0894L12.9374 4.62309L9.73524 7.82528L10.5358 12.0949L6.79991 9.96007L2.79718 12.0949L3.59773 7.82528L0.395538 4.62309L4.66512 4.0894L6.79991 0.353516Z" fill="#FFBB00"/>
<path d="M31.35 0.353516L33.2179 4.0894L37.4875 4.62309L34.5522 7.82528L35.0859 12.0949L31.35 9.96007L27.6141 12.0949L28.1478 7.82528L25.2125 4.62309L29.482 4.0894L31.35 0.353516Z" fill="#FFBB00"/>
<path d="M55.9001 0.353516L57.768 4.0894L62.0376 4.62309L59.1022 7.82528L59.9028 12.0949L55.9001 9.96007L52.1642 12.0949L52.9647 7.82528L49.7625 4.62309L54.0321 4.0894L55.9001 0.353516Z" fill="#FFBB00"/>
<path d="M80.717 0.353516L82.5849 4.0894L86.8545 4.62309L83.6523 7.82528L84.4529 12.0949L80.717 9.96007L76.7143 12.0949L77.5148 7.82528L74.5795 4.62309L78.5822 4.0894L80.717 0.353516Z" fill="#FFBB00"/>
<path d="M105.267 0.353516L107.135 4.0894L111.405 4.62309L108.469 7.82528L109.003 12.0949L105.267 9.96007L101.531 12.0949L102.065 7.82528L99.1296 4.62309L103.399 4.0894L105.267 0.353516Z" fill="#FFBB00"/>
</svg>
