<svg width="1131" height="1023" viewBox="0 0 1131 1023" fill="none" xmlns="http://www.w3.org/2000/svg">
<path opacity="0.23" d="M1106.77 1045.31C1087.24 1024.25 1061.59 1013.55 1036.23 1006.64C965.399 987.305 890.198 987.65 817.911 987.65C623.787 987.65 429.954 1004.91 235.83 1002.84C193.274 1002.5 151.01 1000.77 108.454 997.318C99.4182 996.628 90.3823 995.592 81.3465 994.556C76.9743 994.211 72.6022 993.52 68.5215 992.829C66.4811 992.829 61.526 991.793 58.6112 991.448C44.6203 989.031 30.6293 986.269 16.6384 982.471C4.68781 979.363 -6.97131 975.219 -18.339 970.385C3.23042 962.789 25.9657 957.955 48.118 953.811C51.9073 953.12 55.6964 952.43 59.7771 951.739C60.9431 951.739 63.2749 951.049 65.3152 950.703C73.4766 949.322 81.3465 948.286 89.5079 947.25C108.454 944.833 127.4 942.762 146.638 940.69C188.902 936.546 231.458 933.439 274.014 930.676C442.488 920.317 612.419 921.353 780.019 898.909C809.167 895.111 838.606 890.967 866.88 882.335C886.117 876.465 910.31 867.487 923.135 848.496C935.96 829.505 940.915 810.168 936.834 785.652C933.337 765.971 920.512 752.504 907.978 741.109C889.032 723.845 861.925 716.593 839.189 710.033C759.616 687.243 676.836 678.956 595.514 669.633C497.869 658.239 399.932 649.261 302.287 638.557C289.17 637.176 276.345 635.794 263.229 634.068C312.78 632.341 362.331 630.96 411.883 629.579C584.438 625.09 758.45 626.471 930.13 604.027C959.861 600.229 990.175 595.74 1019.32 587.453C1040.31 581.238 1062.75 572.605 1078.78 553.959C1100.65 528.408 1101.81 482.829 1077.33 458.658C1059.55 441.048 1037.39 432.416 1014.95 426.546C948.202 409.281 878.539 405.828 810.625 401.339C718.809 395.124 626.702 392.016 534.595 388.218C439.864 384.42 345.134 380.621 250.404 374.061C209.597 371.299 168.79 367.846 128.274 362.666C119.53 361.63 111.077 360.594 102.333 359.213C99.4182 358.868 96.5034 358.523 93.8801 357.832C165.001 351.617 236.704 350.581 308.116 349.89C401.389 348.854 494.371 349.89 587.644 349.89C672.755 349.89 757.576 349.89 842.687 345.401C874.75 343.675 907.104 341.603 939.166 337.114C963.942 333.661 989.883 330.554 1013.78 321.231C1036.81 312.253 1062.17 295.679 1067.71 264.948C1074.12 229.037 1056.92 197.615 1030.11 181.732C1007.37 168.265 982.597 161.359 957.821 155.834C921.969 148.238 885.534 143.404 849.391 139.606C669.841 119.924 489.416 119.579 309.282 109.22C297.915 108.529 286.547 107.838 275.179 107.148C361.165 103.004 447.443 103.695 533.429 105.421C676.836 108.529 819.952 115.435 963.068 125.794C965.399 125.794 967.731 125.794 970.354 126.484C994.256 128.211 1014.08 101.623 1014.08 74.6902C1014.08 47.7572 994.256 24.6224 970.354 22.8959C848.517 13.9183 726.387 7.70296 604.55 3.90471C506.904 0.106469 409.842 -1.27471 312.78 1.83294C237.87 4.25001 160.046 5.97648 86.8846 26.3489C64.7323 32.5642 37.6248 42.2324 22.468 63.6407C-2.01618 98.5155 4.10484 142.023 35.8759 166.539C53.3646 180.005 76.3914 185.185 96.5034 189.673C129.44 196.579 162.669 200.723 196.189 203.83C373.699 221.786 552.375 221.441 730.468 232.835C766.611 235.252 803.046 238.015 839.189 241.813C777.396 245.266 715.311 245.611 653.518 245.956C476.591 246.992 299.081 240.777 122.153 252.172C87.759 254.244 53.3646 258.042 18.9702 263.566C-1.14175 266.674 -22.4197 270.472 -41.3657 279.795C-67.5988 292.571 -92.3744 313.98 -92.0829 351.617C-92.0829 383.729 -71.9709 409.281 -48.9442 422.747C6.14519 454.515 72.6022 459.694 132.355 466.945C219.507 477.304 306.951 481.793 394.394 485.936C548.586 493.188 703.652 493.878 857.552 507.69C824.033 510.452 790.221 512.524 756.41 514.596C664.011 519.43 571.613 521.847 478.923 524.264C390.605 526.681 301.995 528.408 213.678 532.551C150.718 535.314 86.3017 537.731 23.9254 551.197C4.97928 555.341 -15.7157 561.901 -29.7066 578.475C-57.1055 611.278 -42.2402 657.203 -12.5094 678.266C9.05998 693.459 35.293 700.019 59.7771 705.889C97.6693 714.867 136.144 720.737 174.328 726.262C267.31 739.728 360.874 748.361 454.438 757.683C503.115 762.518 551.792 767.697 600.469 773.567C623.204 776.329 645.939 779.092 668.675 782.199C678.876 783.581 689.37 784.962 699.571 786.688C704.526 787.379 709.482 788.069 714.437 789.105C714.437 789.105 714.437 789.105 714.728 789.105C717.06 789.451 719.392 789.796 721.724 790.141C735.715 792.558 749.414 794.975 763.405 797.738C751.163 799.119 739.212 800.5 726.97 801.536C687.621 805.334 648.271 807.751 608.922 810.168C518.564 815.348 428.497 818.801 338.139 823.635C254.193 828.124 170.247 832.958 86.5931 844.007C30.0464 851.604 -36.9936 857.474 -87.4193 892.348C-109.28 907.541 -129.392 935.856 -126.769 967.623C-123.854 1004.22 -104.616 1030.81 -79.2579 1049.8C-55.6481 1067.41 -27.0833 1077.08 0.0241547 1083.64C37.0419 1092.96 75.2255 1097.8 112.826 1100.91C302.87 1117.48 494.954 1099.53 684.997 1093.31C770.109 1090.55 855.512 1088.13 940.332 1095.04C948.494 1095.73 956.364 1096.42 964.525 1097.45C968.314 1097.8 972.103 1098.49 975.892 1098.83C977.641 1098.83 981.139 1099.53 983.762 1099.87C995.422 1101.94 1007.08 1104.36 1018.45 1107.81C1020.2 1108.5 1021.95 1108.85 1023.99 1109.54C1020.2 1110.92 1016.41 1112.3 1012.91 1113.68C999.794 1118.17 986.677 1121.62 973.269 1124.73C965.982 1126.46 958.695 1127.84 951.408 1129.22C947.619 1129.91 943.83 1130.6 939.749 1131.29C939.166 1131.29 938.583 1131.29 937.709 1131.29C936.834 1131.29 935.96 1131.29 935.377 1131.64C897.485 1137.51 859.593 1140.62 821.409 1143.38C638.652 1156.5 455.313 1152.01 272.265 1159.61C198.521 1162.71 123.902 1166.51 51.3243 1182.4C5.56224 1192.41 -59.4374 1214.85 -60.0203 1282.53C-60.6033 1361.6 24.7998 1395.44 76.0999 1412.02C164.126 1440.33 257.399 1450.34 348.049 1458.29C452.398 1467.26 557.33 1470.03 661.971 1468.3C747.374 1466.92 833.36 1463.47 918.18 1450.35C945.87 1446.2 974.727 1442.4 1001.25 1432.04C1023.99 1423.07 1038.27 1396.48 1031.86 1368.16C1025.74 1341.92 1000.67 1323.28 977.933 1331.91C968.023 1335.71 957.529 1338.47 947.328 1340.89C940.915 1342.27 934.503 1343.65 928.09 1344.68C924.592 1345.38 921.095 1346.07 917.597 1346.41C916.431 1346.41 915.265 1346.76 914.099 1347.1C875.624 1352.97 837.149 1356.08 798.674 1358.84C698.988 1365.75 598.72 1366.44 498.743 1363.33C446.277 1361.6 394.102 1358.84 341.636 1354.01C316.861 1351.94 292.085 1349.17 267.31 1346.07C255.942 1344.68 244.574 1342.96 233.207 1341.58C229.417 1340.89 225.628 1340.54 221.839 1339.85C220.382 1339.85 209.597 1337.78 206.974 1337.43C167.915 1330.53 128.857 1322.24 90.9653 1309.46C83.3869 1307.05 76.0999 1304.29 68.813 1301.18C65.3152 1299.8 62.109 1298.42 58.6112 1296.69C57.4453 1296.34 56.2794 1295.65 55.405 1295.31C52.1987 1293.58 48.9925 1291.85 45.7862 1289.78C54.5305 1287.02 63.5664 1284.6 72.6022 1282.53C79.0147 1281.15 85.7187 1279.77 92.1312 1278.73C94.7545 1278.39 97.3778 1277.7 100.293 1277.35C102.041 1277.35 103.79 1276.66 105.831 1276.66C141.391 1271.48 177.243 1268.72 212.803 1266.3C394.977 1254.56 577.442 1259.4 759.616 1250.42C838.023 1246.62 917.014 1241.44 994.256 1224.52C1044.97 1213.47 1105.6 1194.83 1126.3 1132.33C1136.21 1102.63 1125.42 1065.34 1105.89 1044.62L1106.77 1045.31ZM83.3869 79.179C82.2209 77.4525 82.5124 77.7978 83.3869 79.179V79.179ZM1018.45 535.659C1019.32 537.04 1019.61 537.385 1018.45 535.659V535.659ZM719.1 789.451C720.558 789.451 721.141 789.451 719.1 789.451V789.451ZM-43.4061 982.471C-43.989 983.506 -43.989 983.852 -43.4061 982.471V982.471Z" fill="#47474C" fill-opacity="0.11"/>
</svg>
