<svg width="1254" height="1016" viewBox="0 0 1254 1016" fill="none" xmlns="http://www.w3.org/2000/svg">
<g style="mix-blend-mode:screen">
<path d="M521.024 566.075C520.232 566.075 520.496 567.152 521.024 566.075V566.075Z" fill="url(#paint0_radial_76_24472)"/>
<path d="M899.251 227.86C899.427 227.86 899.427 227.62 899.603 227.501C898.548 224.509 897.58 221.995 896.964 220.081L899.251 227.86Z" fill="url(#paint1_radial_76_24472)"/>
<path d="M970.868 194.946C971.132 195.066 971.308 195.185 971.572 195.425C970.692 193.869 969.988 192.074 970.868 194.946Z" fill="url(#paint2_radial_76_24472)"/>
<path d="M767.104 369.322C766.489 369.562 766.489 370.399 766.752 371.477C766.752 370.639 766.753 369.921 767.104 369.322Z" fill="url(#paint3_radial_76_24472)"/>
<path d="M415.799 676.78C415.799 676.78 415.799 676.541 415.975 676.302C415.447 675.943 415.007 675.823 414.479 675.225L415.887 676.661L415.799 676.78Z" fill="url(#paint4_radial_76_24472)"/>
<path d="M414.568 671.155C416.944 671.873 416.24 675.224 415.976 676.301C419.407 678.575 421.079 677.618 421.695 674.626C419.495 670.557 416.944 673.669 414.656 671.155H414.568Z" fill="url(#paint5_radial_76_24472)"/>
<path d="M219.339 866.475L218.987 864.321C218.987 864.92 219.163 865.757 219.339 866.475Z" fill="url(#paint6_radial_76_24472)"/>
<path d="M877.521 568.351C877.433 568.949 877.169 569.428 877.081 570.146C877.609 569.906 877.609 569.188 877.521 568.351Z" fill="url(#paint7_radial_76_24472)"/>
<path d="M253.387 842.06L250.131 835.357C251.275 838.349 252.331 840.384 253.387 842.06Z" fill="url(#paint8_radial_76_24472)"/>
<path d="M896.965 219.961L896.173 216.969C896.349 217.687 896.613 218.764 896.965 219.961Z" fill="url(#paint9_radial_76_24472)"/>
<path d="M1031.49 153.657C1032.54 155.691 1033.42 157.247 1034.3 158.444H1034.48L1031.49 153.657Z" fill="url(#paint10_radial_76_24472)"/>
<path d="M1125.98 120.745C1125.71 119.907 1125.54 119.069 1125.1 118.232C1122.63 117.035 1118.76 119.309 1114.28 123.139L1117.97 131.636L1125.98 120.865V120.745Z" fill="url(#paint11_radial_76_24472)"/>
<path d="M1085.85 216.382L1069.49 206.21C1093.16 177.845 1113.92 185.026 1131.08 154.029L1131.43 158.577C1136.62 159.893 1121.05 120.877 1180.26 138.59L1181.05 140.266C1182.19 139.069 1180.7 135.718 1185.36 138.231L1174.01 132.845C1175.95 125.784 1175.68 115.252 1180.43 110.226C1182.37 111.303 1184.39 114.415 1185.71 117.048L1197.24 104.84L1206.21 112.739C1207.44 104.002 1195.04 82.4599 1211.49 87.4865C1200.23 74.561 1212.28 74.2019 1207.27 67.0211C1208.68 68.577 1211.23 70.6115 1213.51 72.6461C1218.88 66.1834 1228.65 53.1382 1227.77 42.8456C1227.77 42.8456 1187.91 27.5265 1173.48 15.4387C1184.31 13.2845 1174.89 11.7287 1170.76 7.77924L1171.99 12.2074C1164.95 12.2074 1160.29 2.27395 1156.33 1.43618C1156.68 2.27395 1157.21 3.11165 1157.73 4.0691L1157.47 2.51326C1158.53 4.06911 1158.97 5.38563 1159.14 6.58243C1160.2 8.617 1160.73 10.5319 1159.05 11.0106L1158.88 9.81382C1157.38 12.9255 1152.81 14.1223 1150.78 14.601L1146.91 6.34306C1150.34 25.1329 1109.26 1.55582 1103.71 4.90687C1093.51 -1.67556 1093.07 16.3962 1084.01 16.0372C1072.22 21.1834 1073.1 7.77922 1064.39 4.54785C1055.33 4.30849 1070.28 13.2846 1067.91 15.7978L1054.53 10.1728C1058.67 5.74467 1053.83 2.63297 1051.45 0C1043.98 3.7101 1025.94 -3.47072 1031.66 14.601C1018.73 13.5239 1015.56 6.94144 1011.16 9.09569C1013.89 11.1303 1017.85 11.8484 1019.43 15.1994C1012.3 10.6516 1018.55 18.3111 1020.84 18.7899C1018.55 30.1595 977.375 10.6516 984.765 29.6808L983.182 26.3297C988.284 40.8111 996.643 52.4201 996.291 62.8323L990.836 58.7631L989.692 67.4998C984.941 65.1062 984.589 60.5584 983.797 58.8829C980.366 70.0131 967.873 69.295 959.163 73.3642L984.941 104.002C974.296 100.412 954.236 92.154 958.635 104.96L948.781 95.6247C924.323 82.1008 944.558 112.859 935.936 109.747L922.915 101.369L929.602 96.5822C919.748 94.787 914.997 92.3934 905.583 87.6062C905.583 87.7259 905.583 87.8455 905.671 87.9652C906.287 88.2046 906.815 88.6833 907.254 89.521L906.463 90.5982C908.926 97.8987 907.694 105.079 902.855 108.191C895.377 111.303 895.025 125.186 877.693 118.962L881.74 134.641L869.951 132.486L864.672 121.595C872.678 116.329 885.171 101.01 894.849 92.8721L892.65 87.7258C886.755 92.2737 882.444 102.207 878.045 104.122C875.054 103.404 864.76 95.7444 864.672 85.6913L866.256 99.2151C847.164 115.492 847.34 116.21 820.946 119.681L825.433 123.75C822.969 130.093 820.418 136.436 814.963 128.417C801.854 136.196 785.754 139.188 770.973 131.529L775.548 145.771C772.644 147.087 759.183 130.691 766.75 149.601L763.846 159.654C759.799 161.449 761.735 170.305 753.465 166.356H753.553C753.113 166.117 752.673 165.758 752.145 165.399C752.321 165.758 752.585 166.117 752.761 166.476C741.939 167.074 758.568 177.845 745.722 177.726C738.332 170.904 750.561 196.515 744.667 197.114L731.118 182.273C717.833 178.085 725.575 197.593 713.873 206.808C704.987 204.654 694.518 191.25 691.351 174.375C694.606 195.199 694.43 187.18 691.702 200.585C687.215 194.481 687.215 192.446 685.632 185.026C675.514 181.675 685.016 194.242 680.265 197.353C685.456 211.475 694.254 233.377 693.198 235.292L696.981 237.925C695.661 248.696 692.054 256.116 683.256 253.962L680.177 247.26L675.866 255.279L671.291 247.26L664.165 256.595L666.452 257.912C665.044 260.545 659.941 268.683 654.047 267.247L651.847 262.459C634.075 256.356 634.867 282.207 623.342 293.696L620.174 282.925C611.2 276.941 626.421 298.364 619.031 297.765L612.872 286.396C616.215 305.185 605.57 287.712 599.587 284.361L608.737 298.483L601.434 299.919C592.636 299.919 587.885 283.882 584.718 275.146L586.478 290.584L578.823 277.898C583.574 295.97 574.424 277.898 573.193 290.704C570.201 286.036 570.113 281.967 567.122 281.369L567.738 307.579L568.882 294.773L578.208 314.88C580.143 334.268 569.41 318.949 568.178 327.685L568.002 319.667C563.779 329.72 559.204 321.701 553.309 320.385C556.3 323.138 560.875 327.087 559.468 331.755C558.06 334.387 554.893 325.77 551.901 325.052C558.148 338.457 556.916 349.108 549.438 346.475C548.558 344.56 547.678 342.765 547.414 341.329C547.414 344.321 548.558 348.151 545.039 346.595L538.704 331.156L542.136 347.911C537.649 345.997 539.496 359.401 534.833 349.348V345.278L514.422 356.887L508.175 345.518C514.51 362.871 494.978 347.672 505.8 367.06C496.738 359.042 496.034 385.97 486.532 361.914C473.511 370.172 477.998 396.98 457.674 398.297C442.542 383.696 431.368 401.768 420.899 407.512C406.558 430.73 398.288 447.725 382.715 469.507C357.553 452.632 359.312 502.299 339.253 497.632L341.452 510.916C324.56 501.102 323.064 531.86 303.093 525.278C302.741 532.219 302.037 534.852 301.597 535.81C302.389 535.81 304.236 537.246 308.02 543.589C302.301 541.674 298.87 553.044 292.271 539.4V537.366C285.76 523.722 285.849 551.847 276.171 543.469L285.761 555.916L278.37 558.669L278.546 554.6C268.868 608.456 232.796 573.988 223.382 624.014C218.368 605.823 222.854 636.341 213.441 619.826C195.669 604.028 204.291 634.427 202.267 644.36C202.707 645.198 203.147 646.155 203.587 647.711L193.557 653.456C187.31 627.605 196.724 676.554 191.797 654.294C159.861 658.722 138.217 701.328 107.336 717.605L111.559 722.033C104.169 727.059 99.3299 741.062 89.3881 736.993C79.4463 732.924 85.693 760.69 84.1973 763.323C83.7574 777.684 68.2729 763.682 71.1762 762.485C66.5133 770.384 71.6161 794.679 58.595 793.841C45.7498 778.522 45.5739 831.66 34.0485 811.793L34.9283 813.588C16.2764 809.041 19.7076 842.072 0.967764 839.559C0.967764 839.559 0.351922 837.884 0 836.208L10.9096 917.95L55.3397 978.867L106.104 1015.25C106.104 1015.25 118.07 1000.17 130.035 984.971C142 969.891 154.054 954.811 154.054 954.811L209.569 937.577C209.569 937.577 215.992 931.234 225.582 921.78C235.172 912.325 248.017 899.878 260.862 887.312C273.707 874.745 286.552 862.298 296.142 852.844C305.82 843.509 312.243 837.285 312.243 837.285L311.627 815.384C347.171 824.001 357.465 769.905 390.633 769.785L384.035 756.142C390.017 749.918 393.977 758.416 396.792 759.373C454.859 705.517 507.471 636.222 570.465 608.217C580.231 612.645 593.516 594.453 602.402 600.437C611.64 569.679 630.468 554.48 648.944 541.674V543.709L656.07 534.374C656.95 535.211 657.83 536.767 658.094 537.964C661.437 518.456 682.288 518.217 696.365 513.789V515.823C730.678 489.733 760.503 458.257 791.208 428.696C806.605 413.855 822.265 399.853 838.894 387.167C855.522 374.6 873.03 363.47 892.21 355.092C913.325 354.015 929.25 338.696 945.614 322.419C961.978 306.263 978.695 289.268 1001.22 284.72C1014.33 293.098 1082.78 227.393 1086.21 216.023L1085.85 216.382Z" fill="url(#paint12_radial_76_24472)"/>
<path d="M1178.15 103.75C1178.32 103.75 1178.5 103.63 1178.68 103.51L1172.96 96.8081L1178.06 103.75H1178.15Z" fill="url(#paint13_radial_76_24472)"/>
</g>
<defs>
<radialGradient id="paint0_radial_76_24472" cx="0" cy="0" r="1" gradientUnits="userSpaceOnUse" gradientTransform="translate(480.426 568.726) rotate(-12.5581) scale(0.195695 0.236747)">
<stop stop-color="#0E1015"/>
<stop offset="1"/>
</radialGradient>
<radialGradient id="paint1_radial_76_24472" cx="0" cy="0" r="1" gradientUnits="userSpaceOnUse" gradientTransform="translate(871.544 223.53) rotate(-12.5581) scale(2.44618 2.95933)">
<stop stop-color="#0E1015"/>
<stop offset="1"/>
</radialGradient>
<radialGradient id="paint2_radial_76_24472" cx="0" cy="0" r="1" gradientUnits="userSpaceOnUse" gradientTransform="translate(946.208 193.678) rotate(-12.5579) scale(0.684951 0.828622)">
<stop stop-color="#0E1015"/>
<stop offset="1"/>
</radialGradient>
<radialGradient id="paint3_radial_76_24472" cx="0" cy="0" r="1" gradientUnits="userSpaceOnUse" gradientTransform="translate(734.855 371.13) rotate(-12.5577) scale(0.684949 0.828609)">
<stop stop-color="#0E1015"/>
<stop offset="1"/>
</radialGradient>
<radialGradient id="paint4_radial_76_24472" cx="0" cy="0" r="1" gradientUnits="userSpaceOnUse" gradientTransform="translate(370.756 679.262) rotate(-12.5578) scale(0.684911 0.828567)">
<stop stop-color="#0E1015"/>
<stop offset="1"/>
</radialGradient>
<radialGradient id="paint5_radial_76_24472" cx="0" cy="0" r="1" gradientUnits="userSpaceOnUse" gradientTransform="translate(373.862 677.357) rotate(-12.5581) scale(3.1311 3.78792)">
<stop stop-color="#0E1015"/>
<stop offset="1"/>
</radialGradient>
<radialGradient id="paint6_radial_76_24472" cx="0" cy="0" r="1" gradientUnits="userSpaceOnUse" gradientTransform="translate(167.304 870.234) rotate(-12.5569) scale(0.68497 0.828583)">
<stop stop-color="#0E1015"/>
<stop offset="1"/>
</radialGradient>
<radialGradient id="paint7_radial_76_24472" cx="0" cy="0" r="1" gradientUnits="userSpaceOnUse" gradientTransform="translate(842.838 569.979) rotate(-12.5581) scale(0.489237 0.591866)">
<stop stop-color="#0E1015"/>
<stop offset="1"/>
</radialGradient>
<radialGradient id="paint8_radial_76_24472" cx="0" cy="0" r="1" gradientUnits="userSpaceOnUse" gradientTransform="translate(201.037 843.315) rotate(-12.558) scale(2.2505 2.72257)">
<stop stop-color="#0E1015"/>
<stop offset="1"/>
</radialGradient>
<radialGradient id="paint9_radial_76_24472" cx="0" cy="0" r="1" gradientUnits="userSpaceOnUse" gradientTransform="translate(869.924 218.192) rotate(-12.5594) scale(0.880535 1.06535)">
<stop stop-color="#0E1015"/>
<stop offset="1"/>
</radialGradient>
<radialGradient id="paint10_radial_76_24472" cx="0" cy="0" r="1" gradientUnits="userSpaceOnUse" gradientTransform="translate(1010 154.971) rotate(-12.558) scale(1.76126 2.13072)">
<stop stop-color="#0E1015"/>
<stop offset="1"/>
</radialGradient>
<radialGradient id="paint11_radial_76_24472" cx="0" cy="0" r="1" gradientUnits="userSpaceOnUse" gradientTransform="translate(1099.71 122.982) rotate(-12.558) scale(5.57732 6.74725)">
<stop stop-color="#0E1015"/>
<stop offset="1"/>
</radialGradient>
<radialGradient id="paint12_radial_76_24472" cx="0" cy="0" r="1" gradientUnits="userSpaceOnUse" gradientTransform="translate(587.255 498.326) rotate(-12.5581) scale(532.779 644.542)">
<stop stop-color="#0E1015"/>
<stop offset="1"/>
</radialGradient>
<radialGradient id="paint13_radial_76_24472" cx="0" cy="0" r="1" gradientUnits="userSpaceOnUse" gradientTransform="translate(1156.45 98.2141) rotate(-12.5581) scale(2.83757 3.43282)">
<stop stop-color="#0E1015"/>
<stop offset="1"/>
</radialGradient>
</defs>
</svg>
