<svg width="95" height="125" viewBox="0 0 95 125" fill="none" xmlns="http://www.w3.org/2000/svg">
<path d="M88.8666 46.8917C88.7925 47.1622 88.7554 47.3712 88.7554 47.5064C88.7554 48.281 90.1027 51.7359 91.6106 55.1417C92.3646 56.8507 93.1186 58.6212 93.5759 60.49C94.0456 62.3589 94.3052 64.4613 93.4029 66.6253C92.5006 68.7892 90.8196 70.0925 89.1633 71.0884C87.507 72.0843 85.7148 72.8097 83.972 73.4859C80.4864 74.8384 77.0749 76.3261 76.5311 76.8794C75.9749 77.4327 74.4793 80.8138 73.1196 84.281C72.4398 86.0146 71.7106 87.7974 70.7094 89.445C69.7082 91.0925 68.398 92.7646 66.2226 93.6622C64.0472 94.5597 61.9336 94.3015 60.0548 93.8343C58.176 93.3671 56.3962 92.6294 54.6781 91.8794C51.2543 90.3794 47.781 89.0392 47.0023 89.0392C46.2236 89.0392 42.7504 90.3794 39.3266 91.8794C37.6085 92.6294 35.8286 93.3794 33.9499 93.8343C32.0711 94.3015 29.9575 94.5597 27.7821 93.6622C25.6067 92.7646 24.2965 91.0925 23.2953 89.445C22.2941 87.7974 21.5649 86.0146 20.885 84.281C19.5254 80.8138 18.0298 77.4204 17.4736 76.8794C16.9174 76.3261 13.5183 74.8384 10.0327 73.4859C8.28991 72.8097 6.49767 72.0843 4.84138 71.0884C3.18511 70.0925 1.50411 68.7892 0.601807 66.6253C-0.300491 64.4613 -0.0409164 62.3589 0.428772 60.49C0.89846 58.6212 1.64008 56.8507 2.39405 55.1417C3.90201 51.7359 5.24928 48.281 5.24928 47.5064C5.24928 46.7318 5.2122 47.1622 5.13804 46.8917H12.2081C12.2081 47.1007 12.2205 47.2974 12.2205 47.5064C12.2205 51.5269 10.181 54.7605 8.77197 57.9327C8.06743 59.5187 7.47413 61.0187 7.18984 62.1499C6.90556 63.281 7.01681 63.9081 7.04153 63.9695C7.06625 64.0187 7.43705 64.5474 8.43824 65.1499C9.43942 65.7523 10.9227 66.3917 12.5542 67.0187C15.8173 68.2728 19.5501 69.1335 22.4054 71.9736C25.2606 74.8138 26.1134 78.5269 27.3866 81.7728C28.0169 83.3958 28.6597 84.8712 29.2653 85.8671C29.871 86.863 30.3901 87.2318 30.4519 87.2564C30.5014 87.281 31.1441 87.3917 32.2812 87.1089C33.4184 86.8261 34.9263 86.2359 36.5208 85.5351C39.7221 84.1335 42.9605 82.1048 47.0023 82.1048C51.0442 82.1048 54.2949 84.1335 57.4839 85.5351C59.0783 86.2359 60.5863 86.8261 61.7234 87.1089C62.8606 87.3917 63.491 87.281 63.5528 87.2564C63.6022 87.2318 64.1337 86.863 64.7394 85.8671C65.345 84.8712 65.9877 83.3958 66.6181 81.7728C67.8789 78.5269 68.7441 74.8138 71.5993 71.9736C74.4545 69.1335 78.1874 68.2851 81.4505 67.0187C83.082 66.3917 84.5653 65.7523 85.5664 65.1499C86.5676 64.5474 86.9384 64.031 86.9632 63.9695C86.9879 63.9204 87.0868 63.281 86.8148 62.1499C86.5305 61.0187 85.9373 59.5187 85.2327 57.9327C83.8236 54.7482 81.7842 51.5146 81.7842 47.5064C81.7842 43.4982 81.7842 47.0884 81.7966 46.8917H88.8666Z" fill="#1A1A1A"/>
<path d="M31.6136 49.252L38.0533 51.9077L16.2127 104.371L26.4841 103.031L32.7879 111.207L54.6409 58.7438L61.0806 61.3995L34.6172 124.965L23.4064 110.432L5.15025 112.818L31.6136 49.252Z" fill="#1A1A1A"/>
<path d="M62.391 49.2525L88.8667 112.806L70.6106 110.421L59.3998 124.953L32.9364 61.3878L39.3761 58.732L61.2291 111.195L67.5452 103.019L77.8166 104.359L55.9636 51.896L62.4033 49.2402L62.391 49.2525Z" fill="#1A1A1A"/>
<path d="M63.0335 0.760742C64.0717 0.760742 65.1471 0.908284 66.2348 1.3632C68.4102 2.26074 69.7204 3.93287 70.7216 5.58042C71.7228 7.22796 72.452 9.01074 73.1318 10.7443C74.4915 14.2116 75.9871 17.605 76.5433 18.146C77.0995 18.6993 80.4986 20.187 83.9842 21.5394C85.727 22.2157 87.5192 22.9411 89.1755 23.937C90.8318 24.9329 92.5128 26.2362 93.4151 28.4001C94.3174 30.564 94.0578 32.6665 93.5881 34.5353C93.1184 36.4042 92.3768 38.1747 91.6228 39.8837C90.1149 43.2894 88.7676 46.7444 88.7676 47.5189C88.7676 48.2935 88.8047 47.8632 88.8788 48.1337H81.8088C81.8088 47.9247 81.7964 47.728 81.7964 47.5189C81.7964 43.4984 83.8358 40.2648 85.2449 37.0927C85.9495 35.5066 86.5428 34.0066 86.827 32.8755C87.1113 31.7443 87.0001 31.1173 86.9754 31.0558C86.9506 31.0066 86.5798 30.478 85.5787 29.8755C84.5775 29.273 83.0942 28.6337 81.4627 28.0066C78.1996 26.7525 74.4668 25.8919 71.6115 23.0517C68.7563 20.2116 67.9034 16.4984 66.6303 13.2525C66 11.6296 65.3572 10.1542 64.7516 9.15829C64.1459 8.16238 63.6268 7.79353 63.565 7.76894C63.5155 7.74435 62.8728 7.63369 61.7356 7.91648C60.5985 8.19927 59.0905 8.78943 57.4961 9.49025C54.2948 10.8919 51.0564 12.9206 47.0145 12.9206C42.9727 12.9206 39.722 10.8919 36.533 9.49025C34.9385 8.78943 33.4306 8.19927 32.2934 7.91648C31.1563 7.63369 30.5259 7.74435 30.4641 7.76894C30.4147 7.79353 29.8832 8.16238 29.2775 9.15829C28.6719 10.1542 28.0291 11.6296 27.3988 13.2525C26.138 16.4984 25.2728 20.2116 22.4176 23.0517C19.5623 25.8919 15.8295 26.7402 12.5664 28.0066C10.9349 28.6337 9.45163 29.273 8.45045 29.8755C7.44926 30.478 7.07845 30.9943 7.05373 31.0558C7.02901 31.105 6.91777 31.7443 7.20206 32.8755C7.48634 34.0066 8.07964 35.5066 8.78417 37.0927C10.1932 40.2771 12.2327 43.5107 12.2327 47.5189C12.2327 51.5271 12.2327 47.937 12.2203 48.1337H5.15025C5.2244 47.8632 5.26149 47.6542 5.26149 47.5189C5.26149 46.7444 3.91422 43.2894 2.40627 39.8837C1.65229 38.1747 0.898308 36.4042 0.440979 34.5353C-0.0287094 32.6665 -0.288277 30.564 0.614021 28.4001C1.51633 26.2362 3.19733 24.9329 4.8536 23.937C6.50988 22.9411 8.30212 22.2157 10.0449 21.5394C13.5305 20.187 16.942 18.6993 17.4858 18.146C18.042 17.5927 19.5376 14.2116 20.8973 10.7443C21.5771 9.01074 22.3063 7.22796 23.3075 5.58042C24.3087 3.93287 25.6189 2.26074 27.7943 1.3632C28.3382 1.14189 28.882 0.982054 29.4135 0.895989C31.008 0.613202 32.553 0.846808 33.9621 1.19107C35.8408 1.65828 37.6207 2.39599 39.3388 3.14599C42.7626 4.64599 46.2358 5.98615 47.0145 5.98615C47.7932 5.98615 51.2665 4.64599 54.6903 3.14599C56.4084 2.39599 58.1882 1.64599 60.067 1.19107C61.0064 0.957463 62.0076 0.773038 63.0458 0.773038L63.0335 0.760742Z" fill="#1A1A1A"/>
<path d="M57.8667 60.0602L33.7147 118.081L24.9512 106.72L10.6875 108.589L34.8395 50.5684L57.8667 60.0602Z" fill="#0079B7"/>
<path d="M34.036 50.2363L35.6429 50.9003L12.0594 107.531L25.322 105.798L33.4674 116.359L57.0509 59.7281L58.6577 60.3921L33.9248 119.79L24.5557 107.642L9.29072 109.646L34.0237 50.2486L34.036 50.2363Z" fill="#1A1A1A"/>
<path d="M36.1499 60.0602L60.3019 118.081L69.0653 106.72L83.3291 108.589L59.1771 50.5684L36.1499 60.0602Z" fill="#0079B7"/>
<path d="M59.9804 50.2359L84.7134 109.633L69.4484 107.629L60.0793 119.777L35.3464 60.3794L36.9532 59.7154L60.5367 116.347L68.6821 105.785L81.9447 107.519L58.3612 50.8876L59.9681 50.2236L59.9804 50.2359Z" fill="#1A1A1A"/>
<path d="M29.1167 90.4661C33.5788 92.2981 42.1816 85.5727 47.0021 85.5727C51.8226 85.5727 60.4377 92.2981 64.8874 90.4661C69.3495 88.6341 70.6473 77.8268 74.0587 74.4333C77.4702 71.0399 88.3349 69.7366 90.1766 65.3104C92.0182 60.8841 85.2572 52.3145 85.2572 47.5194C85.2572 42.7243 92.0306 34.1546 90.1889 29.7161C88.3472 25.2899 77.4702 23.9866 74.0711 20.5932C70.6597 17.1997 69.3495 6.39235 64.8998 4.56038C60.4377 2.72841 51.8349 9.45382 47.0144 9.45382C42.1939 9.45382 33.5788 2.72841 29.1291 4.56038C24.667 6.39235 23.3692 17.1997 19.9578 20.5932C16.5463 23.9866 5.68162 25.2899 3.83994 29.7161C1.99825 34.1423 8.75933 42.712 8.75933 47.5071C8.75933 52.3022 1.99825 60.8718 3.83994 65.2981C5.68162 69.7366 16.5587 71.0276 19.9578 74.421C23.3692 77.8145 24.6794 88.6219 29.1291 90.4538L29.1167 90.4661Z" fill="#FFC52C"/>
<path d="M86.1967 46.8919C86.1719 47.1132 86.1472 47.3222 86.1472 47.5066C86.1472 49.4985 87.7541 52.8673 89.2249 56.187C89.9665 57.8468 90.6464 59.5189 91.0543 61.1173C91.4498 62.7157 91.5734 64.2648 91.0048 65.6296C90.4362 67.0067 89.2496 68.0148 87.8282 68.8632C86.4191 69.7116 84.7381 70.4001 83.0324 71.064C79.6333 72.3796 76.0983 73.6337 74.6892 75.0353C73.2678 76.4493 72.007 79.9534 70.6845 83.3345C70.0294 85.0312 69.3249 86.6911 68.472 88.105C67.6191 89.5066 66.6056 90.6993 65.2212 91.2648C63.8369 91.8304 62.2795 91.7075 60.685 91.314C59.0782 90.9206 57.4095 90.2321 55.7285 89.4944C52.3913 88.0312 49.0045 86.4329 47.0022 86.4329C44.9998 86.4329 41.6131 88.0312 38.2758 89.4944C36.6072 90.2321 34.9262 90.9083 33.3317 91.314C31.7249 91.7075 30.1675 91.8304 28.7955 91.2648C27.4111 90.6993 26.3976 89.5189 25.5447 88.105C24.6919 86.7034 23.9997 85.0312 23.3322 83.3345C22.0097 79.9534 20.7489 76.437 19.3399 75.0353C17.9184 73.6214 14.3957 72.3673 10.9967 71.0517C9.29094 70.4001 7.6223 69.6993 6.20086 68.8509C4.79179 68.0026 3.59285 66.9944 3.02428 65.6173C2.4557 64.2403 2.5793 62.6911 2.97483 61.105C3.37036 59.5067 4.06253 57.8468 4.80415 56.1747C6.27502 52.855 7.88187 49.4862 7.88187 47.4944C7.88187 45.5026 7.8695 47.1009 7.83242 46.8796H9.59995C9.6123 47.0886 9.62466 47.2976 9.62466 47.4944C9.62466 50.2976 7.84479 53.6173 6.39863 56.8755C5.66937 58.5107 5.02664 60.1091 4.66819 61.523C4.32211 62.937 4.28502 64.1173 4.64347 64.9534C4.98956 65.8017 5.85478 66.6132 7.10317 67.3632C8.35156 68.1132 9.9584 68.7894 11.627 69.4288C14.9767 70.7198 18.5859 71.814 20.5759 73.7935C22.5659 75.773 23.666 79.3632 24.9638 82.6952C25.6189 84.355 26.2863 85.9534 27.0403 87.1952C27.7943 88.437 28.6101 89.2976 29.4629 89.6419C30.3158 89.9862 31.5024 89.9616 32.9114 89.6173C34.3329 89.273 35.9397 88.6214 37.5836 87.896C40.8715 86.4575 44.1964 84.687 47.0145 84.687C49.8327 84.687 53.17 86.4575 56.4454 87.896C58.0894 88.6214 59.6962 89.2607 61.1176 89.6173C62.5391 89.9616 63.7257 89.9985 64.5662 89.6419C65.419 89.2976 66.2348 88.437 66.9888 87.1952C67.7427 85.9534 68.4226 84.355 69.0653 82.6952C70.3631 79.3632 71.4632 75.773 73.4532 73.7935C75.4432 71.814 79.0524 70.7198 82.402 69.4288C84.0707 68.7771 85.6775 68.1132 86.9259 67.3632C88.1743 66.6132 89.0395 65.8017 89.3856 64.9534C89.7317 64.105 89.707 62.9247 89.3609 61.523C89.0148 60.1091 88.3597 58.5107 87.6305 56.8755C86.1843 53.605 84.4044 50.2976 84.4044 47.4944C84.4044 44.6911 84.4044 47.0886 84.4291 46.8796H86.1843L86.1967 46.8919Z" fill="#1A1A1A"/>
<path d="M21.6882 47.5065C21.6882 54.1827 24.358 60.5885 29.1043 65.3098C33.8507 70.0311 40.2904 72.6868 47.002 72.6868C53.7137 72.6868 60.1534 70.0311 64.8997 65.3098C69.6461 60.5885 72.3159 54.1827 72.3159 47.5065C72.3159 40.8303 69.6461 34.4245 64.8997 29.7032C60.1534 24.9819 53.7137 22.3262 47.002 22.3262C40.2904 22.3262 33.8507 24.9819 29.1043 29.7032C24.358 34.4245 21.6882 40.8303 21.6882 47.5065Z" fill="white"/>
<path d="M16.4601 51.0347C16.4601 58.1535 19.303 64.9896 24.3707 70.0306C29.4384 75.0716 36.2984 77.8994 43.4674 77.8994C58.3862 77.8994 70.4746 65.8748 70.4746 51.0347C70.4746 36.1945 58.3862 24.1699 43.4674 24.1699C28.5485 24.1699 16.4601 36.1945 16.4601 51.0347Z" fill="#FFC52C"/>
<path d="M19.4511 25.3018C19.7107 28.1296 20.1927 30.9452 20.8972 33.6993C18.623 37.9534 17.424 42.687 17.4116 47.5067C17.4116 55.3141 20.5264 62.7895 26.0762 68.31C31.626 73.8304 39.1534 76.9288 46.9898 76.9288C51.8351 76.9288 56.5938 75.7362 60.8704 73.4739C63.6391 74.1747 66.4573 74.6542 69.3125 74.9124C68.0765 77.1378 67.409 79.5477 66.5562 81.7362C65.9258 83.3591 65.283 84.8345 64.6774 85.8182C64.0717 86.8141 63.5526 87.1706 63.5279 87.1829C63.4908 87.1952 62.8728 87.3059 61.748 87.0231C60.6232 86.7403 59.1153 86.1501 57.5208 85.4493C54.3195 84.0477 51.0811 82.019 47.0145 82.019C42.948 82.019 39.6972 84.0477 36.4959 85.4493C34.9015 86.1501 33.3935 86.7403 32.2687 87.0231C31.1439 87.3059 30.5135 87.1952 30.4888 87.1829C30.4517 87.1706 29.9326 86.8141 29.3393 85.8182C28.7337 84.8223 28.0909 83.3468 27.4606 81.7362C26.1998 78.5026 25.347 74.7772 22.467 71.9124C19.5871 69.0477 15.8542 68.1993 12.5911 66.9452C10.9596 66.3182 9.47633 65.6788 8.48751 65.0763C7.48633 64.4739 7.12788 63.9575 7.11552 63.9329C7.10316 63.896 6.99192 63.2813 7.2762 62.1624C7.56049 61.0436 8.15378 59.5436 8.85832 57.9575C10.2674 54.7731 12.3068 51.5518 12.3068 47.4944C12.3068 43.437 10.2674 40.2157 8.85832 37.0436C8.15378 35.4575 7.56049 33.9575 7.2762 32.8386C6.99192 31.7198 7.10316 31.0927 7.11552 31.0682C7.12788 31.0313 7.48633 30.5272 8.48751 29.9247C9.48869 29.3223 10.9719 28.6829 12.5911 28.0559C14.8036 27.2075 17.2262 26.5436 19.4635 25.3018H19.4511Z" fill="#FC9100"/>
<path d="M33.0351 26.5195C33.7767 45.4663 49.0417 60.663 68.0889 61.4253C63.4043 68.4581 55.4814 72.6876 47.0022 72.6999C40.2906 72.6999 33.8509 70.0441 29.1045 65.3228C24.3582 60.6015 21.6883 54.1958 21.6883 47.5195C21.6883 39.0728 25.9526 31.1917 33.0351 26.5318V26.5195Z" fill="#FC9100"/>
<path d="M77.4458 46.8917C77.4458 47.1007 77.4458 47.2975 77.4458 47.5065C77.4458 64.2278 63.8 77.8016 46.99 77.8016C30.1801 77.8016 16.5343 64.2278 16.5343 47.5065C16.5343 30.7852 16.5343 47.1007 16.5343 46.8917H18.2771C18.2771 47.1007 18.2771 47.2975 18.2771 47.5065C18.2771 63.2934 31.1194 76.068 46.99 76.068C62.8607 76.068 75.703 63.2934 75.703 47.5065C75.703 31.7196 75.703 47.1007 75.703 46.8917H77.4458Z" fill="#1A1A1A"/>
<path d="M47.0023 17.2236C63.8123 17.2236 77.458 30.7974 77.458 47.5187C77.458 64.24 77.458 47.9245 77.458 48.1335H75.7152C75.7152 47.9245 75.7152 47.7277 75.7152 47.5187C75.7152 31.7318 62.8729 18.9572 47.0023 18.9572C31.1316 18.9572 18.2893 31.7318 18.2893 47.5187C18.2893 63.3056 18.2893 47.9245 18.2893 48.1335H16.5465C16.5465 47.9245 16.5465 47.7277 16.5465 47.5187C16.5465 30.7974 30.1923 17.2236 47.0023 17.2236Z" fill="#1A1A1A"/>
<path d="M63.0458 3.36719C63.8122 3.36719 64.5414 3.46555 65.2336 3.74833C66.618 4.31391 67.6315 5.49424 68.4844 6.90817C69.3372 8.30981 70.0294 9.98194 70.6969 11.6787C72.0194 15.0598 73.2802 18.5762 74.6892 19.9778C76.1107 21.3918 79.6333 22.6459 83.0324 23.9614C84.7381 24.6131 86.4068 25.3139 87.8282 26.1623C89.2373 27.0106 90.4362 28.0188 91.0048 29.3959C91.5734 30.7729 91.4498 32.3221 91.0543 33.9082C90.6587 35.5065 89.9665 37.1664 89.2249 38.8385C87.7541 42.1582 86.1472 45.527 86.1472 47.5188C86.1472 49.5106 86.1596 47.9246 86.1967 48.1336H84.4415C84.4291 47.9246 84.4168 47.7155 84.4168 47.5188C84.4168 44.7155 86.1967 41.4082 87.6428 38.1377C88.3721 36.5024 89.0148 34.9041 89.3733 33.4901C89.7193 32.0762 89.7564 30.8959 89.398 30.0598C89.0519 29.2114 88.1867 28.4 86.9383 27.65C85.6899 26.9 84.083 26.2237 82.4144 25.5844C79.0648 24.2934 75.4556 23.1992 73.4656 21.2196C71.4756 19.2401 70.3755 15.65 69.0777 12.318C68.4226 10.6582 67.7551 9.05981 67.0011 7.818C66.2472 6.5762 65.4314 5.71555 64.5785 5.37128C63.7257 5.02702 62.5391 5.05161 61.13 5.39588C59.7086 5.74014 58.1017 6.39178 56.4578 7.11719C53.17 8.55571 49.845 10.3262 47.0269 10.3262C44.2088 10.3262 40.8715 8.55571 37.596 7.11719C35.9521 6.39178 34.3452 5.75243 32.9238 5.39588C31.5024 5.05161 30.3158 5.01473 29.4753 5.37128C28.6224 5.71555 27.8067 6.5762 27.0527 7.818C26.2987 9.05981 25.6189 10.6582 24.9762 12.318C23.6783 15.65 22.5783 19.2401 20.5882 21.2196C18.5982 23.1992 14.989 24.2934 11.6394 25.5844C9.97076 26.2237 8.36392 26.9 7.11553 27.65C5.86714 28.4 5.00192 29.2114 4.65583 30.0598C4.30975 30.9082 4.33447 32.0885 4.68055 33.4901C5.02664 34.9041 5.68174 36.5024 6.411 38.1377C7.85715 41.4082 9.63703 44.7155 9.63703 47.5188C9.63703 50.3221 9.63703 47.9246 9.61231 48.1336H7.85715C7.88187 47.9123 7.90659 47.7033 7.90659 47.5188C7.90659 45.527 6.29975 42.1582 4.82888 38.8385C4.08726 37.1787 3.40745 35.5065 2.99956 33.9082C2.60403 32.3098 2.48042 30.7606 3.049 29.3959C3.61757 28.0188 4.80415 27.0106 6.22559 26.1623C7.63466 25.3139 9.31566 24.6254 11.0214 23.9614C14.4205 22.6459 17.9555 21.3918 19.3646 19.9901C20.786 18.5762 22.0468 15.0721 23.3693 11.691C24.0244 9.99423 24.7289 8.3344 25.5818 6.92047C26.4347 5.51883 27.4482 4.3262 28.8326 3.76063C29.1786 3.61309 29.5371 3.51473 29.8955 3.45325C30.9956 3.26883 32.1698 3.40407 33.3688 3.71145C34.9756 4.10489 36.6443 4.79342 38.3129 5.53112C41.6502 6.99424 45.0369 8.5926 47.0393 8.5926C49.0416 8.5926 52.4283 6.99424 55.7656 5.53112C57.4343 4.79342 59.1153 4.11719 60.7221 3.71145C61.5255 3.51473 62.3166 3.37948 63.0706 3.37948L63.0458 3.36719Z" fill="#1A1A1A"/>
<path d="M36.3477 49.1416C37.8062 49.1416 38.6344 43.6948 39.6726 42.662C40.7109 41.6416 46.1865 40.8301 46.1865 39.3793C46.1865 37.9284 40.7109 37.1047 39.6726 36.0719C38.6467 35.0391 37.831 29.5924 36.3725 29.5801C34.9139 29.5801 34.0858 35.0268 33.0475 36.0596C32.0093 37.0801 26.5337 37.8916 26.5213 39.3424C26.5213 40.7932 31.9969 41.617 33.0352 42.6497C34.0611 43.6825 34.8769 49.1293 36.3354 49.1293L36.3477 49.1416Z" fill="white"/>
<path d="M46.9156 38.7531C47.0022 38.9375 47.064 39.1588 47.064 39.3802C47.064 39.8351 46.8415 40.2162 46.5943 40.4867C46.3471 40.7572 46.0628 40.9416 45.7414 41.1138C45.111 41.458 44.3694 41.7408 43.6031 41.999C42.8367 42.2572 42.058 42.5031 41.4277 42.7367C40.7973 42.9703 40.3152 43.2531 40.2905 43.2777C40.2658 43.3023 39.9815 43.7941 39.7467 44.4088C39.5118 45.0359 39.2646 45.8105 39.0051 46.5728C38.7455 47.3351 38.4612 48.0851 38.1151 48.6998C37.9421 49.0072 37.7443 49.29 37.4724 49.5359C37.2005 49.7818 36.8173 50.0031 36.36 50.0031C35.9026 50.0031 35.5195 49.7818 35.2475 49.5359C34.9756 49.29 34.7902 49.0072 34.6172 48.6875C34.2711 48.0605 33.9868 47.3228 33.7272 46.5605C33.4676 45.7982 33.2204 45.0236 32.9856 44.3965C32.7507 43.7695 32.4665 43.29 32.4417 43.2654C32.417 43.2408 31.9226 42.9457 31.3046 42.7244C30.6742 42.4908 29.8955 42.2449 29.1292 41.9867C28.3628 41.7285 27.6212 41.4457 26.9909 41.1015C26.6818 40.9293 26.3852 40.7326 26.138 40.4621C25.8908 40.1916 25.6683 39.8105 25.6683 39.3556C25.6683 39.1343 25.7177 38.9375 25.8043 38.7531H28.6595C28.3381 38.8761 28.0662 39.0113 27.8437 39.1343C27.683 39.2326 27.5965 39.2941 27.5223 39.3679C27.5965 39.4293 27.683 39.5031 27.8437 39.6015C28.2763 39.8474 28.9685 40.1056 29.6978 40.3638C30.427 40.622 31.2181 40.8556 31.9102 41.1138C32.6024 41.372 33.1834 41.5687 33.6778 42.0605C34.1722 42.5523 34.3699 43.1302 34.6295 43.8187C34.8891 44.5072 35.1239 45.2941 35.3835 46.0195C35.6307 46.7449 35.9026 47.4334 36.1375 47.8638C36.2363 48.0236 36.2982 48.1097 36.3723 48.1834C36.4341 48.1097 36.5083 48.0236 36.6072 47.8638C36.8544 47.4334 37.1139 46.7449 37.3735 46.0195C37.6331 45.2941 37.8679 44.5072 38.1275 43.8187C38.387 43.1302 38.5848 42.5523 39.0792 42.0605C39.5736 41.5687 40.1546 41.372 40.8467 41.1138C41.5389 40.8556 42.33 40.622 43.0592 40.3638C43.7885 40.1179 44.4807 39.8474 44.9133 39.6015C45.074 39.5031 45.1605 39.4416 45.2346 39.3679C45.1605 39.3064 45.074 39.2326 44.9133 39.1343C44.6784 39.0113 44.3818 38.8638 44.0357 38.7285H46.928L46.9156 38.7531Z" fill="#1A1A1A"/>
<path d="M36.3847 28.7197C36.842 28.7197 37.2252 28.941 37.4971 29.1869C37.769 29.4328 37.9544 29.7156 38.1275 30.0353C38.4736 30.6624 38.7578 31.4001 39.0174 32.1623C39.277 32.9246 39.5242 33.6992 39.759 34.3263C39.9939 34.9533 40.2782 35.4328 40.3029 35.4574C40.3276 35.482 40.822 35.7771 41.44 35.9984C42.0704 36.232 42.8491 36.4779 43.6154 36.7361C44.3818 36.9943 45.1234 37.2771 45.7538 37.6214C46.0628 37.7935 46.3471 37.9902 46.5943 38.2607C46.8415 38.5312 47.064 38.9124 47.064 39.3673C47.064 39.5886 47.0145 39.7853 46.928 39.9697H44.0728C44.3941 39.8468 44.6661 39.7115 44.8886 39.5886C45.0492 39.4902 45.1358 39.4287 45.2099 39.355C45.1358 39.2935 45.0492 39.2197 44.8886 39.1214C44.4559 38.8755 43.7638 38.6173 43.0345 38.3591C42.3053 38.1009 41.5142 37.8673 40.822 37.6091C40.1298 37.3509 39.5489 37.1542 39.0545 36.6623C38.5601 36.1705 38.3623 35.5927 38.1151 34.9042C37.8555 34.2156 37.6207 33.4287 37.3611 32.7033C37.1139 31.9779 36.842 31.2894 36.6072 30.8591C36.5083 30.6992 36.4465 30.6132 36.3723 30.5394C36.3105 30.6132 36.2363 30.6992 36.1375 30.8591C35.8903 31.2894 35.6307 31.9779 35.3711 32.7033C35.1116 33.4287 34.8767 34.2156 34.6172 34.9042C34.3576 35.5927 34.1598 36.1705 33.6654 36.6623C33.171 37.1542 32.5901 37.3509 31.8979 37.5968C31.2057 37.855 30.4146 38.0886 29.6854 38.3468C28.9561 38.5927 28.264 38.8632 27.8314 39.0968C27.6707 39.1951 27.5841 39.2566 27.51 39.3304C27.5841 39.3919 27.6707 39.4656 27.8314 39.564C28.0662 39.6992 28.3628 39.8345 28.7089 39.9697H25.8043C25.7177 39.7853 25.6559 39.564 25.6559 39.3427C25.6559 38.8878 25.8784 38.5066 26.1256 38.2361C26.3728 37.9656 26.6571 37.7812 26.9785 37.6091C27.6089 37.2648 28.3505 36.982 29.1168 36.7238C29.8832 36.4656 30.6619 36.2197 31.2922 35.9861C31.9226 35.7525 32.4047 35.4697 32.4294 35.4451C32.4541 35.4205 32.7507 34.9287 32.9732 34.314C33.2081 33.6869 33.4553 32.9124 33.7149 32.1501C33.9744 31.3878 34.2587 30.6501 34.6048 30.023C34.7778 29.7156 34.9756 29.4328 35.2475 29.1869C35.5195 28.941 35.9026 28.7197 36.36 28.7197H36.3847Z" fill="#1A1A1A"/>
</svg>
