<svg width="1254" height="421" viewBox="0 0 1254 421" fill="none" xmlns="http://www.w3.org/2000/svg">
<g clip-path="url(#clip0_76_22423)">
<path d="M1078.29 490.483C1104.86 482.531 1133.06 476.169 1162.16 471.903L1167.19 399.504C1167.19 399.504 1137.37 397.206 1088.15 391.962C1082.31 374.802 1068.09 361.237 1049.04 356.426C1031.85 351.961 1014.29 356.432 1001.41 366.915C1001.09 361.709 999.518 356.273 996.591 351.229C991.634 343.237 984.236 338.009 976.378 335.27C976.467 324.351 973.215 314.101 967.36 304.013C949.562 274.993 911.448 265.371 882.42 283.158C870.002 291.153 860.858 302.326 856.576 315.042C840.629 310.806 822.911 312.675 807.774 321.454C800.517 325.901 795.012 331.315 790.014 337.466C179.406 292.074 -100.649 56.3156 -195.27 -134.855L-265.295 730.841L469.303 777.295C469.303 777.295 577.704 653.904 845.087 582.429C853.755 598.183 869.174 608.754 888.184 610.34C910.927 612.616 931.961 599.783 941.979 580.409C951.149 579.532 960.665 576.79 969.281 571.951C972.23 569.923 975.179 567.896 978.243 565.246C989.583 576.992 1008.36 579.822 1022.88 570.928C1031.61 565.468 1037.07 556.829 1039.41 547.615C1048.63 549.963 1058.54 548.579 1067.16 543.74C1084.5 533.441 1090 510.659 1079.58 493.938C1079.08 493.201 1077.95 492.348 1077.44 491.611L1078.29 490.483Z" fill="white"/>
<path d="M1038.02 52.7099C1044.25 53.8606 1050.03 50.4275 1051.06 44.83C1052.21 38.6104 1048.78 32.8294 1043.18 31.7937C1036.96 30.643 1031.17 34.0761 1030.14 39.6737C1028.99 45.8932 1032.42 51.6743 1038.02 52.7099Z" fill="white"/>
<path d="M966.823 131.523C978.022 133.594 988.85 127.235 991.428 116.777C993.498 105.581 987.136 94.7562 976.674 92.1781C965.475 90.1069 954.647 96.4662 952.069 106.924C949.491 117.382 956.361 128.945 966.823 131.523Z" fill="white"/>
<path d="M1236.29 160.133C1242.51 161.284 1248.29 157.851 1249.33 152.253C1250.48 146.033 1247.04 140.252 1241.44 139.217C1235.22 138.066 1229.44 141.499 1228.4 147.097C1227.25 153.316 1230.69 159.097 1236.29 160.133Z" fill="white"/>
<rect x="1148.38" y="398.438" width="130.769" height="41.887" fill="white"/>
<path d="M1154.38 315.094C1154.38 315.094 1155.68 330.161 1163.66 327.099C1171.65 324.036 1170.64 313.108 1170.64 313.108L1162.97 307.908C1162.97 307.908 1155.16 308.429 1154.38 315.094Z" fill="#D8A482"/>
<path d="M1169.21 295.446C1169.21 295.446 1155.3 275.775 1143.36 275.685C1131.42 275.595 1101.91 296.009 1096.52 314.529C1091.13 333.049 1144.24 336.367 1144.24 336.367L1169.21 295.446Z" fill="#CD1646"/>
<path d="M1104.58 324.947C1103.85 324.812 1103 324.503 1102.05 323.875L1102.11 323.582C1103.08 324.064 1103.93 324.373 1104.63 324.654L1104.58 324.947ZM1099.76 322.39C1098.55 321.562 1097.66 320.641 1097.66 320.641L1097.71 320.348C1097.86 320.375 1098.77 321.15 1099.98 321.979L1099.93 322.271L1099.76 322.39ZM1105.31 322.66L1105.01 322.606C1105.18 321.729 1105.34 320.851 1105.5 319.973L1105.79 320.027C1105.63 320.905 1105.47 321.783 1105.31 322.66ZM1106.57 317.448L1106.28 317.394C1106.44 316.516 1106.9 315.693 1107.21 314.842L1107.5 314.896C1107.19 315.747 1106.88 316.597 1106.57 317.448ZM1108.54 312.517L1108.25 312.463C1108.71 311.639 1109.02 310.789 1109.62 309.992L1109.91 310.046C1109.45 310.87 1109 311.694 1108.54 312.517ZM1111.22 307.868L1110.93 307.814C1111.38 306.99 1111.98 306.194 1112.56 305.543L1112.85 305.598C1112.25 306.394 1111.79 307.218 1111.22 307.868ZM1114.43 303.62L1114.13 303.566C1114.74 302.769 1115.31 302.119 1115.88 301.469L1116.18 301.523C1115.58 302.319 1115 302.969 1114.43 303.62ZM1118.17 299.772L1117.87 299.718C1118.62 298.949 1119.2 298.298 1119.92 297.675L1120.21 297.729C1119.46 298.499 1118.89 299.149 1118.17 299.772ZM1122.14 296.272L1121.85 296.217C1122.6 295.448 1123.29 294.971 1124.01 294.348L1124.25 294.695C1123.56 295.171 1122.84 295.795 1122.14 296.272ZM1126.51 293.145L1126.27 292.798C1126.96 292.321 1127.8 291.871 1128.49 291.394L1128.44 291.687C1127.89 292.191 1127.2 292.668 1126.36 293.118L1126.51 293.145ZM1130.96 290.337L1131.01 290.045C1131.56 289.541 1132.4 289.091 1133.07 288.76L1133.01 289.053C1132.47 289.557 1131.65 289.86 1130.96 290.337ZM1159.4 291.21C1159.11 291.156 1158.99 290.983 1158.73 290.782L1158.78 290.49C1159.07 290.544 1159.34 290.744 1159.6 290.945L1159.55 291.237L1159.4 291.21ZM1135.51 287.85L1135.56 287.557C1136.08 287.199 1136.92 286.749 1137.76 286.3L1137.71 286.592C1137.04 286.923 1136.2 287.373 1135.53 287.703L1135.51 287.85ZM1156.4 289.444C1155.58 288.989 1154.9 288.562 1154.05 288.253L1154.1 287.96C1154.95 288.269 1155.78 288.724 1156.6 289.179L1156.55 289.472L1156.4 289.444ZM1151.52 287.181C1150.64 287.018 1149.82 286.563 1148.94 286.401L1149 286.108C1149.87 286.271 1150.75 286.433 1151.58 286.888L1151.52 287.181ZM1143.77 285.746L1143.82 285.453C1144.58 285.442 1145.48 285.459 1146.36 285.621L1146.31 285.914C1145.43 285.751 1144.52 285.735 1143.77 285.746ZM1137.62 284.609L1136.39 282.263L1136.68 282.318L1137.97 284.371L1137.67 284.317L1137.62 284.609ZM1141.51 284.874L1140.27 282.528L1140.57 282.582L1141.82 284.782L1141.53 284.728L1141.51 284.874ZM1134.93 280.329L1134.12 278.97L1135.57 278.482L1135.52 278.774L1134.68 279.224L1135.25 280.237L1134.96 280.183L1134.93 280.329ZM1139.16 280.356L1137.93 278.01L1138.22 278.064L1139.48 280.264L1139.19 280.209L1139.16 280.356Z" fill="#DB5F7E"/>
<path d="M1171.35 303.556L1176.81 296.095C1176.81 296.095 1135.2 270.696 1111.96 318.596L1149.92 333.484L1150.35 332.806C1152.95 317.099 1162.25 308.531 1171.32 303.702L1171.35 303.556Z" fill="white"/>
<path d="M1167.78 299.113C1167.78 299.113 1166.38 318.976 1153.95 321.519C1153.21 323.047 1152.6 324.749 1151.98 326.45C1154.96 326.699 1168.44 326.621 1171.77 304.541L1167.63 299.086L1167.78 299.113Z" fill="#A1002B"/>
<path d="M1163.51 306.645C1163.51 306.645 1161.09 316.485 1163.38 317.969C1165.68 319.453 1170.54 320.2 1171.72 317.09C1172.28 315.681 1171.97 312.446 1172.59 312.408C1173.96 312.359 1174.07 308.447 1173.6 307.754C1171.49 305.246 1165.05 304.055 1163.22 306.591L1163.51 306.645Z" fill="#E9B88C"/>
<path d="M1148.78 283.193C1148.78 283.193 1147.23 283.361 1147.91 285.452C1148.83 288.649 1152.15 294.408 1151.97 297.854C1151.38 307.579 1143.47 315.193 1114.36 304.817L1110.81 311.725C1110.81 311.725 1155.8 330.335 1159.9 299.169C1160.32 296.07 1156.1 286.968 1156.1 286.968L1148.75 283.339L1148.78 283.193Z" fill="#A1002B"/>
<path d="M1111.99 318.449L1154.8 334.084C1162.87 337.09 1166.43 346.522 1162.33 353.935L1161.19 355.994L1151.31 354.619C1151.31 354.619 1153.73 346.443 1142.64 340.913C1110.74 325.179 1102.54 357.25 1102.54 357.25L1091.43 354.288L1111.99 318.449Z" fill="#5672BC"/>
<path d="M1087.92 363.472C1087.92 363.472 1089.19 354.174 1091.42 353.529L1103.99 354.34C1107.73 354.578 1110.49 357.66 1110.42 361.279L1110.32 364.286L1087.92 363.472Z" fill="#33312C"/>
<path d="M1148.4 363.006C1148.4 363.006 1148 356.126 1151.71 352.424L1164.28 353.235C1168.02 353.473 1170.78 356.555 1170.71 360.174L1170.61 363.182L1148.4 363.006Z" fill="#33312C"/>
<path d="M1136.15 294.172C1136.15 294.172 1114.3 314.943 1130.13 321.805C1141.77 326.831 1152.19 313.024 1152.19 313.024C1152.19 313.024 1160.44 314.247 1161.36 309.273C1162.28 304.299 1169.33 297.282 1150.92 296.147C1150.92 296.147 1144.68 302.102 1137.52 308.042L1147.63 296.749C1147.63 296.749 1145.28 287.387 1136.01 294.145L1136.15 294.172Z" fill="#E9B88C"/>
<path d="M1129.58 301.884C1131.96 302.929 1135.81 305.003 1138.22 307.566L1138.59 307.181C1139.21 305.48 1141.09 300.229 1141.11 300.083C1141.17 299.79 1136.1 298.55 1132.93 297.662C1131.96 298.844 1130.64 300.263 1129.58 301.884Z" fill="#D8A482"/>
<path d="M1148.36 298.548C1149.86 297.009 1153.7 292.577 1150.17 288.747C1148.04 286.385 1143.87 286.824 1138.94 288.938C1131.02 292.467 1128.3 294.082 1128.3 294.082L1138.19 307.712C1138.19 307.712 1144.25 302.78 1148.21 298.521L1148.36 298.548Z" fill="#5672BC"/>
<path d="M1132.27 292.244C1129.46 293.539 1128.42 294.254 1128.42 294.254L1138.31 307.885C1138.31 307.885 1139.72 306.785 1141.54 305.153L1132.24 292.39L1132.27 292.244Z" fill="#435F9E"/>
<path d="M1118.1 287.05L1121.36 294.765C1121.36 294.765 1104.88 307.755 1104.19 318.066C1104.19 318.066 1088.44 318.935 1093.21 302.117C1097.99 285.298 1118.07 287.197 1118.07 287.197L1118.1 287.05Z" fill="#DB5F7E"/>
<path opacity="0.2" d="M1103.24 302.76C1106.79 302.359 1108.69 296.203 1116.8 296.495C1116.8 296.495 1102.78 305.247 1102.4 317.888C1103.43 318.077 1104.22 317.92 1104.22 317.92C1104.88 307.755 1121.39 294.619 1121.39 294.619L1118.12 286.904C1118.12 286.904 1102.66 285.406 1095.61 296.509C1096.84 298.855 1100.32 302.977 1103.26 302.614L1103.24 302.76Z" fill="#33312C"/>
<path d="M1121.36 294.765C1121.36 294.765 1111.36 293.217 1106.48 299.124C1106.48 299.124 1103.46 302.348 1100.93 300.517C1098.36 298.832 1095.62 294.845 1095.62 294.845C1095.62 294.845 1101.85 284.046 1118.1 287.05L1121.36 294.765Z" fill="#CD1646"/>
<path d="M1103.34 294.004C1102.22 295.158 1100.65 295.473 1099.88 294.725C1099.11 293.978 1099.53 292.542 1100.5 291.36C1101.48 290.179 1103.19 289.892 1103.96 290.639C1104.73 291.387 1104.32 292.823 1103.34 294.004Z" fill="#EDBA48"/>
<path d="M1102.74 298.886C1102.16 298.778 1101.3 298.469 1100.53 297.721L1100.59 297.429C1101.65 298.231 1102.33 298.659 1102.94 298.62L1102.89 298.913C1102.89 298.913 1102.89 298.913 1102.74 298.886ZM1105.41 297.564L1105.17 297.217C1105.34 297.098 1105.69 296.859 1105.89 296.594C1106.41 296.236 1106.78 295.851 1107.28 295.64L1107.51 295.987C1106.99 296.344 1106.62 296.729 1106.13 296.94C1105.93 297.206 1105.61 297.298 1105.41 297.564ZM1098.64 295.706C1097.63 294.612 1096.91 293.572 1096.91 293.572L1097.26 293.333C1097.26 293.333 1097.98 294.374 1098.98 295.468L1098.93 295.76L1098.64 295.706ZM1109.6 294.556L1109.65 294.263C1110.34 293.786 1111.16 293.483 1111.94 293.326L1111.89 293.618C1111.1 293.775 1110.29 294.079 1109.6 294.556ZM1114.68 293.228L1114.74 292.935C1115.5 292.924 1116.43 292.794 1117.33 292.81L1117.28 293.102C1116.4 292.94 1115.47 293.07 1114.68 293.228ZM1120.82 293.606L1120.53 293.552C1120.38 293.525 1120.09 293.47 1119.94 293.443L1120 293.151C1120 293.151 1120.14 293.178 1120.29 293.205L1119.51 291.699L1119.8 291.753L1120.79 293.752L1120.82 293.606ZM1118.3 289.207L1117.19 287.034L1117.48 287.088L1118.62 289.115L1118.33 289.06L1118.3 289.207Z" fill="#DB5F7E"/>
<path d="M1224.14 293.047C1223.38 288.973 1202.17 263.717 1185.07 257.982C1173.81 254.235 1164.43 267.327 1163.6 270.957C1161.65 279.068 1159.94 288.285 1161.09 291.069C1165.67 302.354 1178.57 312.76 1185.82 316.975C1185.82 316.975 1185.82 316.975 1185.96 317.002C1192.97 320.869 1201.79 317.357 1203.9 310.031C1204.43 308.01 1205.42 305.924 1206.67 304.038C1210.53 297.942 1216.98 294.143 1224.14 293.047Z" fill="#E9B88C"/>
<path d="M1226.83 240.892C1269.65 300.706 1218.11 303.581 1209.17 291.337C1203.61 283.802 1194.68 280.487 1189.95 288.084L1185.21 285.089C1185.21 285.089 1193.37 274.495 1184.17 271.885C1179.01 270.325 1175.68 272.737 1173.97 277.11C1173.61 278.253 1161.41 274.636 1161.41 274.636C1161.41 274.636 1160.07 246.7 1175.81 240.987C1191.54 235.274 1206.4 240.895 1218.45 255.078C1230.51 269.26 1226.68 240.865 1226.68 240.865L1226.83 240.892Z" fill="#C4815C"/>
<path d="M1226.83 240.892C1226.83 240.892 1230.8 269.315 1218.6 255.105C1206.54 240.922 1191.69 235.301 1175.95 241.014C1164.92 245.025 1162.3 259.974 1161.61 268.622C1165.42 269.325 1172.52 270.186 1178.52 268.874C1187.19 266.998 1194.75 267.034 1207.01 276.866C1216.1 284.146 1230.04 294.742 1240.59 290.037C1246.17 281.99 1245.33 266.858 1226.8 241.038L1226.83 240.892Z" fill="#D8956B"/>
<path d="M1205.15 295.889C1205.15 295.889 1201.01 292.097 1197.15 295.771C1196.81 296.009 1196.61 296.275 1196.38 296.687C1195.32 298.307 1195.7 300.344 1197.06 301.2C1198.41 302.056 1200.51 301.384 1201.59 299.617C1202.65 297.997 1202.24 296.106 1201.03 295.277C1202.31 294.909 1203.85 294.74 1205.33 295.77L1205.15 295.889Z" fill="#3A3C47"/>
<path d="M1183.2 279.573C1183.2 279.573 1182.86 276.485 1180.67 276.079C1178.47 275.673 1174.92 278.497 1177.61 282.776C1177.61 282.776 1179.15 280.186 1181.43 282.575C1181.43 282.575 1182.38 281.54 1183.05 279.546L1183.2 279.573Z" fill="#D8956B"/>
<path d="M1200.05 314.464C1200.05 314.464 1195.73 310.032 1193.57 306.153C1193.57 306.153 1188.06 310.581 1191.82 313.999C1195.57 317.417 1200.03 314.61 1200.03 314.61L1200.05 314.464Z" fill="#A1002B"/>
<path d="M1191.07 309.019C1190.34 310.547 1190.01 312.303 1191.84 313.852C1192.49 314.426 1193.02 314.827 1193.58 315.081C1194.12 312.156 1192.81 310.249 1191.07 309.019Z" fill="#DB5F7E"/>
<path d="M1161.51 309.301C1162.18 305.643 1166.08 300.918 1161.11 298.334C1160.82 299.944 1160.41 302.138 1159.57 302.588C1158.21 303.395 1152.51 303.098 1152.51 303.098C1152.51 303.098 1140.81 321.359 1128.9 321.123C1129.31 321.35 1129.72 321.578 1130.28 321.832C1141.91 326.858 1152.34 313.051 1152.34 313.051C1152.34 313.051 1160.59 314.275 1161.51 309.301Z" fill="#DDAC85"/>
<path d="M1171.91 306.232C1172.02 307.311 1172.25 309.321 1171.59 310.41L1165.26 310.297C1165.26 310.297 1165.04 307.382 1164.9 305.692C1164.41 305.903 1163.88 306.261 1163.66 306.673C1163.66 306.673 1161.23 316.512 1163.53 317.996C1165.83 319.481 1170.69 320.228 1171.87 317.117C1172.43 315.709 1172.12 312.474 1172.73 312.436C1174.1 312.387 1174.22 308.475 1173.74 307.782C1173.24 307.235 1172.59 306.66 1171.77 306.205L1171.91 306.232Z" fill="#DDAC85"/>
<path d="M1145.29 413.206L1144.72 350.265L1109.77 350.581L1110.35 413.522L1145.29 413.206Z" fill="#EDBA48"/>
<path d="M1145.04 407.571L1110.09 407.886L1110.13 411.929L1145.08 411.613L1145.04 407.571Z" fill="#F9C55D"/>
<path d="M1144.48 358.806L1109.53 359.122L1109.63 369.516L1144.57 369.2L1144.48 358.806Z" fill="#F9CC7D"/>
<path d="M1109.87 413.274L1109.32 350.337L1097.26 350.455C1087.55 350.567 1079.79 358.381 1079.9 368.091L1080.16 396.035C1080.28 405.745 1088.1 413.504 1097.81 413.392L1109.87 413.274Z" fill="#DB5F7E"/>
<path d="M1230.13 368.129L1205.08 349.548L1205.14 365.12L1228.51 373.702C1228.91 371.573 1229.39 369.753 1230.13 368.129Z" fill="#EFCCAE"/>
<path d="M1230.46 392.561C1229.73 390.957 1229.19 389.096 1228.82 387.119L1205.59 396.035L1205.64 411.607L1230.46 392.561Z" fill="#E3A977"/>
<path d="M1228.68 373.586L1205.3 365.005L1205.59 396.034L1228.82 387.119C1228 382.855 1228.04 377.871 1228.68 373.586Z" fill="#E9B88C"/>
<path d="M1246.57 380.124L1230.3 368.013C1229.56 369.638 1229.08 371.457 1228.68 373.586L1246.57 380.124Z" fill="#737373"/>
<path d="M1246.54 380.266L1228.82 387.119C1229.19 389.096 1229.7 391.099 1230.46 392.56L1246.54 380.266Z" fill="#33312C"/>
<path d="M1246.68 380.292L1246.54 380.266L1228.66 373.728C1227.87 377.987 1227.97 382.997 1228.8 387.261L1246.51 380.408L1246.66 380.434L1246.68 380.292Z" fill="#343436"/>
<path d="M1205.59 396.034L1146.03 396.47L1146.08 412.042L1205.64 411.607C1205.64 411.607 1216.93 404.591 1205.59 396.034Z" fill="#FF7219"/>
<path d="M1205.28 365.147L1145.72 365.582L1145.66 350.01L1205.22 349.574C1205.22 349.574 1216.59 356.375 1205.28 365.147Z" fill="#FFAC77"/>
<path d="M1205.28 365.146L1145.72 365.582L1146 396.612L1205.56 396.176C1215.96 390.759 1215.58 370.576 1205.28 365.146Z" fill="#FF8639"/>
<path d="M1146.61 348.864L1137.03 349.002L1137.56 414.431L1147.14 414.293L1146.61 348.864ZM1107.18 349.207L1107.71 414.636L1117.28 414.497L1116.75 349.068L1107.18 349.207Z" fill="#EDBA48"/>
<path d="M1146.69 357.487L1137.16 357.573L1137.26 367.967L1146.79 367.881L1146.69 357.487Z" fill="#F9CC7D"/>
<path d="M1116.84 357.985L1107.31 358.071L1107.41 368.465L1116.94 368.379L1116.84 357.985Z" fill="#F9CC7D"/>
<path d="M1117.28 408.256L1107.75 408.343L1107.79 412.385L1117.32 412.298L1117.28 408.256Z" fill="#F9C55D"/>
<path d="M1147.25 408.071L1137.72 408.157L1137.76 412.199L1147.29 412.113L1147.25 408.071Z" fill="#F9C55D"/>
<path opacity="0.2" d="M1137.81 413.364L1137.24 350.424L1133.19 350.46L1133.77 413.401L1137.81 413.364Z" fill="#33312C"/>
<path opacity="0.2" d="M1107.98 413.451L1107.4 350.51L1103.36 350.547L1103.94 413.488L1107.98 413.451Z" fill="#33312C"/>
</g>
<defs>
<clipPath id="clip0_76_22423">
<rect width="1275" height="420.913" fill="white" transform="translate(-3)"/>
</clipPath>
</defs>
</svg>
