<svg width="110" height="138" viewBox="0 0 110 138" fill="none" xmlns="http://www.w3.org/2000/svg">
<g clip-path="url(#clip0_76_23836)">
<path d="M27.2736 18.0738C24.3394 18.0738 21.3602 18.8291 18.6508 20.3962L14.0415 23.0681L17.2118 28.5697L21.8211 25.8978C23.8223 24.7366 26.0033 24.2631 28.1168 24.4097C30.6126 24.5788 32.9847 25.6611 34.8509 27.4424L21.1354 35.3792L24.3057 40.8808L43.9459 29.5055L42.3607 26.7546C39.3703 21.5687 34.0864 18.5022 28.5215 18.1076C28.1056 18.0738 27.6896 18.0625 27.2624 18.0625L27.2736 18.0738Z" fill="#1A1A1A"/>
<path d="M15.0198 22.4922L8.67915 26.1675C0.39361 30.9589 -2.46192 41.6465 2.31604 49.9553L3.90119 52.7061L25.284 40.3274L22.1136 34.8258L6.66679 43.766C5.54256 39.1211 7.47623 34.2057 11.8495 31.6691L18.1901 27.9938L15.0198 22.4922Z" fill="#1A1A1A"/>
<path d="M85.2725 22.4922L82.1022 27.9938L88.4428 31.6691C92.816 34.1945 94.7497 39.1211 93.6255 43.766L78.1786 34.8258L75.0083 40.3274L96.3911 52.7061L97.9762 49.9553C102.754 41.6465 99.8986 30.9701 91.6243 26.1675L85.2837 22.4922H85.2725Z" fill="#1A1A1A"/>
<path d="M73.0072 18.0732C72.5912 18.0732 72.164 18.0845 71.7481 18.1183C66.1831 18.5129 60.8993 21.5794 57.9201 26.7654L56.3349 29.5162L75.9751 40.8915L79.1455 35.3899L65.4299 27.4531C67.2961 25.6718 69.6682 24.5895 72.164 24.4204C74.2776 24.2739 76.4586 24.7474 78.4597 25.9086L83.069 28.5805L86.2393 23.0788L81.63 20.4069C78.9094 18.8286 75.9414 18.0845 73.0072 18.0845V18.0732Z" fill="#1A1A1A"/>
<path d="M18.7184 115.705L14.3226 121.443C12.4901 123.845 11.0511 126.19 10.1518 128.275C9.70206 129.324 9.3648 130.282 9.24113 131.387C9.11747 132.492 9.15119 134.262 10.7701 135.513C12.389 136.753 14.109 136.336 15.1433 135.919C16.1664 135.513 17.0095 134.938 17.9089 134.228C19.6852 132.819 21.5739 130.823 23.4064 128.422L27.8021 122.683L23.7436 119.561L22.7656 118.805L18.7071 115.682L18.7184 115.705Z" fill="#1A1A1A"/>
<path d="M81.5625 115.705L77.5041 118.828L76.526 119.583L72.4676 122.706L76.8633 128.445C78.6958 130.846 80.5845 132.83 82.372 134.251C83.2601 134.961 84.1033 135.536 85.1376 135.942C86.1606 136.348 87.8919 136.776 89.5108 135.536C91.1297 134.296 91.1634 132.514 91.0398 131.41C90.9161 130.305 90.5788 129.346 90.1291 128.298C89.2298 126.201 87.802 123.867 85.9695 121.466L81.5738 115.728L81.5625 115.705Z" fill="#1A1A1A"/>
<path d="M10.8373 18.3885C13.4905 16.8553 16.9981 17.791 18.527 20.4516L21.6973 25.9645C23.2263 28.6252 22.2932 32.1426 19.64 33.6759C16.9868 35.2091 13.4793 34.2734 11.9503 31.6128L8.77999 26.0998C7.25105 23.4392 8.18415 19.9218 10.8373 18.3885Z" fill="#1A1A1A"/>
<path d="M89.4432 18.3885C86.7901 16.8553 83.2825 17.791 81.7535 20.4516L78.5832 25.9645C77.0543 28.6252 77.9874 32.1426 80.6405 33.6759C83.2937 35.2091 86.8013 34.2734 88.3302 31.6128L91.5006 26.0998C93.0295 23.4392 92.0964 19.9218 89.4432 18.3885Z" fill="#1A1A1A"/>
<path d="M2.20348 82.8756C2.20348 83.0673 2.20348 83.2476 2.20348 83.4393C2.20348 109.955 23.7099 131.511 50.1404 131.511C76.571 131.511 98.0774 109.955 98.0774 83.4393C98.0774 56.9232 98.0774 83.0673 98.0774 82.8756H91.7368C91.7368 83.0673 91.7368 83.2476 91.7368 83.4393C91.7368 106.517 73.1533 125.153 50.1404 125.153C27.1276 125.153 8.54411 106.517 8.54411 83.4393C8.54411 60.3617 8.54411 83.0673 8.54411 82.8756H2.20348Z" fill="#1A1A1A"/>
<path d="M70.8599 111.139C71.9841 110.271 75.6379 113.168 79.0443 117.633L83.44 123.371C86.8576 127.836 88.7014 132.12 87.5771 132.988C86.4529 133.856 82.7992 130.958 79.3928 126.494L74.9971 120.756C71.5794 116.291 69.7357 112.007 70.8599 111.139Z" fill="#88C2C2"/>
<path d="M81.54 119.572L80.2809 120.541L82.8217 123.856C84.4968 126.043 85.7784 128.196 86.4979 129.842C86.8576 130.665 87.06 131.376 87.1162 131.838C87.1499 132.165 87.1162 132.3 87.105 132.345C87.06 132.345 86.9138 132.345 86.6215 132.232C86.1831 132.063 85.5648 131.68 84.8565 131.116C83.4512 130 81.7087 128.196 80.0336 126.009L77.4928 122.683L76.2337 123.653L78.7745 126.967C80.517 129.245 82.3045 131.116 83.8672 132.356C84.6429 132.976 85.3512 133.439 86.0257 133.698C86.7002 133.969 87.4535 134.081 88.0718 133.608C88.6901 133.134 88.7688 132.368 88.6789 131.646C88.6002 130.925 88.3416 130.113 87.9481 129.2C87.1612 127.373 85.8234 125.152 84.0808 122.875L81.54 119.561V119.572Z" fill="#1A1A1A"/>
<path d="M83.4173 123.36L79.3701 126.472L80.3482 127.757L84.3954 124.646L83.4173 123.372V123.36Z" fill="#1A1A1A"/>
<path d="M71.3881 110.192C71.0396 110.192 70.6911 110.271 70.3875 110.508C69.7692 110.982 69.6905 111.748 69.7805 112.47C69.8591 113.191 70.1177 113.992 70.5112 114.905C71.2982 116.731 72.636 118.952 74.3785 121.23L76.9193 124.544L78.1784 123.575L75.6377 120.26C73.9626 118.073 72.681 115.92 71.9727 114.274C71.6129 113.451 71.4106 112.74 71.3544 112.278C71.3206 111.951 71.3544 111.816 71.3656 111.771C71.4106 111.771 71.5567 111.771 71.849 111.884C72.2875 112.053 72.9058 112.436 73.6141 113C75.0193 114.116 76.7619 115.92 78.4257 118.107L80.9665 121.421L82.2256 120.452L79.6849 117.137C77.9423 114.86 76.1548 112.988 74.5921 111.748C73.8164 111.128 73.1082 110.677 72.4336 110.407C72.0964 110.271 71.7366 110.181 71.3881 110.17V110.192Z" fill="#1A1A1A"/>
<path d="M29.421 111.139C28.2967 110.271 24.643 113.168 21.2366 117.633L16.8409 123.371C13.4232 127.836 11.5795 132.12 12.7037 132.988C13.828 133.856 17.4817 130.958 20.8881 126.494L25.2838 120.756C28.7015 116.291 30.5452 112.007 29.421 111.139Z" fill="#88C2C2"/>
<path d="M18.752 119.572L16.2112 122.887C14.4687 125.164 13.1309 127.385 12.3439 129.211C11.9504 130.125 11.6919 130.936 11.6132 131.658C11.5345 132.379 11.6132 133.146 12.2315 133.619C12.8498 134.093 13.603 133.969 14.2776 133.71C14.9521 133.439 15.6604 132.988 16.4361 132.368C17.9875 131.139 19.7863 129.257 21.5288 126.979L24.0696 123.665L22.8104 122.695L20.2697 126.021C18.5946 128.208 16.8633 130.012 15.458 131.128C14.761 131.68 14.1314 132.064 13.693 132.244C13.3894 132.368 13.2545 132.357 13.2096 132.357C13.2096 132.312 13.1646 132.176 13.1983 131.85C13.2545 131.387 13.4569 130.677 13.8166 129.854C14.5249 128.208 15.8065 126.055 17.4816 123.868L20.0224 120.553L18.7632 119.584L18.752 119.572Z" fill="#1A1A1A"/>
<path d="M16.8633 123.36L15.8853 124.646L19.9325 127.757L20.9105 126.472L16.8746 123.36H16.8633Z" fill="#1A1A1A"/>
<path d="M28.9039 110.192C28.5554 110.192 28.1957 110.294 27.8584 110.429C27.1839 110.7 26.4756 111.151 25.6999 111.771C24.1485 113 22.3497 114.882 20.6072 117.16L18.0664 120.474L19.3255 121.444L21.8663 118.129C23.5414 115.942 25.2727 114.138 26.678 113.022C27.375 112.47 28.0046 112.086 28.443 111.906C28.7353 111.793 28.8815 111.793 28.9264 111.793C28.9264 111.838 28.9714 111.974 28.9377 112.301C28.8815 112.763 28.6791 113.473 28.3193 114.296C27.6111 115.942 26.3182 118.095 24.6544 120.282L22.1136 123.597L23.3727 124.567L25.9135 121.252C27.656 118.975 28.9939 116.754 29.7808 114.927C30.1743 114.014 30.4329 113.203 30.5116 112.481C30.5903 111.759 30.5116 110.993 29.9045 110.519C29.601 110.283 29.2524 110.192 28.9039 110.204V110.192Z" fill="#1A1A1A"/>
<path d="M50.1517 0.801758C42.7768 0.801758 35.8628 2.09825 31.2872 3.77806C27.3299 5.23239 24.5756 7.94939 22.9904 11.805C21.72 14.8828 19.539 20.159 19.1793 21.0271L6.12703 28.5806C5.56492 28.885 5.14896 29.4148 4.98032 30.0236C4.81169 30.6437 4.89038 31.2976 5.21641 31.8613C5.53119 32.4137 6.05958 32.8195 6.68914 32.9774C7.31871 33.1352 7.97076 33.045 8.51039 32.7068L22.9679 24.3416L23.2715 23.5975C23.2715 23.5975 26.0146 16.9572 27.3861 13.6314C28.6115 10.6664 29.9156 9.36989 32.9286 8.26506C36.7622 6.85582 43.3501 5.5706 50.1517 5.5706C56.9533 5.5706 63.5412 6.85582 67.3748 8.26506C70.3877 9.38117 71.6918 10.6664 72.9173 13.6314C74.2888 16.9572 77.0319 23.5975 77.0319 23.5975L77.3355 24.3416L91.793 32.7068C92.3439 33.045 92.9959 33.1352 93.6142 32.9774C94.2326 32.8195 94.7609 32.4137 95.087 31.8613C95.4018 31.3088 95.4917 30.6437 95.3231 30.0236C95.1544 29.4036 94.7385 28.885 94.1764 28.5806L81.1241 21.0271C80.7643 20.159 78.5834 14.8828 77.313 11.805C75.7278 7.94939 72.9735 5.24366 69.0162 3.77806C64.4294 2.09825 57.5266 0.801758 50.1517 0.801758Z" fill="#1A1A1A"/>
<path d="M53.1873 19.5161C51.13 18.9637 48.9153 20.2489 48.3644 22.312L47.8697 24.1609C47.3189 26.224 48.6005 28.445 50.6578 28.9974L58.9434 31.2184C61.0007 31.7708 63.2154 30.4856 63.7663 28.4225L64.2609 26.5735C64.8118 24.5104 63.5302 22.2895 61.4729 21.7371L53.1873 19.5161Z" fill="#1A1A1A"/>
<path d="M23.6649 29.3811L19.4041 31.8501L18.4036 32.425L18.1675 32.5603L13.9067 35.0293L27.9595 59.4372L32.2203 56.9683L32.4564 56.833L33.4569 56.258L37.7178 53.789L23.6649 29.3811Z" fill="#1A1A1A"/>
<path d="M76.616 29.3811L62.5631 53.789L66.824 56.258L68.0494 56.9683L72.3102 59.4372L86.363 35.0293L82.1022 32.5603L81.1016 31.9854L80.8655 31.8501L76.6047 29.3811H76.616Z" fill="#1A1A1A"/>
<path d="M20.9219 30.959L16.6611 33.428L30.714 57.8359L34.9748 55.3669L20.9219 30.959Z" fill="#4D7D84"/>
<path d="M12.4227 21.1398C11.2423 21.8275 10.8375 23.327 11.5233 24.5107L14.6936 30.0236C15.3794 31.2074 16.8746 31.6133 18.0551 30.9256C19.2355 30.2378 19.6402 28.7384 18.9544 27.5547L15.7841 22.0417C15.0983 20.858 13.6031 20.4521 12.4227 21.1398Z" fill="#B2DDDD"/>
<path d="M17.774 23.9131L16.4024 24.7023L18.2687 27.9491C18.7408 28.7608 18.471 29.7642 17.6616 30.2377C16.8521 30.7112 15.8516 30.4407 15.3794 29.6289L13.5132 26.3821L12.1416 27.1825L14.0078 30.4294C14.9072 31.9852 16.8971 32.515 18.4485 31.6244C20 30.7225 20.5284 28.727 19.6402 27.1712L17.774 23.9244V23.9131Z" fill="#1A1A1A"/>
<path d="M13.5694 20.0236C13.041 20.0349 12.5126 20.1814 12.0292 20.452C10.4778 21.3539 9.9494 23.3494 10.8375 24.9052L12.7037 28.1521L14.0753 27.3629L12.2091 24.116C11.7369 23.3043 12.0067 22.3009 12.8162 21.8274C13.6256 21.3539 14.6262 21.6245 15.0983 22.4362L16.9646 25.6831L18.3361 24.8939L16.4699 21.647C15.8516 20.576 14.7161 19.9898 13.5582 20.0236H13.5694Z" fill="#1A1A1A"/>
<path d="M21.6076 30.5647L20.2361 31.3539L34.2889 55.7618L35.6604 54.9614L21.6076 30.5535V30.5647ZM17.3468 33.0337L15.9753 33.8229L30.0281 58.2308L31.3996 57.4304L17.3468 33.0224V33.0337Z" fill="#1A1A1A"/>
<path d="M20.236 23.1466L10.2642 28.9188C3.45137 32.8647 1.13546 41.5343 5.07025 48.355L39.6177 28.3551C35.6829 21.5232 27.0376 19.2008 20.236 23.1466Z" fill="#B2DDDD"/>
<path d="M16.1214 25.5253C22.9342 21.5794 31.5795 23.9018 35.503 30.7338L31.3209 33.1577C27.3861 26.3257 18.7408 24.0033 11.9393 27.9492L16.1214 25.5253Z" fill="white"/>
<path d="M18.4823 24.1611C11.7257 28.1183 9.43226 36.754 13.3558 43.5635L15.1546 42.515L5.05902 48.3548C1.12423 41.5229 3.44014 32.8533 10.2529 28.9187L18.4823 24.1611Z" fill="#88C2C2"/>
<path d="M16.2001 24.5672L9.85946 28.2425C2.6869 32.3912 0.236086 41.5682 4.37324 48.7609L4.76671 49.4486L24.0809 38.2649L23.2939 36.8895L5.41877 47.2389C2.24845 40.903 4.44069 33.203 10.6464 29.6066L16.987 25.9313L16.2001 24.5559V24.5672Z" fill="#1A1A1A"/>
<path d="M79.359 30.959L83.6198 33.428L69.567 57.8359L65.3062 55.3669L79.359 30.959Z" fill="#4D7D84"/>
<path d="M87.8582 21.1398C89.0386 21.8275 89.4434 23.327 88.7576 24.5107L85.5873 30.0236C84.9015 31.2074 83.4063 31.6133 82.2258 30.9256C81.0454 30.2378 80.6407 28.7384 81.3265 27.5547L84.4968 22.0417C85.1825 20.858 86.6778 20.4521 87.8582 21.1398Z" fill="#B2DDDD"/>
<path d="M86.7115 20.024C85.5536 19.9901 84.4181 20.5877 83.811 21.6474L81.9448 24.8943L83.3164 25.6834L85.1826 22.4366C85.6548 21.6249 86.6441 21.3543 87.4648 21.8278C88.2742 22.3013 88.544 23.2934 88.0719 24.1051L86.2056 27.352L87.5772 28.1412L89.4434 24.8943C90.3428 23.3385 89.8032 21.3317 88.2517 20.4411C87.7683 20.1593 87.2399 20.024 86.7115 20.0127V20.024Z" fill="#1A1A1A"/>
<path d="M82.5069 23.9136L80.6407 27.1605C79.7413 28.7163 80.281 30.723 81.8324 31.6137C83.3838 32.5043 85.3849 31.9744 86.2731 30.4186L88.1393 27.1718L86.7677 26.3713L84.9015 29.6182C84.4293 30.4299 83.44 30.7005 82.6193 30.227C81.8099 29.7535 81.5401 28.7614 82.0123 27.9384L83.8785 24.6915L82.5069 23.9023V23.9136Z" fill="#1A1A1A"/>
<path d="M78.6734 30.5645L64.6206 54.9724L65.9922 55.7728L80.045 31.3649L78.6734 30.5757V30.5645ZM82.9342 33.0334L68.8814 57.4413L70.253 58.2418L84.3058 33.8339L82.9342 33.0447V33.0334Z" fill="#1A1A1A"/>
<path d="M80.0561 23.1466L90.028 28.9188C96.8408 32.8647 99.1567 41.5343 95.2219 48.355L60.6744 28.3551C64.6092 21.5232 73.2545 19.2008 80.0561 23.1466Z" fill="#B2DDDD"/>
<path d="M84.1595 25.5253C77.3467 21.5794 68.7014 23.9018 64.7779 30.7338L68.96 33.1577C72.8948 26.3257 81.5401 24.0033 88.3416 27.9492L84.1595 25.5253Z" fill="white"/>
<path d="M81.7986 24.1611C88.5552 28.1183 90.8487 36.754 86.9251 43.5635L85.1264 42.515L95.2219 48.3548C99.1567 41.5229 96.8408 32.8533 90.028 28.9187L81.7986 24.1611Z" fill="#88C2C2"/>
<path d="M84.081 24.5674L83.2941 25.9428L89.6347 29.6181C95.8404 33.2144 98.0327 40.9145 94.8623 47.2504L76.9872 36.901L76.2002 38.2764L95.5144 49.4601L95.9079 48.7724C100.056 41.5796 97.6054 32.4027 90.4216 28.2427L84.081 24.5674Z" fill="#1A1A1A"/>
<path d="M50.1406 35.3564C23.6988 35.3564 2.20361 56.9234 2.20361 83.4282C2.20361 109.933 2.20361 83.8002 2.20361 83.9919H8.54424C8.54424 83.8002 8.54424 83.6199 8.54424 83.4282C8.54424 60.3506 27.1389 41.7036 50.1518 41.7036C73.1647 41.7036 91.7482 60.3506 91.7482 83.4282C91.7482 106.506 91.7482 83.8002 91.7482 83.9919H98.0888C98.0888 83.8002 98.0888 83.6199 98.0888 83.4282C98.0888 56.9121 76.5936 35.3564 50.1518 35.3564H50.1406Z" fill="#1A1A1A"/>
<path d="M94.9183 83.4392C94.9183 95.3444 90.1966 106.765 81.8099 115.186C73.4119 123.608 62.0235 128.332 50.1517 128.332C38.2799 128.332 26.8915 123.597 18.4935 115.186C10.0955 106.765 5.38504 95.3444 5.38504 83.4392C5.38504 71.534 10.1068 60.1135 18.4935 51.692C26.8915 43.2704 38.2799 38.5466 50.1517 38.5466C62.0235 38.5466 73.4119 43.2817 81.8099 51.692C90.2078 60.1135 94.9183 71.534 94.9183 83.4392Z" fill="#3494BE"/>
<path d="M50.1404 47.4531C40.6295 47.4531 31.5008 51.2411 24.7667 57.9942C18.0438 64.736 14.2552 73.8903 14.2552 83.4393C14.2552 103.304 30.3204 119.414 50.1292 119.414C69.938 119.414 68.7689 115.626 75.503 108.873C82.2258 102.131 86.0145 92.977 86.0145 83.4393C86.0145 73.9016 82.2371 64.7472 75.503 57.9942C68.7801 51.2524 59.6514 47.4531 50.1292 47.4531H50.1404Z" fill="#C9E3E7"/>
<path d="M46.8692 53.0107C39.6854 53.0107 32.8051 55.8743 27.7349 60.9588C22.6646 66.0433 19.8091 72.9542 19.8091 80.1469C19.8091 95.1412 31.9282 107.294 46.8804 107.294C61.8326 107.294 60.9445 104.431 66.0147 99.3463C71.085 94.2505 73.9405 87.3509 73.9405 80.1582C73.9405 72.9655 71.085 66.0546 66.0147 60.9701C60.9332 55.8743 54.053 53.022 46.8804 53.022L46.8692 53.0107Z" fill="white"/>
<path d="M50.1404 83.4391C50.7363 82.8416 51.7031 82.8416 52.299 83.4391L70.9498 102.131C71.5457 102.729 71.5457 103.698 70.9498 104.296C70.354 104.893 69.3872 104.893 68.7913 104.296L50.1517 85.5924C49.5558 84.9949 49.5558 84.0253 50.1517 83.4278L50.1404 83.4391Z" fill="#1A1A1A"/>
<path d="M50.1407 58.501C51.7146 58.501 52.985 59.7749 52.985 61.3533V80.5752C52.985 82.1535 51.7146 83.4275 50.1407 83.4275C48.5668 83.4275 47.2964 82.1535 47.2964 80.5752V61.3533C47.2964 59.7749 48.5668 58.501 50.1407 58.501Z" fill="#FF6C4B"/>
<path d="M50.1407 57.5879C48.0721 57.5879 46.3857 59.279 46.3857 61.3534V71.5337H48.207V61.3534C48.207 60.2598 49.0502 59.4143 50.1407 59.4143C51.2312 59.4143 52.0743 60.2598 52.0743 61.3534V71.5337H53.8956V61.3534C53.8956 59.279 52.2092 57.5879 50.1407 57.5879Z" fill="#1A1A1A"/>
<path d="M33.9177 92.8301C33.1307 91.4659 33.5917 89.7185 34.9632 88.9293L46.2505 82.3905C47.6108 81.6013 49.3533 82.0635 50.1403 83.4389C50.9272 84.8031 50.4663 86.5505 49.0947 87.3397L37.8075 93.8785C36.4472 94.6677 34.7047 94.2055 33.9177 92.8301Z" fill="#FF6C4B"/>
<path d="M40.697 84.6907L34.5699 88.2419C32.8386 89.2453 32.2315 91.4888 33.2321 93.225C34.2327 94.9612 36.4699 95.57 38.2012 94.5666L44.3394 91.0153L43.5412 89.6399L37.4142 93.1912C36.4137 93.7661 35.1883 93.4392 34.6037 92.4358C34.0303 91.4324 34.3563 90.2036 35.3569 89.6286L41.4952 86.0774L40.697 84.702V84.6907Z" fill="#1A1A1A"/>
<path d="M46.3857 70.4062V80.5865C46.3857 82.6609 48.0833 84.352 50.1407 84.352C52.198 84.352 53.8956 82.6609 53.8956 80.5865V70.4062H52.0743V80.5865C52.0743 81.6801 51.2312 82.5257 50.1407 82.5257C49.0502 82.5257 48.207 81.6801 48.207 80.5865V70.4062H46.3857Z" fill="#1A1A1A"/>
<path d="M47.5772 81.2183C46.9926 81.2296 46.3968 81.3874 45.8572 81.7031L39.7189 85.2543L40.5058 86.6297L46.6441 83.0785C47.6447 82.5035 48.8701 82.8305 49.4434 83.8338C50.0168 84.8372 49.6908 86.0661 48.6902 86.641L42.5519 90.1923L43.3389 91.5677L49.4772 88.0164C51.2085 87.0131 51.8043 84.7696 50.8037 83.0334C50.118 81.8384 48.8476 81.1845 47.5547 81.2183H47.5772Z" fill="#1A1A1A"/>
<path d="M50.1404 78.3884C48.8026 78.3884 47.521 78.9183 46.5766 79.8653C45.6323 80.8123 45.1039 82.0975 45.1039 83.4391C45.1039 86.2238 47.3636 88.4898 50.1404 88.4898C52.9173 88.4898 52.7599 87.9599 53.7042 87.0129C54.6486 86.0659 55.177 84.7807 55.177 83.4391C55.177 82.0975 54.6486 80.8123 53.7042 79.8653C52.7599 78.9183 51.4783 78.3884 50.1404 78.3884Z" fill="#7E7E7E"/>
<path d="M4.58683 82.8755C4.58683 83.0671 4.58683 83.2475 4.58683 83.4392C4.58683 108.659 24.9915 129.132 50.1517 129.132C75.3118 129.132 95.7165 108.67 95.7165 83.4392C95.7165 58.2083 95.7165 83.0671 95.7165 82.8755H94.1314C94.1314 83.0671 94.1314 83.2475 94.1314 83.4392C94.1314 107.802 74.4462 127.543 50.1517 127.543C25.8572 127.543 6.16075 107.802 6.16075 83.4392C6.16075 59.0764 6.16075 83.0671 6.16075 82.8755H4.57559H4.58683Z" fill="#1A1A1A"/>
<path d="M13.4795 82.8754C13.4795 83.0671 13.4795 83.2475 13.4795 83.4391C13.4795 103.743 29.9044 120.214 50.1517 120.214C70.399 120.214 86.8239 103.743 86.8239 83.4391C86.8239 63.1349 86.8239 83.0558 86.8239 82.8754H85.2388C85.2388 83.0671 85.2388 83.2475 85.2388 83.4391C85.2388 102.875 69.5446 118.625 50.1517 118.625C30.7588 118.625 15.0646 102.887 15.0646 83.4391C15.0646 63.9917 15.0646 83.0558 15.0646 82.8754H13.4795Z" fill="#1A1A1A"/>
<path d="M44.3394 82.8752C44.3169 83.0556 44.3169 83.2472 44.3169 83.4389C44.3169 86.6519 46.9363 89.2787 50.1404 89.2787C53.3444 89.2787 55.9639 86.6519 55.9639 83.4389C55.9639 80.2258 55.9639 83.0556 55.9414 82.8752H54.345C54.3675 83.0556 54.3787 83.2472 54.3787 83.4389C54.3787 85.7951 52.49 87.6891 50.1404 87.6891C47.7907 87.6891 45.902 85.7951 45.902 83.4389C45.902 81.0826 45.9133 83.0556 45.9358 82.8752H44.3394Z" fill="#1A1A1A"/>
<path d="M52.3664 22.583L60.652 24.8039C61.0679 24.9167 61.304 25.3338 61.2028 25.7509L60.7082 27.5998C60.5957 28.017 60.1798 28.2537 59.7638 28.1523L51.4783 25.9313C51.0623 25.8186 50.8262 25.4014 50.9274 24.9843L51.4221 23.1354C51.5345 22.7183 51.9505 22.4815 52.3664 22.583Z" fill="#B2DDDD"/>
<path d="M56.1664 22.7861L55.7617 24.3194L60.4272 25.5708L59.9438 27.3859L55.2783 26.1345L54.8735 27.6677L59.5616 28.9304C60.3822 29.1559 61.2591 28.6485 61.4727 27.8256L61.9674 25.9766C62.1922 25.1536 61.6863 24.2743 60.8657 24.0601L56.1776 22.7974L56.1664 22.7861Z" fill="#1A1A1A"/>
<path d="M53.3221 26.4277L50.1743 38.1976L54.7724 39.4265L57.9202 27.6566L53.3334 26.4277H53.3221Z" fill="#1A1A1A"/>
<path d="M50.1405 52.1992C49.0387 52.1992 48.1506 53.0899 48.1506 54.1947C48.1506 55.2995 49.0387 56.1902 50.1405 56.1902C50.6688 56.1902 51.1747 55.976 51.5457 55.6039C51.9167 55.2319 52.1303 54.7246 52.1303 54.1947C52.1303 53.6648 51.9167 53.1575 51.5457 52.7855C51.1747 52.4134 50.6688 52.1992 50.1405 52.1992Z" fill="#1A1A1A"/>
<path d="M50.1405 110.677C49.0387 110.677 48.1506 111.567 48.1506 112.672C48.1506 113.777 49.0387 114.668 50.1405 114.668C51.2422 114.668 51.1747 114.454 51.5457 114.081C51.9167 113.709 52.1303 113.202 52.1303 112.672C52.1303 112.142 51.9167 111.635 51.5457 111.263C51.1747 110.891 50.6688 110.677 50.1405 110.677Z" fill="#1A1A1A"/>
<path d="M79.3029 81.4434C78.7745 81.4434 78.2686 81.6576 77.8976 82.0296C77.5266 82.4016 77.313 82.909 77.313 83.4388C77.313 83.9687 77.5266 84.476 77.8976 84.8481C78.2686 85.2201 78.7745 85.4343 79.3029 85.4343C80.4046 85.4343 81.2927 84.5437 81.2927 83.4388C81.2927 82.334 80.4046 81.4434 79.3029 81.4434Z" fill="#1A1A1A"/>
<path d="M20.9894 81.4434C20.461 81.4434 19.9551 81.6576 19.5841 82.0296C19.2131 82.4016 18.9995 82.909 18.9995 83.4388C18.9995 84.5437 19.8876 85.4343 20.9894 85.4343C22.0911 85.4343 22.9793 84.5437 22.9793 83.4388C22.9793 82.909 22.7657 82.4016 22.3947 82.0296C22.0237 81.6576 21.5178 81.4434 20.9894 81.4434Z" fill="#1A1A1A"/>
<path d="M64.6206 56.123C63.9461 56.1569 63.3278 56.5289 62.9905 57.1151C62.7319 57.5774 62.6532 58.1185 62.7882 58.6258C62.9231 59.1332 63.2603 59.5728 63.71 59.8321C64.171 60.0914 64.7106 60.1704 65.2165 60.0351C65.7224 59.8998 66.1608 59.5616 66.4194 59.1106C66.678 58.6484 66.7567 58.1072 66.6218 57.5999C66.4869 57.0926 66.1496 56.6529 65.6999 56.3936C65.3739 56.202 64.9916 56.1118 64.6094 56.1343L64.6206 56.123Z" fill="#1A1A1A"/>
<path d="M35.4693 106.765C34.7947 106.799 34.1764 107.171 33.8391 107.757C33.5806 108.219 33.5019 108.761 33.6368 109.268C33.7717 109.775 34.109 110.215 34.5586 110.474C35.5142 111.027 36.7284 110.7 37.2793 109.741C37.5378 109.279 37.6165 108.738 37.4816 108.231C37.3467 107.723 37.0095 107.284 36.5598 107.024C36.2337 106.833 35.8515 106.743 35.4693 106.754V106.765Z" fill="#1A1A1A"/>
<path d="M75.3458 66.8213C75.0085 66.8213 74.6825 66.9227 74.4014 67.0918C73.9405 67.3511 73.6145 67.7908 73.4796 68.2981C73.3447 68.8055 73.4121 69.3579 73.6819 69.8088C73.9405 70.2711 74.3789 70.598 74.8848 70.7333C75.3907 70.8686 75.9416 70.8009 76.3913 70.5304C76.8522 70.2711 77.1783 69.8314 77.3132 69.3241C77.4481 68.8167 77.3806 68.2643 77.1108 67.8134C76.7511 67.182 76.0653 66.7987 75.3458 66.8213Z" fill="#1A1A1A"/>
<path d="M24.8454 96.0659C24.5081 96.0659 24.1821 96.1674 23.901 96.3365C22.9454 96.8889 22.6194 98.1065 23.1703 99.0535C23.4289 99.5157 23.8673 99.8427 24.3732 99.978C24.8791 100.113 25.43 100.046 25.8797 99.775C26.8353 99.2226 27.1613 98.005 26.6104 97.0468C26.2507 96.4154 25.5649 96.0321 24.8454 96.0547V96.0659Z" fill="#1A1A1A"/>
<path d="M35.6604 56.1226C35.2782 56.1001 34.9072 56.2015 34.5699 56.3819C34.109 56.6412 33.783 57.0809 33.6481 57.5882C33.5132 58.0955 33.5806 58.6479 33.8504 59.0989C34.109 59.5611 34.5474 59.8881 35.0533 60.0234C35.5592 60.1586 36.1101 60.091 36.5598 59.8204C37.0207 59.5611 37.3468 59.1214 37.4817 58.6141C37.6166 58.1068 37.5491 57.5544 37.2793 57.1034C36.942 56.5172 36.3237 56.1451 35.6492 56.1113L35.6604 56.1226Z" fill="#1A1A1A"/>
<path d="M64.8116 106.765C64.4294 106.742 64.0584 106.844 63.7211 107.035C63.2602 107.295 62.9341 107.734 62.7992 108.242C62.6643 108.749 62.7318 109.301 63.0016 109.752C63.5525 110.711 64.7666 111.038 65.7222 110.485C66.1832 110.226 66.5092 109.786 66.6441 109.279C66.779 108.772 66.7115 108.219 66.4417 107.768C66.1045 107.182 65.4861 106.81 64.8116 106.776V106.765Z" fill="#1A1A1A"/>
<path d="M24.9353 66.8216C24.2046 66.7991 23.53 67.1824 23.1703 67.8137C22.9117 68.2759 22.833 68.8171 22.9679 69.3244C23.1028 69.8317 23.4401 70.2714 23.8898 70.5307C24.8454 71.0831 26.0595 70.7562 26.6104 69.7979C27.1613 68.8396 26.8353 67.6221 25.8797 67.0696C25.5874 66.9005 25.2614 66.8103 24.9353 66.7991V66.8216Z" fill="#1A1A1A"/>
<path d="M75.4356 96.0664C74.7049 96.0438 74.0304 96.4271 73.6706 97.0585C73.1197 98.0167 73.4458 99.2343 74.4013 99.7867C74.8623 100.046 75.4019 100.125 75.9078 99.9897C76.4137 99.8544 76.8522 99.5162 77.1107 99.0652C77.6616 98.1069 77.3356 96.8894 76.38 96.3482C76.0877 96.1791 75.7617 96.0889 75.4356 96.0776V96.0664Z" fill="#1A1A1A"/>
<path d="M48.8478 80.6768C47.9822 80.6768 47.2852 81.3757 47.2852 82.2438C47.2852 83.1119 47.4538 83.0555 47.7461 83.3487C48.0384 83.6418 48.4319 83.8109 48.8478 83.8109C49.7135 83.8109 50.4105 83.1119 50.4105 82.2438C50.4105 81.3757 49.7135 80.6768 48.8478 80.6768Z" fill="white"/>
<path d="M50.1404 37.7461C24.9915 37.7461 4.57559 58.2082 4.57559 83.4391C4.57559 108.67 4.57559 83.8111 4.57559 84.0028H6.16075C6.16075 83.8111 6.16075 83.6307 6.16075 83.4391C6.16075 59.0762 25.8459 39.3357 50.1404 39.3357C74.435 39.3357 94.1201 59.0762 94.1201 83.4391C94.1201 107.802 94.1201 83.8111 94.1201 84.0028H95.7053C95.7053 83.8111 95.7053 83.6307 95.7053 83.4391C95.7053 58.2082 75.3006 37.7461 50.1404 37.7461Z" fill="#1A1A1A"/>
<path d="M50.1404 46.6638C29.9044 46.6638 13.4682 63.1349 13.4682 83.4392C13.4682 103.743 13.4682 83.8112 13.4682 84.0029H15.0534C15.0534 83.8112 15.0534 83.6308 15.0534 83.4392C15.0534 64.003 30.7476 48.2534 50.1404 48.2534C69.5333 48.2534 85.2275 63.9917 85.2275 83.4392C85.2275 102.887 85.2275 83.8112 85.2275 84.0029H86.8127C86.8127 83.8112 86.8127 83.6308 86.8127 83.4392C86.8127 63.1349 70.3877 46.6638 50.1404 46.6638Z" fill="#1A1A1A"/>
<path d="M50.1404 77.5881C46.9364 77.5881 44.317 80.215 44.317 83.428C44.317 86.6411 44.317 83.8113 44.3394 83.9917H45.9358C45.9134 83.8113 45.9021 83.6197 45.9021 83.428C45.9021 81.0718 47.7908 79.1778 50.1404 79.1778C52.4901 79.1778 54.3788 81.0718 54.3788 83.428C54.3788 85.7842 54.3675 83.8113 54.345 83.9917H55.9414C55.9639 83.8113 55.9639 83.6197 55.9639 83.428C55.9639 80.215 53.3445 77.5881 50.1404 77.5881Z" fill="#1A1A1A"/>
<path d="M52.1078 21.7707C51.4445 21.8045 50.8374 22.2554 50.6575 22.9319L50.1629 24.7808C49.938 25.6038 50.4439 26.4831 51.2646 26.6973L55.9526 27.96L56.3574 26.4268L51.6918 25.1754L52.1752 23.3603L56.8408 24.6117L57.2455 23.0784L52.5575 21.8158C52.4001 21.7707 52.2427 21.7594 52.0966 21.7707H52.1078Z" fill="#1A1A1A"/>
<path d="M27.2851 20.4404C24.7556 20.4404 22.1811 21.0943 19.8315 22.4585L15.2222 25.1304L16.0204 26.5058L20.6297 23.8339C23.0468 22.4359 25.6999 21.8722 28.2744 22.0526C32.3104 22.3344 36.099 24.4877 38.4711 28.1067L22.3273 37.4527L23.1142 38.8281L40.6971 28.6478L40.3036 27.9601C37.7179 23.4618 33.1648 20.8125 28.3756 20.4743C28.0159 20.4517 27.6561 20.4404 27.2963 20.4404H27.2851Z" fill="#1A1A1A"/>
<path d="M72.996 20.4404C72.6362 20.4404 72.2765 20.4517 71.9167 20.4743C67.1163 20.8125 62.5744 23.4618 59.9887 27.9601L59.5952 28.6478L77.1781 38.8281L77.9651 37.4527L61.8212 28.1067C64.1933 24.4877 67.9819 22.3344 72.0179 22.0526C74.5924 21.8722 77.2456 22.4359 79.6626 23.8339L84.272 26.5058L85.0589 25.1304L80.4496 22.4585C78.0887 21.0943 75.5255 20.4404 72.996 20.4404Z" fill="#1A1A1A"/>
</g>
<defs>
<clipPath id="clip0_76_23836">
<rect width="109.23" height="137" fill="white" transform="translate(0 0.801758)"/>
</clipPath>
</defs>
</svg>
