<svg width="39" height="40" viewBox="0 0 39 40" fill="none" xmlns="http://www.w3.org/2000/svg">
<path d="M36.2631 20.2637C35.5218 19.2445 34.657 18.3797 33.6378 17.6075C33.8231 17.3913 33.9775 17.1751 34.1011 16.928C35.4601 17.7619 36.5411 18.9974 37.2205 19.9239C37.3441 20.0784 37.4985 20.1401 37.6838 20.1401C37.8691 20.1401 37.9309 20.1093 38.0236 20.0166C38.2707 19.8313 38.3324 19.4915 38.1471 19.2136C37.4059 18.1943 36.2013 16.8354 34.6879 15.9088C35.2439 14.766 35.5527 13.4997 35.5836 12.2025C35.7071 6.67394 30.889 1.70134 24.8662 1.11451C24.403 1.08362 23.9088 1.05273 23.4146 1.05273C20.0481 1.05273 15.9094 1.97931 13.0988 4.41928C13.0988 4.1722 13.0988 3.92511 13.0988 3.67802C13.0679 3.36917 12.7899 3.15297 12.481 3.18385C12.1722 3.21474 11.956 3.49271 11.9869 3.80157C12.1104 5.00611 11.4927 6.118 10.3808 6.70483C10.1028 6.85926 9.9793 7.199 10.1337 7.47697C10.2264 7.66229 10.4426 7.78583 10.6279 7.78583C10.8132 7.78583 10.7823 7.78583 10.8441 7.75494C10.4735 9.361 11.1221 11.1215 12.5737 12.079C13.2532 12.5114 14.0253 12.7584 14.7975 12.7584C16.1873 12.7584 17.4537 12.079 18.2258 10.9053C18.72 10.164 21.0982 9.29923 23.3837 9.29923C25.6693 9.29923 23.8779 9.29923 24.0941 9.33012C25.7928 9.48455 26.8429 10.5038 27.2444 11.3686C26.6885 10.9671 25.9781 10.6891 25.206 10.5347C23.1366 10.1023 20.6967 10.6273 19.3068 11.8319C19.0597 12.0481 19.0288 12.3878 19.245 12.6349C19.4612 12.882 19.801 12.9129 20.0481 12.6967C21.1908 11.7392 23.2602 11.3068 24.9898 11.6466C25.6693 11.7701 26.5341 12.1098 27.1209 12.7584C26.5341 13.4379 25.0207 14.241 22.2101 14.5498C21.6232 14.5498 21.0364 14.6116 20.4496 14.7042C18.2567 14.9513 16.6506 16.8971 16.8359 19.1209C17.0213 21.2211 18.8126 22.8581 20.9129 22.8581C23.0131 22.8581 21.0673 22.8581 21.1291 22.8581C21.7159 22.8581 22.2718 22.7963 22.7969 22.7345C26.009 22.611 28.4799 23.4758 29.6844 25.1436C29.808 25.2981 29.9006 25.4834 29.9933 25.6687C29.9315 25.6069 29.8697 25.5451 29.808 25.4525C27.6768 23.0434 22.6425 23.0434 19.9554 24.0935C19.6774 24.2171 19.523 24.5259 19.6465 24.8348C19.7701 25.1127 20.0789 25.2672 20.3878 25.1436C22.6425 24.2479 27.2136 24.2171 28.974 26.1937C29.5918 26.9041 29.8389 27.4292 29.9006 28.2631C29.9006 28.3866 29.9624 28.4793 30.0242 28.572C29.1902 30.3324 26.9665 31.5061 23.9088 31.7841C23.6308 31.7841 23.3219 31.815 23.044 31.815C19.8319 31.815 17.2066 30.3016 16.8977 29.7765C16.1873 28.3866 14.7975 27.5218 13.2223 27.5218C11.6471 27.5218 12.5119 27.5836 12.1722 27.6763C12.3575 27.3056 12.481 26.9041 12.5119 26.4717C12.5119 26.1629 12.2648 25.8849 11.956 25.8849C11.6471 25.8849 11.3692 26.132 11.3692 26.4408C11.3383 27.6454 9.73221 28.7573 8.52767 28.819C8.21881 28.819 7.97173 29.097 8.00261 29.4059C8.00261 29.7147 8.28058 29.9309 8.55856 29.9309C8.8983 29.9309 9.23804 29.8383 9.57779 29.7456C8.99096 30.8575 8.92919 32.2165 9.5469 33.421C11.4309 37.22 17.1139 39.9997 23.044 39.9997C23.569 39.9997 24.0941 39.9997 24.6192 39.9379C30.7345 39.382 35.4292 36.4787 37.4985 31.9076C39.2281 28.0778 38.7648 23.7229 36.2631 20.2946V20.2637ZM34.1937 34.2858C32.5568 35.4286 30.9198 36.5096 29.5609 37.3435C29.3447 37.4362 29.1285 37.4979 28.9123 37.5906C29.2829 37.3435 29.6535 37.1273 30.0242 36.8802C32.0626 35.583 33.5143 34.6256 34.5644 33.9152C34.4408 34.0387 34.3173 34.1623 34.2246 34.3167L34.1937 34.2858ZM20.0789 38.301C21.7468 37.5597 23.9088 36.2007 26.3488 34.5329C28.449 33.3284 30.5801 32.062 32.4641 30.981C31.97 31.3517 31.4758 31.7223 30.9507 32.1547C29.5918 32.9886 28.171 33.8225 26.9665 34.5638C23.2602 36.7876 21.5306 37.8377 20.7584 38.4245C20.5113 38.4245 20.2951 38.3627 20.0789 38.3319V38.301ZM22.6733 21.252C22.6733 21.252 22.6425 21.252 22.6116 21.252C22.6116 21.252 22.5498 21.252 22.5189 21.252L24.0323 20.2637C23.5382 20.6343 23.1675 20.9741 22.9204 21.252C22.8278 21.252 22.7351 21.252 22.6425 21.252H22.6733ZM18.2258 19.2444C20.0172 18.0399 21.8703 16.8354 23.6308 15.7235C24.6809 15.5073 25.5766 15.2602 26.287 14.9204C25.5766 15.2911 24.8971 15.6926 24.2176 16.0323C21.0055 17.7619 19.1833 18.7812 18.2567 19.4298C18.2567 19.368 18.2258 19.3062 18.2258 19.2444ZM15.2608 11.2759C15.0755 11.3068 14.8901 11.3377 14.7048 11.3377C14.5195 11.3377 14.5504 11.3377 14.4886 11.3377C15.0755 11.0288 15.9403 10.5347 17.2066 9.79341C17.1139 9.88606 17.0213 10.0096 16.9286 10.1331C16.9286 10.164 16.8668 10.2258 16.8359 10.2567C16.0947 10.6891 15.5696 11.0288 15.2299 11.2759H15.2608ZM12.4502 10.0714C15.0755 8.37266 17.7934 6.64306 20.0789 5.2532C18.9053 6.08711 17.639 7.04457 16.3109 8.03292C15.7549 8.46532 15.1681 8.89772 14.6431 9.26835C13.6238 9.79341 13.0061 10.1331 12.6355 10.3802C12.5737 10.2876 12.481 10.1949 12.4193 10.1023L12.4502 10.0714ZM16.28 4.01777C16.4962 3.92511 16.7124 3.83245 16.9286 3.7398C16.558 3.956 16.1565 4.20308 15.7858 4.45017C15.9711 4.29574 16.1565 4.14131 16.3109 4.01777H16.28ZM13.9018 6.36509C14.6431 5.9018 15.6314 5.28408 16.9286 4.45017C17.361 4.1722 17.8552 3.86334 18.3185 3.55448C18.6891 3.33828 19.0288 3.15297 19.3995 2.93677C19.4612 2.93677 19.523 2.93677 19.5539 2.90588C17.8861 3.956 15.8785 5.40763 13.7782 6.92103C13.1605 7.38432 12.5119 7.8476 12.0486 8.18735C12.0486 8.0638 12.1104 7.90937 12.1413 7.78583C12.5428 7.35343 13.1605 6.89014 13.8709 6.36509H13.9018ZM28.5416 3.67802C28.4181 3.77068 28.2637 3.83245 28.0784 3.92511C28.2019 3.80157 28.2946 3.70891 28.3872 3.58537C28.449 3.58537 28.4799 3.64714 28.5416 3.67802ZM30.4257 4.88257C29.6844 5.28408 28.3563 6.05623 25.8237 7.53874C26.8738 6.73572 28.5416 5.65471 30.1786 4.66637C30.2712 4.72814 30.333 4.78991 30.4257 4.85168V4.88257ZM13.6547 11.0906C13.5929 11.0906 13.5621 11.0597 13.5003 11.0288C13.84 10.5964 14.6122 10.0096 15.6314 9.361C15.7858 9.29923 15.9094 9.20658 16.0638 9.1448C18.4111 7.90937 20.604 6.7666 22.3336 5.74737C24.9589 4.41928 26.4414 3.61625 27.09 3.06031C27.1518 3.06031 27.2136 3.09119 27.2753 3.12208C22.3027 6.118 15.6314 10.1023 13.6547 11.0906ZM27.7386 3.49271C26.6267 4.63548 23.1057 6.67394 20.3569 8.21823C19.9863 8.31089 19.6465 8.40355 19.3068 8.52709C19.8319 8.21823 20.4187 7.87849 21.0364 7.50786C23.7543 5.9018 26.4723 4.26485 27.7077 3.49271H27.7386ZM26.4105 2.84411C26.1943 2.99854 25.9472 3.15297 25.6384 3.3074C25.8237 3.12208 25.9781 2.90588 26.0708 2.75145C26.1943 2.75145 26.3179 2.81322 26.4414 2.84411H26.4105ZM21.9939 5.2532C21.9012 5.31497 21.7777 5.37674 21.685 5.40763C20.5113 6.02534 19.3995 6.58129 18.4111 7.10634C20.8511 5.31497 23.6308 3.33828 25.3913 2.59702C25.4222 2.59702 25.4531 2.59702 25.484 2.59702C25.0207 3.27651 23.6617 4.23397 22.0248 5.22231L21.9939 5.2532ZM23.2911 2.47348C23.4455 2.47348 23.569 2.47348 23.7235 2.47348C22.8278 2.93677 21.7159 3.55448 20.5422 4.26485C21.4379 3.64714 22.3027 3.02942 23.1366 2.47348C23.1984 2.47348 23.2293 2.47348 23.2911 2.47348ZM12.0178 8.86683C12.4193 8.58886 13.037 8.15646 14.118 7.35343C16.002 5.96357 18.9979 3.77068 21.0982 2.59702C21.4379 2.56614 21.7777 2.53525 22.0865 2.50437C20.9437 3.3074 19.2141 4.48105 17.4845 5.6856C14.4577 7.78583 12.9135 8.86683 12.1413 9.45366C12.0795 9.26835 12.0486 9.05215 12.0178 8.86683ZM22.0248 7.90937C22.488 7.6314 22.9204 7.38432 23.3528 7.13723C23.0749 7.38432 22.8587 7.6314 22.7351 7.8476C22.5189 7.8476 22.2718 7.87849 22.0248 7.90937ZM29.3756 4.48105C26.3488 6.30331 25.0516 7.32254 24.4956 7.94026C24.3721 7.94026 24.2794 7.90937 24.1559 7.87849C26.287 6.27243 28.2637 4.97523 29.3756 4.45017V4.48105ZM28.0475 6.85926C27.1209 7.56963 26.5032 8.09469 26.1634 8.4962C26.009 8.40355 25.8237 8.34177 25.6384 8.24912C26.4105 7.78583 27.2444 7.29166 28.0475 6.85926ZM29.7771 6.27243C30.333 5.87091 30.7037 5.59294 30.9816 5.37674C31.1669 5.53117 31.3523 5.71648 31.5067 5.9018C29.6226 7.13723 27.6768 8.34177 26.7194 8.80506C26.7194 8.80506 26.6576 8.80506 26.6576 8.77418C27.3062 8.09469 28.9123 6.92103 29.7771 6.27243ZM32.0626 16.8971C32.2171 16.8354 32.3406 16.7427 32.4641 16.6809C32.4333 16.7427 32.4024 16.7736 32.3406 16.8354C32.2479 16.8354 32.1553 16.8662 32.0626 16.8971ZM33.4525 12.9438C32.6495 13.3144 31.4758 13.963 29.8697 14.9513C29.1285 15.322 28.4181 15.6926 27.7386 16.0323C30.1168 14.3954 32.8965 12.4805 34.0702 12.079C34.0702 12.1098 34.0702 12.1407 34.0702 12.1716C34.0702 12.2643 34.0702 12.3878 34.0702 12.5114C33.9158 12.6349 33.6996 12.7893 33.4834 12.9438H33.4525ZM33.6996 14.241C32.8348 14.7351 31.4758 15.5073 29.9933 16.3721L32.8348 14.5189C33.1745 14.3645 33.4525 14.2718 33.6996 14.2101V14.241ZM28.6961 11.7701C28.6961 11.6157 28.6343 11.4304 28.6034 11.2759C29.0049 11.0288 29.6535 10.6582 30.6728 10.0096C31.1052 9.73163 31.5993 9.45366 32.0626 9.17569C31.1978 9.88606 30.1168 10.6891 29.3756 11.2759C29.1285 11.4612 28.8814 11.6466 28.6961 11.801V11.7701ZM28.0784 13.5924C28.0784 13.5924 28.1401 13.5924 28.171 13.5924C28.3872 13.4997 28.5108 13.2526 28.4799 13.0364C28.5108 12.9746 28.5416 12.882 28.5725 12.8202C30.2404 11.8628 32.2171 10.6891 33.3907 10.0405C33.5451 9.97872 33.6687 9.94783 33.7613 9.88606C33.7613 9.97872 33.8231 10.1023 33.854 10.1949C33.8231 10.2258 33.7613 10.2876 33.6996 10.3493C32.773 10.72 31.2905 11.7392 29.1902 13.2835C28.5416 13.6541 27.8622 14.0248 27.1518 14.4263C27.5224 14.1792 27.8313 13.9012 28.0475 13.6232L28.0784 13.5924ZM34.0393 11.5539C33.7305 11.6466 33.3289 11.8319 32.8348 12.079C33.2363 11.801 33.6378 11.5539 34.0084 11.3068C34.0084 11.3995 34.0084 11.4921 34.0084 11.5539H34.0393ZM33.0819 9.51543C33.0201 9.54632 32.9583 9.5772 32.8965 9.60809C32.495 9.79341 32.0317 10.0096 31.5376 10.2567C32.4024 9.57721 32.9892 9.08303 33.3907 8.74329C33.4525 8.89772 33.5143 9.05215 33.576 9.20658C33.4525 9.29923 33.2672 9.36101 33.0819 9.48455V9.51543ZM32.9892 7.94026C32.5259 8.21823 31.7229 8.68152 30.3639 9.51543C29.9315 9.79341 29.4373 10.0714 29.0049 10.3493C29.6226 9.88606 30.4257 9.33012 30.9816 8.95949C31.8155 8.40355 32.4024 8.00203 32.8039 7.66229C32.8657 7.75495 32.9274 7.8476 32.9583 7.94026H32.9892ZM32.1862 6.70483C32.1862 6.70483 32.1553 6.70483 32.1244 6.70483C32.1244 6.70483 32.1244 6.67394 32.1553 6.64306L32.1862 6.70483ZM27.2136 9.20658C28.2946 8.65063 29.9933 7.60052 31.5993 6.51951C31.0743 7.04457 30.0242 7.90937 27.9548 9.361C27.8313 9.45366 27.7386 9.51543 27.646 9.57721C27.5224 9.45366 27.3989 9.29923 27.2444 9.17569L27.2136 9.20658ZM29.6226 9.11392C30.3948 8.55798 31.7229 7.60052 32.4641 7.22989C32.0317 7.56963 31.2905 8.09469 30.7036 8.46532C29.53 9.26835 28.6961 9.85518 28.171 10.3185C28.171 10.2876 28.1092 10.2258 28.0784 10.1949C28.4181 9.97872 28.9123 9.63898 29.6226 9.11392ZM18.4111 19.9548C19.3686 19.2445 22.0247 17.8237 24.403 16.5265C24.8662 16.2794 25.3295 16.0323 25.7928 15.7852C22.9204 17.8855 19.9245 20.0475 18.5655 20.2328C18.5038 20.1401 18.442 20.0475 18.4111 19.9548ZM25.8237 16.7118C25.2369 17.1133 24.65 17.5457 24.0323 17.9472C23.8779 18.0399 23.7235 18.1017 23.569 18.1943C24.2794 17.731 25.0207 17.206 25.8237 16.7118ZM24.3412 18.4414C24.5265 18.3488 24.7118 18.2252 24.928 18.1326C24.7736 18.2252 24.6192 18.3179 24.4956 18.4105C22.7351 19.5533 20.9129 20.727 20.0172 21.252C20.0172 21.252 19.9554 21.252 19.9245 21.252C20.9437 20.7579 22.4263 19.8004 24.3412 18.4414ZM20.9129 21.3756C21.685 20.8814 22.9204 20.1093 24.8045 18.9047C24.8971 18.8429 24.9898 18.7812 25.1133 18.7194C24.3721 19.2444 23.6308 19.7695 22.8587 20.3255C22.5189 20.5725 22.1792 20.8196 21.8703 21.0358L21.3144 21.3756C21.1908 21.3756 21.0673 21.3756 20.9437 21.3756H20.9129ZM23.6308 21.252C25.0824 19.9857 29.2211 17.4222 33.4216 15.0131C33.3907 15.1058 33.3289 15.1984 33.2981 15.322C32.5568 15.6308 31.2596 16.4338 29.2211 17.8237C27.4298 18.8429 25.9472 19.8004 25.0824 20.6034C24.6809 20.8505 24.3412 21.0667 24.0323 21.252C23.9088 21.252 23.7852 21.252 23.6617 21.252H23.6308ZM25.3604 21.0976C26.1943 20.5725 27.2136 19.8622 28.5108 18.9974C28.8196 18.7812 29.1594 18.565 29.4991 18.3179C29.6535 18.2252 29.7771 18.1634 29.9315 18.0708C29.1594 18.5958 28.2328 19.2753 27.2444 20.0166C26.5958 20.4799 25.8855 21.0358 25.3604 21.4065C25.2678 21.4065 25.206 21.4065 25.1133 21.3756C25.1751 21.2829 25.2678 21.1903 25.3604 21.0976ZM26.1326 21.53C26.5032 21.252 26.9665 20.9123 27.5842 20.449C28.9123 19.4607 30.7345 18.1017 31.8155 17.5766C31.8155 17.5766 31.8155 17.6075 31.8155 17.6384C28.6034 19.8622 27.0591 20.9741 26.3179 21.5609C26.2561 21.5609 26.1943 21.5609 26.1326 21.53ZM26.9974 21.7462C27.4915 21.3756 28.171 20.8814 28.9123 20.3563C28.2637 20.8505 27.5533 21.4065 26.9974 21.7462ZM30.9507 20.0166C31.8773 19.4607 32.4641 19.0591 32.8348 18.7812C32.8965 18.8429 32.9892 18.9047 33.051 18.9665C31.0434 20.2946 28.974 21.5609 27.9548 22.0859C27.9548 22.0859 27.9239 22.0859 27.893 22.0859C28.5725 21.4991 30.055 20.5725 30.9507 20.0475V20.0166ZM29.0358 22.1477C28.9123 22.2713 28.7887 22.3639 28.6961 22.4566C28.6652 22.4566 28.6034 22.3948 28.5725 22.3948C28.727 22.333 28.8814 22.2404 29.0358 22.1477ZM31.692 20.9741C32.6186 20.3563 33.2981 19.9239 33.7305 19.5533C33.7922 19.6151 33.8231 19.646 33.8849 19.7077C33.3907 20.0166 32.6803 20.5108 31.6611 21.252C30.9199 21.7771 29.9315 22.5183 29.3138 22.8581C29.2829 22.8581 29.2211 22.7963 29.1902 22.7654C29.7153 22.2404 30.9507 21.4373 31.692 20.9741ZM35.3056 21.4682C34.9659 21.6844 34.5026 21.9933 33.7922 22.4875C33.3289 22.8272 32.6495 23.2905 32.0317 23.692L35.0894 21.1903C35.1512 21.2829 35.213 21.3756 35.2747 21.4682H35.3056ZM35.6763 22.0859C35.1512 22.3639 34.4408 22.9199 33.5142 23.6611C32.8656 24.1862 31.9082 24.9274 31.2905 25.2672C32.0626 24.5877 33.854 23.2905 35.6454 22.0551C35.6454 22.0551 35.6454 22.0551 35.6454 22.0859H35.6763ZM36.294 23.3523C35.7998 23.5685 35.1512 23.9391 34.4408 24.3715C35.2439 23.7538 35.7998 23.3214 36.1395 23.0125C36.2013 23.1361 36.2322 23.2596 36.294 23.3523ZM32.9892 24.8039C32.3406 25.2981 31.8773 25.6996 31.5376 25.9775C31.5376 25.9158 31.5067 25.854 31.4758 25.7922C31.8773 25.6069 32.3715 25.2363 32.9892 24.773V24.8039ZM33.7922 21.3138C32.9274 21.9315 31.1669 23.2287 30.2404 23.6611C30.611 23.3831 31.1669 23.0434 31.6302 22.7345C33.1127 21.7771 34.1011 21.1285 34.657 20.6034C34.657 20.6034 34.657 20.6343 34.6879 20.6652C34.4717 20.8196 34.1629 21.0358 33.7922 21.3138ZM29.7771 23.2596C30.3021 22.9507 31.0125 22.4566 31.97 21.7462C32.6803 21.2211 33.6687 20.5108 34.2555 20.171C34.2555 20.171 34.2555 20.171 34.2864 20.2019C33.6687 20.7887 32.2171 21.7153 31.3214 22.3021C30.611 22.7654 30.1168 23.0743 29.808 23.3214C29.808 23.3214 29.808 23.3214 29.7771 23.2905V23.2596ZM30.7036 24.0935L30.6419 24.1553C30.6728 24.1553 30.7036 24.1553 30.7345 24.1244L30.7036 24.0935ZM31.692 26.8732C32.9892 26.0084 34.3173 25.1436 35.3056 24.5568C33.5451 25.9467 32.4024 26.8732 31.6611 27.4909C31.6611 27.2747 31.6611 27.0894 31.6611 26.8732H31.692ZM36.6337 24.2171C36.6646 24.3715 36.7264 24.495 36.7573 24.6495C36.1087 24.9583 35.1203 25.6069 33.6378 26.657C34.5953 25.8849 35.6763 25.0201 36.6337 24.2479V24.2171ZM37.0352 27.7072C36.7881 27.8307 36.4484 28.016 35.9851 28.294C36.4175 27.9851 36.7573 27.7071 37.0352 27.4601C37.0352 27.5527 37.0352 27.6454 37.0352 27.7072ZM33.2672 29.4985C34.7497 28.3866 36.2322 27.3056 37.0352 26.7806C36.3866 27.3983 34.9968 28.3866 33.2672 29.4985ZM36.6028 29.1897C36.6955 29.1897 36.7881 29.1897 36.8499 29.1897C36.819 29.375 36.7573 29.5603 36.7264 29.7456C35.3056 30.8575 31.5067 33.2357 27.6151 35.583C28.0784 35.2124 28.5416 34.8418 29.0358 34.4402C29.7771 33.8534 30.5183 33.2357 31.2596 32.6489C33.8849 31.0428 35.5836 29.9618 36.6028 29.1897ZM35.4601 32.2474C35.0585 32.5253 34.6261 32.7724 34.1629 33.0504C33.9467 33.1739 33.6996 33.3284 33.4525 33.4828C34.0702 33.0195 34.6879 32.5871 35.3056 32.1238C35.5527 31.9385 35.7998 31.7532 36.016 31.5988C35.9542 31.7223 35.8925 31.8767 35.7998 32.0003C35.6763 32.0929 35.5527 32.1856 35.4292 32.2782L35.4601 32.2474ZM21.5923 38.5172C22.8278 37.7141 25.1442 36.3243 27.2444 35.058C27.3989 34.9653 27.5224 34.8726 27.6768 34.8109C25.7928 36.3243 23.9088 37.8068 22.5189 38.5789C22.2101 38.5789 21.9012 38.5789 21.5923 38.5172ZM23.6926 38.5481C25.2369 37.6524 27.6768 36.2007 30.0859 34.7182C32.6495 33.143 34.3791 32.062 35.5527 31.259C35.3983 31.3826 35.213 31.5061 34.9968 31.6605C33.6996 32.618 31.692 34.1314 29.6226 35.5521C29.1902 35.7683 28.7887 35.9845 28.3872 36.1698C26.009 37.3744 24.6809 38.0539 24.0323 38.5481C23.9088 38.5481 23.7852 38.5481 23.6617 38.5481H23.6926ZM26.9974 38.1157C27.0591 38.1157 27.09 38.0539 27.1518 38.023C27.1209 38.023 27.09 38.0848 27.0591 38.0848C27.0591 38.0848 27.0591 38.0848 27.0282 38.0848L26.9974 38.1157ZM20.5422 16.0632C20.7275 16.0632 20.9129 16.0323 21.0982 16.0014C21.0673 16.0014 21.0364 16.0632 21.0055 16.0632C20.2643 16.6192 19.0597 17.484 18.3185 17.8855C18.3493 17.7619 18.4111 17.6075 18.4729 17.484C18.6582 17.2986 18.8744 17.1133 19.0288 16.9898C19.3995 16.6809 19.6465 16.4338 19.8627 16.2176C20.0789 16.125 20.2951 16.0632 20.5422 16.0323V16.0632ZM31.3214 29.097C31.3522 29.0044 31.414 28.9117 31.4449 28.819C31.9082 28.572 32.6186 28.0778 33.7613 27.2747C34.6879 26.6261 36.1395 25.6069 36.9117 25.2054C36.9735 25.5143 37.0352 25.8231 37.0661 26.132C36.3866 26.5335 35.1203 27.4601 32.6186 29.3132C30.9816 30.5178 28.974 32.0312 26.9356 33.4519C24.5265 34.9035 22.3027 36.2007 20.9746 36.9729C20.2025 37.4053 19.5848 37.7759 19.1524 38.0539C19.1215 38.0539 19.0906 38.0848 19.0597 38.1157C18.7509 38.0539 18.4729 37.9612 18.164 37.8995C20.2951 36.7567 24.5883 34.3476 25.5457 32.9577C28.3872 32.4018 30.4566 31.0428 31.3523 29.097H31.3214ZM11.1221 33.2975C11.5236 33.0813 12.1413 32.7106 13.1297 32.1238L11.3074 33.5754C11.2456 33.4828 11.1838 33.3901 11.1221 33.2975ZM10.5352 31.4443C10.597 31.4443 10.6279 31.4134 10.6897 31.3826C10.6279 31.4134 10.597 31.4752 10.5352 31.5061C10.5352 31.5061 10.5352 31.4752 10.5352 31.4443ZM10.8132 32.7724C10.7823 32.7106 10.7514 32.6489 10.7206 32.5562C11.2147 32.3091 11.9251 31.7841 12.9752 30.981C13.5929 30.5178 14.4269 29.8692 14.9519 29.5603C14.9828 29.5603 15.0137 29.6221 15.0446 29.653C14.4269 30.3324 12.6355 31.6296 10.7823 32.7724H10.8132ZM14.4269 29.1897C14.3651 29.2206 14.3342 29.2514 14.2724 29.2823C14.3342 29.2514 14.3651 29.2206 14.396 29.1588L14.4269 29.1897ZM16.002 30.8884C15.6623 31.1046 15.1681 31.4443 14.4577 31.9385C14.0253 32.2474 13.5003 32.5871 12.9752 32.9577L15.8167 30.6722C15.8785 30.734 15.9403 30.8266 16.002 30.8884ZM19.8627 32.7724C19.4612 33.0504 18.9671 33.3284 18.5038 33.6063C18.2567 33.7608 18.0096 33.9152 17.7625 34.0696C18.0096 33.8843 18.2567 33.699 18.442 33.5446C18.9979 33.2048 19.4612 32.9577 19.8319 32.7724H19.8627ZM17.5772 31.9076C17.0521 32.3091 16.0638 32.8651 15.3534 33.2666C14.8901 33.5137 14.4886 33.7608 14.118 33.977C15.1063 33.2975 16.6197 32.2782 17.4845 31.8458C17.5154 31.8458 17.5463 31.8767 17.5772 31.9076ZM16.6506 31.6605C16.7124 31.5988 16.7742 31.537 16.8359 31.4752C16.8359 31.4752 16.8668 31.4752 16.8977 31.5061C16.8051 31.537 16.7433 31.5988 16.6506 31.6296V31.6605ZM15.3225 30.1471C15.3534 30.1162 15.3843 30.0545 15.4152 30.0236C15.4152 30.0236 15.4152 30.0236 15.4152 30.0545C15.3843 30.0545 15.3225 30.1162 15.2917 30.1162L15.3225 30.1471ZM12.6355 33.8225C12.3575 34.0387 12.1413 34.1932 11.956 34.3476C11.956 34.3167 11.8942 34.2858 11.8633 34.2549C12.0795 34.1314 12.3266 34.0078 12.6355 33.8225ZM12.6355 34.9962C12.6355 34.9962 12.6972 34.9653 12.6972 34.9344C12.6972 34.9344 12.6664 34.9653 12.6355 34.9962ZM15.6314 33.7608C15.7549 33.699 15.8785 33.6372 16.002 33.5446C15.0137 34.1932 13.7782 34.9962 13.0988 35.3359C13.6238 34.8726 14.8593 34.1932 15.6314 33.7299V33.7608ZM13.5929 35.7374C14.2107 35.3977 15.1372 34.78 16.5889 33.8534C17.361 33.3592 18.2567 32.7724 18.8126 32.4327C18.8126 32.4327 18.8435 32.4327 18.8744 32.4327C18.72 32.5871 18.5347 32.7724 18.2258 33.0195C16.7124 33.9152 14.9519 35.1506 13.9018 35.8919C13.8091 35.8301 13.7165 35.7683 13.6238 35.7066L13.5929 35.7374ZM14.4269 36.2625C14.7666 36.0463 15.1063 35.8301 15.4152 35.6448C15.0446 35.9228 14.7975 36.1698 14.6122 36.3552C14.5504 36.3243 14.4886 36.2934 14.4269 36.2625ZM18.8435 34.0696C19.7083 33.5446 20.2643 33.1739 20.6349 32.9268C20.6967 32.9268 20.7275 32.9268 20.7893 32.9268C20.0172 33.3901 18.9979 34.0696 17.7007 34.9653C16.8051 35.583 15.7549 36.2625 15.1372 36.6331C15.8476 35.9228 17.8243 34.7182 18.8744 34.0696H18.8435ZM24.0323 33.1122C24.2485 33.1122 24.4647 33.0813 24.6809 33.0504C23.6926 34.0078 21.3144 35.4595 19.1215 36.6949C19.801 36.2007 20.5731 35.6139 21.4379 34.9653C22.2101 34.3785 23.1058 33.6681 23.8779 33.143C23.9397 33.143 24.0014 33.143 24.0632 33.143L24.0323 33.1122ZM22.8278 33.143C22.7351 33.2048 22.6425 33.2666 22.5498 33.3592C22.6425 33.2975 22.7042 33.2357 22.7351 33.143H22.7969H22.8278ZM21.963 33.1122C21.2835 33.6063 20.0789 34.2858 19.245 34.7182C18.8126 34.9653 18.4111 35.1815 18.0714 35.3668C19.1524 34.6564 20.6658 33.6063 21.6541 33.0504C21.7468 33.0504 21.8703 33.0504 21.963 33.0504V33.1122ZM15.6932 36.942C15.7858 36.8802 15.8785 36.8185 15.9711 36.7567C15.8785 36.8185 15.8167 36.9111 15.7549 36.9729C15.7549 36.9729 15.6932 36.9729 15.6623 36.942H15.6932ZM16.3109 37.22C16.8668 36.664 18.3185 35.8919 19.4921 35.2433C20.5113 34.6873 21.3144 34.2549 21.9012 33.8534C21.6232 34.0696 21.3453 34.2858 21.0364 34.5329C19.6774 35.583 17.9169 36.942 16.8668 37.4671C16.6815 37.4053 16.4962 37.3126 16.3109 37.2509V37.22ZM13.5929 28.9117C12.481 29.653 11.3692 30.3633 10.6588 30.7648C10.6588 30.6722 10.7206 30.5795 10.7514 30.4869C11.0603 30.1471 11.4618 29.7456 11.7089 29.4985C11.8324 29.375 11.956 29.2514 12.0486 29.1588C12.4193 29.0044 12.7899 28.9117 13.1914 28.9117C13.5929 28.9117 13.4694 28.9117 13.5929 28.9117Z" fill="#3CBCFF"/>
<path d="M5.58479 30.5181C5.61567 30.5181 5.67745 30.5181 5.70833 30.5181C5.95542 30.5181 6.2025 30.3328 6.26427 30.0857C6.32604 29.7769 6.14073 29.468 5.83187 29.4062C5.39947 29.3136 5.02884 29.1283 4.65821 28.8812C4.41113 28.6959 4.0405 28.7576 3.88607 29.0047C3.70075 29.2518 3.76253 29.6224 4.00962 29.7769C4.50379 30.1166 5.02884 30.3637 5.61567 30.4872L5.58479 30.5181Z" fill="#3CBCFF"/>
<path d="M9.32221 31.2906C9.63107 31.2906 9.87816 31.0435 9.87816 30.7347C9.87816 30.4258 9.63107 30.1787 9.32221 30.1787H8.79716C8.4883 30.1787 8.24121 30.4258 8.24121 30.7347C8.24121 31.0435 8.4883 31.2906 8.79716 31.2906H9.32221Z" fill="#3CBCFF"/>
<path d="M0.519745 1.91809C0.612402 1.97987 0.735942 2.04164 0.859486 2.04164C1.01391 2.04164 1.19923 1.97987 1.29189 1.82544C1.29189 1.82544 1.29189 1.82544 1.35366 1.82544C1.66252 1.82544 1.9096 1.54747 1.87872 1.23861C1.87872 0.92975 1.60075 0.682664 1.29189 0.71355C0.92126 0.71355 0.612401 0.898864 0.427087 1.17684C0.241772 1.42392 0.303542 1.79455 0.550628 1.97987L0.519745 1.91809Z" fill="#3CBCFF"/>
<path d="M14.4493 1.11482C17.3834 1.51634 20.2558 4.4196 21.4603 6.95223C21.553 7.16843 21.7692 7.26109 21.9545 7.26109C22.1398 7.26109 22.1089 7.26109 22.2016 7.19932C22.4796 7.07577 22.6031 6.73603 22.4796 6.45806C21.1515 3.67834 17.9085 0.466221 14.6037 0.00293439C14.2948 -0.0279514 14.0169 0.188249 13.9551 0.497107C13.9242 0.805964 14.1404 1.08394 14.4493 1.14571V1.11482Z" fill="#3CBCFF"/>
<path d="M22.5724 9.8867C22.6342 10.1338 22.8504 10.3191 23.1283 10.3191C23.4063 10.3191 23.221 10.3191 23.2519 10.3191C23.5607 10.2573 23.7461 9.94847 23.6843 9.63962C23.6225 9.36164 23.5607 9.08367 23.5299 8.8057C23.5299 8.49684 23.221 8.28064 22.9121 8.31153C22.6033 8.31153 22.3871 8.62039 22.418 8.92924C22.4489 9.26899 22.5106 9.60873 22.5724 9.91759V9.8867Z" fill="#3CBCFF"/>
<path d="M25.1666 31.3209C24.8578 31.3209 24.5798 31.5371 24.5798 31.846C24.5798 31.9078 24.5798 32.0004 24.5489 32.0622C24.4563 32.371 24.6107 32.6799 24.8887 32.7726C24.9504 32.7726 25.0122 32.8034 25.074 32.8034C25.321 32.8034 25.5373 32.649 25.599 32.4328C25.6608 32.2475 25.6917 32.0622 25.7226 31.8769C25.7226 31.568 25.5064 31.29 25.1975 31.29L25.1666 31.3209Z" fill="#3CBCFF"/>
<path d="M24.3944 33.6689C24.1473 33.4836 23.8075 33.5145 23.5913 33.7616C23.2207 34.2249 22.7883 34.6882 22.3868 35.1515C21.9853 35.6147 21.5529 36.1089 21.1514 36.6031C20.966 36.8502 20.9969 37.1899 21.244 37.4061C21.3367 37.4988 21.4602 37.5297 21.6146 37.5297C21.7691 37.5297 21.9544 37.4679 22.047 37.3135C22.4486 36.8502 22.8501 36.356 23.2516 35.8927C23.6531 35.4294 24.0855 34.9353 24.487 34.472C24.6723 34.2249 24.6414 33.8851 24.3944 33.6689Z" fill="#3CBCFF"/>
</svg>
